<svg xmlns="http://www.w3.org/2000/svg" width="48.22" height="42.831" viewBox="0 0 48.22 42.831">
  <g id="caution" transform="translate(0 -28.612)">
    <path id="Path_23435" data-name="Path 23435" d="M47.672,65.383,27.609,30.632a4.04,4.04,0,0,0-7,0L.547,65.383a4.04,4.04,0,0,0,3.5,6.06H44.174a4.04,4.04,0,0,0,3.5-6.06Zm-1.223,3.334a2.6,2.6,0,0,1-2.276,1.314H4.046a2.628,2.628,0,0,1-2.276-3.941L21.834,31.338a2.628,2.628,0,0,1,4.551,0L46.449,66.089h0A2.6,2.6,0,0,1,46.449,68.717Z" transform="translate(0)" fill="#fff"/>
    <path id="Path_23436" data-name="Path 23436" d="M281.887,145.275a.706.706,0,0,0-1.223.706l14.362,24.876H283.541a.706.706,0,0,0,0,1.413h12.708a.706.706,0,0,0,.612-1.059Z" transform="translate(-254.147 -105.356)" fill="#fff"/>
    <path id="Path_23437" data-name="Path 23437" d="M70.874,120.566H59.389L76.158,91.521l.819,1.419a.706.706,0,0,0,1.223-.706L76.77,89.755a.706.706,0,0,0-1.223,0L57.554,120.92a.706.706,0,0,0,.612,1.059H70.874a.706.706,0,1,0,0-1.413Z" transform="translate(-52.048 -55.065)" fill="#fff"/>
    <path id="Path_23438" data-name="Path 23438" d="M227.439,380.243a2.971,2.971,0,1,0,2.971,2.971A2.974,2.974,0,0,0,227.439,380.243Zm0,4.53A1.558,1.558,0,1,1,229,383.214,1.56,1.56,0,0,1,227.439,384.773Z" transform="translate(-203.329 -318.516)" fill="#fff"/>
    <path id="Path_23439" data-name="Path 23439" d="M226.362,195.872a1.461,1.461,0,0,0-1.459,1.538l.675,12.834a1.461,1.461,0,0,0,1.459,1.384h1.587a1.461,1.461,0,0,0,1.459-1.384l.675-12.834a1.461,1.461,0,0,0-1.459-1.538Zm2.987,1.464-.675,12.834a.049.049,0,0,1-.049.046h-1.587a.049.049,0,0,1-.049-.046l-.675-12.834a.049.049,0,0,1,.049-.051H229.3a.049.049,0,0,1,.049.051Z" transform="translate(-203.721 -151.508)" fill="#fff"/>
  </g>
</svg>
