<svg xmlns="http://www.w3.org/2000/svg" width="42.831" height="42.831" viewBox="0 0 42.831 42.831">
  <path id="circuit" d="M25.381,38.971l-1.343,3.49a.579.579,0,0,1-.54.371H19.333a.579.579,0,0,1-.54-.371l-1.23-3.2a18.063,18.063,0,0,1-6.042-2.505L8.389,38.151a.58.58,0,0,1-.644-.12L4.8,35.086a.578.578,0,0,1-.12-.644l1.391-3.131a18.064,18.064,0,0,1-2.505-6.043L.371,24.038A.579.579,0,0,1,0,23.5V19.333a.579.579,0,0,1,.371-.54l3.2-1.23a18.046,18.046,0,0,1,2.505-6.043L4.68,8.389a.579.579,0,0,1,.12-.644L7.745,4.8a.578.578,0,0,1,.644-.12l3.131,1.391a18.056,18.056,0,0,1,6.042-2.505l1.23-3.2A.579.579,0,0,1,19.333,0H23.5a.579.579,0,0,1,.54.371l1.344,3.491a.579.579,0,0,1-1.08.416l-1.2-3.12h-3.37l-1.2,3.12a.578.578,0,0,1-.428.36,16.932,16.932,0,0,0-6.2,2.571.579.579,0,0,1-.557.049L8.282,5.9,5.9,8.282,7.258,11.34a.579.579,0,0,1-.049.557,16.915,16.915,0,0,0-2.572,6.2.578.578,0,0,1-.36.428l-3.12,1.2V23.1l3.119,1.2a.578.578,0,0,1,.36.428,16.937,16.937,0,0,0,2.572,6.2.579.579,0,0,1,.049.557L5.9,34.549l2.383,2.383,3.058-1.358a.579.579,0,0,1,.557.049,16.924,16.924,0,0,0,6.2,2.571.578.578,0,0,1,.428.36l1.2,3.12H23.1l1.2-3.119a.579.579,0,1,1,1.08.416Zm-8.46-10.11a.579.579,0,0,0,.6-.99,7.541,7.541,0,0,1,0-12.91.579.579,0,0,0-.6-.99,8.7,8.7,0,0,0,0,14.891Zm25.91-7.445a2.692,2.692,0,0,1-5.321.579H21.994v2.63h5.869a.579.579,0,0,1,.409.17l2.132,2.133h1.437a2.693,2.693,0,1,1,0,1.158H30.166a.579.579,0,0,1-.409-.17l-2.132-2.133h-5.63v2.63h4.76a.579.579,0,0,1,.409.17l4.125,4.125a.579.579,0,0,1,.17.409v2.066a2.671,2.671,0,1,1-1.158,0V33.355L26.515,29.57h-4.52v4.157a.579.579,0,0,1-.579.579,12.89,12.89,0,0,1,0-25.779.579.579,0,0,1,.579.579v4.157h4.52L30.3,9.476V7.65a2.68,2.68,0,1,1,1.275-.025c-.039.01-.079.015-.118.023V9.716a.579.579,0,0,1-.17.409l-4.125,4.125a.579.579,0,0,1-.409.17h-4.76v2.63h5.485L30,14.529a.579.579,0,0,1,.409-.17h1.435a2.693,2.693,0,1,1,0,1.158h-1.2l-2.519,2.52a.579.579,0,0,1-.409.17H21.994v2.63H37.51a2.692,2.692,0,0,1,5.321.579Zm-9.895-6.477A1.535,1.535,0,1,0,34.471,13.4,1.537,1.537,0,0,0,32.936,14.939ZM30.111,6.354a1.535,1.535,0,1,0,.77-2.866,1.545,1.545,0,0,0-.4.053,1.535,1.535,0,0,0-.37,2.813ZM20.837,9.7a11.732,11.732,0,0,0,0,23.436ZM30.876,36.272a1.535,1.535,0,1,0,1.332.767,1.527,1.527,0,0,0-1.332-.767Zm2.06-8.767a1.535,1.535,0,1,0,1.535-1.535A1.537,1.537,0,0,0,32.936,27.505Zm8.737-6.09a1.535,1.535,0,1,0-1.535,1.535,1.537,1.537,0,0,0,1.535-1.535Z" transform="translate(0 0)" fill="#b89535"/>
</svg>
