<svg xmlns="http://www.w3.org/2000/svg" width="43.649" height="42.831" viewBox="0 0 43.649 42.831">
  <g id="fast-time" transform="translate(0 -4.796)">
    <g id="Group_27886" data-name="Group 27886" transform="translate(0 4.796)">
      <path id="Path_23446" data-name="Path 23446" d="M63.968,22.71a17.067,17.067,0,0,0-6.447-6.968l.954-2.9.836.275a1.586,1.586,0,0,0,2-1.009l.752-2.282a1.585,1.585,0,0,0-1.009-2L57.991,6.823a.639.639,0,0,0-.4,1.215l3.062,1.008a.308.308,0,0,1,.194.384L60.1,11.711a.308.308,0,0,1-.384.194L50.736,8.949a.3.3,0,0,1-.173-.151.306.306,0,0,1-.018-.233L51.3,6.283a.307.307,0,0,1,.384-.194l3.182,1.049a.639.639,0,0,0,.4-1.214L52.08,4.875a1.586,1.586,0,0,0-2,1.009L49.33,8.166a1.584,1.584,0,0,0,1.007,2l.837.276-.956,2.9a17.025,17.025,0,0,0-3.937.09.639.639,0,1,0,.175,1.267A15.9,15.9,0,0,1,63.732,35.421,15.9,15.9,0,1,1,43.669,15.34a.639.639,0,1,0-.4-1.214,17.28,17.28,0,0,0-3.128,1.391H35.018a.639.639,0,0,0,0,1.279h3.189a17,17,0,0,0-5.677,7.672H28.059a.639.639,0,1,0,0,1.279h4.051a17.055,17.055,0,0,0-.407,7.67H24.874a.639.639,0,1,0,0,1.279h7.107a17.373,17.373,0,0,0,4.268,7.672H30.5a.639.639,0,0,0,0,1.279h7.119A17.184,17.184,0,0,0,63.968,22.71Zm-12.461-9.2.88-2.668,4.873,1.6-.879,2.669a17.469,17.469,0,0,0-4.875-1.606Z" transform="translate(-22.169 -4.796)" fill="#fff"/>
      <path id="Path_23447" data-name="Path 23447" d="M.639,131.833h7.95a.639.639,0,1,0,0-1.279H.639a.639.639,0,0,0,0,1.279Z" transform="translate(0 -119.833)" fill="#fff"/>
      <path id="Path_23448" data-name="Path 23448" d="M30.628,183.049a.639.639,0,1,0,0,1.279h6.01a.639.639,0,1,0,0-1.279Z" transform="translate(-27.432 -167.853)" fill="#fff"/>
      <path id="Path_23449" data-name="Path 23449" d="M5.776,288.65a.639.639,0,0,0-.639-.639H.639a.639.639,0,0,0,0,1.279h4.5A.639.639,0,0,0,5.776,288.65Z" transform="translate(0 -263.866)" fill="#fff"/>
      <path id="Path_23450" data-name="Path 23450" d="M50.414,393.641a.639.639,0,0,0-.639-.639H46.643a.639.639,0,0,0,0,1.279h3.132A.639.639,0,0,0,50.414,393.641Z" transform="translate(-42.082 -359.907)" fill="#fff"/>
      <path id="Path_23451" data-name="Path 23451" d="M152.38,156.224a13.529,13.529,0,0,0,25.7,8.464l.005-.016.005-.017a13.549,13.549,0,0,0-12.677-17.734,13.406,13.406,0,0,0-4.081.575,13.7,13.7,0,0,0-2.2.88A13.445,13.445,0,0,0,152.38,156.224Zm24.676,7.427L168,160.666a2.77,2.77,0,0,0-1.308-2.593l2.977-9.038A12.27,12.27,0,0,1,177.056,163.65Zm-11.148-1.89a1.489,1.489,0,1,1-.206-2.744h0a1.489,1.489,0,0,1,.948,1.879h0A1.477,1.477,0,0,1,165.908,161.761Zm-.691-13.562a12.232,12.232,0,0,1,3.232.437l-2.977,9.038a2.75,2.75,0,0,0-1.482.287,2.8,2.8,0,0,0-.443.279l-4.265-3.888a.639.639,0,1,0-.861.945l4.321,3.939a2.811,2.811,0,0,0-.133.331,2.767,2.767,0,0,0,1.763,3.494,2.793,2.793,0,0,0,.558.12l.217,1.86a.639.639,0,0,0,.634.565.656.656,0,0,0,.075,0,.639.639,0,0,0,.561-.709l-.218-1.866a2.825,2.825,0,0,0,.285-.124,2.747,2.747,0,0,0,1.111-1.021l9.064,2.985a12.15,12.15,0,0,1-5.333,6.214l-.713-1.415a.639.639,0,0,0-1.142.576l.714,1.417a12.147,12.147,0,0,1-8.175.615l.5-1.511a.639.639,0,1,0-1.214-.4l-.5,1.511a12.2,12.2,0,0,1-6.2-5.355l1.41-.711a.639.639,0,1,0-.576-1.142l-1.408.71a12.2,12.2,0,0,1-.6-8.165l1.489.491a.639.639,0,0,0,.4-1.214L153.82,156a12.154,12.154,0,0,1,5.344-6.186l.7,1.385a.639.639,0,0,0,1.141-.577l-.7-1.383A12.164,12.164,0,0,1,165.218,148.2Z" transform="translate(-138.768 -134.803)" fill="#fff"/>
    </g>
  </g>
</svg>
