<svg id="Group_88747" data-name="Group 88747" xmlns="http://www.w3.org/2000/svg" xmlns:xlink="http://www.w3.org/1999/xlink" width="495.565" height="538.613" viewBox="0 0 495.565 538.613">
  <defs>
    <clipPath id="clip-path">
      <rect id="Rectangle_3163" data-name="Rectangle 3163" width="495.565" height="538.613" fill="none"/>
    </clipPath>
    <clipPath id="clip-path-2">
      <rect id="Rectangle_3214" data-name="Rectangle 3214" width="59" height="56" transform="translate(674.016 3693.21)" fill="#fff" stroke="#707070" stroke-width="1"/>
    </clipPath>
    <clipPath id="clip-path-3">
      <path id="Path_104915" data-name="Path 104915" d="M12.341,79.591c.894,2.913,1.555,5.824,2.42,6.452,2.664,1.935,8.016.144,11.181,2.442,3,2.179,2.318,9.6,5.072,9.923,2.843.337,2.557-3.846,3.487-7.124A33.635,33.635,0,0,1,39.175,81a21.74,21.74,0,0,0-4.72-4.552,18.953,18.953,0,0,0-5.682-2.687A33.593,33.593,0,0,0,17.62,72.5l-.2.018-.007-.009c-3.1.155-6.542,1.413-7.5-.539.434,1.324,1.518,4.653,2.43,7.624" transform="translate(-9.911 -71.967)" fill="none"/>
    </clipPath>
    <clipPath id="clip-path-4">
      <path id="Path_104958" data-name="Path 104958" d="M72.455,78.307a18.984,18.984,0,0,0-4.312,4.574A33.6,33.6,0,0,0,63.5,93.1c-.016.066-.032.134-.045.2l-.011,0c-.81,2.993-.677,6.658-2.831,6.968,1.393,0,4.9-.006,8,.045,3.047.049,6.018.32,6.883-.308,2.664-1.935,2.614-7.58,5.777-9.879,1.451-1.053,3.8-.909,5.976-.765,2.317.154,4.431.308,5.03-.993,1.2-2.6-2.867-3.62-5.7-5.517a33.635,33.635,0,0,1-8.337-7.624,21.725,21.725,0,0,0-5.788,3.082" transform="translate(-60.609 -75.225)" fill="none"/>
    </clipPath>
    <clipPath id="clip-path-5">
      <path id="Path_104960" data-name="Path 104960" d="M21.544,9.346c-2.494,1.75-5.058,3.278-5.388,4.294-1.018,3.132,2.341,7.669,1.133,11.388-1.145,3.524-8.412,5.171-7.871,7.89.559,2.809,4.448,1.244,7.852,1.115A33.659,33.659,0,0,1,28.5,35.3a21.749,21.749,0,0,0,2.871-5.9,18.955,18.955,0,0,0,.8-6.234,33.606,33.606,0,0,0-2.244-11c-.027-.063-.054-.127-.079-.185l.006-.009c-1.1-2.9-3.366-5.785-1.805-7.3-1.124.822-3.957,2.882-6.5,4.667" transform="translate(-9.389 -4.679)" fill="none"/>
    </clipPath>
    <clipPath id="clip-path-6">
      <path id="Path_104996" data-name="Path 104996" d="M101.922,28.605a33.646,33.646,0,0,1-9.828,5.573,21.76,21.76,0,0,0,1.144,6.457,18.968,18.968,0,0,0,3.017,5.513,33.6,33.6,0,0,0,8.279,7.578l.173.1s0,.007,0,.01c2.6,1.7,6.122,2.7,5.751,4.846.428-1.326,1.507-4.658,2.517-7.6.987-2.882,2.164-5.624,1.834-6.642-1.017-3.131-6.4-4.828-7.61-8.548-1.145-3.524,3.766-9.127,1.729-11.01a1.874,1.874,0,0,0-1.3-.562c-1.727,0-3.575,2.6-5.711,4.276" transform="translate(-92.094 -24.329)" fill="none"/>
    </clipPath>
    <clipPath id="clip-path-7">
      <rect id="Rectangle_3213" data-name="Rectangle 3213" width="58.987" height="74.933" fill="none"/>
    </clipPath>
  </defs>
  <g id="Group_88746" data-name="Group 88746" clip-path="url(#clip-path)">
    <path id="Path_104814" data-name="Path 104814" d="M313.379,148.3a277.384,277.384,0,0,1-62.354-17.662,276.952,276.952,0,0,1-43.973-23.067,276.948,276.948,0,0,1-43.973,23.067A277.383,277.383,0,0,1,100.726,148.3c-1.409,10.219-14,112.949,54.785,168.321a141.212,141.212,0,0,0,51.542,25.951,141.2,141.2,0,0,0,51.541-25.951C327.379,261.251,314.787,158.522,313.379,148.3Z" transform="translate(40.73 44.287)" fill="none" stroke="#fff" stroke-width="1" stroke-dasharray="10 10"/>
    <path id="Path_104815" data-name="Path 104815" d="M397.531,122.356A446.779,446.779,0,0,1,297.114,93.915,446.077,446.077,0,0,1,226.3,56.765a446.138,446.138,0,0,1-70.814,37.15A446.82,446.82,0,0,1,55.068,122.356C52.8,138.815,32.52,304.252,143.3,393.425c27.1,21.812,56.339,34.478,83,41.793,26.664-7.315,55.907-19.981,83-41.793C420.077,304.252,399.8,138.815,397.531,122.356Z" transform="translate(21.484 23.369)" fill="none" stroke="#fff" stroke-width="1" stroke-dasharray="10 10" opacity="0.4"/>
    <path id="Path_104816" data-name="Path 104816" d="M490.562,93.67a633.916,633.916,0,0,1-142.5-40.359A633.029,633.029,0,0,1,247.576.6,633.028,633.028,0,0,1,147.087,53.312,633.916,633.916,0,0,1,4.59,93.67C1.373,117.026-27.4,351.79,129.789,478.33c38.45,30.953,79.948,48.926,117.787,59.306,37.839-10.38,79.335-28.354,117.787-59.306C522.557,351.79,493.779,117.026,490.562,93.67Z" transform="translate(0.206 0.245)" fill="none" stroke="#fff" stroke-width="1" stroke-dasharray="10 10" opacity="0.15"/>
    <g id="Mask_Group_145" data-name="Mask Group 145" transform="translate(-455.234 -3452.673)" clip-path="url(#clip-path-2)">
      <g id="Group_88758" data-name="Group 88758" transform="translate(674.206 3692.866)">
        <g id="Group_88749" data-name="Group 88749" transform="translate(0.736 29.568)">
          <g id="Group_88748" data-name="Group 88748" transform="translate(0)" clip-path="url(#clip-path-3)">
            <path id="Path_104817" data-name="Path 104817" d="M27.711,90.365v2.96l.717.717h.339V89.649h-.339Z" transform="translate(-20.086 -82.074)" fill="#fff"/>
            <rect id="Rectangle_3164" data-name="Rectangle 3164" width="2.037" height="4.393" transform="translate(8.817 26.008)" fill="#fff"/>
            <path id="Path_104818" data-name="Path 104818" d="M27.711,101.123v2.959l.717.717h.339v-4.393h-.339Z" transform="translate(-20.086 -88.224)" fill="#fff"/>
            <path id="Path_104819" data-name="Path 104819" d="M24.814,121.924v4.393h.313l.717-.717v-2.96l-.717-.717Z" transform="translate(-18.43 -100.524)" fill="#fff"/>
            <path id="Path_104820" data-name="Path 104820" d="M27.711,68.849v2.96l.717.717h.339V68.132h-.339Z" transform="translate(-20.086 -69.775)" fill="#fff"/>
            <rect id="Rectangle_3165" data-name="Rectangle 3165" width="2.037" height="4.393" transform="translate(8.817 12.183)" fill="#fff"/>
            <rect id="Rectangle_3166" data-name="Rectangle 3166" width="2.037" height="4.393" transform="translate(8.817 21.4)" fill="#fff"/>
            <rect id="Rectangle_3167" data-name="Rectangle 3167" width="2.037" height="4.393" transform="translate(8.817 7.574)" fill="#fff"/>
            <rect id="Rectangle_3168" data-name="Rectangle 3168" width="2.037" height="4.393" transform="translate(8.817 16.791)" fill="#fff"/>
            <path id="Path_104821" data-name="Path 104821" d="M24.814,111.165v4.393h.313l.717-.716v-2.96l-.717-.717Z" transform="translate(-18.43 -94.374)" fill="#fff"/>
            <path id="Path_104822" data-name="Path 104822" d="M27.711,111.882v2.959l.717.717h.339v-4.393h-.339Z" transform="translate(-20.086 -94.374)" fill="#fff"/>
            <path id="Path_104823" data-name="Path 104823" d="M24.814,89.648v4.393h.313l.717-.717v-2.96l-.717-.717Z" transform="translate(-18.43 -82.074)" fill="#fff"/>
            <rect id="Rectangle_3169" data-name="Rectangle 3169" width="2.037" height="4.393" transform="translate(8.817 2.966)" fill="#fff"/>
            <path id="Path_104824" data-name="Path 104824" d="M24.814,78.89v4.393h.313l.717-.717v-2.96l-.717-.717Z" transform="translate(-18.43 -75.924)" fill="#fff"/>
            <path id="Path_104825" data-name="Path 104825" d="M24.814,100.407V104.8h.313l.717-.717v-2.959l-.717-.717Z" transform="translate(-18.43 -88.224)" fill="#fff"/>
            <path id="Path_104826" data-name="Path 104826" d="M24.814,68.132v4.393h.313l.717-.717v-2.96l-.717-.717Z" transform="translate(-18.43 -69.775)" fill="#fff"/>
            <path id="Path_104827" data-name="Path 104827" d="M27.711,122.641v2.96l.717.717h.339v-4.393h-.339Z" transform="translate(-20.086 -100.524)" fill="#fff"/>
            <path id="Path_104828" data-name="Path 104828" d="M27.711,133.4v2.96l.717.717h.339v-4.393h-.339Z" transform="translate(-20.086 -106.674)" fill="#fff"/>
            <path id="Path_104829" data-name="Path 104829" d="M27.711,79.606v2.96l.717.717h.339V78.89h-.339Z" transform="translate(-20.086 -75.924)" fill="#fff"/>
            <path id="Path_104830" data-name="Path 104830" d="M38.46,79.606v2.96l.717.717h.34V78.89h-.34Z" transform="translate(-26.231 -75.924)" fill="#fff"/>
            <path id="Path_104831" data-name="Path 104831" d="M38.46,68.849v2.96l.717.717h.34V68.132h-.34Z" transform="translate(-26.231 -69.775)" fill="#fff"/>
            <path id="Path_104832" data-name="Path 104832" d="M38.46,101.123v2.959l.717.717h.34v-4.393h-.34Z" transform="translate(-26.231 -88.224)" fill="#fff"/>
            <path id="Path_104833" data-name="Path 104833" d="M38.46,111.882v2.959l.717.717h.34v-4.393h-.34Z" transform="translate(-26.231 -94.374)" fill="#fff"/>
            <rect id="Rectangle_3170" data-name="Rectangle 3170" width="2.037" height="4.393" transform="translate(13.421 21.4)" fill="#fff"/>
            <rect id="Rectangle_3171" data-name="Rectangle 3171" width="2.037" height="4.393" transform="translate(13.421 26.008)" fill="#fff"/>
            <rect id="Rectangle_3172" data-name="Rectangle 3172" width="2.037" height="4.393" transform="translate(13.421 16.791)" fill="#fff"/>
            <path id="Path_104834" data-name="Path 104834" d="M38.46,122.641v2.96l.717.717h.34v-4.393h-.34Z" transform="translate(-26.231 -100.524)" fill="#fff"/>
            <path id="Path_104835" data-name="Path 104835" d="M35.563,68.132v4.393h.313l.717-.717v-2.96l-.717-.717Z" transform="translate(-24.575 -69.775)" fill="#fff"/>
            <path id="Path_104836" data-name="Path 104836" d="M35.563,111.165v4.393h.313l.717-.716v-2.96l-.717-.717Z" transform="translate(-24.575 -94.374)" fill="#fff"/>
            <path id="Path_104837" data-name="Path 104837" d="M35.563,121.924v4.393h.313l.717-.717v-2.96l-.717-.717Z" transform="translate(-24.575 -100.524)" fill="#fff"/>
            <path id="Path_104838" data-name="Path 104838" d="M35.563,132.682v4.393h.313l.717-.717V133.4l-.717-.717Z" transform="translate(-24.575 -106.674)" fill="#fff"/>
            <path id="Path_104839" data-name="Path 104839" d="M35.563,100.407V104.8h.313l.717-.717v-2.959l-.717-.717Z" transform="translate(-24.575 -88.224)" fill="#fff"/>
            <path id="Path_104840" data-name="Path 104840" d="M38.46,133.4v2.96l.717.717h.34v-4.393h-.34Z" transform="translate(-26.231 -106.674)" fill="#fff"/>
            <path id="Path_104841" data-name="Path 104841" d="M35.563,89.648v4.393h.313l.717-.717v-2.96l-.717-.717Z" transform="translate(-24.575 -82.074)" fill="#fff"/>
            <rect id="Rectangle_3173" data-name="Rectangle 3173" width="2.037" height="4.393" transform="translate(8.817 -1.643)" fill="#fff"/>
            <path id="Path_104842" data-name="Path 104842" d="M35.563,78.89v4.393h.313l.717-.717v-2.96l-.717-.717Z" transform="translate(-24.575 -75.924)" fill="#fff"/>
            <rect id="Rectangle_3174" data-name="Rectangle 3174" width="2.037" height="4.393" transform="translate(13.421 12.183)" fill="#fff"/>
            <rect id="Rectangle_3175" data-name="Rectangle 3175" width="2.037" height="4.393" transform="translate(-0.392 7.574)" fill="#fff"/>
            <rect id="Rectangle_3176" data-name="Rectangle 3176" width="2.037" height="4.393" transform="translate(-0.392 12.183)" fill="#fff"/>
            <path id="Path_104843" data-name="Path 104843" d="M24.814,132.682v4.393h.313l.717-.717V133.4l-.717-.717Z" transform="translate(-18.43 -106.674)" fill="#fff"/>
            <rect id="Rectangle_3177" data-name="Rectangle 3177" width="2.037" height="4.393" transform="translate(-0.392 16.791)" fill="#fff"/>
            <rect id="Rectangle_3178" data-name="Rectangle 3178" width="2.037" height="4.393" transform="translate(-0.392 -1.643)" fill="#fff"/>
            <path id="Path_104844" data-name="Path 104844" d="M14.067,121.924v4.393h.312l.717-.717v-2.96l-.717-.717Z" transform="translate(-12.287 -100.524)" fill="#fff"/>
            <path id="Path_104845" data-name="Path 104845" d="M14.067,111.165v4.393h.312l.717-.716v-2.96l-.717-.717Z" transform="translate(-12.287 -94.374)" fill="#fff"/>
            <path id="Path_104846" data-name="Path 104846" d="M14.067,132.682v4.393h.312l.717-.717V133.4l-.717-.717Z" transform="translate(-12.287 -106.674)" fill="#fff"/>
            <rect id="Rectangle_3179" data-name="Rectangle 3179" width="2.037" height="4.393" transform="translate(-0.392 21.4)" fill="#fff"/>
            <rect id="Rectangle_3180" data-name="Rectangle 3180" width="2.037" height="4.393" transform="translate(-0.392 26.008)" fill="#fff"/>
            <path id="Path_104847" data-name="Path 104847" d="M6.215,111.882v2.959l.717.717h.339v-4.393H6.932Z" transform="translate(-7.798 -94.374)" fill="#fff"/>
            <path id="Path_104848" data-name="Path 104848" d="M6.215,122.641v2.96l.717.717h.339v-4.393H6.932Z" transform="translate(-7.798 -100.524)" fill="#fff"/>
            <path id="Path_104849" data-name="Path 104849" d="M6.215,133.4v2.96l.717.717h.339v-4.393H6.932Z" transform="translate(-7.798 -106.674)" fill="#fff"/>
            <path id="Path_104850" data-name="Path 104850" d="M6.215,101.123v2.959l.717.717h.339v-4.393H6.932Z" transform="translate(-7.798 -88.224)" fill="#fff"/>
            <path id="Path_104851" data-name="Path 104851" d="M6.215,90.365v2.96l.717.717h.339V89.649H6.932Z" transform="translate(-7.798 -82.074)" fill="#fff"/>
            <path id="Path_104852" data-name="Path 104852" d="M6.215,68.849v2.96l.717.717h.339V68.132H6.932Z" transform="translate(-7.798 -69.775)" fill="#fff"/>
            <path id="Path_104853" data-name="Path 104853" d="M14.067,100.407V104.8h.312l.717-.717v-2.959l-.717-.717Z" transform="translate(-12.287 -88.224)" fill="#fff"/>
            <path id="Path_104854" data-name="Path 104854" d="M6.215,79.606v2.96l.717.717h.339V78.89H6.932Z" transform="translate(-7.798 -75.924)" fill="#fff"/>
            <rect id="Rectangle_3181" data-name="Rectangle 3181" width="2.037" height="4.393" transform="translate(-0.392 2.966)" fill="#fff"/>
            <rect id="Rectangle_3182" data-name="Rectangle 3182" width="2.037" height="4.393" transform="translate(4.212 12.183)" fill="#fff"/>
            <rect id="Rectangle_3183" data-name="Rectangle 3183" width="2.037" height="4.393" transform="translate(4.212 16.791)" fill="#fff"/>
            <rect id="Rectangle_3184" data-name="Rectangle 3184" width="2.037" height="4.393" transform="translate(4.212 21.4)" fill="#fff"/>
            <rect id="Rectangle_3185" data-name="Rectangle 3185" width="2.037" height="4.393" transform="translate(4.212 26.008)" fill="#fff"/>
            <rect id="Rectangle_3186" data-name="Rectangle 3186" width="2.037" height="4.393" transform="translate(4.212 -1.643)" fill="#fff"/>
            <path id="Path_104855" data-name="Path 104855" d="M16.962,68.849v2.96l.717.717h.34V68.132h-.34Z" transform="translate(-13.942 -69.775)" fill="#fff"/>
            <path id="Path_104856" data-name="Path 104856" d="M14.067,89.648v4.393h.312l.717-.717v-2.96l-.717-.717Z" transform="translate(-12.287 -82.074)" fill="#fff"/>
            <rect id="Rectangle_3187" data-name="Rectangle 3187" width="2.037" height="4.393" transform="translate(4.212 7.574)" fill="#fff"/>
            <rect id="Rectangle_3188" data-name="Rectangle 3188" width="2.037" height="4.393" transform="translate(4.212 2.966)" fill="#fff"/>
            <path id="Path_104857" data-name="Path 104857" d="M14.067,68.132v4.393h.312l.717-.717v-2.96l-.717-.717Z" transform="translate(-12.287 -69.775)" fill="#fff"/>
            <path id="Path_104858" data-name="Path 104858" d="M16.962,122.641v2.96l.717.717h.34v-4.393h-.34Z" transform="translate(-13.942 -100.524)" fill="#fff"/>
            <path id="Path_104859" data-name="Path 104859" d="M16.962,133.4v2.96l.717.717h.34v-4.393h-.34Z" transform="translate(-13.942 -106.674)" fill="#fff"/>
            <path id="Path_104860" data-name="Path 104860" d="M16.962,79.606v2.96l.717.717h.34V78.89h-.34Z" transform="translate(-13.942 -75.924)" fill="#fff"/>
            <path id="Path_104861" data-name="Path 104861" d="M14.067,78.89v4.393h.312l.717-.717v-2.96l-.717-.717Z" transform="translate(-12.287 -75.924)" fill="#fff"/>
            <path id="Path_104862" data-name="Path 104862" d="M16.962,90.365v2.96l.717.717h.34V89.649h-.34Z" transform="translate(-13.942 -82.074)" fill="#fff"/>
            <path id="Path_104863" data-name="Path 104863" d="M16.962,111.882v2.959l.717.717h.34v-4.393h-.34Z" transform="translate(-13.942 -94.374)" fill="#fff"/>
            <path id="Path_104864" data-name="Path 104864" d="M16.962,101.123v2.959l.717.717h.34v-4.393h-.34Z" transform="translate(-13.942 -88.224)" fill="#fff"/>
            <path id="Path_104865" data-name="Path 104865" d="M38.46,90.365v2.96l.717.717h.34V89.649h-.34Z" transform="translate(-26.231 -82.074)" fill="#fff"/>
            <path id="Path_104866" data-name="Path 104866" d="M67.81,100.407V104.8h.313l.717-.717v-2.959l-.717-.717Z" transform="translate(-43.008 -88.224)" fill="#fff"/>
            <path id="Path_104867" data-name="Path 104867" d="M67.81,89.648v4.393h.313l.717-.717v-2.96l-.717-.717Z" transform="translate(-43.008 -82.074)" fill="#fff"/>
            <path id="Path_104868" data-name="Path 104868" d="M67.81,121.924v4.393h.313l.717-.717v-2.96l-.717-.717Z" transform="translate(-43.008 -100.524)" fill="#fff"/>
            <path id="Path_104869" data-name="Path 104869" d="M67.81,78.89v4.393h.313l.717-.717v-2.96l-.717-.717Z" transform="translate(-43.008 -75.924)" fill="#fff"/>
            <path id="Path_104870" data-name="Path 104870" d="M70.708,101.123v2.959l.717.717h.34v-4.393h-.34Z" transform="translate(-44.665 -88.224)" fill="#fff"/>
            <path id="Path_104871" data-name="Path 104871" d="M70.708,111.882v2.959l.717.717h.34v-4.393h-.34Z" transform="translate(-44.665 -94.374)" fill="#fff"/>
            <path id="Path_104872" data-name="Path 104872" d="M67.81,68.132v4.393h.313l.717-.717v-2.96l-.717-.717Z" transform="translate(-43.008 -69.775)" fill="#fff"/>
            <path id="Path_104873" data-name="Path 104873" d="M70.708,122.641v2.96l.717.717h.34v-4.393h-.34Z" transform="translate(-44.665 -100.524)" fill="#fff"/>
            <path id="Path_104874" data-name="Path 104874" d="M70.708,133.4v2.96l.717.717h.34v-4.393h-.34Z" transform="translate(-44.665 -106.674)" fill="#fff"/>
            <path id="Path_104875" data-name="Path 104875" d="M67.81,111.165v4.393h.313l.717-.716v-2.96l-.717-.717Z" transform="translate(-43.008 -94.374)" fill="#fff"/>
            <rect id="Rectangle_3189" data-name="Rectangle 3189" width="2.037" height="4.393" transform="translate(22.63 12.183)" fill="#fff"/>
            <path id="Path_104876" data-name="Path 104876" d="M67.81,132.682v4.393h.313l.717-.717V133.4l-.717-.717Z" transform="translate(-43.008 -106.674)" fill="#fff"/>
            <rect id="Rectangle_3190" data-name="Rectangle 3190" width="2.037" height="4.393" transform="translate(22.63 21.4)" fill="#fff"/>
            <rect id="Rectangle_3191" data-name="Rectangle 3191" width="2.037" height="4.393" transform="translate(22.63 26.008)" fill="#fff"/>
            <rect id="Rectangle_3192" data-name="Rectangle 3192" width="2.037" height="4.393" transform="translate(22.63 16.791)" fill="#fff"/>
            <rect id="Rectangle_3193" data-name="Rectangle 3193" width="2.037" height="4.393" transform="translate(22.63 7.574)" fill="#fff"/>
            <path id="Path_104877" data-name="Path 104877" d="M59.959,68.849v2.96l.717.717h.34V68.132h-.34Z" transform="translate(-38.52 -69.775)" fill="#fff"/>
            <rect id="Rectangle_3194" data-name="Rectangle 3194" width="2.037" height="4.393" transform="translate(22.63 2.966)" fill="#fff"/>
            <rect id="Rectangle_3195" data-name="Rectangle 3195" width="2.037" height="4.393" transform="translate(22.63 -1.643)" fill="#fff"/>
            <path id="Path_104878" data-name="Path 104878" d="M78.559,111.165v4.393h.313l.717-.716v-2.96l-.717-.717Z" transform="translate(-49.153 -94.374)" fill="#fff"/>
            <path id="Path_104879" data-name="Path 104879" d="M78.559,121.924v4.393h.313l.717-.717v-2.96l-.717-.717Z" transform="translate(-49.153 -100.524)" fill="#fff"/>
            <path id="Path_104880" data-name="Path 104880" d="M78.559,100.407V104.8h.313l.717-.717v-2.959l-.717-.717Z" transform="translate(-49.153 -88.224)" fill="#fff"/>
            <rect id="Rectangle_3196" data-name="Rectangle 3196" width="2.037" height="4.393" transform="translate(27.234 -1.643)" fill="#fff"/>
            <path id="Path_104881" data-name="Path 104881" d="M78.559,132.682v4.393h.313l.717-.717V133.4l-.717-.717Z" transform="translate(-49.153 -106.674)" fill="#fff"/>
            <path id="Path_104882" data-name="Path 104882" d="M78.872,68.132h-.313v4.393h.313l.717-.717v-2.96Z" transform="translate(-49.153 -69.775)" fill="#fff"/>
            <path id="Path_104883" data-name="Path 104883" d="M78.559,89.648v4.393h.313l.717-.717v-2.96l-.717-.717Z" transform="translate(-49.153 -82.074)" fill="#fff"/>
            <path id="Path_104884" data-name="Path 104884" d="M78.559,78.89v4.393h.313l.717-.717v-2.96l-.717-.717Z" transform="translate(-49.153 -75.924)" fill="#fff"/>
            <rect id="Rectangle_3197" data-name="Rectangle 3197" width="2.037" height="4.393" transform="translate(27.234 21.4)" fill="#fff"/>
            <path id="Path_104885" data-name="Path 104885" d="M70.708,90.365v2.96l.717.717h.34V89.649h-.34Z" transform="translate(-44.665 -82.074)" fill="#fff"/>
            <rect id="Rectangle_3198" data-name="Rectangle 3198" width="2.037" height="4.393" transform="translate(27.234 2.966)" fill="#fff"/>
            <path id="Path_104886" data-name="Path 104886" d="M70.708,68.849v2.96l.717.717h.34V68.132h-.34Z" transform="translate(-44.665 -69.775)" fill="#fff"/>
            <path id="Path_104887" data-name="Path 104887" d="M70.708,79.606v2.96l.717.717h.34V78.89h-.34Z" transform="translate(-44.665 -75.924)" fill="#fff"/>
            <rect id="Rectangle_3199" data-name="Rectangle 3199" width="2.037" height="4.393" transform="translate(27.234 26.008)" fill="#fff"/>
            <rect id="Rectangle_3200" data-name="Rectangle 3200" width="2.037" height="4.393" transform="translate(27.234 16.791)" fill="#fff"/>
            <rect id="Rectangle_3201" data-name="Rectangle 3201" width="2.037" height="4.393" transform="translate(27.234 7.574)" fill="#fff"/>
            <rect id="Rectangle_3202" data-name="Rectangle 3202" width="2.037" height="4.393" transform="translate(27.234 12.183)" fill="#fff"/>
            <path id="Path_104888" data-name="Path 104888" d="M59.959,122.641v2.96l.717.717h.34v-4.393h-.34Z" transform="translate(-38.52 -100.524)" fill="#fff"/>
            <path id="Path_104889" data-name="Path 104889" d="M49.21,122.641v2.96l.717.717h.34v-4.393h-.34Z" transform="translate(-32.376 -100.524)" fill="#fff"/>
            <path id="Path_104890" data-name="Path 104890" d="M49.21,101.123v2.959l.717.717h.34v-4.393h-.34Z" transform="translate(-32.376 -88.224)" fill="#fff"/>
            <rect id="Rectangle_3203" data-name="Rectangle 3203" width="2.037" height="4.393" transform="translate(18.025 21.4)" fill="#fff"/>
            <path id="Path_104891" data-name="Path 104891" d="M49.21,133.4v2.96l.717.717h.34v-4.393h-.34Z" transform="translate(-32.376 -106.674)" fill="#fff"/>
            <path id="Path_104892" data-name="Path 104892" d="M49.21,79.606v2.96l.717.717h.34V78.89h-.34Z" transform="translate(-32.376 -75.924)" fill="#fff"/>
            <path id="Path_104893" data-name="Path 104893" d="M49.21,68.849v2.96l.717.717h.34V68.132h-.34Z" transform="translate(-32.376 -69.775)" fill="#fff"/>
            <rect id="Rectangle_3204" data-name="Rectangle 3204" width="2.037" height="4.393" transform="translate(18.025 26.008)" fill="#fff"/>
            <path id="Path_104894" data-name="Path 104894" d="M49.21,90.365v2.96l.717.717h.34V89.649h-.34Z" transform="translate(-32.376 -82.074)" fill="#fff"/>
            <path id="Path_104895" data-name="Path 104895" d="M46.313,68.132v4.393h.313l.717-.717v-2.96l-.717-.717Z" transform="translate(-30.72 -69.775)" fill="#fff"/>
            <path id="Path_104896" data-name="Path 104896" d="M49.21,111.882v2.959l.717.717h.34v-4.393h-.34Z" transform="translate(-32.376 -94.374)" fill="#fff"/>
            <path id="Path_104897" data-name="Path 104897" d="M46.313,132.682v4.393h.313l.717-.717V133.4l-.717-.717Z" transform="translate(-30.72 -106.674)" fill="#fff"/>
            <rect id="Rectangle_3205" data-name="Rectangle 3205" width="2.037" height="4.393" transform="translate(13.421 -1.643)" fill="#fff"/>
            <path id="Path_104898" data-name="Path 104898" d="M46.313,78.89v4.393h.313l.717-.717v-2.96l-.717-.717Z" transform="translate(-30.72 -75.924)" fill="#fff"/>
            <path id="Path_104899" data-name="Path 104899" d="M46.313,121.924v4.393h.313l.717-.717v-2.96l-.717-.717Z" transform="translate(-30.72 -100.524)" fill="#fff"/>
            <rect id="Rectangle_3206" data-name="Rectangle 3206" width="2.037" height="4.393" transform="translate(13.421 2.966)" fill="#fff"/>
            <path id="Path_104900" data-name="Path 104900" d="M46.313,89.648v4.393h.313l.717-.717v-2.96l-.717-.717Z" transform="translate(-30.72 -82.074)" fill="#fff"/>
            <path id="Path_104901" data-name="Path 104901" d="M46.313,111.165v4.393h.313l.717-.716v-2.96l-.717-.717Z" transform="translate(-30.72 -94.374)" fill="#fff"/>
            <path id="Path_104902" data-name="Path 104902" d="M46.313,100.407V104.8h.313l.717-.717v-2.959l-.717-.717Z" transform="translate(-30.72 -88.224)" fill="#fff"/>
            <rect id="Rectangle_3207" data-name="Rectangle 3207" width="2.037" height="4.393" transform="translate(18.025 7.574)" fill="#fff"/>
            <path id="Path_104903" data-name="Path 104903" d="M59.959,133.4v2.96l.717.717h.34v-4.393h-.34Z" transform="translate(-38.52 -106.674)" fill="#fff"/>
            <rect id="Rectangle_3208" data-name="Rectangle 3208" width="2.037" height="4.393" transform="translate(18.025 16.791)" fill="#fff"/>
            <path id="Path_104904" data-name="Path 104904" d="M57.061,78.89v4.393h.313l.717-.717v-2.96l-.717-.717Z" transform="translate(-36.864 -75.924)" fill="#fff"/>
            <rect id="Rectangle_3209" data-name="Rectangle 3209" width="2.037" height="4.393" transform="translate(13.421 7.574)" fill="#fff"/>
            <path id="Path_104905" data-name="Path 104905" d="M59.959,101.123v2.959l.717.717h.34v-4.393h-.34Z" transform="translate(-38.52 -88.224)" fill="#fff"/>
            <path id="Path_104906" data-name="Path 104906" d="M59.959,90.365v2.96l.717.717h.34V89.649h-.34Z" transform="translate(-38.52 -82.074)" fill="#fff"/>
            <path id="Path_104907" data-name="Path 104907" d="M57.061,89.648v4.393h.313l.717-.717v-2.96l-.717-.717Z" transform="translate(-36.864 -82.074)" fill="#fff"/>
            <path id="Path_104908" data-name="Path 104908" d="M59.959,111.882v2.959l.717.717h.34v-4.393h-.34Z" transform="translate(-38.52 -94.374)" fill="#fff"/>
            <path id="Path_104909" data-name="Path 104909" d="M57.061,68.132v4.393h.313l.717-.717v-2.96l-.717-.717Z" transform="translate(-36.864 -69.775)" fill="#fff"/>
            <path id="Path_104910" data-name="Path 104910" d="M59.959,79.606v2.96l.717.717h.34V78.89h-.34Z" transform="translate(-38.52 -75.924)" fill="#fff"/>
            <rect id="Rectangle_3210" data-name="Rectangle 3210" width="2.037" height="4.393" transform="translate(18.025 2.966)" fill="#fff"/>
            <rect id="Rectangle_3211" data-name="Rectangle 3211" width="2.037" height="4.393" transform="translate(18.025 -1.643)" fill="#fff"/>
            <rect id="Rectangle_3212" data-name="Rectangle 3212" width="2.037" height="4.393" transform="translate(18.025 12.183)" fill="#fff"/>
            <path id="Path_104911" data-name="Path 104911" d="M57.061,100.407V104.8h.313l.717-.717v-2.959l-.717-.717Z" transform="translate(-36.864 -88.224)" fill="#fff"/>
            <path id="Path_104912" data-name="Path 104912" d="M57.061,111.165v4.393h.313l.717-.716v-2.96l-.717-.717Z" transform="translate(-36.864 -94.374)" fill="#fff"/>
            <path id="Path_104913" data-name="Path 104913" d="M57.061,132.682v4.393h.313l.717-.717V133.4l-.717-.717Z" transform="translate(-36.864 -106.674)" fill="#fff"/>
            <path id="Path_104914" data-name="Path 104914" d="M57.061,121.924v4.393h.313l.717-.717v-2.96l-.717-.717Z" transform="translate(-36.864 -100.524)" fill="#fff"/>
          </g>
        </g>
        <g id="Group_88751" data-name="Group 88751" transform="translate(22.453 30.964)">
          <g id="Group_88750" data-name="Group 88750" clip-path="url(#clip-path-4)">
            <path id="Path_104916" data-name="Path 104916" d="M82.894,115.92c.1-.466.976-4.568.969-5.129a4.186,4.186,0,0,0-.954-1.885.2.2,0,0,0-.288.014.209.209,0,0,0,.014.291,4.044,4.044,0,0,1,.819,1.567v.018c0,.388-.57,3.217-.958,5.029a27.255,27.255,0,0,0-.848,3.892h.411a28.293,28.293,0,0,1,.829-3.781Z" transform="translate(-72.637 -94.447)" fill="#fff"/>
            <path id="Path_104917" data-name="Path 104917" d="M75.156,114.2a20.76,20.76,0,0,0,.682-3.933c-.062-.979-.184-2.053-.857-2.408a5.956,5.956,0,0,0-2.36-.238l-.184.005a6.668,6.668,0,0,0-2.715,1.174c-.1.088-.227.2-.377.328a9.141,9.141,0,0,0-2.222,2.4,5.364,5.364,0,0,1-.684,1.072c-.055.272-.105.537-.153.8a6.534,6.534,0,0,0,1.205-1.692,9.07,9.07,0,0,1,2.117-2.264c.153-.131.285-.244.386-.335a6.508,6.508,0,0,1,2.45-1.07l.189,0a6.026,6.026,0,0,1,2.159.191c.526.278.6,1.487.639,2.069v.021a21.981,21.981,0,0,1-.673,3.792c-.079.343-.147.64-.2.87-.176.826-.413,2.646-.551,4.032h.41c.137-1.366.368-3.138.54-3.946.048-.226.116-.521.194-.863" transform="translate(-63.854 -93.735)" fill="#fff"/>
            <path id="Path_104918" data-name="Path 104918" d="M69.042,109.01c1.152-.7,2.5-1.567,2.513-1.576a.208.208,0,0,0,.063-.285.2.2,0,0,0-.281-.064c-.013.009-1.357.874-2.5,1.57a5.421,5.421,0,0,0-1.317,1.352c-.1.383-.2.758-.286,1.128a7.657,7.657,0,0,1,1.812-2.126" transform="translate(-64.394 -93.419)" fill="#fff"/>
            <path id="Path_104919" data-name="Path 104919" d="M72.173,106a26.586,26.586,0,0,1,3.074-.221c.013,0,1.785.027,2.018,1a13.552,13.552,0,0,1,.325,3.837c-.141.668-1.142,4.159-1.152,4.195a.207.207,0,0,0,.139.256.2.2,0,0,0,.253-.141c.041-.144,1.016-3.541,1.159-4.224a13.9,13.9,0,0,0-.328-4.021c-.307-1.287-2.329-1.316-2.416-1.316a26.152,26.152,0,0,0-3.139.226,11.2,11.2,0,0,0-3.031,1.432c-.081.223-.16.446-.232.667l.068-.075A13.027,13.027,0,0,1,72.173,106" transform="translate(-65.316 -92.455)" fill="#fff"/>
            <path id="Path_104920" data-name="Path 104920" d="M79.342,108.887c-.006-.2-.009-.415-.013-.641-.024-1.463-.054-3.285-.738-4a3.927,3.927,0,0,0-3.19-1.1,23.645,23.645,0,0,0-3.668.668,12.145,12.145,0,0,0-1.6.76q-.128.3-.246.6a15.131,15.131,0,0,1,1.955-.966,23.019,23.019,0,0,1,3.585-.654,3.485,3.485,0,0,1,2.869.97c.573.6.6,2.4.624,3.719,0,.228.007.446.013.646a15.109,15.109,0,0,1-1.363,5.164,12.465,12.465,0,0,0-.686,2.389H77.3a12.069,12.069,0,0,1,.648-2.235,15.454,15.454,0,0,0,1.393-5.331" transform="translate(-65.913 -91.181)" fill="#fff"/>
            <path id="Path_104921" data-name="Path 104921" d="M80.26,111.359a21.1,21.1,0,0,1,.473-2.515c.387-1.255-.08-4.162-.233-5.024a2.717,2.717,0,0,0-1.955-2.135,13.872,13.872,0,0,0-3.845.069,23.789,23.789,0,0,0-3.452.872q-.121.257-.238.513a26.961,26.961,0,0,1,3.734-.974,13.874,13.874,0,0,1,3.662-.091,2.309,2.309,0,0,1,1.692,1.819,14.065,14.065,0,0,1,.245,4.829,21.084,21.084,0,0,0-.487,2.575c-.121.8-.236,1.55-.355,1.967-.126.44-.368,1.37-.609,2.291h.421c.231-.885.46-1.758.579-2.177a20.2,20.2,0,0,0,.366-2.02" transform="translate(-66.555 -90.281)" fill="#fff"/>
            <path id="Path_104922" data-name="Path 104922" d="M88.924,127.4a.208.208,0,0,0-.141-.255.2.2,0,0,0-.251.143c0,.006-.15.541-.325.989-.093.238-.32,1.146-.492,1.894h.419c.159-.691.358-1.5.452-1.743.183-.469.332-1.007.338-1.03" transform="translate(-76.104 -104.902)" fill="#fff"/>
            <path id="Path_104923" data-name="Path 104923" d="M82.62,108.27l0-.027a33.885,33.885,0,0,0,.115-5.162c-.224-.949-.667-2.813-1.429-3.34A9.223,9.223,0,0,0,78,98.551a18.827,18.827,0,0,0-2.425.317c-.379.058-.706.107-.813.113-.158.008-.747.075-1.415.158-.081.148-.16.3-.239.445.777-.1,1.51-.182,1.674-.191.128-.006.432-.053.854-.117a19.473,19.473,0,0,1,2.346-.313,8.96,8.96,0,0,1,3.1,1.121c.631.436,1.065,2.262,1.261,3.094a30.847,30.847,0,0,1-.123,5.016c-.049.225-.692,3.19-.82,3.779-.067.309-.267,1.078-.484,1.859h.423c.212-.769.4-1.5.459-1.771.133-.613.822-3.793.822-3.793" transform="translate(-67.755 -88.558)" fill="#fff"/>
            <path id="Path_104924" data-name="Path 104924" d="M74.442,100.885c.455-.1,1.57-.222,2.17-.285l.232-.025a9.6,9.6,0,0,1,1.29.017.206.206,0,0,0,.032-.412,9.661,9.661,0,0,0-1.365-.016l-.231.024c-.608.065-1.739.184-2.218.293-.3.069-1.168.208-1.936.331-.078.152-.154.3-.229.455l.286-.046c.815-.131,1.657-.265,1.969-.337" transform="translate(-67.227 -89.47)" fill="#fff"/>
            <path id="Path_104925" data-name="Path 104925" d="M80.74,97.85a.2.2,0,0,0,.242-.159.207.207,0,0,0-.157-.245,21.316,21.316,0,0,0-3.082-.333,28.334,28.334,0,0,1-3.052.188c-.083.139-.167.278-.248.417,1.352-.022,2.9-.134,3.353-.2a15.869,15.869,0,0,1,2.943.327" transform="translate(-68.517 -87.732)" fill="#fff"/>
            <path id="Path_104926" data-name="Path 104926" d="M78.271,95.96a12.32,12.32,0,0,1,3.422.509,6.052,6.052,0,0,1,1.78,1.96,9.83,9.83,0,0,1,1,2.681c.04.236.024,1.871,0,2.912a.2.2,0,1,0,.407.008c.006-.269.049-2.639-.009-2.99A10.181,10.181,0,0,0,83.811,98.2a6.164,6.164,0,0,0-1.954-2.106,12.6,12.6,0,0,0-3.594-.544c-.317.006-.911.009-1.541.012l-.83,0q-.132.207-.261.415l1.093-.006c.631,0,1.228-.006,1.547-.012" transform="translate(-69.196 -86.841)" fill="#fff"/>
            <path id="Path_104927" data-name="Path 104927" d="M88.018,106a36.189,36.189,0,0,0,.975-5.591A9.258,9.258,0,0,0,86.985,95.2c-1.011-1.222-2.4-2.735-3.284-3a24.817,24.817,0,0,0-4.874-.919c-.076.1-.153.2-.227.3l-.083.115.179,0a23.186,23.186,0,0,1,4.891.9c.6.179,1.729,1.223,3.087,2.865a8.936,8.936,0,0,1,1.911,4.938,35.707,35.707,0,0,1-.963,5.5l-.012.047c-.113.452-.311,1.25-.482,2.135a10.9,10.9,0,0,0,.709-1.347c.064-.274.123-.508.168-.688Z" transform="translate(-70.846 -84.404)" fill="#fff"/>
            <path id="Path_104928" data-name="Path 104928" d="M90.505,97.148a13.7,13.7,0,0,0-4.607-6.52,16.237,16.237,0,0,0-4.795-1.55l-.3-.066c-.047-.01-.093-.018-.139-.027-.1.121-.2.243-.3.366.117.018.235.038.353.064l.3.067a16.369,16.369,0,0,1,4.649,1.486,14.943,14.943,0,0,1,2.843,3.041,14.7,14.7,0,0,1,1.6,3.257,14.052,14.052,0,0,1,.193,4.085c0,.068-.01.149-.019.239.134-.353.288-.72.468-1.088a11.641,11.641,0,0,0-.251-3.354" transform="translate(-71.9 -83.091)" fill="#fff"/>
            <path id="Path_104929" data-name="Path 104929" d="M91.749,85.507A19.7,19.7,0,0,0,88,83.239c-.356-.129-.9-.307-1.468-.484-.119.107-.235.215-.351.323.638.2,1.283.406,1.682.55a19.5,19.5,0,0,1,3.651,2.218A14.31,14.31,0,0,1,94.7,89.9a21.632,21.632,0,0,1,.847,4.829c0,.041-.006.091-.008.141a5.37,5.37,0,0,1,.416-.363,22.581,22.581,0,0,0-.88-4.769,14.608,14.608,0,0,0-3.321-4.229" transform="translate(-75.227 -79.529)" fill="#fff"/>
            <path id="Path_104930" data-name="Path 104930" d="M94,85.769a.2.2,0,0,0,.288,0,.209.209,0,0,0,0-.292,15.08,15.08,0,0,0-1.946-1.668,30.983,30.983,0,0,0-4.251-2.406l-.127.1c-.081.067-.156.137-.236.2a27.191,27.191,0,0,1,4.383,2.439A14.992,14.992,0,0,1,94,85.769" transform="translate(-76.111 -78.758)" fill="#fff"/>
            <path id="Path_104931" data-name="Path 104931" d="M95.764,83.993A15.744,15.744,0,0,0,91.4,80.421c-.342-.184-.8-.389-1.285-.593-.13.093-.258.189-.386.286.561.232,1.1.466,1.48.672a15.494,15.494,0,0,1,4.222,3.448,27.921,27.921,0,0,1,2.418,5.55c.1.388.362,1.484.572,2.738.121-.075.247-.144.377-.209-.208-1.216-.453-2.26-.556-2.639a27.938,27.938,0,0,0-2.479-5.682" transform="translate(-77.257 -77.856)" fill="#fff"/>
            <path id="Path_104932" data-name="Path 104932" d="M100.883,87.51c-.267-.6-.519-1.161-.649-1.525l-.055-.156a6.343,6.343,0,0,0-2.091-3.292c-1.208-.8-2.8-1.889-2.818-1.9a.2.2,0,0,0-.283.056.209.209,0,0,0,.055.287c.016.011,1.613,1.1,2.823,1.9a6.02,6.02,0,0,1,1.93,3.085l.056.158c.135.378.391.949.661,1.554a22.574,22.574,0,0,1,.926,2.26c.164.559.442,1.951.637,2.976.125-.054.254-.1.387-.149-.192-1.015-.467-2.38-.633-2.944a22.34,22.34,0,0,0-.945-2.313" transform="translate(-80.241 -78.3)" fill="#fff"/>
            <path id="Path_104933" data-name="Path 104933" d="M99.542,83.817a9.232,9.232,0,0,1-.715-.893,15.608,15.608,0,0,0-1.743-2.063,10.122,10.122,0,0,0-4.12-2.221,5.917,5.917,0,0,1-.795-.234c-.144.09-.288.184-.431.28a7.516,7.516,0,0,0,1.147.36,9.806,9.806,0,0,1,3.925,2.122A15.343,15.343,0,0,1,98.5,83.175a9.047,9.047,0,0,0,.761.945,14.441,14.441,0,0,1,2.372,4.932,17.956,17.956,0,0,1,.136,2.2q.2-.016.407-.02a18.471,18.471,0,0,0-.14-2.247,14.778,14.778,0,0,0-2.5-5.17" transform="translate(-78.404 -77.043)" fill="#fff"/>
            <path id="Path_104934" data-name="Path 104934" d="M102.9,81.772c-.1-.173-.186-.336-.269-.49a11.8,11.8,0,0,0-3.074-3.51A12.726,12.726,0,0,0,96.7,75.879q-.256.12-.509.248A10.521,10.521,0,0,1,99.3,78.093a11.417,11.417,0,0,1,2.974,3.388c.084.154.175.319.271.492a21.588,21.588,0,0,1,2.163,4.882,18.012,18.012,0,0,1,.4,2.926c.134,0,.271.006.41.012a18.449,18.449,0,0,0-.418-3.041,21.918,21.918,0,0,0-2.2-4.981" transform="translate(-80.95 -75.599)" fill="#fff"/>
            <path id="Path_104935" data-name="Path 104935" d="M97.545,79.344a32.762,32.762,0,0,1,2.349,2.692.2.2,0,0,0,.281.064.208.208,0,0,0,.063-.285,32.554,32.554,0,0,0-2.423-2.781,12.6,12.6,0,0,0-3.277-1.5,4.267,4.267,0,0,1-.574-.2q-.223.125-.444.257a5.891,5.891,0,0,0,.923.343,12.566,12.566,0,0,1,3.1,1.409" transform="translate(-79.422 -76.431)" fill="#fff"/>
            <path id="Path_104936" data-name="Path 104936" d="M104.155,79.956c-.108-.1-.215-.189-.322-.288a31.851,31.851,0,0,1-2.984-3.1,16.193,16.193,0,0,0-2.4-1.384l-.1-.05c-.161.072-.321.144-.48.22.14.073.278.142.41.2a12.508,12.508,0,0,1,5.246,4.257,16.6,16.6,0,0,1,2.828,6.911,24.567,24.567,0,0,1,.32,2.6l.41.021a24.87,24.87,0,0,0-.33-2.7,17.352,17.352,0,0,0-2.6-6.7" transform="translate(-81.909 -75.175)" fill="#fff"/>
            <path id="Path_104937" data-name="Path 104937" d="M101.432,75.5q-.315-.405-.617-.825-.3-.171-.573-.329c-.163.063-.325.127-.485.194.454.266.977.563,1.544.885l.131.075" transform="translate(-82.987 -74.724)" fill="#fff"/>
            <path id="Path_104938" data-name="Path 104938" d="M114.714,88.135c-.265-.2-.529-.412-.792-.63.039.072.125.288.165.36a21.755,21.755,0,0,1,1.836,4.932c.186.756.481,2.4.718,3.637l.42.026c-.241-1.265-.55-2.976-.743-3.763a25.121,25.121,0,0,0-1.6-4.562" transform="translate(-91.085 -82.245)" fill="#fff"/>
            <path id="Path_104939" data-name="Path 104939" d="M118.276,90.759q-.291-.193-.583-.4a12.575,12.575,0,0,1,.654,2.359c.309,1.78.691,3.93,1,5.379l.422.026c-.311-1.45-.7-3.652-1.02-5.476a12.38,12.38,0,0,0-.472-1.889" transform="translate(-93.24 -83.877)" fill="#fff"/>
            <path id="Path_104940" data-name="Path 104940" d="M120.568,92.312c-.167-.1-.335-.208-.5-.317.323,1.067.961,4.812,1.181,6.281.026.175.077.563.113.788l.416.022c-.039-.245-.094-.66-.126-.873-.173-1.152-.719-4.416-1.08-5.9" transform="translate(-94.595 -84.811)" fill="#fff"/>
            <path id="Path_104941" data-name="Path 104941" d="M125.45,96.536c-.014-.186-.072-.671-.143-1.208-.146-.079-.293-.16-.443-.244.084.605.16,1.216.179,1.481s.2,1.562.412,3.059c.05.356.138.991.188,1.352.139,0,.276,0,.412,0-.053-.38-.143-1.035-.2-1.409-.2-1.427-.39-2.775-.409-3.03" transform="translate(-97.34 -86.578)" fill="#fff"/>
            <path id="Path_104942" data-name="Path 104942" d="M127.883,99.442a10.5,10.5,0,0,0-.1-2.775l-.458-.244a10.311,10.311,0,0,1,.152,2.969,12.743,12.743,0,0,0,.063,2.32c.139,0,.275-.009.41-.016a12.443,12.443,0,0,1-.068-2.254" transform="translate(-98.747 -87.343)" fill="#fff"/>
            <path id="Path_104943" data-name="Path 104943" d="M130,97.927l-.4-.215c0,.047,0,.094,0,.14a43.7,43.7,0,0,0-.082,4.567c.138-.012.274-.027.405-.045a40.985,40.985,0,0,1,.08-4.447" transform="translate(-99.979 -88.079)" fill="#fff"/>
            <path id="Path_104944" data-name="Path 104944" d="M132.676,99.364l-.027-.019c-.066-.045-.134-.089-.206-.133-.053-.032-.111-.065-.166-.1.158,1,.272,2.433.332,3.707a2.4,2.4,0,0,0,.4-.212c-.055-1.074-.152-2.31-.275-3.206l-.057-.041" transform="translate(-101.578 -88.881)" fill="#fff"/>
            <path id="Path_104945" data-name="Path 104945" d="M134.481,101.852c-.029-.364-.059-.73-.093-1.088a1.925,1.925,0,0,0-.293-.371h0c-.046-.045-.1-.089-.148-.134h0l-.023-.018c.062.522.108,1.088.152,1.645.027.335.054.677.085,1.008a1.509,1.509,0,0,0,.363-.524c-.015-.173-.028-.346-.042-.517" transform="translate(-102.518 -89.525)" fill="#fff"/>
            <path id="Path_104946" data-name="Path 104946" d="M72.793,112.005c-.533-.611-1.033-.343-1.474-.106l-.106.057a24.022,24.022,0,0,0-2.83,2.682l-.159.164a4.085,4.085,0,0,0-1,1.957c-.069.335-.246.879-.4,1.36a8.367,8.367,0,0,0-.279.949,14.438,14.438,0,0,1-.988,2.226h.468a13.536,13.536,0,0,0,.924-2.168c.018-.122.142-.508.263-.879.159-.491.339-1.047.413-1.405a3.711,3.711,0,0,1,.89-1.751l.159-.164a29.341,29.341,0,0,1,2.728-2.606l.109-.058c.467-.251.669-.339.978.014.281.322-.006,1.355-.391,2.179a13.432,13.432,0,0,1-1.425,2.293,11.875,11.875,0,0,0-1.625,2.9,3.532,3.532,0,0,0-.012,1.649h.415a3.293,3.293,0,0,1-.018-1.515,11.587,11.587,0,0,1,1.555-2.775,13.67,13.67,0,0,0,1.477-2.376c.275-.589.858-2.022.328-2.63" transform="translate(-63.438 -96.036)" fill="#fff"/>
            <path id="Path_104947" data-name="Path 104947" d="M72.492,110.925A1.783,1.783,0,0,0,72,109.574a1.167,1.167,0,0,0-1.583-.231c-.347.211-1.058.778-1.745,1.327-.5.4-.971.776-1.187.92-.084.056-2.072,1.394-2.312,2.487-.185.846-.534,2.523-.55,2.668a9.6,9.6,0,0,1-1.459,3.116h.52a9.481,9.481,0,0,0,1.342-3.05l0-.015c0-.018.359-1.787.543-2.63.151-.687,1.392-1.733,2.139-2.231.23-.154.687-.519,1.215-.941.645-.516,1.377-1.1,1.7-1.3.459-.279.7-.173,1.1.186a1.368,1.368,0,0,1,.357,1.061c.018.376-.232,2.147-.332,2.816-.073.25-1.113,3.783-1.577,5.2a5.091,5.091,0,0,0-.2.906h.413a4.534,4.534,0,0,1,.173-.776c.481-1.473,1.573-5.193,1.585-5.23l.006-.028c.015-.1.363-2.417.339-2.913" transform="translate(-62.068 -94.604)" fill="#fff"/>
            <path id="Path_104948" data-name="Path 104948" d="M71.905,121.738c.031-.126.061-.269.094-.42a6.371,6.371,0,0,1,.478-1.567,11.078,11.078,0,0,1,1.241-2.037c.111-.143.248-.316.44-.577l.114-.152a7.9,7.9,0,0,0,.961-1.636c.184-.384.338-.8.092-1.008-.075-.061-.3-.251-1.052.337a15.724,15.724,0,0,0-1.3,1.3,3.979,3.979,0,0,0-.735,1.248l-.115.241a.21.21,0,0,0,.1.279.2.2,0,0,0,.275-.1l.115-.242a3.625,3.625,0,0,1,.673-1.154,15.688,15.688,0,0,1,1.246-1.25,1.863,1.863,0,0,1,.509-.311,1.9,1.9,0,0,1-.173.468,7.475,7.475,0,0,1-.918,1.566l-.116.155c-.189.256-.323.427-.433.567a11.515,11.515,0,0,0-1.28,2.1,6.674,6.674,0,0,0-.519,1.679c-.032.147-.062.287-.091.41a4.866,4.866,0,0,0-.093,1.164h.414a4.545,4.545,0,0,1,.078-1.065" transform="translate(-66.784 -97.54)" fill="#fff"/>
            <path id="Path_104949" data-name="Path 104949" d="M69.227,127.806l.064-.167a9.549,9.549,0,0,0,.582-1.894l.036-.254c.074-.523.137-.975.2-1.582a.206.206,0,1,0-.41-.045c-.066.6-.129,1.048-.2,1.567l-.036.256a9.223,9.223,0,0,1-.558,1.8l-.065.167c-.066.175-.127.356-.179.527H69.1c.04-.126.085-.254.132-.377" transform="translate(-65.212 -102.922)" fill="#fff"/>
            <path id="Path_104950" data-name="Path 104950" d="M86.978,100.083a2.949,2.949,0,0,1-.076-.367,4.762,4.762,0,0,0-.572-1.576,12.088,12.088,0,0,0-1.462-1.56.1.1,0,0,0-.015-.009,10.5,10.5,0,0,0-.752-1.138,4.249,4.249,0,0,0-2.79-1.45c-.215-.006-.989-.07-1.808-.138-.835-.069-1.747-.144-2.344-.182-.091.132-.178.266-.266.4.559.029,1.657.12,2.577.2.861.071,1.6.132,1.83.139a3.837,3.837,0,0,1,2.484,1.295,13.865,13.865,0,0,1,1.827,3.4l.015.131a16.139,16.139,0,0,1,.239,3.764c-.069.251-.338,1.383-.647,2.694-.4,1.7-.9,3.824-1.017,4.2-.051.168-.145.6-.259,1.163h.146a1.524,1.524,0,0,0,.277-.027c.1-.5.182-.871.226-1.015.117-.387.6-2.425,1.024-4.222.3-1.253.575-2.436.643-2.679a17.236,17.236,0,0,0-.226-3.923l-.015-.13a5.533,5.533,0,0,0-.5-1.243,3.866,3.866,0,0,1,.458.55,4.323,4.323,0,0,1,.518,1.419,3.317,3.317,0,0,0,.086.416,4.338,4.338,0,0,1,.141,1.253,13.756,13.756,0,0,1-.534,3.836c-.421,1.45-.5,1.785-.508,1.8a.207.207,0,0,0,.2.26.206.206,0,0,0,.2-.158s.087-.347.5-1.782a14.145,14.145,0,0,0,.55-3.955,4.68,4.68,0,0,0-.154-1.357" transform="translate(-69.917 -85.765)" fill="#fff"/>
            <path id="Path_104951" data-name="Path 104951" d="M96.739,129.325c.049-1,.189-1.952.191-1.967a.209.209,0,0,0-.173-.238.205.205,0,0,0-.235.175,21.513,21.513,0,0,0-.211,2.437,3.418,3.418,0,0,0,.428-.407" transform="translate(-81.018 -104.889)" fill="#fff"/>
            <path id="Path_104952" data-name="Path 104952" d="M92.126,94.307a19.013,19.013,0,0,0-2.293-3.561l-.089-.086a10.133,10.133,0,0,0-3.025-2.133,17.933,17.933,0,0,0-3.664-.957.2.2,0,0,0-.233.177.209.209,0,0,0,.175.237,17.921,17.921,0,0,1,3.565.93,9.757,9.757,0,0,1,2.9,2.049l.09.087a19.268,19.268,0,0,1,2.2,3.429,22.427,22.427,0,0,1,.787,4.264c.009.077.018.146.026.214q.164-.269.351-.527a20.241,20.241,0,0,0-.788-4.123" transform="translate(-73.306 -82.281)" fill="#fff"/>
            <path id="Path_104953" data-name="Path 104953" d="M110.518,99.278a15.338,15.338,0,0,0-.558-3.719,13.674,13.674,0,0,0-1.274-2.244,9.546,9.546,0,0,1-.554-.91.206.206,0,0,0-.269-.113.21.21,0,0,0-.111.273,8.768,8.768,0,0,0,.59.98,13.7,13.7,0,0,1,1.231,2.157,14.882,14.882,0,0,1,.534,3.657l.024-.007c.126-.03.255-.054.388-.075" transform="translate(-87.548 -84.972)" fill="#fff"/>
            <path id="Path_104954" data-name="Path 104954" d="M123.3,97.429c-.107-.758-.144-1.013-.287-1.662-.152-.691-.35-1.511-.474-2.021q-.247-.143-.5-.294c.082.331.366,1.484.569,2.407.14.634.176.885.281,1.631.067.47.2,1.382.37,2.49.141.006.281.011.42.014-.176-1.149-.313-2.083-.381-2.563" transform="translate(-95.725 -85.644)" fill="#fff"/>
            <path id="Path_104955" data-name="Path 104955" d="M93.488,93.154a10.977,10.977,0,0,0-2.928-5.443,21.235,21.235,0,0,0-5.619-3.354c-.163-.036-.365-.088-.589-.151-.114.111-.223.223-.333.335.32.093.61.17.834.22a7.686,7.686,0,0,1,1.671.743c-.215-.028-.437-.053-.64-.066a9.9,9.9,0,0,1-2.044-.713c-.1.108-.2.215-.3.324a10.41,10.41,0,0,0,2.32.806c.629.043,1.47.195,1.673.233a24.268,24.268,0,0,1,2.77,1.94,10.479,10.479,0,0,1,2.787,5.2,17.6,17.6,0,0,1,.338,3.147c.125-.164.26-.322.4-.474a21.549,21.549,0,0,0-.337-2.745" transform="translate(-73.715 -80.359)" fill="#fff"/>
            <path id="Path_104956" data-name="Path 104956" d="M131.18,104l.034-.006c.129-.027.251-.06.368-.1-.006-.109-.011-.45-.012-.529-.005-.672-.089-2.41-.093-2.484a.2.2,0,1,0-.407.021c0,.018.087,1.8.093,2.466,0,.107.007.48.017.628" transform="translate(-100.887 -89.782)" fill="#fff"/>
            <path id="Path_104957" data-name="Path 104957" d="M76.687,126.082a9.416,9.416,0,0,1,.33-2.146,4.2,4.2,0,0,1,.627-1.061,5.526,5.526,0,0,0,.39-.584c.122-.225.726-1.832.794-2.015a.209.209,0,0,0-.119-.269.2.2,0,0,0-.266.121c-.265.706-.69,1.811-.772,1.963a5.27,5.27,0,0,1-.36.537,4.491,4.491,0,0,0-.687,1.181,10,10,0,0,0-.349,2.272h.412" transform="translate(-69.564 -100.816)" fill="#fff"/>
          </g>
        </g>
        <g id="Group_88753" data-name="Group 88753" transform="translate(0.512 0.744)">
          <g id="Group_88752" data-name="Group 88752" transform="translate(0 0)" clip-path="url(#clip-path-5)">
            <path id="Path_104959" data-name="Path 104959" d="M21.043,13.521c-.021-.035-.042-.071-.065-.1a2.519,2.519,0,0,0,.6.07,2.488,2.488,0,0,0,2.4-3.1l.114.068.049.029.11.063c.06.033.12.065.182.1l.039.019.085.042c.009.092.014.184.015.278A3.006,3.006,0,0,1,21.581,14c-.094,0-.187,0-.279-.012-.015-.03-.03-.06-.046-.089l-.015-.031c-.032-.063-.066-.125-.1-.187-.018-.033-.038-.067-.058-.1l-.038-.063M16.16,20.1h0l-.033,0a3.588,3.588,0,0,1-3.6-3.564c0-.011,0-.022,0-.034h0c-.168.06-.339.113-.514.157a4.1,4.1,0,0,0,4,3.955q.064-.262.151-.516m.789,1.669A4.688,4.688,0,0,1,21.367,17.3c-.017-.111-.029-.224-.039-.338-.005-.059-.012-.117-.014-.177a5.207,5.207,0,0,0-4.881,4.936c.067,0,.133.008.2.014.106.009.212.019.317.033m-.5-2.35.018-.036q.047-.093.1-.183c.019-.036.041-.072.061-.107l.031-.054.068-.112h0a2.484,2.484,0,0,1-3.1-2.4,2.446,2.446,0,0,1,.07-.6v0l-.1.065-.066.039-.1.057q-.093.053-.188.1l-.027.014-.091.047c-.008.092-.013.185-.012.278a3.007,3.007,0,0,0,3.02,2.986c.094,0,.186-.006.278-.015.013-.029.028-.058.043-.087m5.14-4.838H21.55q.09.253.157.514a4.1,4.1,0,0,0,3.955-4q-.263-.064-.516-.151c0,.011,0,.022,0,.033a3.588,3.588,0,0,1-3.564,3.6M8.68,11.072A1.905,1.905,0,1,1,10.6,12.967,1.908,1.908,0,0,1,8.68,11.072m.517,0a1.388,1.388,0,1,0,1.38-1.4,1.389,1.389,0,0,0-1.38,1.4M21.574,12.9a1.905,1.905,0,1,1,1.895-1.916A1.908,1.908,0,0,1,21.574,12.9m1.378-1.913a1.388,1.388,0,1,0-1.381,1.4,1.39,1.39,0,0,0,1.381-1.4m-6.606.515c-.009.113-.02.225-.035.336h0a4.688,4.688,0,0,1,4.468,4.418h0c.117-.018.236-.03.356-.041.053,0,.1-.01.158-.013a5.206,5.206,0,0,0-4.936-4.879c0,.06-.008.119-.013.179m-.556-.773c0-.059.008-.117.012-.176.009-.114.02-.227.036-.34h0A4.687,4.687,0,0,1,11.369,5.8h0c-.1.015-.21.028-.316.038-.066.006-.132.012-.2.016a5.207,5.207,0,0,0,4.936,4.88M10.6,13.548a2.517,2.517,0,0,1-.6-.07c.022.035.044.071.065.106l.038.063c.02.033.039.066.058.1q.053.093.1.187l.015.03.045.09c.092.008.185.013.278.012a3.007,3.007,0,0,0,2.986-3.02c0-.094-.006-.187-.015-.278l-.085-.042-.039-.019c-.061-.031-.121-.063-.182-.1-.037-.02-.073-.041-.109-.063l-.05-.029-.114-.068a2.484,2.484,0,0,1-2.4,3.1m3.6,2.983a1.905,1.905,0,1,1,1.916,1.895A1.908,1.908,0,0,1,14.2,16.531m.517,0a1.388,1.388,0,1,0,1.381-1.4,1.39,1.39,0,0,0-1.381,1.4m-4.112-1.882h-.034c.06.168.113.339.157.514a4.1,4.1,0,0,0,3.955-4q-.263-.064-.516-.151c0,.011,0,.022,0,.033a3.588,3.588,0,0,1-3.564,3.6m5.446-1.709h.034a3.588,3.588,0,0,1,3.6,3.564c0,.011,0,.022,0,.033h0c.168-.06.339-.112.514-.157a4.105,4.105,0,0,0-4-3.956c-.042.176-.093.347-.151.516m-.285.684-.016.032q-.048.1-.1.188c-.018.034-.037.066-.057.1s-.025.044-.039.066l-.063.106h0a2.433,2.433,0,0,1,.6-.077A2.484,2.484,0,0,1,18.522,17.1h0l.113-.07.049-.03.11-.064c.059-.034.12-.066.18-.1l.038-.02.085-.042c.008-.093.013-.185.012-.279a3.007,3.007,0,0,0-3.02-2.986c-.094,0-.186.006-.278.015-.014.03-.029.06-.044.089m-.5-2.353a4.688,4.688,0,0,1-4.418,4.469c.017.11.029.222.038.335.006.06.011.119.015.179a5.207,5.207,0,0,0,4.881-4.936c-.053,0-.1-.007-.157-.011-.12-.008-.24-.02-.359-.036M21.251,5.81a5.206,5.206,0,0,0-4.88,4.936c.067,0,.133.008.2.014.106.009.212.019.316.033A4.689,4.689,0,0,1,21.3,6.325c-.017-.112-.029-.224-.039-.338-.005-.058-.011-.117-.015-.176M21.547,8a3.007,3.007,0,0,0-2.986,3.02c0,.094.006.187.015.278l.091.045.03.015q.1.048.189.1l.1.055.069.04.1.062a2.486,2.486,0,0,1,2.995-3.029c-.024-.037-.045-.074-.068-.111l-.032-.052c-.021-.036-.042-.071-.062-.107-.035-.06-.068-.121-.1-.182l-.018-.036c-.015-.028-.03-.057-.044-.086C21.733,8,21.641,8,21.547,8M17.465,10.9q.262.064.516.151c0-.011,0-.022,0-.033a3.588,3.588,0,0,1,3.564-3.6h.033c-.06-.167-.112-.339-.156-.514a4.1,4.1,0,0,0-3.955,4m4.3-6.207c.016.111.029.223.038.335.006.06.011.12.015.179A5.206,5.206,0,0,0,26.694.274L26.537.263c-.12-.009-.24-.02-.358-.036A4.688,4.688,0,0,1,21.761,4.7m-1.043.587h0c.117-.018.236-.03.356-.041.053,0,.1-.009.158-.012A5.208,5.208,0,0,0,16.3.349c0,.06-.008.12-.013.179-.009.113-.02.225-.035.336h0a4.687,4.687,0,0,1,4.468,4.418m-1,16.707a1.905,1.905,0,1,1,1.916,1.894,1.907,1.907,0,0,1-1.916-1.894m.517,0a1.388,1.388,0,1,0,1.38-1.4,1.39,1.39,0,0,0-1.38,1.4m-8.608-4.093a4.964,4.964,0,0,1-.372-1.114c-.1.015-.036.027-.142.037-.066.006-.132.012-.2.016a5.206,5.206,0,0,0,4.936,4.881c0-.06.008-.118.012-.176.009-.114.021-.227.036-.339h0a4.692,4.692,0,0,1-4.27-3.3m-.993,2.242a1.905,1.905,0,1,1-1.895,1.916,1.908,1.908,0,0,1,1.895-1.916M9.259,22.048a1.388,1.388,0,1,0,1.38-1.4,1.389,1.389,0,0,0-1.38,1.4M21.2,27.2c.052,0,.1-.009.158-.012a5.206,5.206,0,0,0-4.936-4.88c0,.06-.008.12-.012.179-.009.113-.02.225-.035.336h0a4.687,4.687,0,0,1,4.468,4.418h0c.118-.018.238-.03.357-.041m5.874-12.646a1.905,1.905,0,1,1-1.895,1.916,1.907,1.907,0,0,1,1.895-1.916m0,.517a1.388,1.388,0,1,0,1.4,1.38,1.39,1.39,0,0,0-1.4-1.38m-2.408.8-.1.065-.066.04-.1.057c-.063.035-.125.069-.189.1l-.027.014-.091.047c-.008.092-.013.185-.012.278A3.005,3.005,0,0,0,27.1,19.46c.094,0,.186-.006.278-.015.013-.029.028-.057.042-.087.006-.012.012-.024.018-.036.032-.062.064-.123.1-.183.019-.036.04-.072.061-.107l.031-.054c.022-.037.045-.075.068-.112h0a2.46,2.46,0,0,1-.6.077,2.485,2.485,0,0,1-2.43-3.071Zm-2.637-10.1c-.066.006-.132.012-.2.016a5.205,5.205,0,0,0,4.936,4.88c0-.059.008-.118.012-.176.009-.114.02-.227.036-.339h0a4.688,4.688,0,0,1-4.468-4.418h0c-.1.015-.21.027-.316.038M16.524,30.363q.047-.093.1-.183c.02-.036.041-.072.061-.107l.031-.054c.022-.037.045-.075.068-.112h0a2.463,2.463,0,0,1-.6.077,2.484,2.484,0,0,1-2.43-3.071v0l-.1.065-.067.04c-.031.02-.064.039-.1.057-.062.035-.125.07-.188.1l-.027.014-.092.047c-.008.092-.012.185-.012.278a3.007,3.007,0,0,0,3.02,2.987c.094,0,.186-.007.278-.015.013-.029.028-.058.043-.087l.018-.037m-.336.719a3.588,3.588,0,0,1-3.6-3.564c0-.011,0-.022,0-.033h0c-.168.06-.339.113-.514.157a4.1,4.1,0,0,0,4,3.955c.042-.175.093-.347.151-.515h-.034m2.4-3,.113-.07.049-.03c.036-.021.072-.043.109-.063.06-.034.12-.067.181-.1l.038-.02.085-.043c.008-.092.012-.184.012-.279a3.006,3.006,0,0,0-3.02-2.986c-.094,0-.187.006-.279.015l-.044.089-.016.032c-.032.063-.066.126-.1.188-.018.033-.037.066-.057.1l-.038.065-.064.106h0a2.486,2.486,0,0,1,3.029,2.995h0m1.167-.573c.168-.06.339-.112.514-.157a4.1,4.1,0,0,0-4-3.955c-.042.175-.093.347-.151.515h.034a3.588,3.588,0,0,1,3.6,3.564c0,.011,0,.022,0,.033ZM5.169,23.976a3.588,3.588,0,0,1,3.6,3.564c0,.011,0,.022,0,.033h0c.168-.06.339-.112.514-.157a4.1,4.1,0,0,0-4-3.955q-.064.263-.151.515h.034m9.094,3.532A1.905,1.905,0,1,1,16.178,29.4a1.907,1.907,0,0,1-1.916-1.895m.517,0a1.388,1.388,0,1,0,1.38-1.4,1.39,1.39,0,0,0-1.38,1.4m10.461-.06a1.905,1.905,0,1,1,1.916,1.895,1.908,1.908,0,0,1-1.916-1.895m.517,0a1.388,1.388,0,1,0,1.38-1.4,1.389,1.389,0,0,0-1.38,1.4M5.175,25.074a2.486,2.486,0,0,1,2.431,3.071h0l.114-.07.049-.03c.036-.021.072-.043.109-.063q.089-.051.181-.1l.038-.02.085-.043c.008-.092.012-.184.012-.278a3.006,3.006,0,0,0-3.02-2.986c-.094,0-.186.006-.278.015l-.044.089c-.006.011-.01.021-.016.032-.032.063-.065.126-.1.188l-.057.1-.038.065-.064.106h0a2.481,2.481,0,0,1,.6-.076M9.864,27.3h0c.117-.018.237-.03.357-.041.053,0,.1-.01.157-.013a5.205,5.205,0,0,0-4.936-4.88c0,.06-.008.12-.012.179-.009.113-.021.225-.036.336h0A4.689,4.689,0,0,1,9.864,27.3m17.638,3c.032-.062.064-.123.1-.183.02-.036.041-.072.061-.107l.032-.054c.022-.037.045-.075.068-.112h0a2.483,2.483,0,0,1-3.028-2.994v0l-.1.065-.066.04-.1.057c-.063.035-.126.07-.189.1l-.027.014-.091.047c-.008.092-.013.185-.012.278a3.007,3.007,0,0,0,3.02,2.987c.093,0,.186-.007.278-.015.013-.029.028-.057.042-.087L27.5,30.3m-22.293.843a3.588,3.588,0,0,1-3.6-3.564c0-.011,0-.022,0-.033h0c-.168.06-.339.113-.514.157a4.1,4.1,0,0,0,4,3.955c.043-.175.094-.347.152-.515H5.209m21.957-.124a3.589,3.589,0,0,1-3.6-3.564c0-.011,0-.022,0-.033h0c-.168.06-.339.113-.514.157a4.1,4.1,0,0,0,4,3.955q.064-.263.151-.515h-.034M16.029,3.055a2.485,2.485,0,0,1,2.431,3.071h0l.113-.07.049-.03.11-.064c.059-.034.12-.066.18-.1l.038-.02.085-.042c.008-.092.012-.185.012-.278a3.007,3.007,0,0,0-3.02-2.987c-.094,0-.186.006-.278.015-.014.029-.029.059-.044.089l-.016.032c-.032.063-.065.126-.1.188-.018.033-.037.066-.057.1l-.038.066-.064.105h0a2.453,2.453,0,0,1,.6-.077m-1.891,2.5a1.905,1.905,0,1,1,1.916,1.894,1.908,1.908,0,0,1-1.916-1.894m.517,0a1.388,1.388,0,1,0,1.381-1.4,1.389,1.389,0,0,0-1.381,1.4M5.545,30.425q.048-.093.1-.183c.02-.036.04-.072.061-.107l.031-.054c.022-.037.045-.075.068-.112h0a2.442,2.442,0,0,1-.6.077,2.484,2.484,0,0,1-2.43-3.071v0c-.035.022-.069.044-.1.065l-.066.04-.1.057c-.063.035-.125.07-.189.1l-.027.014L2.2,27.3c-.008.092-.012.185-.012.278a3.007,3.007,0,0,0,3.02,2.987c.094,0,.186-.006.278-.015l.043-.087c.007-.012.012-.024.018-.036M26.756,11.253c-.053,0-.1-.007-.157-.011-.12-.008-.239-.02-.358-.036a4.689,4.689,0,0,1-4.419,4.469c.017.11.029.222.039.335.006.059.011.119.015.179a5.206,5.206,0,0,0,4.88-4.936m-5.144,8.239a2.489,2.489,0,0,1,.6.069c-.024-.036-.045-.074-.068-.111-.011-.017-.021-.034-.032-.052-.021-.035-.042-.071-.063-.106q-.051-.09-.1-.183l-.019-.036c-.014-.029-.029-.057-.043-.086-.092-.008-.185-.012-.279-.012A3.006,3.006,0,0,0,18.623,22c0,.093.006.186.015.278.03.014.061.03.091.045l.03.015c.063.033.127.066.189.1l.1.055.069.041c.035.02.069.04.1.061a2.484,2.484,0,0,1,2.4-3.1M16.06,8.544c.094,0,.187-.006.279-.015.013-.029.028-.058.043-.087l.018-.037c.031-.061.063-.123.1-.183.02-.036.041-.072.061-.107l.031-.053.068-.113h0a2.486,2.486,0,0,1-3.029-2.995h0l-.1.065-.066.04-.1.057q-.093.053-.188.1l-.027.015-.092.047c-.008.091-.012.184-.012.278a3.006,3.006,0,0,0,3.02,2.986m11.078,11.5H27.1a3.588,3.588,0,0,1-3.6-3.563c0-.012,0-.023,0-.034h0q-.252.09-.514.157a4.105,4.105,0,0,0,4,3.956q.064-.264.151-.516M23.438,5.5c0-.011,0-.022,0-.033h0c-.168.06-.339.112-.514.157a4.1,4.1,0,0,0,4,3.955c.043-.175.093-.347.151-.515h-.034a3.588,3.588,0,0,1-3.6-3.564M16.023,1.958a3.588,3.588,0,0,1,3.6,3.564c0,.011,0,.022,0,.033h0c.168-.06.339-.113.514-.157a4.1,4.1,0,0,0-4-3.955c-.042.175-.093.347-.151.515h.034m-.077,7.682c.042-.175.093-.347.151-.515h-.034a3.588,3.588,0,0,1-3.6-3.564c0-.011,0-.022,0-.033h0c-.168.06-.339.112-.514.157a4.1,4.1,0,0,0,4,3.955M3.284,27.571A1.905,1.905,0,1,1,5.2,29.465a1.908,1.908,0,0,1-1.916-1.895m.517,0a1.388,1.388,0,1,0,1.381-1.4,1.39,1.39,0,0,0-1.381,1.4m17.8-9.174h.033c-.06-.168-.112-.34-.156-.514a4.1,4.1,0,0,0-3.955,4c.175.042.347.093.516.15,0-.011,0-.022,0-.033a3.588,3.588,0,0,1,3.564-3.6M10.7,31.113A1.908,1.908,0,0,0,8.8,33.029l.517,0A1.388,1.388,0,0,1,12.1,33.01l.517,0A1.908,1.908,0,0,0,10.7,31.113m0-.581a2.486,2.486,0,0,1,.6.07c-.023-.036-.045-.074-.068-.111l-.031-.053-.063-.107q-.051-.091-.1-.182l-.018-.036-.044-.086c-.092-.008-.185-.013-.279-.012a3.006,3.006,0,0,0-2.986,3.02h0l.517,0h0a2.488,2.488,0,0,1,2.472-2.5m-.006-1.1h.033q-.09-.252-.157-.514a4.1,4.1,0,0,0-3.955,4c.141.035.279.074.416.118h.1a3.588,3.588,0,0,1,3.564-3.6m10.979-.062H21.7c-.06-.168-.112-.34-.156-.514a4.1,4.1,0,0,0-3.955,4c.141.035.279.074.416.118h.1a3.588,3.588,0,0,1,3.564-3.6m.009,1.679a1.907,1.907,0,0,0-1.895,1.916l.517,0a1.388,1.388,0,0,1,2.777-.015l.517,0a1.907,1.907,0,0,0-1.916-1.894m0-.581a2.486,2.486,0,0,1,.6.07c-.023-.036-.045-.074-.068-.111l-.032-.053c-.021-.035-.042-.071-.063-.107-.034-.06-.067-.121-.1-.182l-.019-.036-.043-.086c-.092-.008-.185-.013-.279-.012a3.006,3.006,0,0,0-2.986,3.02h0l.516,0h0a2.489,2.489,0,0,1,2.473-2.5m10.982.519A1.907,1.907,0,0,0,30.761,32.9l.517,0a1.39,1.39,0,0,1,1.381-1.4Zm-.009-1.679v-.1c-.046-.136-.087-.275-.122-.416a4.105,4.105,0,0,0-3.956,4c.141.034.28.074.416.118h.1a3.588,3.588,0,0,1,3.564-3.6m.006,1.1,0-.517a3.006,3.006,0,0,0-2.985,3.02l.517,0a2.489,2.489,0,0,1,2.472-2.5M21.643,24.981a3.006,3.006,0,0,0,2.986-3.02c0-.094-.006-.187-.015-.278l-.085-.042-.039-.019c-.061-.03-.122-.063-.182-.1l-.11-.062-.05-.029c-.038-.023-.076-.045-.114-.068a2.485,2.485,0,0,1-2.994,3.029c.022.034.043.07.065.106s.026.042.038.063.039.066.058.1c.035.061.069.124.1.187l.015.03.046.09c.092.008.184.012.278.012m4.081-2.906q-.263-.064-.516-.151c0,.011,0,.022,0,.033a3.588,3.588,0,0,1-3.564,3.6h-.033c.059.167.112.339.156.514a4.1,4.1,0,0,0,3.955-4M11.493,27.757h0c-.1.015-.209.027-.316.038-.066.006-.132.012-.2.015a5.207,5.207,0,0,0,4.936,4.881c0-.059.008-.117.012-.176.009-.113.02-.227.035-.339h0a4.688,4.688,0,0,1-4.468-4.418m20.914.463c-.016-.112-.029-.224-.039-.338-.005-.059-.011-.117-.014-.176a5.206,5.206,0,0,0-4.88,4.936c.067,0,.133.008.2.014.107.009.212.019.317.033a4.688,4.688,0,0,1,4.418-4.468m-21.448-.99a5.207,5.207,0,0,0,4.88-4.936c-.053,0-.1-.006-.157-.01-.12-.009-.24-.021-.358-.037a4.688,4.688,0,0,1-4.418,4.469c.016.111.028.222.038.335.006.06.011.119.015.18m10.979-.062a5.208,5.208,0,0,0,4.88-4.936c-.053,0-.1-.006-.157-.01-.12-.009-.241-.021-.359-.036a4.688,4.688,0,0,1-4.418,4.468q.024.166.038.335c.006.06.012.119.015.18m.533.528h0q-.156.023-.316.038c-.065.006-.132.012-.2.016a5.207,5.207,0,0,0,4.936,4.88c0-.059.008-.117.012-.176.009-.113.021-.227.036-.339h0a4.688,4.688,0,0,1-4.468-4.418m-1.043.587c-.017-.111-.029-.224-.039-.338-.005-.059-.012-.117-.015-.176A5.206,5.206,0,0,0,16.5,32.7c.067,0,.133.008.2.014.106.009.212.019.317.033a4.688,4.688,0,0,1,4.418-4.468m-6.683-6.145q-.263-.064-.516-.151c0,.011,0,.022,0,.033a3.588,3.588,0,0,1-3.564,3.6h-.033c.06.167.112.339.156.514a4.1,4.1,0,0,0,3.955-4m-4.3,6.207c-.016-.112-.029-.224-.039-.338,0-.059-.011-.117-.014-.177a5.207,5.207,0,0,0-4.88,4.936c.067,0,.133.008.2.014.106.009.212.019.317.033a4.688,4.688,0,0,1,4.418-4.468m-.286-3.719c.02.033.04.066.059.1.035.061.069.124.1.187l.015.03.046.09c.092.008.184.012.278.012a3.006,3.006,0,0,0,2.986-3.02c0-.094-.006-.187-.015-.278l-.085-.042-.039-.019c-.061-.03-.122-.063-.182-.1l-.11-.063-.049-.029c-.039-.023-.076-.045-.114-.068a2.486,2.486,0,0,1-2.4,3.1,2.477,2.477,0,0,1-.6-.07c.023.034.043.07.065.106l.038.063M.514,27.819h0c-.1.015-.209.027-.316.038-.066.006-.132.012-.2.016a5.207,5.207,0,0,0,4.936,4.88c0-.059.008-.117.012-.176.009-.114.02-.227.035-.339h0A4.688,4.688,0,0,1,.514,27.819M21.522,3.605h-.034q.09.253.156.514a4.1,4.1,0,0,0,3.955-4C25.459.084,25.321.044,25.184,0h-.1a3.588,3.588,0,0,1-3.564,3.6m-.5-1c.02.033.039.066.058.1.035.062.069.124.1.187l.016.03.045.089c.092.008.185.013.279.012A3.006,3.006,0,0,0,24.5,0l-.517,0a2.488,2.488,0,0,1-2.472,2.5,2.5,2.5,0,0,1-.6-.069c.023.034.044.07.065.105l.038.063m5.91,19.05c.008-.172.015-.344.02-.515l-.071-.006h0a4.688,4.688,0,0,1-4.468-4.419c-.1.015-.21.027-.316.037-.066.006-.132.012-.2.017a5.206,5.206,0,0,0,4.936,4.88Z" transform="translate(-4.022 -2.004)" fill="#fff"/>
          </g>
        </g>
        <g id="Group_88755" data-name="Group 88755" transform="translate(35.94 9.162)">
          <g id="Group_88754" data-name="Group 88754" clip-path="url(#clip-path-6)">
            <path id="Path_104961" data-name="Path 104961" d="M103.615,69.432c.017.078,1.8,7.2,2.382,9.322a14.725,14.725,0,0,1-2.382-9.322" transform="translate(-98.638 -50.112)" fill="#fff"/>
            <path id="Path_104962" data-name="Path 104962" d="M103.819,59.153a86.719,86.719,0,0,0,4.339,12.14c-1.721-1.677-4.9-7.1-4.339-12.14" transform="translate(-98.76 -44.236)" fill="#fff"/>
            <path id="Path_104963" data-name="Path 104963" d="M104.835,52.787c.521,3.152,1.6,5.194,3.8,9.394l1.427,2.652c.022-.011-.046.009-.024.02-.012-.021-.039-.066-.053-.087.007.006.077.065.082.072s-.039.03-.023.022c-2.334-1.686-5.749-7.158-5.206-12.073" transform="translate(-99.344 -40.597)" fill="#fff"/>
            <path id="Path_104964" data-name="Path 104964" d="M105.552,48.738c.6,2.945,4.479,8.261,6.262,11.139-3.147-2.7-6.654-7.026-6.262-11.139" transform="translate(-99.77 -38.282)" fill="#fff"/>
            <path id="Path_104965" data-name="Path 104965" d="M106.465,44.572c.57,2.743,4.321,6.707,6.972,10.985-3.064-2.656-7.32-6.992-6.972-10.985" transform="translate(-100.298 -35.901)" fill="#fff"/>
            <path id="Path_104966" data-name="Path 104966" d="M107.363,41.221c.564,2.591,4.546,5.238,7.957,10.523-3.62-3.146-8.216-7.059-7.957-10.523" transform="translate(-100.816 -33.985)" fill="#fff"/>
            <path id="Path_104967" data-name="Path 104967" d="M108.319,38.584c.523,2.195,5.73,4.325,8.97,9.456-4.543-3.866-9.134-6.735-8.97-9.456" transform="translate(-101.367 -32.478)" fill="#fff"/>
            <path id="Path_104968" data-name="Path 104968" d="M109.067,35.989c.287,1.078,1.625,1.35,4.277,2.94a18.8,18.8,0,0,1,5.7,5.45c-5.265-4.422-10.053-6.317-9.976-8.39" transform="translate(-101.796 -30.994)" fill="#fff"/>
            <path id="Path_104969" data-name="Path 104969" d="M109.659,33.956a.487.487,0,0,0,.151.272c.946.856,6.76.409,10.82,6.665-4.525-3.942-7.647-4.477-10.187-5.994-.938-.549-.784-.943-.784-.943" transform="translate(-102.13 -29.832)" fill="#fff"/>
            <path id="Path_104970" data-name="Path 104970" d="M110.467,32.494s-.038.179.487.188a11.552,11.552,0,0,1,11.553,5.342,17.238,17.238,0,0,0-6.8-4.009c-3.05-1.05-5.253-.941-5.241-1.521" transform="translate(-102.596 -28.996)" fill="#fff"/>
            <path id="Path_104971" data-name="Path 104971" d="M110.835,29.587s-.082.107.581-.129c5.334-1.9,9.588-.123,12.546,4.341-3.427-3.056-6.8-4.624-11.786-4.234a5.2,5.2,0,0,1-1.321.061.039.039,0,0,1-.019-.039" transform="translate(-102.805 -26.83)" fill="#fff"/>
            <path id="Path_104972" data-name="Path 104972" d="M111.323,26.32c3.066-2.73,9.354-3.372,14.024,3.184-3.156-2.8-6.025-4.516-10.548-4.063a10.824,10.824,0,0,0-3.476.878" transform="translate(-103.086 -24.348)" fill="#fff"/>
            <path id="Path_104973" data-name="Path 104973" d="M93.682,64.238a15.124,15.124,0,0,1-5.122,6.839,24.915,24.915,0,0,1,5.122-6.839" transform="translate(-90.074 -47.142)" fill="#fff"/>
            <path id="Path_104974" data-name="Path 104974" d="M91.461,57.7a13.8,13.8,0,0,1-7.674,7.413c.96-.595,1.09-.887,7.674-7.413" transform="translate(-87.345 -43.407)" fill="#fff"/>
            <path id="Path_104975" data-name="Path 104975" d="M89.867,52.486A12.884,12.884,0,0,1,80.393,59.5c.01.036-.024-.048-.015-.041s.11-.015.126-.018c0,0-.109.056-.109.057s-.024-.077-.014-.041c6.546-3.87,8.126-5.5,9.488-6.97" transform="translate(-85.395 -40.425)" fill="#fff"/>
            <path id="Path_104976" data-name="Path 104976" d="M89.271,48.543c-1.78,3.657-6.38,5.074-10.412,5.622,3.63-1.822,8.257-3.411,10.412-5.622" transform="translate(-84.528 -38.171)" fill="#fff"/>
            <path id="Path_104977" data-name="Path 104977" d="M89.925,44.209c-1.735,3.5-6.822,4.625-10.806,5.179,2.733-1.371,8.858-3.2,10.806-5.179" transform="translate(-84.677 -35.693)" fill="#fff"/>
            <path id="Path_104978" data-name="Path 104978" d="M89.91,40.856C88.45,43.738,83.763,44.4,78.651,45.1c5.292-2.527,9.342-2.327,11.259-4.248" transform="translate(-84.409 -33.776)" fill="#fff"/>
            <path id="Path_104979" data-name="Path 104979" d="M105.373,16.434a79.358,79.358,0,0,0-4.7,18.456c-.161,1.189-.382,2.428-.641,3.6A28.324,28.324,0,0,0,99.7,48.6a64.521,64.521,0,0,0,.9-9.227,44.43,44.43,0,0,1,.894-7.8,81.888,81.888,0,0,1,4.587-14.864Z" transform="translate(-96.267 -19.816)" fill="#fff"/>
            <path id="Path_104980" data-name="Path 104980" d="M135.4,71.3a82.632,82.632,0,0,1,11.9-3.037c-2.241-.467-8.213-.089-11.9,3.037" transform="translate(-116.848 -49.346)" fill="#fff"/>
            <path id="Path_104981" data-name="Path 104981" d="M130.906,76c2.767-1.267,4.954-1.5,9.44-2l2.855-.285c0,.024-.018-.042,0-.03l-.1.005c.009,0,.093.025.1.026s0-.046.006-.03c-2.574-.946-8.714-.729-12.307,2.317" transform="translate(-114.28 -52.257)" fill="#fff"/>
            <path id="Path_104982" data-name="Path 104982" d="M128.069,80c2.648-1.09,8.91-.861,12.132-.985-3.809-1.049-9.092-1.515-12.132.985" transform="translate(-112.659 -55.108)" fill="#fff"/>
            <path id="Path_104983" data-name="Path 104983" d="M125.257,83.423c2.47-1.01,7.6-.158,12.388-.342-3.729-1.006-9.419-2.059-12.388.342" transform="translate(-111.051 -57.273)" fill="#fff"/>
            <path id="Path_104984" data-name="Path 104984" d="M123.082,86.524c2.347-.934,6.558.8,12.548.682-4.412-1.184-9.95-2.73-12.548-.682" transform="translate(-109.808 -59.31)" fill="#fff"/>
            <path id="Path_104985" data-name="Path 104985" d="M121.5,89.263c2.012-.756,6.467,2.223,12.244,2.05-5.472-1.529-10.182-3.628-12.244-2.05" transform="translate(-108.906 -61.127)" fill="#fff"/>
            <path id="Path_104986" data-name="Path 104986" d="M119.851,91.609c1-.347,1.931.565,4.6,1.813a17.9,17.9,0,0,0,7.339,1.6c-6.3-1.8-10.342-4.576-11.938-3.412" transform="translate(-107.961 -62.631)" fill="#fff"/>
            <path id="Path_104987" data-name="Path 104987" d="M137.609,59.926a14.4,14.4,0,0,0,2.674-7.687,23.737,23.737,0,0,0-2.674,7.687" transform="translate(-118.112 -40.283)" fill="#fff"/>
            <path id="Path_104988" data-name="Path 104988" d="M133.079,61.244a13.142,13.142,0,0,0,1.769-10.008c.042,1.075-.12,1.333-1.769,10.008" transform="translate(-115.523 -39.71)" fill="#fff"/>
            <path id="Path_104989" data-name="Path 104989" d="M129.4,63.061a12.272,12.272,0,0,0,.493-11.217c.035-.012-.051.007-.04.009s.046.1.053.109c0,0-.014-.115-.013-.117s-.074.022-.04.011c.428,7.23-.014,9.344-.453,11.2" transform="translate(-113.42 -40.055)" fill="#fff"/>
            <path id="Path_104990" data-name="Path 104990" d="M125.151,65.665c1.94-3.353.61-7.741-1.1-11.218.494,3.837,1.7,8.338,1.1,11.218" transform="translate(-110.36 -41.546)" fill="#fff"/>
            <path id="Path_104991" data-name="Path 104991" d="M121.722,69.035c1.841-3.234.106-7.677-1.578-11.119.373,2.888,2.108,8.524,1.578,11.119" transform="translate(-108.128 -43.529)" fill="#fff"/>
            <path id="Path_104992" data-name="Path 104992" d="M117.971,71.238c1.5-2.687-.47-6.744-2.64-11.153.821,5.524,3.136,8.617,2.64,11.153" transform="translate(-105.377 -44.768)" fill="#fff"/>
            <path id="Path_104993" data-name="Path 104993" d="M114.229,74.187c1.163-2.158-1.2-5.609-3.83-10.834.822,5.846,4.23,8.6,3.83,10.834" transform="translate(-102.558 -46.637)" fill="#fff"/>
            <path id="Path_104994" data-name="Path 104994" d="M110.512,76.833c.854-1.681-2.255-4.3-5.274-10.253a14.826,14.826,0,0,0,3.387,7.289c1.3,1.554,2.024,2.065,1.887,2.964" transform="translate(-99.608 -48.481)" fill="#fff"/>
            <path id="Path_104995" data-name="Path 104995" d="M106.687,76.939A75.616,75.616,0,0,1,118.761,63.4c.853-.76,1.714-1.594,2.5-2.422a26.982,26.982,0,0,1,7.8-5.647,61.509,61.509,0,0,1-6.807,5.627,42.315,42.315,0,0,0-5.682,4.858,77.991,77.991,0,0,0-9.3,11.537Z" transform="translate(-100.436 -42.051)" fill="#fff"/>
          </g>
        </g>
        <g id="Group_88757" data-name="Group 88757" transform="translate(0 0)">
          <g id="Group_88756" data-name="Group 88756" clip-path="url(#clip-path-7)">
            <path id="Path_104997" data-name="Path 104997" d="M56.613,6.838q-.253-.2-.5-.4H51.779a1.935,1.935,0,0,0-.069.4Z" transform="translate(-33.069 -4.942)" fill="#fff"/>
            <path id="Path_104998" data-name="Path 104998" d="M58.084,14.81l1.483-1.483a.1.1,0,0,1,.071-.03h2.208q-.17-.1-.339-.213H59.357l-1.449,1.448a.1.1,0,0,1-.071.03H54.811l.122.248Z" transform="translate(-34.842 -8.739)" fill="#fff"/>
            <path id="Path_104999" data-name="Path 104999" d="M55.75,3.952a2.285,2.285,0,0,0-2.328-.376,2.306,2.306,0,0,0-.5.374Z" transform="translate(-33.76 -3.196)" fill="#fff"/>
            <path id="Path_105000" data-name="Path 105000" d="M55.291,10.771a.334.334,0,0,1-.315-.231H52.533c.128.272.262.55.4.831h3.083l1.449-1.448a.1.1,0,0,1,.071-.03H59.43c-.883-.614-1.747-1.36-2.571-2.039H51.7a3.66,3.66,0,0,0,.127.856h4.537a.331.331,0,1,1-.017.209H51.882c.056.186.123.377.2.572h1.576a.331.331,0,1,1-.016.209H52.162c.085.209.179.422.278.64h2.536a.331.331,0,1,1,.315.432" transform="translate(-33.062 -5.749)" fill="#fff"/>
            <path id="Path_105001" data-name="Path 105001" d="M129.026,24.244a1.711,1.711,0,0,1,.516.176l-.4-.29Z" transform="translate(-77.266 -15.053)" fill="#fff"/>
            <path id="Path_105002" data-name="Path 105002" d="M81.425,15.371c.007-.309.015-1.055.018-1.668a7.66,7.66,0,0,1-2.174.743l.933.925Z" transform="translate(-48.823 -9.093)" fill="#fff"/>
            <path id="Path_105003" data-name="Path 105003" d="M56.031,5.5c-.159-.119-.317-.233-.473-.338H52.241a1.648,1.648,0,0,0-.2.338Z" transform="translate(-33.26 -4.213)" fill="#fff"/>
            <path id="Path_105004" data-name="Path 105004" d="M117.17,20.767a.331.331,0,1,1,0-.208h.766l-.041.037a3.4,3.4,0,0,1,2-.9l.215-.215-.742-.539-.815.815a.331.331,0,1,1-.627.148.33.33,0,0,1,.479-.3l.792-.791-.789-.576-.106.106v.1a.331.331,0,1,1-.39.326.328.328,0,0,1,.189-.3v-.169a.1.1,0,0,1,.03-.071l.114-.114-.535-.392-.49.49v.238a.331.331,0,1,1-.2,0v-.28a.1.1,0,0,1,.03-.071l.5-.5-1.018-.749v2.329l.427.428a.328.328,0,0,1,.164-.044.331.331,0,1,1-.331.331.319.319,0,0,1,.028-.13l-.5-.5v-2.57l-.663-.49v5.764a.1.1,0,0,1-.03.071l-2.069,2.069a.33.33,0,0,1,.038.152.326.326,0,0,1-.065.195c.206-.158.41-.314.605-.469l.152-.132.01,0c1.211-.975,2.329-2.227,3.386-3.1Zm-.684.563a.331.331,0,1,1,0-.209h.73L117,21.33Z" transform="translate(-68.407 -10.531)" fill="#fff"/>
            <path id="Path_105005" data-name="Path 105005" d="M73.33,21.956a.331.331,0,1,1,.183-.3.326.326,0,0,1-.036.148l.19.19c.741-.338,1.43-.687,2.076-1.04V20.82H72.789l-.937.937H67.776a.331.331,0,1,1,0-.209h3.989l.937-.937h3.249v.231c.784-.437,1.5-.881,2.168-1.323a.3.3,0,0,1-.035-.065h-1.3l-.822.821a.1.1,0,0,1-.071.03H70.5l-.261.261a.331.331,0,1,1-.128-.156l.276-.276a.1.1,0,0,1,.071-.03h5.385l.822-.821a.1.1,0,0,1,.071-.03h1.344a.333.333,0,0,1,.314-.231.318.318,0,0,1,.256.133q.261-.181.512-.361l-.207-.207V17.358l.943-.943a.325.325,0,0,1-.036-.147.331.331,0,1,1,.331.331.328.328,0,0,1-.148-.036l-.882.882V18.5l.17.17q.4-.288.768-.57a.327.327,0,0,1-.118.023.331.331,0,0,1,0-.662.328.328,0,0,1,.152.037l2.04-2.04V9.587l-.44-.328v5.273a.331.331,0,1,1-.2,0V9.109l-.2-.152v5.072a.1.1,0,0,1-.03.071l-.294.294a.318.318,0,0,1,.014.094.333.333,0,1,1-.13-.262l.239-.239V8.806l-.173-.13L80.8,8.55v4.3a.331.331,0,1,1-.2,0V8.4l-.256-.2-.045.045v4.108a.1.1,0,0,1-.03.071l-1.345,1.346v.445a.332.332,0,1,1-.2,0v-.486a.1.1,0,0,1,.03-.071l1.345-1.345V8.205a.1.1,0,0,1,.03-.071l.056-.055-.093-.072L79.9,8.2v2.743L78.455,12.38v3.131l.48.48a.322.322,0,0,1,.18-.055.331.331,0,1,1-.331.332.322.322,0,0,1,.02-.112l-.558-.558v-3.3l1.442-1.442V8.109l.231-.23-.132-.1L78.073,9.49v3.393a.1.1,0,0,1-.03.071l-.392.392v2.792a.1.1,0,0,1-.029.071l-.3.3a.319.319,0,0,1,.018.1.332.332,0,1,1-.138-.268l.25-.25V13.3a.1.1,0,0,1,.029-.071l.392-.392V9.449a.1.1,0,0,1,.03-.072l1.725-1.725c-.538-.418-1.056-.821-1.543-1.186V8.005a.331.331,0,1,1-.209,0V6.311a6.157,6.157,0,0,0-2.663-1.432,3.842,3.842,0,0,0-.628.054L77.255,7.6a.1.1,0,0,1,.029.071v3.362a.1.1,0,0,1-.029.071L75.542,12.82a.1.1,0,0,1-.071.03h-.622l-.591.59v2.533a.1.1,0,0,1-.029.071l-.644.644a.346.346,0,0,1,.012.089.332.332,0,1,1-.332-.331.328.328,0,0,1,.205.072l.587-.586V13.4a.1.1,0,0,1,.029-.071l.65-.649a.1.1,0,0,1,.071-.03h.622l1.654-1.654V7.715L74.348,4.981a5.973,5.973,0,0,0-1.124.383l3.543,3.544a.1.1,0,0,1,.03.071v1.867a.1.1,0,0,1-.03.071l-1.439,1.439a.1.1,0,0,1-.071.03h-.748l-.649.649v2.209a.1.1,0,0,1-.03.071l-.248.249a.331.331,0,1,1-.316-.232.327.327,0,0,1,.2.066l.2-.2V12.992a.1.1,0,0,1,.029-.071l.708-.708a.1.1,0,0,1,.071-.03h.748L76.6,10.8V9.019L73.028,5.452c-.165.079-.33.165-.5.255v1.9l.8.8a.1.1,0,0,1,.029.071V9.744a.331.331,0,1,1-.2,0V8.522l-.8-.8a.1.1,0,0,1-.029-.071V5.818q-.231.131-.462.272v5.566a.1.1,0,0,1-.03.071l-.082.082a.311.311,0,0,1,.016.1.331.331,0,1,1-.331-.331.327.327,0,0,1,.2.066l.03-.03v-5.4c-.368.23-.738.476-1.112.726v5.1l.383.383h1.3a.1.1,0,0,1,.072.03l.677.677a.1.1,0,0,1,.029.071v.711l.1.1a.321.321,0,0,1,.151-.037.333.333,0,1,1-.293.179l-.126-.126a.1.1,0,0,1-.03-.071v-.711l-.619-.619H70.9a.1.1,0,0,1-.071-.029l-.442-.442a.1.1,0,0,1-.03-.071v-5l-.12.08v5.256l.56.56H71.9c.046,0,.1,0,.613.571a.1.1,0,0,1,.026.067v1.74a.1.1,0,0,1-.03.071l-.667.667a.322.322,0,0,1,.025.123.335.335,0,1,1-.154-.278l.624-.624V13.648a6.435,6.435,0,0,0-.463-.476H70.755a.1.1,0,0,1-.071-.03l-.618-.619a.1.1,0,0,1-.03-.071V7.289q-.24.159-.482.317l.228.339a.086.086,0,0,1,.022.062v4.844l.529.529h1.21a.1.1,0,0,1,.071.03l.495.495a.1.1,0,0,1,.03.071v.882a.1.1,0,0,1-.03.072l-1.154,1.154v.58l.166.166h.918a.1.1,0,0,1,.071.03l.619.619h1.409l.562-.562a.331.331,0,1,1,.3.193.32.32,0,0,1-.165-.045l-.586.585a.1.1,0,0,1-.071.03H72.687a.1.1,0,0,1-.071-.03L72,17.029h-.917A.1.1,0,0,1,71.009,17l-.225-.225a.1.1,0,0,1-.029-.071v-.663a.1.1,0,0,1,.029-.071l1.155-1.155v-.8l-.437-.436h-1.21a.1.1,0,0,1-.071-.029l-.588-.589a.1.1,0,0,1-.03-.071V8.042l-.22-.326-.215.137.161.265a.1.1,0,0,1,.023.063v4.887L70.485,14.2h.332a.331.331,0,1,1,0,.2h-.374a.1.1,0,0,1-.071-.03l-1.191-1.191a.1.1,0,0,1-.03-.071V8.214L69,7.959q-.164.1-.329.2l.285.287a.1.1,0,0,1,.03.071v6.351l.349.349a.323.323,0,0,1,.152-.038.331.331,0,1,1-.332.332.323.323,0,0,1,.038-.152l-.378-.379a.1.1,0,0,1-.03-.071V8.558l-.293-.295-.162.092.211.229a.1.1,0,0,1,.029.07V13.09a.1.1,0,0,1-.033.074l-.374.338a.3.3,0,0,1,.009.072.331.331,0,1,1-.332-.331.323.323,0,0,1,.218.083l.311-.281V8.7l-.221-.239-.179.1c0,.593-.009,1.366-.024,1.884l0,.1H66.427l-1.106-1.1a5.175,5.175,0,0,1-.589.037,4.759,4.759,0,0,1-2.242-.668H59.973l-1.484,1.484a.1.1,0,0,1-.071.029h-3.1c.171.354.34.713.5,1.074h3.044l1.044-1.044a.1.1,0,0,1,.071-.03H62.36a.1.1,0,0,1,.071.03l.566.566h1.618a.1.1,0,0,1,.071.03l.48.481h.287l.336-.336a.1.1,0,0,1,.071-.03h1.067a.1.1,0,0,1,.071.03l.673.673a.326.326,0,0,1,.165-.045.331.331,0,1,1-.3.194l-.65-.65H65.9l-.336.336a.1.1,0,0,1-.071.03h-.37a.1.1,0,0,1-.071-.03l-.481-.48H62.955a.1.1,0,0,1-.071-.029l-.567-.566h-2.3l-1.044,1.044a.1.1,0,0,1-.071.029h-3q.051.121.1.243h3.067l1-1a.1.1,0,0,1,.071-.03h1.961a.1.1,0,0,1,.071.03l.515.514H64.4a.1.1,0,0,1,.071.03l.569.569h.884a.331.331,0,1,1,0,.2H65a.1.1,0,0,1-.071-.03l-.569-.569H62.65a.1.1,0,0,1-.071-.03l-.515-.514H60.187l-1,1a.1.1,0,0,1-.071.03H56.084c.026.067.052.135.077.2,0,.009.007.018.009.027H59.64l.948-.948a.1.1,0,0,1,.071-.03h1.286a.1.1,0,0,1,.071.03l.478.477h1.76a.1.1,0,0,1,.071.03l.661.661h.872a.1.1,0,0,1,.071.029l.388.388a.323.323,0,0,1,.152-.038.331.331,0,1,1-.332.331.323.323,0,0,1,.038-.152l-.358-.358h-.873a.1.1,0,0,1-.071-.029L64.213,12h-1.76a.1.1,0,0,1-.071-.03l-.478-.477H60.7l-.948.948a.1.1,0,0,1-.071.029H56.244l.1.288h3.462l.867-.867a.1.1,0,0,1,.071-.03h.311a.331.331,0,1,1,0,.2h-.269l-.867.867a.1.1,0,0,1-.071.029H56.419l.1.286h3.325l.654-.654a.1.1,0,0,1,.071-.03h1.069l.383-.383a.1.1,0,0,1,.071-.03h2.044a.1.1,0,0,1,.071.029l.729.729a.324.324,0,0,1,.152-.038.331.331,0,1,1-.331.331.323.323,0,0,1,.038-.152l-.7-.7H62.136l-.384.383a.1.1,0,0,1-.071.029H60.611l-.654.655a.1.1,0,0,1-.071.03h-3.3c.022.063.043.127.065.191H60.1l.577-.577a.1.1,0,0,1,.071-.029h1.1l.438-.439a.1.1,0,0,1,.071-.03h1.128a.1.1,0,0,1,.071.03l.29.289a.322.322,0,0,1,.088-.012.331.331,0,1,1-.331.331.326.326,0,0,1,.072-.205l-.231-.232H62.406l-.438.439a.1.1,0,0,1-.071.03h-1.1l-.577.577a.1.1,0,0,1-.071.03H56.721c.022.067.044.136.066.2h3.749l.151-.151a.325.325,0,0,1-.039-.153.331.331,0,1,1,.332.332.326.326,0,0,1-.15-.037l-.181.181a.1.1,0,0,1-.071.03H56.852l.043.131h4.764l.483-.483a.1.1,0,0,1,.071-.03h1.36a.1.1,0,0,1,.071.029l.225.225a.331.331,0,1,1-.259.323.325.325,0,0,1,.081-.216l-.16-.159H62.255l-.484.483a.1.1,0,0,1-.071.03H56.957c.019.061.038.123.056.184h5.174l.169-.17a.332.332,0,1,1,.142.142l-.2.2a.1.1,0,0,1-.071.03H57.074l.043.147h4.923a.1.1,0,0,1,.071.03l.261.262a.325.325,0,0,1,.152-.038.331.331,0,1,1-.332.331.325.325,0,0,1,.038-.152L62,15.3H57.175c.017.059.034.117.051.177H61.61a.1.1,0,0,1,.071.03l.6.6H66.3l1.229-1.229a.322.322,0,0,1-.025-.126.331.331,0,1,1,.331.332.326.326,0,0,1-.176-.051l-1.245,1.245a.1.1,0,0,1-.071.03H62.237a.1.1,0,0,1-.071-.03l-.6-.6H57.282c.017.061.033.125.05.187h1.6A.1.1,0,0,1,59,15.9l.927.927h2.1l.261-.262a.1.1,0,0,1,.072-.029h2.453a.1.1,0,0,1,.071.03l.315.314a.331.331,0,1,1-.2.3.323.323,0,0,1,.047-.167l-.278-.278H62.4L62.143,17a.1.1,0,0,1-.071.029H59.884a.1.1,0,0,1-.071-.03l-.927-.927h-1.5c.014.054.029.107.042.161h1.328a.1.1,0,0,1,.071.03l.942.942h3.062a.331.331,0,1,1,0,.2h-3.1a.1.1,0,0,1-.071-.03l-.942-.942H57.478l.043.178h.924a.1.1,0,0,1,.071.03l.948.942h3.03a.1.1,0,0,1,.071.03l.27.27h.727l.447-.447a.319.319,0,0,1-.028-.13.334.334,0,1,1,.16.282l-.467.466a.1.1,0,0,1-.071.03h-.81a.1.1,0,0,1-.071-.03l-.27-.27H59.417a.1.1,0,0,1-.029,0h-.014v0a.108.108,0,0,1-.028-.02h0l-.942-.942H57.57c.025.106.05.214.074.322h.721l.92.92h3a.1.1,0,0,1,.071.03l.77.77h.161a.331.331,0,1,1,0,.2h-.2a.1.1,0,0,1-.071-.03l-.77-.77h-3a.1.1,0,0,1-.071-.029l-.9-.909h-.591q.146.664.27,1.376h2.584a.328.328,0,0,1,.314-.23.331.331,0,1,1-.315.431H57.988l.013.074,1.472,1.492H62.7l4.518-4.518a.331.331,0,1,1,.3.193.319.319,0,0,1-.164-.045L62.811,20.63a.1.1,0,0,1-.071.03H59.432a.1.1,0,0,1-.071-.03l-1.306-1.324c.031.2.061.4.09.611l1.1,1.115h3.548l3.624-3.624a.1.1,0,0,1,.072-.03H68.33L69,16.706a.1.1,0,0,1,.071-.029h.1a.331.331,0,1,1,0,.2h-.055l-.672.671a.1.1,0,0,1-.071.03H66.525L62.9,21.2a.1.1,0,0,1-.071.03H59.2a.1.1,0,0,1-.071-.03l-.944-.96c.053.428.1.864.138,1.319h2.738a.331.331,0,1,1,0,.2H58.336c.013.17.026.342.037.516h2.555a.1.1,0,0,1,.071.029l.284.285h1.522l.376-.376V21.3a.1.1,0,0,1,.03-.071l3.369-3.369a.1.1,0,0,1,.071-.03h2.036l.429-.429a.1.1,0,0,1,.071-.03h2.895a.1.1,0,0,1,.071.029l.5.495h2.62l.7-.7v-.934a.1.1,0,0,1,.03-.071l.708-.709a.328.328,0,0,1-.033-.144.332.332,0,1,1,.332.331.326.326,0,0,1-.159-.042l-.675.675v.934a.1.1,0,0,1-.03.071l-.76.761a.1.1,0,0,1-.071.029h-2.7a.1.1,0,0,1-.071-.029l-.495-.495H69.23L68.8,18a.1.1,0,0,1-.071.03H66.693l-3.31,3.31v.913a.1.1,0,0,1-.03.071l-.435.435a.1.1,0,0,1-.071.029H61.243a.1.1,0,0,1-.071-.029l-.284-.284h-2.5c0,.081.007.165.011.248h1.832a.1.1,0,0,1,.071.03l.509.508h2.3l.65-.649v-.882a.1.1,0,0,1,.03-.071l2.927-2.927a.1.1,0,0,1,.071-.03h3.986a.1.1,0,0,1,.071.029l.789.789h4.012l2.476-2.476a.323.323,0,0,1-.016-.1.331.331,0,1,1,.332.331.326.326,0,0,1-.2-.066l-2.482,2.482a.1.1,0,0,1-.071.029h-4.1a.1.1,0,0,1-.071-.029l-.789-.789h-3.9l-2.869,2.868v.882a.1.1,0,0,1-.03.071l-.708.708a.1.1,0,0,1-.072.03H60.767a.1.1,0,0,1-.071-.03l-.508-.508h-1.78c.006.128.013.252.018.382a20.874,20.874,0,0,0,5.2.876l.832-.832h.575V22a.332.332,0,1,1,.209,0v1.559h-.7l-.637.637c.326.012.662.019,1.008.019s.689-.018,1.035-.042l-.069-.069a.1.1,0,0,1-.029-.071V22.907a.331.331,0,1,1,.2,0v1.087l.16.16a20.367,20.367,0,0,0,4.879-1.1c.844-.307,1.631-.629,2.369-.96ZM73.6,12.4a.331.331,0,1,1-.332-.331.322.322,0,0,1,.142.033l1.071-1.071V8.689L73.414,7.624a.334.334,0,1,1,.148-.148L74.688,8.6v2.511l-1.129,1.129a.327.327,0,0,1,.039.154m-8.28-1.355a.332.332,0,0,1-.332-.331.326.326,0,0,1,.036-.148L64.4,9.937H60.389a.331.331,0,1,1,0-.209h4.093l.687.687a.331.331,0,1,1,.148.627m-4.465,5.622a.331.331,0,1,1,.331-.332.332.332,0,0,1-.331.332m6.985.445a.331.331,0,1,1,.332-.332.332.332,0,0,1-.332.332m-5.1,4.884a.331.331,0,1,1,.332-.331.332.332,0,0,1-.332.331M75,15.869a.331.331,0,0,1-.1-.645V14.149l.031-.03,1.735-1.735a.328.328,0,0,1-.034-.144.332.332,0,1,1,.179.294l-1.7,1.7v.989a.331.331,0,0,1-.1.645m1.965-1.806a.323.323,0,0,1-.146-.035l-.525.525a.325.325,0,0,1,.035.146.333.333,0,1,1-.182-.295l.523-.523a.331.331,0,1,1,.294.182m-5.977,8.889a.333.333,0,0,1-.315-.231H67.143a.1.1,0,0,1-.071-.03l-.744-.744a.1.1,0,0,1-.03-.071V20.747a.331.331,0,1,1,.2,0v1.087l.685.685h3.49a.331.331,0,1,1,.315.432" transform="translate(-35.134 -4.049)" fill="#fff"/>
          </g>
        </g>
      </g>
    </g>
  </g>
</svg>
