<svg xmlns="http://www.w3.org/2000/svg" width="38.549" height="38.549" viewBox="0 0 38.549 38.549">
  <g id="Page-1_17_" transform="translate(0 0)">
    <g id="_x30_19---Technology-Engineering" transform="translate(0 0)">
      <path id="Shape_65_" d="M1.6,16.9A1.8,1.8,0,0,0,.1,18.455a16.625,16.625,0,0,0,0,3.61,1.811,1.811,0,0,0,1.5,1.584l2.044.335A15.793,15.793,0,0,0,5.6,28.711L4.4,30.391a1.8,1.8,0,0,0,.028,2.177A17.2,17.2,0,0,0,5.65,33.911c.395.4.831.792,1.354,1.232a1.794,1.794,0,0,0,2.154.025l1.689-1.212a15.787,15.787,0,0,0,4.722,1.962l.335,2.048a1.8,1.8,0,0,0,1.552,1.5c.366.041.738.07,1.113.085h.055a1.307,1.307,0,0,0,.9-.36,1.274,1.274,0,0,0,.394-.924V33.117a1.29,1.29,0,0,0-1.234-1.282,11.574,11.574,0,0,1,0-23.117,1.291,1.291,0,0,0,1.234-1.285V2.287A1.29,1.29,0,0,0,18.572,1c-.374.015-.745.042-1.125.08a1.792,1.792,0,0,0-1.542,1.5L15.57,4.632A15.792,15.792,0,0,0,10.848,6.6L9.159,5.386a1.8,1.8,0,0,0-2.17.035A17.5,17.5,0,0,0,5.654,6.634,15.537,15.537,0,0,0,4.421,7.99a1.8,1.8,0,0,0-.031,2.161L5.6,11.842a15.782,15.782,0,0,0-1.959,4.726Zm3.208.358a14.554,14.554,0,0,1,2.111-5.087.642.642,0,0,0-.015-.728L5.436,9.4a.514.514,0,0,1-.01-.608A14.158,14.158,0,0,1,6.558,7.55a16.478,16.478,0,0,1,1.227-1.12.514.514,0,0,1,.623,0L10.451,7.9a.643.643,0,0,0,.728.014A14.529,14.529,0,0,1,16.263,5.8a.643.643,0,0,0,.5-.526l.4-2.474a.509.509,0,0,1,.42-.436c.34-.035.684-.06,1.04-.075l-.014,5.147a12.858,12.858,0,0,0,.014,25.683l-.009,5.149q-.518-.021-1.024-.079a.5.5,0,0,1-.427-.429l-.4-2.475a.643.643,0,0,0-.5-.526,14.533,14.533,0,0,1-5.084-2.112.642.642,0,0,0-.728.014L8.406,34.125a.505.505,0,0,1-.6.016c-.472-.4-.881-.771-1.25-1.139a16.23,16.23,0,0,1-1.12-1.226.521.521,0,0,1,0-.625L6.9,29.107a.642.642,0,0,0,.014-.728A14.547,14.547,0,0,1,4.8,23.293a.643.643,0,0,0-.525-.5l-2.474-.405a.52.52,0,0,1-.432-.457,15.194,15.194,0,0,1,0-3.325.5.5,0,0,1,.429-.428l2.473-.4a.642.642,0,0,0,.526-.507Z" transform="translate(0 -1)" fill="#b89535"/>
      <path id="Shape_64_" d="M169.367,37.229a1.928,1.928,0,0,0-1.809,1.285h-14.9V36.586h10.28a1.927,1.927,0,0,0,1.927-1.927V31.328a1.927,1.927,0,1,0-1.285,0v3.331a.643.643,0,0,1-.642.643H152.663V33.374h7.067a.643.643,0,0,0,0-1.285h-7.067V30.8h3.855a1.927,1.927,0,0,0,1.927-1.927V24.9a1.927,1.927,0,1,0-1.285,0v3.973a.643.643,0,0,1-.642.643h-4.024a1.187,1.187,0,0,0-1.128-.622,10.28,10.28,0,0,0,0,20.518h.075a1.185,1.185,0,0,0,1.052-.622h4.024a.643.643,0,0,1,.642.643v3.973a1.927,1.927,0,1,0,1.285,0V49.436a1.927,1.927,0,0,0-1.927-1.927h-3.855V46.224h7.067a.642.642,0,0,0,0-1.285h-7.067V43.011h10.28a.643.643,0,0,1,.643.642v3.331a1.927,1.927,0,1,0,1.285,0V43.654a1.927,1.927,0,0,0-1.927-1.927h-10.28V39.8h14.9a1.924,1.924,0,1,0,1.809-2.57Zm-5.14-8.352a.643.643,0,1,1-.642.643A.642.642,0,0,1,164.228,28.877ZM157.8,22.452a.642.642,0,1,1-.642.643A.643.643,0,0,1,157.8,22.452Zm0,33.409a.643.643,0,1,1,.643-.643A.642.642,0,0,1,157.8,55.861Zm6.425-6.425a.642.642,0,1,1,.642-.643A.642.642,0,0,1,164.228,49.436Zm-21.2-10.28a9.006,9.006,0,0,1,8.352-8.972V48.128a9.006,9.006,0,0,1-8.352-8.972Zm26.342.642a.642.642,0,1,1,.642-.643A.643.643,0,0,1,169.367,39.8Z" transform="translate(-132.746 -19.88)" fill="#b89535"/>
    </g>
  </g>
</svg>
