<svg xmlns="http://www.w3.org/2000/svg" width="40.599" height="36.144" viewBox="0 0 43.599 36.144">
  <g id="_10-awareness" data-name="10-awareness" transform="translate(-3.55 -47.55)">
    <g id="linear_color" data-name="linear color" transform="translate(4 48)">
      <path id="Path_104810" data-name="Path 104810" d="M35.516,48a2.714,2.714,0,0,0-2.711,2.711v.451a30.171,30.171,0,0,1-9.626,6.394,25.378,25.378,0,0,1-8,2.3H7.05A3.053,3.053,0,0,0,4,62.911v5.422a3.053,3.053,0,0,0,3.05,3.05H8.744V78.5a1.017,1.017,0,0,0,1.017,1.017H13.15a1.017,1.017,0,0,0,.986-.77l1.826-7.3a29.864,29.864,0,0,1,7.217,2.245,30.171,30.171,0,0,1,9.626,6.394v.451a2.711,2.711,0,0,0,5.422,0V50.711A2.714,2.714,0,0,0,35.516,48ZM14.166,69.35H10.778V61.894h3.389ZM6.033,68.333V62.911A1.018,1.018,0,0,1,7.05,61.894H8.744V69.35H7.05A1.018,1.018,0,0,1,6.033,68.333Zm6.323,9.15H10.778v-6.1h3.1ZM16.2,69.428V61.816a36.434,36.434,0,0,0,16.605-7.833V77.261A36.434,36.434,0,0,0,16.2,69.428Zm19.994,11.1a.678.678,0,0,1-1.356,0V50.711a.678.678,0,0,1,1.356,0Z" transform="translate(-4 -48)" fill="#b89535" stroke="#f9f7f2" stroke-width="0.9" style="fill: #fff;stroke: #b89535;"/>
      <path id="Path_104811" data-name="Path 104811" d="M448.405,244h-3.389a1.017,1.017,0,0,0,0,2.033h3.389a1.017,1.017,0,1,0,0-2.033Z" transform="translate(-406.723 -227.395)" fill="#b89535" stroke="#f9f7f2" stroke-width="0.9" style="fill: #fff;&#13;&#10;    stroke: #b89535;"/>
      <path id="Path_104812" data-name="Path 104812" d="M425.263,143.5a1.012,1.012,0,0,0,.44-.1l3.055-1.469a1.017,1.017,0,1,0-.881-1.833l-3.054,1.469a1.017,1.017,0,0,0,.441,1.933Z" transform="translate(-388.642 -132.203)" fill="#b89535" stroke="#f9f7f2" stroke-width="0.9" style="fill: #fff;&#13;&#10;    stroke: #b89535;"/>
      <path id="Path_104813" data-name="Path 104813" d="M428.76,332.233l-3.054-1.468a1.017,1.017,0,1,0-.881,1.832l3.054,1.469a1.017,1.017,0,1,0,.881-1.833Z" transform="translate(-388.644 -306.716)" fill="#b89535" stroke="#f9f7f2" stroke-width="0.9" style="fill: #fff;&#13;&#10;    stroke: #b89535;"/>
    </g>
  </g>
</svg>