<svg xmlns="http://www.w3.org/2000/svg" width="35.198" height="38.749" viewBox="0 0 35.198 38.749">
  <g id="shield" transform="translate(0.1 0.1)">
    <g id="Group_88352" data-name="Group 88352" transform="translate(16.235 17.487)">
      <g id="Group_88351" data-name="Group 88351">
        <path id="Path_101217" data-name="Path 101217" d="M240.5,232.255a1.284,1.284,0,0,0-.549,2.446v1.562a.549.549,0,1,0,1.1,0V234.7a1.284,1.284,0,0,0-.549-2.446Z" transform="translate(-239.214 -232.255)" fill="#b89535" stroke="#b89535" stroke-width="0.2"/>
      </g>
    </g>
    <g id="Group_88354" data-name="Group 88354" transform="translate(2.695 2.541)">
      <g id="Group_88353" data-name="Group 88353">
        <path id="Path_101218" data-name="Path 101218" d="M87.9,39.577a9.756,9.756,0,0,1-5.279-4.847,1.734,1.734,0,0,0-1.561-.981H67.309a1.734,1.734,0,0,0-1.561.981,9.755,9.755,0,0,1-5.278,4.847,1.719,1.719,0,0,0-1.091,1.609v3.344a23.358,23.358,0,0,0,3.7,12.522,26.879,26.879,0,0,0,10.232,9.3l.069.036a1.732,1.732,0,0,0,1.612,0l.07-.037a26.88,26.88,0,0,0,10.232-9.3,23.359,23.359,0,0,0,3.7-12.522V41.185A1.719,1.719,0,0,0,87.9,39.577Zm-.007,4.953a22.264,22.264,0,0,1-3.525,11.934,25.783,25.783,0,0,1-9.816,8.912l-.07.036a.635.635,0,0,1-.591,0l-.069-.036A25.782,25.782,0,0,1,64,56.463a22.264,22.264,0,0,1-3.526-11.934V41.185a.628.628,0,0,1,.4-.589,10.848,10.848,0,0,0,5.866-5.4.631.631,0,0,1,.57-.355H81.057a.631.631,0,0,1,.57.355,10.849,10.849,0,0,0,5.866,5.4.628.628,0,0,1,.4.589Z" transform="translate(-59.379 -33.749)" fill="#b89535" stroke="#b89535" stroke-width="0.2"/>
      </g>
    </g>
    <g id="Group_88356" data-name="Group 88356" transform="translate(0.6 18.483)">
      <g id="Group_88355" data-name="Group 88355">
        <path id="Path_101219" data-name="Path 101219" d="M64.92,245.532a.548.548,0,0,0-.656.414A26.79,26.79,0,0,1,50.3,263.534l-1.674.88a.371.371,0,0,1-.345,0l-1.674-.88a26.782,26.782,0,0,1-13.968-17.618.549.549,0,0,0-1.07.24A27.876,27.876,0,0,0,46.1,264.5l1.674.88a1.468,1.468,0,0,0,1.366,0l1.674-.88a27.884,27.884,0,0,0,14.521-18.317A.549.549,0,0,0,64.92,245.532Z" transform="translate(-31.557 -245.487)" fill="#b89535" stroke="#b89535" stroke-width="0.2"/>
      </g>
    </g>
    <g id="Group_88358" data-name="Group 88358" transform="translate(0)">
      <g id="Group_88357" data-name="Group 88357">
        <path id="Path_101220" data-name="Path 101220" d="M57.28,6.278a6.1,6.1,0,0,1-5.6-5A1.482,1.482,0,0,0,50.223,0H31.943a1.482,1.482,0,0,0-1.455,1.277,6.1,6.1,0,0,1-5.6,5,1.458,1.458,0,0,0-1.3,1.459v5.891a25.253,25.253,0,0,0,.132,2.572.549.549,0,0,0,.545.493l.057,0a.549.549,0,0,0,.49-.6,24.159,24.159,0,0,1-.126-2.46V7.736A.368.368,0,0,1,25,7.369a7.2,7.2,0,0,0,6.573-5.939.375.375,0,0,1,.369-.332H50.223a.375.375,0,0,1,.369.332,7.2,7.2,0,0,0,6.573,5.939.368.368,0,0,1,.32.367v5.891a24.168,24.168,0,0,1-.123,2.435.549.549,0,0,0,1.092.111,25.258,25.258,0,0,0,.129-2.546V7.736A1.458,1.458,0,0,0,57.28,6.278Z" transform="translate(-23.584)" fill="#b89535" stroke="#b89535" stroke-width="0.2"/>
      </g>
    </g>
    <g id="Group_88360" data-name="Group 88360" transform="translate(9.512 5.713)">
      <g id="Group_88359" data-name="Group 88359">
        <path id="Path_101221" data-name="Path 101221" d="M164.2,83.864h-.9V81.246a5.361,5.361,0,0,0-10.721,0v2.619h-.9a1.747,1.747,0,0,0-1.745,1.745v7.855a1.747,1.747,0,0,0,1.745,1.745H164.2a1.747,1.747,0,0,0,1.745-1.745V85.609A1.747,1.747,0,0,0,164.2,83.864Zm-10.526-2.619a4.263,4.263,0,0,1,8.527,0v2.619h-8.527Zm11.174,12.219a.648.648,0,0,1-.648.648H151.672a.648.648,0,0,1-.648-.648V85.609a.648.648,0,0,1,.648-.648H164.2a.648.648,0,0,1,.648.648Z" transform="translate(-149.927 -75.885)" fill="#b89535" stroke="#b89535" stroke-width="0.2"/>
      </g>
    </g>
  </g>
</svg> 