<svg xmlns="http://www.w3.org/2000/svg" width="33.367" height="35.736" viewBox="0 0 33.367 35.736">
  <g id="maintenance" transform="translate(-15.9 0.1)">
    <g id="Group_88388" data-name="Group 88388" transform="translate(21.923 20.137)">
      <g id="Group_88387" data-name="Group 88387">
        <path id="Path_101297" data-name="Path 101297" d="M100.738,272a4.738,4.738,0,1,0,4.738,4.738A4.738,4.738,0,0,0,100.738,272Zm0,8.292a3.554,3.554,0,1,1,3.554-3.554A3.554,3.554,0,0,1,100.738,280.292Z" transform="translate(-96 -272)" fill="#b89535" stroke="#f9f7f2" stroke-width="0.2"/>
      </g>
    </g>
    <g id="Group_88390" data-name="Group 88390" transform="translate(16 14.215)">
      <g id="Group_88389" data-name="Group 88389" transform="translate(0)">
        <path id="Path_101298" data-name="Path 101298" d="M36.729,200.292H33.98a7.606,7.606,0,0,0-.468-1.131l1.944-1.944a.592.592,0,0,0,0-.837l-2.514-2.513a.592.592,0,0,0-.837,0l-1.944,1.944a7.644,7.644,0,0,0-1.131-.468v-2.75a.592.592,0,0,0-.592-.592H24.884a.592.592,0,0,0-.592.592v2.75a7.644,7.644,0,0,0-1.131.468l-1.944-1.944a.592.592,0,0,0-.837,0l-2.514,2.513a.592.592,0,0,0,0,.837l1.944,1.944a7.606,7.606,0,0,0-.468,1.131h-2.75a.592.592,0,0,0-.592.592v3.554a.592.592,0,0,0,.592.592h2.75a7.605,7.605,0,0,0,.468,1.131l-1.944,1.944a.592.592,0,0,0,0,.837l2.514,2.513a.592.592,0,0,0,.837,0l1.944-1.944a7.644,7.644,0,0,0,1.131.468v2.75a.592.592,0,0,0,.592.592h3.554a.592.592,0,0,0,.592-.592v-2.75a7.645,7.645,0,0,0,1.131-.468l1.944,1.944a.592.592,0,0,0,.837,0l2.514-2.513a.592.592,0,0,0,0-.837l-1.944-1.944a7.606,7.606,0,0,0,.468-1.131h2.75a.592.592,0,0,0,.592-.592v-3.554A.592.592,0,0,0,36.729,200.292Zm-.592,3.554h-2.6a.592.592,0,0,0-.573.444,6.476,6.476,0,0,1-.693,1.675.592.592,0,0,0,.091.72l1.84,1.84L32.524,210.2l-1.84-1.84a.592.592,0,0,0-.72-.091,6.466,6.466,0,0,1-1.674.693.592.592,0,0,0-.444.573v2.6h-2.37v-2.6a.592.592,0,0,0-.444-.573,6.466,6.466,0,0,1-1.674-.693.592.592,0,0,0-.72.091L20.8,210.2l-1.676-1.675,1.84-1.84a.592.592,0,0,0,.091-.72,6.476,6.476,0,0,1-.693-1.675.592.592,0,0,0-.573-.444h-2.6v-2.37h2.6a.592.592,0,0,0,.573-.444,6.476,6.476,0,0,1,.693-1.675.592.592,0,0,0-.091-.72l-1.84-1.84,1.676-1.676,1.84,1.84a.592.592,0,0,0,.72.091,6.466,6.466,0,0,1,1.674-.693.592.592,0,0,0,.444-.573v-2.6h2.369v2.6a.592.592,0,0,0,.444.573,6.466,6.466,0,0,1,1.674.693.592.592,0,0,0,.72-.091l1.84-1.84L34.2,196.8l-1.84,1.84a.592.592,0,0,0-.091.72,6.476,6.476,0,0,1,.693,1.675.592.592,0,0,0,.573.444h2.6Z" transform="translate(-16 -192)" fill="#b89535" stroke="#f9f7f2" stroke-width="0.2"/>
      </g>
    </g>
    <g id="Group_88392" data-name="Group 88392" transform="translate(23.107)">
      <g id="Group_88391" data-name="Group 88391" transform="translate(0)">
        <path id="Path_101299" data-name="Path 101299" d="M132.729,10.069H130.84c-.138-3.435-1.487-8.975-5.81-9.441V.592A.592.592,0,0,0,124.438,0h-3.554a.592.592,0,0,0-.592.592V.627c-4.324.466-5.672,6.006-5.81,9.441h-1.889a.592.592,0,0,0-.592.592V13.03a.592.592,0,0,0,.592.592h20.137a.592.592,0,0,0,.592-.592V10.661A.592.592,0,0,0,132.729,10.069Zm-.592,2.369H113.185V11.253h4.738V10.069h-2.255c.123-3,1.211-7.751,4.624-8.246V7.107h1.185V1.185h2.369V7.107h1.185V1.822c3.414.5,4.5,5.245,4.624,8.246H119.107v1.185h13.03Z" transform="translate(-112)" fill="#b89535" stroke="#f9f7f2" stroke-width="0.2"/>
      </g>
    </g>
    <g id="Group_88394" data-name="Group 88394" transform="translate(37.322 14.215)">
      <g id="Group_88393" data-name="Group 88393" transform="translate(0)">
        <path id="Path_101300" data-name="Path 101300" d="M315.253,196.146h-1.041l.736-.736a.592.592,0,0,0,0-.837l-1.675-1.675a.592.592,0,0,0-.837,0l-.736.736v-1.041a.592.592,0,0,0-.592-.592h-2.369a.592.592,0,0,0-.592.592v1.041l-.736-.736a.592.592,0,0,0-.837,0l-1.675,1.675a.592.592,0,0,0,0,.837l.736.736h-1.041a.592.592,0,0,0-.592.592v2.369a.592.592,0,0,0,.592.592h1.041l-.736.736a.592.592,0,0,0,0,.837l1.675,1.675a.592.592,0,0,0,.837,0l.736-.736v1.041a.592.592,0,0,0,.592.592h2.369a.592.592,0,0,0,.592-.592v-1.041l.736.736a.609.609,0,0,0,.837,0l1.675-1.675a.592.592,0,0,0,0-.837l-.736-.736h1.041a.592.592,0,0,0,.592-.592v-2.369A.592.592,0,0,0,315.253,196.146Zm-.592,2.369H313.27a.592.592,0,0,0-.557.392q-.052.148-.118.29a.592.592,0,0,0,.118.674l.984.984-.842.837-.984-.986a.592.592,0,0,0-.673-.118,3.009,3.009,0,0,1-.288.118.592.592,0,0,0-.4.559v1.4H309.33V201.27a.592.592,0,0,0-.4-.559,3.005,3.005,0,0,1-.288-.118.592.592,0,0,0-.673.118l-.984.981-.837-.837.986-.984a.592.592,0,0,0,.118-.674q-.066-.142-.118-.29a.592.592,0,0,0-.563-.392h-1.391V197.33h1.391a.592.592,0,0,0,.557-.392q.052-.148.118-.29a.592.592,0,0,0-.118-.674l-.98-.984.837-.837.984.986a.592.592,0,0,0,.674.118,2.773,2.773,0,0,1,.286-.118.592.592,0,0,0,.4-.563v-1.391h1.185v1.391a.592.592,0,0,0,.4.559,2.77,2.77,0,0,1,.286.118.592.592,0,0,0,.674-.118l.984-.984.837.837-.986.987a.592.592,0,0,0-.118.674q.066.142.118.29a.592.592,0,0,0,.557.392h1.4Z" transform="translate(-304 -192)" fill="#b89535" stroke="#f9f7f2" stroke-width="0.2"/>
      </g>
    </g>
    <g id="Group_88396" data-name="Group 88396" transform="translate(40.875 17.768)">
      <g id="Group_88395" data-name="Group 88395">
        <path id="Path_101301" data-name="Path 101301" d="M354.369,240a2.369,2.369,0,1,0,2.369,2.369A2.369,2.369,0,0,0,354.369,240Zm0,3.554a1.185,1.185,0,1,1,1.185-1.185A1.184,1.184,0,0,1,354.369,243.554Z" transform="translate(-352 -240)" fill="#b89535" stroke="#f9f7f2" stroke-width="0.2"/>
      </g>
    </g>
  </g>
</svg>
