<svg xmlns="http://www.w3.org/2000/svg" width="86.156" height="78.744" viewBox="0 0 86.156 78.744">
  <g id="blackmail" transform="translate(0.25 -21.87)">
    <circle id="Ellipse_14115" data-name="Ellipse 14115" cx="1.27" cy="1.27" r="1.27" transform="translate(41.557 48.934)" fill="#b89535" stroke="#f9f7f2" stroke-width="0.5"/>
    <path id="Path_104653" data-name="Path 104653" d="M249.487,73.159a1.257,1.257,0,0,0,1.257-1.257V55.637a1.257,1.257,0,0,0-2.513,0V71.9A1.257,1.257,0,0,0,249.487,73.159Z" transform="translate(-206.64 -26.855)" fill="#b89535" stroke="#f9f7f2" stroke-width="0.5"/>
    <path id="Path_104654" data-name="Path 104654" d="M190.035,266.12H159.877a1.257,1.257,0,0,0,0,2.513h30.158a1.257,1.257,0,0,0,0-2.513Z" transform="translate(-132.044 -203.119)" fill="#b89535" stroke="#f9f7f2" stroke-width="0.5"/>
    <path id="Path_104655" data-name="Path 104655" d="M190.035,231.12H159.877a1.257,1.257,0,0,0,0,2.513h30.158a1.257,1.257,0,0,0,0-2.513Z" transform="translate(-132.044 -173.983)" fill="#b89535" stroke="#f9f7f2" stroke-width="0.5"/>
    <path id="Path_104656" data-name="Path 104656" d="M190.035,301.12H159.877a1.257,1.257,0,0,0,0,2.513h30.158a1.257,1.257,0,0,0,0-2.513Z" transform="translate(-132.044 -232.255)" fill="#b89535" stroke="#f9f7f2" stroke-width="0.5"/>
    <path id="Path_104657" data-name="Path 104657" d="M84.46,89.23c0-.019,0-.037,0-.056V40.466a5.451,5.451,0,0,0-5.445-5.445h-11.9V25.89a3.774,3.774,0,0,0-3.77-3.77H22.3a3.774,3.774,0,0,0-3.77,3.77v9.131H6.638a5.451,5.451,0,0,0-5.445,5.445V46a1.257,1.257,0,1,0,2.513,0V40.466a2.935,2.935,0,0,1,2.932-2.932h11.9V75.9H14.848a1.257,1.257,0,0,0,0,2.513h55.96a1.257,1.257,0,0,0,0-2.513H67.122V37.534h11.9a2.935,2.935,0,0,1,2.932,2.932V87.438a5.5,5.5,0,0,0-1.825-.311H5.531a5.5,5.5,0,0,0-1.825.311V51.866a1.257,1.257,0,0,0-2.513,0V89.173c0,.019,0,.038,0,.056A5.5,5.5,0,0,0,0,92.658v2.175a5.537,5.537,0,0,0,5.531,5.531H65.865a1.257,1.257,0,1,0,0-2.513H5.531a3.021,3.021,0,0,1-3.017-3.017V92.658a3.021,3.021,0,0,1,3.017-3.017H24.565v2.6A2.935,2.935,0,0,0,27.5,95.17H58.158a2.935,2.935,0,0,0,2.932-2.932v-2.6H80.125a3.021,3.021,0,0,1,3.017,3.017v2.175a3.021,3.021,0,0,1-3.017,3.017h-8.4a1.257,1.257,0,1,0,0,2.513h8.4a5.537,5.537,0,0,0,5.531-5.531V92.658A5.5,5.5,0,0,0,84.46,89.23ZM21.047,75.9V25.89A1.258,1.258,0,0,1,22.3,24.633H63.352a1.258,1.258,0,0,1,1.257,1.257V75.9Zm37.53,16.336a.419.419,0,0,1-.419.419H27.5a.419.419,0,0,1-.419-.419v-2.6h31.5Z" fill="#b89535" stroke="#f9f7f2" stroke-width="0.5"/>
  </g>
</svg>
