<svg id="lamp_1_" data-name="lamp (1)" xmlns="http://www.w3.org/2000/svg" width="38.549" height="38.549" viewBox="0 0 38.549 38.549">
  <g id="Group_88341" data-name="Group 88341" transform="translate(8.031 8.031)">
    <path id="Path_101207" data-name="Path 101207" d="M18.653,35.518H13.834a2.608,2.608,0,0,1-2.409-2.891V29.254a5.578,5.578,0,0,0-2.088-4.176A11.1,11.1,0,0,1,5,16.083,11.431,11.431,0,0,1,16.083,5a11.288,11.288,0,0,1,8.031,3.212,11.435,11.435,0,0,1,3.373,8.031,10.8,10.8,0,0,1-4.176,8.674,5.865,5.865,0,0,0-2.249,4.5v3.694A2.47,2.47,0,0,1,18.653,35.518ZM16.243,6.606a9.851,9.851,0,0,0-9.637,9.477,9.441,9.441,0,0,0,3.694,7.71,7,7,0,0,1,2.731,5.461v3.373c0,.321,0,1.285.8,1.285h4.819a.759.759,0,0,0,.8-.8V29.414a7.805,7.805,0,0,1,2.891-5.782,9.366,9.366,0,0,0,3.534-7.389A9.6,9.6,0,0,0,22.99,9.337a9.468,9.468,0,0,0-6.746-2.731Z" transform="translate(-5 -5)" fill="#b89535"/>
  </g>
  <g id="Group_88342" data-name="Group 88342" transform="translate(14.456 32.124)">
    <path id="Path_101208" data-name="Path 101208" d="M17.834,21.606H9.8A.8.8,0,0,1,9.8,20h8.031a.8.8,0,1,1,0,1.606Z" transform="translate(-9 -20)" fill="#b89535"/>
  </g>
  <g id="Group_88343" data-name="Group 88343" transform="translate(18.471)">
    <path id="Path_101209" data-name="Path 101209" d="M12.3,4.819a.759.759,0,0,1-.8-.8V.8a.8.8,0,1,1,1.606,0V4.016A.759.759,0,0,1,12.3,4.819Z" transform="translate(-11.5)" fill="#b89535"/>
  </g>
  <g id="Group_88344" data-name="Group 88344" transform="translate(29.153 5.541)">
    <path id="Path_101210" data-name="Path 101210" d="M19.033,7.225a.966.966,0,0,1-.642-.161.776.776,0,0,1,0-1.124L20.64,3.691a.8.8,0,0,1,1.124,1.124L19.515,7.064a1.618,1.618,0,0,1-.482.161Z" transform="translate(-18.15 -3.45)" fill="#b89535"/>
  </g>
  <g id="Group_88345" data-name="Group 88345" transform="translate(33.73 18.471)">
    <path id="Path_101211" data-name="Path 101211" d="M25.016,13.106H21.8a.8.8,0,0,1,0-1.606h3.212a.8.8,0,0,1,0,1.606Z" transform="translate(-21 -11.5)" fill="#b89535"/>
  </g>
  <g id="Group_88346" data-name="Group 88346" transform="translate(29.153 29.313)">
    <path id="Path_101212" data-name="Path 101212" d="M21.282,22.025a.966.966,0,0,1-.642-.161l-2.249-2.249a.8.8,0,1,1,1.124-1.124l2.249,2.249a.776.776,0,0,1,0,1.124c0,.161-.161.161-.482.161Z" transform="translate(-18.15 -18.25)" fill="#b89535"/>
  </g>
  <g id="Group_88347" data-name="Group 88347" transform="translate(5.381 29.313)">
    <path id="Path_101213" data-name="Path 101213" d="M4.233,22.025a.966.966,0,0,1-.642-.161.776.776,0,0,1,0-1.124L5.84,18.491a.8.8,0,0,1,1.124,1.124L4.715,21.864A.59.59,0,0,1,4.233,22.025Z" transform="translate(-3.35 -18.25)" fill="#b89535"/>
  </g>
  <g id="Group_88348" data-name="Group 88348" transform="translate(0 18.471)">
    <path id="Path_101214" data-name="Path 101214" d="M4.016,13.106H.8A.8.8,0,0,1,.8,11.5H4.016a.8.8,0,0,1,0,1.606Z" transform="translate(0 -11.5)" fill="#b89535"/>
  </g>
  <g id="Group_88349" data-name="Group 88349" transform="translate(5.381 5.381)">
    <path id="Path_101215" data-name="Path 101215" d="M6.482,7.285a.966.966,0,0,1-.642-.161L3.591,4.715A.8.8,0,0,1,4.715,3.591L6.964,5.84a.776.776,0,0,1,0,1.124C6.8,7.125,6.643,7.285,6.482,7.285Z" transform="translate(-3.35 -3.35)" fill="#b89535"/>
  </g>
  <g id="Group_88350" data-name="Group 88350" transform="translate(18.471 12.047)">
    <path id="Path_101216" data-name="Path 101216" d="M18.728,15.531a.759.759,0,0,1-.8-.8A5.691,5.691,0,0,0,12.3,9.106a.759.759,0,0,1-.8-.8.759.759,0,0,1,.8-.8,7.2,7.2,0,0,1,7.228,7.228A.759.759,0,0,1,18.728,15.531Z" transform="translate(-11.5 -7.5)" fill="#b89535"/>
  </g>
</svg>
