<svg xmlns="http://www.w3.org/2000/svg" width="32.485" height="35.244" viewBox="0 0 32.485 35.244">
  <g id="check-list" transform="translate(-19.805)">
    <g id="Group_88517" data-name="Group 88517" transform="translate(19.805 0)">
      <path id="Path_104643" data-name="Path 104643" d="M39.525,5.475V4.283A1.889,1.889,0,0,0,37.639,2.4H27.153a1.889,1.889,0,0,0-1.887,1.887V5.475a1.889,1.889,0,0,0,1.887,1.887H37.639A1.889,1.889,0,0,0,39.525,5.475Zm-13.227,0V4.283a.855.855,0,0,1,.854-.854H37.638a.855.855,0,0,1,.854.854V5.475a.855.855,0,0,1-.854.854H27.153a.855.855,0,0,1-.854-.854Zm13.69,18.617H31.6a.516.516,0,1,0,0,1.032h8.388a.516.516,0,1,0,0-1.032ZM23.148,1.032h18.5A2.31,2.31,0,0,1,43.88,2.76a.516.516,0,1,0,1-.26A3.343,3.343,0,0,0,41.643,0h-18.5A3.347,3.347,0,0,0,19.8,3.343V28.42a3.329,3.329,0,0,0,2.345,3.191.516.516,0,1,0,.308-.985,2.3,2.3,0,0,1-1.62-2.206V3.343a2.313,2.313,0,0,1,2.31-2.311Zm16.84,16.535H31.6a.516.516,0,1,0,0,1.032h8.388a.516.516,0,1,0,0-1.032ZM23.8,18.084a2.262,2.262,0,1,0,2.262-2.262A2.265,2.265,0,0,0,23.8,18.084Zm3.492,0a1.229,1.229,0,1,1-1.229-1.23A1.231,1.231,0,0,1,27.3,18.084ZM43.5,27.264,41.89,28.878a.516.516,0,1,0,.73.73l1.614-1.614a.516.516,0,1,0-.73-.73Zm-17.438-.393A2.262,2.262,0,1,0,23.8,24.609,2.265,2.265,0,0,0,26.067,26.871Zm0-3.492a1.229,1.229,0,1,1-1.23,1.229A1.231,1.231,0,0,1,26.067,23.379Zm25.554-2.774-.728-.728a2.287,2.287,0,0,0-3.236,0l-2.671,2.671V5.07a.516.516,0,1,0-1.032,0V23.582l-6.161,6.161a4.155,4.155,0,0,0-.726.988H24.716a.516.516,0,0,0,0,1.032H36.678l-.348,1.192a1.787,1.787,0,0,0,1.7,2.288,8.726,8.726,0,0,0,1.977-.5,4.16,4.16,0,0,0,1.747-1.035l9.865-9.865A2.291,2.291,0,0,0,51.621,20.606ZM38.254,34.179a.752.752,0,0,1-.933-.933l.4-1.386,1.915,1.915Zm2.379-.872-2.44-2.44c.283-.4,0-.044,6.239-6.3l2.5,2.5c-6.279,6.256-5.906,5.958-6.3,6.239Zm7.032-6.969-2.5-2.5L46.4,22.6l2.5,2.5Zm3.226-3.226-1.257,1.257-2.5-2.5,1.257-1.257a1.255,1.255,0,0,1,1.776,0l.728.728A1.257,1.257,0,0,1,50.891,23.112ZM25.519,13l3.038-3.039a.516.516,0,0,0-.73-.73L25.154,11.9l-.848-.848a.516.516,0,1,0-.73.73L24.789,13a.516.516,0,0,0,.73,0Zm14.47-1.954H31.6a.516.516,0,0,0,0,1.032h8.388a.516.516,0,1,0,0-1.032Z" transform="translate(-19.805 0)" fill="#b89535"/>
    </g>
  </g>
</svg>
