<svg xmlns="http://www.w3.org/2000/svg" width="72.119" height="78.244" viewBox="0 0 72.119 78.244">
  <g id="check-list" transform="translate(-19.805)">
    <g id="Group_88517" data-name="Group 88517" transform="translate(19.805 0)">
      <path id="Path_104643" data-name="Path 104643" d="M63.585,12.155V9.508A4.193,4.193,0,0,0,59.4,5.319H36.117a4.193,4.193,0,0,0-4.188,4.189v2.648a4.193,4.193,0,0,0,4.188,4.189H59.4A4.193,4.193,0,0,0,63.585,12.155Zm-29.365,0V9.508a1.9,1.9,0,0,1,1.9-1.9H59.4a1.9,1.9,0,0,1,1.9,1.9v2.648a1.9,1.9,0,0,1-1.9,1.9H36.117a1.9,1.9,0,0,1-1.9-1.9ZM64.614,53.488H45.992a1.146,1.146,0,1,0,0,2.292H64.614a1.146,1.146,0,1,0,0-2.292ZM27.227,2.292H68.287a5.128,5.128,0,0,1,4.965,3.835,1.146,1.146,0,1,0,2.219-.576A7.421,7.421,0,0,0,68.287,0H27.227A7.43,7.43,0,0,0,19.8,7.422V63.1A7.39,7.39,0,0,0,25.01,70.18a1.146,1.146,0,0,0,.684-2.188,5.107,5.107,0,0,1-3.6-4.9V7.422a5.135,5.135,0,0,1,5.129-5.13ZM64.614,39H45.992a1.146,1.146,0,0,0,0,2.292H64.614a1.146,1.146,0,0,0,0-2.292ZM28.684,40.147a5.022,5.022,0,1,0,5.022-5.022A5.027,5.027,0,0,0,28.684,40.147Zm7.752,0a2.73,2.73,0,1,1-2.729-2.73A2.733,2.733,0,0,1,36.436,40.147ZM72.42,60.529l-3.584,3.584a1.146,1.146,0,1,0,1.621,1.621l3.584-3.584a1.146,1.146,0,1,0-1.621-1.621Zm-38.714-.873a5.022,5.022,0,1,0-5.022-5.022A5.027,5.027,0,0,0,33.706,59.656Zm0-7.752a2.73,2.73,0,1,1-2.73,2.729A2.733,2.733,0,0,1,33.706,51.9Zm56.732-6.157-1.615-1.615a5.077,5.077,0,0,0-7.184,0l-5.93,5.93v-38.8a1.146,1.146,0,1,0-2.292,0v41.1L59.738,66.033a9.224,9.224,0,0,0-1.611,2.193H30.708a1.146,1.146,0,1,0,0,2.292H57.264l-.773,2.647a3.966,3.966,0,0,0,3.781,5.08c.942,0,1.3-.257,4.388-1.115a9.235,9.235,0,0,0,3.878-2.3l21.9-21.9a5.086,5.086,0,0,0,0-7.184ZM60.763,75.879a1.67,1.67,0,0,1-2.072-2.072l.9-3.077L63.84,74.98Zm5.282-1.936-5.418-5.418c.628-.885.008-.1,13.851-13.99l5.558,5.558c-13.94,13.889-13.111,13.227-13.99,13.851ZM81.656,58.472,76.1,52.914l2.75-2.75,5.558,5.558Zm7.162-7.162L86.027,54.1l-5.558-5.558,2.791-2.791a2.786,2.786,0,0,1,3.942,0l1.615,1.615a2.791,2.791,0,0,1,0,3.942ZM32.49,28.853l6.746-6.746a1.146,1.146,0,1,0-1.621-1.621L31.68,26.422,29.8,24.539a1.146,1.146,0,0,0-1.621,1.621l2.693,2.693a1.146,1.146,0,0,0,1.621,0Zm32.124-4.339H45.992a1.146,1.146,0,0,0,0,2.292H64.614a1.146,1.146,0,0,0,0-2.292Z" transform="translate(-19.805 0)" fill="#b89535"/>
    </g>
  </g>
</svg>
