<svg xmlns="http://www.w3.org/2000/svg">
  <g id="Group_88199" data-name="Group 88199" transform="translate(-1185 -1400.8)">
    
    <g id="document" transform="translate(1172 1385)">
      <path id="Path_104624" data-name="Path 104624" d="M394.773,190.95H392v2.608h3.873a1.3,1.3,0,0,0,1.285-1.085l9.776-57.379-2.571-.438Z" transform="translate(-314.709 -99.314)" fill="#b89535" stroke="#f9f7f2" stroke-width="0.4"/>
      <path id="Path_104625" data-name="Path 104625" d="M406.713,41.953l-15.649-2.759-.453,2.569L404.983,44.3l-1.337,7.85,2.571.438,1.555-9.128A1.3,1.3,0,0,0,406.713,41.953Z" transform="translate(-313.546 -19.413)" fill="#b89535" stroke="#f9f7f2" stroke-width="0.4"/>
      <path id="Path_104626" data-name="Path 104626" d="M73.379,16H17.3A1.3,1.3,0,0,0,16,17.3V70.771h2.608V18.608H72.075V91.636H18.608V73.379H16V92.94a1.3,1.3,0,0,0,1.3,1.3H73.379a1.3,1.3,0,0,0,1.3-1.3V17.3A1.3,1.3,0,0,0,73.379,16Z" fill="#b89535" stroke="#f9f7f2" stroke-width="0.4"/>
      <path id="Path_104627" data-name="Path 104627" d="M84.187,255.936l-1.844,1.844,3.912,3.912a1.3,1.3,0,0,0,.922.382h.05a1.3,1.3,0,0,0,.94-.454l7.824-9.128-1.98-1.7L87.1,258.852Z" transform="translate(-55.529 -196.52)" fill="#b89535" stroke="#f9f7f2" stroke-width="0.4"/>
      <path id="Path_104628" data-name="Path 104628" d="M56,259.085a4.569,4.569,0,0,0,4.564,4.564h6.52a4.569,4.569,0,0,0,4.564-4.564v-.652H69.041v.652a1.958,1.958,0,0,1-1.956,1.956h-6.52a1.958,1.958,0,0,1-1.956-1.956v-6.52a1.958,1.958,0,0,1,1.956-1.956h5.868V248H60.564A4.569,4.569,0,0,0,56,252.564Z" transform="translate(-33.48 -194.182)" fill="#b89535" stroke="#f9f7f2" stroke-width="0.4"/>
      <path id="Path_104629" data-name="Path 104629" d="M84.187,375.936l-1.844,1.844,3.912,3.912a1.3,1.3,0,0,0,.922.382h.05a1.3,1.3,0,0,0,.94-.454l7.824-9.128-1.98-1.7L87.1,378.852Z" transform="translate(-55.529 -296.959)" fill="#b89535" stroke="#f9f7f2" stroke-width="0.4"/>
      <path id="Path_104630" data-name="Path 104630" d="M56,379.085a4.569,4.569,0,0,0,4.564,4.564h6.52a4.569,4.569,0,0,0,4.564-4.564v-.652H69.041v.652a1.958,1.958,0,0,1-1.956,1.956h-6.52a1.958,1.958,0,0,1-1.956-1.956v-6.52a1.958,1.958,0,0,1,1.956-1.956h5.868V368H60.564A4.569,4.569,0,0,0,56,372.564Z" transform="translate(-33.48 -294.621)" fill="#b89535" stroke="#f9f7f2" stroke-width="0.4"/>
      <path id="Path_104631" data-name="Path 104631" d="M184,368h19.561v2.608H184Z" transform="translate(-140.615 -294.621)" fill="#b89535" stroke="#f9f7f2" stroke-width="0.4"/>
      <path id="Path_104632" data-name="Path 104632" d="M184,408h6.52v2.608H184Z" transform="translate(-140.615 -328.101)" fill="#b89535" stroke="#f9f7f2" stroke-width="0.4"/>
      <path id="Path_104633" data-name="Path 104633" d="M240,408h10.433v2.608H240Z" transform="translate(-187.486 -328.101)" fill="#b89535" stroke="#f9f7f2" stroke-width="0.4"/>
      <path id="Path_104634" data-name="Path 104634" d="M184,248h19.561v2.608H184Z" transform="translate(-140.615 -194.182)" fill="#b89535" stroke="#f9f7f2" stroke-width="0.4"/>
      <path id="Path_104635" data-name="Path 104635" d="M184,288h6.52v2.608H184Z" transform="translate(-140.615 -227.662)" fill="#b89535" stroke="#f9f7f2" stroke-width="0.4"/>
      <path id="Path_104636" data-name="Path 104636" d="M240,288h10.433v2.608H240Z" transform="translate(-187.486 -227.662)" fill="#b89535" stroke="#f9f7f2" stroke-width="0.4"/>
      <path id="Path_104637" data-name="Path 104637" d="M145.276,53.339l-11.72-5.226a1.3,1.3,0,0,0-1.062,0l-11.72,5.226a1.3,1.3,0,0,0-.757,1.394l.977,6.2c0,.01,0,.02.005.03a21.345,21.345,0,0,0,8.421,13.386l2.843,2.094a1.3,1.3,0,0,0,1.54,0l2.709-1.969a21.339,21.339,0,0,0,8.53-13.464c0-.01,0-.02.005-.03l.987-6.253A1.3,1.3,0,0,0,145.276,53.339Zm-2.8,7.226a18.742,18.742,0,0,1-7.5,11.807l-1.936,1.408-2.075-1.528a18.748,18.748,0,0,1-7.4-11.737l-.819-5.2,10.276-4.583L143.3,55.314Z" transform="translate(-87.047 -26.783)" fill="#b89535" stroke="#f9f7f2" stroke-width="0.4"/>
      <path id="Path_104638" data-name="Path 104638" d="M164,102.312l-1.844,1.844,3.912,3.912a1.3,1.3,0,0,0,1.844,0l7.824-7.824L173.89,98.4l-6.9,6.9Z" transform="translate(-122.329 -68.968)" fill="#b89535" stroke="#f9f7f2" stroke-width="0.4"/>
      <path id="Path_104639" data-name="Path 104639" d="M56,48h7.824v2.608H56Z" transform="translate(-33.48 -26.784)" fill="#b89535" stroke="#f9f7f2" stroke-width="0.4"/>
      <path id="Path_104640" data-name="Path 104640" d="M56,80h5.216v2.608H56Z" transform="translate(-33.48 -53.567)" fill="#b89535" stroke="#f9f7f2" stroke-width="0.4"/>
      <path id="Path_104641" data-name="Path 104641" d="M296,48h2.608v2.608H296Z" transform="translate(-234.358 -26.784)" fill="#b89535" stroke="#f9f7f2" stroke-width="0.4"/>
      <path id="Path_104642" data-name="Path 104642" d="M328,48h2.608v2.608H328Z" transform="translate(-261.141 -26.784)" fill="#b89535" stroke="#f9f7f2" stroke-width="0.4"/>
    </g>
  </g>
</svg>