<svg xmlns="http://www.w3.org/2000/svg" width="86.051" height="78.844" viewBox="0 0 86.051 78.844">
  <g id="danger" transform="translate(0.3 -21.193)">
    <path id="Path_104644" data-name="Path 104644" d="M84.194,141.374H79.458v-5.526a1.257,1.257,0,1,0-2.515,0v5.526H72.79v-44.8h2.035a2.121,2.121,0,0,1,2.118,2.118v31.8a1.257,1.257,0,0,0,2.515,0v-31.8a4.638,4.638,0,0,0-4.633-4.633H72.79V87.088a3.5,3.5,0,0,0-3.5-3.5H57.816a1.257,1.257,0,0,0,0,2.515H69.294a.981.981,0,0,1,.98.98v54.286H15.009V87.088a.981.981,0,0,1,.98-.98H27.635a1.257,1.257,0,0,0,0-2.515H15.989a3.5,3.5,0,0,0-3.5,3.5v6.966H10.626a4.638,4.638,0,0,0-4.633,4.633v5.065a1.257,1.257,0,1,0,2.515,0V98.688a2.121,2.121,0,0,1,2.118-2.118h1.868v44.8H8.508V109.111a1.257,1.257,0,0,0-2.515,0v32.263H1.257A1.257,1.257,0,0,0,0,142.631v3.14a5.66,5.66,0,0,0,5.653,5.653H79.8a5.66,5.66,0,0,0,5.653-5.653v-3.14A1.258,1.258,0,0,0,84.194,141.374Zm-1.257,4.4A3.142,3.142,0,0,1,79.8,148.91H5.653a3.142,3.142,0,0,1-3.138-3.139v-1.883H82.936Z" transform="translate(0 -51.688)" fill="#b89535" stroke="#f9f7f2" stroke-width="0.6"/>
    <path id="Path_104645" data-name="Path 104645" d="M141.83,50.432a5.448,5.448,0,0,0,4.856,2.89h27.048a5.524,5.524,0,0,0,4.63-8.537l-9.111-14a1.257,1.257,0,1,0-2.108,1.372l9.111,14a3.009,3.009,0,0,1-2.522,4.65H146.685a3.009,3.009,0,0,1-2.522-4.65l13.524-20.781a3.009,3.009,0,0,1,5.044,0l1.49,2.29a1.257,1.257,0,1,0,2.108-1.372L164.839,24a5.524,5.524,0,0,0-9.259,0L142.056,44.785a5.448,5.448,0,0,0-.226,5.646Z" transform="translate(-117.484)" fill="#b89535" stroke="#f9f7f2" stroke-width="0.6"/>
    <path id="Path_104646" data-name="Path 104646" d="M248.588,161.981a1.257,1.257,0,0,0-1.257,1.257v1.573a1.257,1.257,0,1,0,2.515,0v-1.573A1.257,1.257,0,0,0,248.588,161.981Z" transform="translate(-205.863 -116.933)" fill="#b89535" stroke="#f9f7f2" stroke-width="0.6"/>
    <path id="Path_104647" data-name="Path 104647" d="M249.846,60.959a1.257,1.257,0,1,0-2.515,0V73.016a1.257,1.257,0,1,0,2.515,0Z" transform="translate(-205.863 -31.803)" fill="#b89535" stroke="#f9f7f2" stroke-width="0.6"/>
    <path id="Path_104648" data-name="Path 104648" d="M122.373,258.421h1.585a1.257,1.257,0,0,0,0-2.515h-1.585a1.257,1.257,0,0,0,0,2.515Z" transform="translate(-100.809 -195.111)" fill="#b89535" stroke="#f9f7f2" stroke-width="0.6"/>
    <path id="Path_104649" data-name="Path 104649" d="M366.936,255.906h-1.585a1.257,1.257,0,1,0,0,2.515h1.585a1.257,1.257,0,0,0,0-2.515Z" transform="translate(-303.049 -195.111)" fill="#b89535" stroke="#f9f7f2" stroke-width="0.6"/>
    <path id="Path_104650" data-name="Path 104650" d="M188.8,258.421a1.257,1.257,0,1,0,0-2.515H159.238a1.257,1.257,0,0,0,0,2.515Z" transform="translate(-131.493 -195.111)" fill="#b89535" stroke="#f9f7f2" stroke-width="0.6"/>
    <path id="Path_104651" data-name="Path 104651" d="M164.7,315.48H122.372a1.257,1.257,0,1,0,0,2.515H164.7a1.257,1.257,0,1,0,0-2.515Z" transform="translate(-100.809 -244.696)" fill="#b89535" stroke="#f9f7f2" stroke-width="0.6"/>
    <path id="Path_104652" data-name="Path 104652" d="M164.7,375.053H122.372a1.257,1.257,0,1,0,0,2.515H164.7a1.257,1.257,0,1,0,0-2.515Z" transform="translate(-100.809 -294.281)" fill="#b89535" stroke="#f9f7f2" stroke-width="0.6"/>
  </g>
</svg>
