<svg xmlns="http://www.w3.org/2000/svg" width='28' height='25'>
  <g id="Group_88371" data-name="Group 88371">
    <g id="Download">
      <path id="Path_104622" data-name="Path 104622" d="M23.906,20.759V17.441a.829.829,0,1,0-1.659,0v3.318a.829.829,0,0,1-.829.829H6.488a.829.829,0,0,1-.829-.829V17.441a.829.829,0,1,0-1.659,0v3.318a2.488,2.488,0,0,0,2.488,2.488h14.93A2.488,2.488,0,0,0,23.906,20.759Zm-5.292-4.33-4.147,3.318a.829.829,0,0,1-1.028,0L9.292,16.429a.829.829,0,0,1,1.028-1.294l2.8,2.239V5.829a.829.829,0,0,1,1.659,0V17.375l2.8-2.239a.829.829,0,1,1,1.028,1.294Z" transform="translate(0 0)" fill="#ebc03f"/>
    </g>
  </g>
</svg>