<svg xmlns="http://www.w3.org/2000/svg" width="35.244" height="35.244" viewBox="0 0 35.244 35.244">
  <g id="chip" transform="translate(0 -0.001)">
    <g id="Group_88382" data-name="Group 88382" transform="translate(6.622 0.001)">
      <g id="Group_88381" data-name="Group 88381" transform="translate(0 0)">
        <path id="Path_101294" data-name="Path 101294" d="M124.311,17.107H116V15.932h2.243a.516.516,0,0,0,0-1.033H116V13.725h1.557a2.157,2.157,0,0,0,1.536-.636l3.4-3.4a1.619,1.619,0,1,0-.73-.73l-3.4,3.4a1.132,1.132,0,0,1-.806.334H116V11.553a2.727,2.727,0,0,0-2.723-2.723h-1.139V4.259a1.62,1.62,0,1,0-1.033,0V8.83h-1.175V6.587a.516.516,0,1,0-1.033,0V8.83h-1.175V.517a.516.516,0,1,0-1.033,0V8.83h-1.175V6.587a.516.516,0,1,0-1.033,0V8.83h-1.175V7.273a2.157,2.157,0,0,0-.636-1.536l-3.4-3.4a1.621,1.621,0,1,0-.73.73l3.4,3.4a1.131,1.131,0,0,1,.334.805V8.83h-1.139a2.735,2.735,0,0,0-.681.086.516.516,0,0,0,.257,1,1.7,1.7,0,0,1,.423-.053h12.139a1.693,1.693,0,0,1,1.691,1.691v12.14a1.7,1.7,0,0,1-.053.423.516.516,0,1,0,1,.257,2.732,2.732,0,0,0,.086-.68V22.553h4.57a1.62,1.62,0,1,0,0-1.033H116V20.346h2.243a.516.516,0,0,0,0-1.033H116V18.139h8.313a.516.516,0,1,0,0-1.033Zm-1.519-9.28a.587.587,0,1,1-.172.415A.583.583,0,0,1,122.792,7.827ZM98.24,2.036a.587.587,0,1,1,0-.831A.588.588,0,0,1,98.24,2.036Zm13.38,1.275a.587.587,0,1,1,.587-.587A.588.588,0,0,1,111.62,3.312ZM122.1,21.45a.587.587,0,1,1-.587.587A.588.588,0,0,1,122.1,21.45Z" transform="translate(-96.206 -0.001)" fill="#b89535"/>
      </g>
    </g>
    <g id="Group_88384" data-name="Group 88384" transform="translate(0 10.485)">
      <g id="Group_88383" data-name="Group 88383">
        <path id="Path_101295" data-name="Path 101295" d="M28.148,174.3a1.622,1.622,0,0,0-1.865-.3l-3.4-3.4a1.131,1.131,0,0,1-.334-.805v-1.557h1.139a2.733,2.733,0,0,0,.681-.086.516.516,0,1,0-.257-1,1.7,1.7,0,0,1-.423.053H11.552a1.693,1.693,0,0,1-1.691-1.691V153.374a1.7,1.7,0,0,1,.053-.423.516.516,0,1,0-1-.257,2.729,2.729,0,0,0-.086.681v1.139H4.258a1.62,1.62,0,1,0,0,1.033h4.57v1.175H6.586a.516.516,0,1,0,0,1.033H8.829v1.175H.516a.516.516,0,1,0,0,1.033H8.829v1.175H6.586a.516.516,0,1,0,0,1.033H8.829v1.175H7.272a2.157,2.157,0,0,0-1.536.636l-3.4,3.4a1.618,1.618,0,1,0,.73.73l3.4-3.4a1.132,1.132,0,0,1,.806-.334H8.829v1.139a2.726,2.726,0,0,0,2.723,2.723h1.139v4.57a1.62,1.62,0,1,0,1.033,0v-4.57H14.9v2.243a.516.516,0,0,0,1.033,0v-2.243h1.175v8.313a.516.516,0,1,0,1.033,0v-8.312h1.175v2.243a.516.516,0,0,0,1.033,0v-2.243H21.52v1.557a2.157,2.157,0,0,0,.636,1.536l3.4,3.4a1.619,1.619,0,1,0,2.6-.426ZM2.723,155.617a.587.587,0,1,1,.587-.587A.588.588,0,0,1,2.723,155.617ZM2.035,169.24a.587.587,0,1,1,.172-.415A.583.583,0,0,1,2.035,169.24Zm11.76,5.1a.587.587,0,1,1-.587-.587A.588.588,0,0,1,13.795,174.343Zm13.623,1.519a.587.587,0,1,1,0-.831A.588.588,0,0,1,27.418,175.862Z" transform="translate(0 -152.306)" fill="#b89535"/>
      </g>
    </g>
    <g id="Group_88386" data-name="Group 88386" transform="translate(12.14 11.589)">
      <g id="Group_88385" data-name="Group 88385">
        <path id="Path_101296" data-name="Path 101296" d="M187.322,172.995a2.494,2.494,0,0,0-1.913-2.343,1.763,1.763,0,0,0,.051-.416,1.99,1.99,0,0,0-2.068-1.9,2.148,2.148,0,0,0-1.552.645,2.148,2.148,0,0,0-1.552-.645,1.99,1.99,0,0,0-2.068,1.9,1.762,1.762,0,0,0,.051.416,2.494,2.494,0,0,0-1.913,2.343,2.267,2.267,0,0,0,.544,1.469,2.553,2.553,0,0,0-.544,1.566,2.659,2.659,0,0,0,1.241,2.206h0a2.285,2.285,0,0,0,2.379,2.172,2.463,2.463,0,0,0,1.862-.823,2.463,2.463,0,0,0,1.862.823,2.3,2.3,0,0,0,2.374-2.038,2.413,2.413,0,0,0,1.246-2.065,2.327,2.327,0,0,0-.718-1.655A2.327,2.327,0,0,0,187.322,172.995Zm-1.827,2.112a1.377,1.377,0,0,1,.794,1.2,1.321,1.321,0,0,1-.455.971,2.318,2.318,0,0,0-1.357-1.093.516.516,0,1,0-.309.985,1.171,1.171,0,0,1,.88,1.069,1.365,1.365,0,0,1-2.692,0v-3.311a1.257,1.257,0,0,1,1.346-1.139.516.516,0,1,0,0-1.033,2.524,2.524,0,0,0-1.346.383v-.659a.516.516,0,1,0-1.033,0v2.866a2.46,2.46,0,0,0-.57-.264.516.516,0,0,0-.31.985,1.171,1.171,0,0,1,.88,1.069v1.1a1.365,1.365,0,0,1-2.692,0,1.041,1.041,0,0,1,.321-.737.516.516,0,0,0-.728-.732,2.2,2.2,0,0,0-.319.4,1.575,1.575,0,0,1-.516-1.138,1.758,1.758,0,0,1,1.46-1.634.516.516,0,0,0-.231-1.006,3.145,3.145,0,0,0-.947.386,1.246,1.246,0,0,1-.282-.78,1.55,1.55,0,0,1,1.644-1.415h.014a.516.516,0,0,0,.438-.788l-.012-.019-.007-.009c-.008-.011-.016-.022-.025-.033h0a.766.766,0,0,1-.189-.5,1.053,1.053,0,0,1,2.071,0,.516.516,0,0,0,1.033,0,1.053,1.053,0,0,1,2.071,0,.726.726,0,0,1-.077.325,2.867,2.867,0,0,0-.847.212.516.516,0,1,0,.4.951,1.864,1.864,0,0,1,.714-.144h.029a1.55,1.55,0,0,1,1.644,1.415,1.377,1.377,0,0,1-.794,1.2.516.516,0,0,0,0,.913Z" transform="translate(-176.357 -168.34)" fill="#b89535"/>
      </g>
    </g>
  </g>
</svg>
