<svg xmlns="http://www.w3.org/2000/svg" width="32.44" height="35.667" viewBox="0 0 32.44 35.667">
  <g id="error" transform="translate(-3.845 -1.081)">
    <path id="Path_101276" data-name="Path 101276" d="M31.168,3.826,32.89,5.548l.811-.811-.67-.67a14.921,14.921,0,0,1,.754,29.607l.168,1.135A16.068,16.068,0,0,0,32.9,2.9l.8-.8-.814-.807L31.168,3.015a.574.574,0,0,0,0,.811Z" transform="translate(-11.507 0)" fill="#b89535" stroke="#b89535" stroke-width="0.3"/>
    <path id="Path_101277" data-name="Path 101277" d="M18.751,37.894l1.722-1.722a.574.574,0,0,0,0-.811L18.751,33.64l-.811.811.67.67A14.921,14.921,0,0,1,17.3,5.607l-.211-1.128a16.068,16.068,0,0,0,1.649,31.8l-.8.8Z" transform="translate(0 -1.358)" fill="#b89535" stroke="#b89535" stroke-width="0.3"/>
    <path id="Path_101278" data-name="Path 101278" d="M34.659,30.294a1.913,1.913,0,0,0-.274-.988L26.56,16.263a2.6,2.6,0,0,0-4.461,0L14.274,29.306a1.921,1.921,0,0,0,1.648,2.911H32.737a1.925,1.925,0,0,0,1.922-1.922Zm-19.512,0a.774.774,0,0,1,.11-.4l7.826-13.043a1.454,1.454,0,0,1,2.493,0L33.4,29.9a.775.775,0,0,1-.665,1.172H15.922A.775.775,0,0,1,15.148,30.294Z" transform="translate(-4.262 -5.841)" fill="#b89535" stroke="#b89535" stroke-width="0.3"/>
    <path id="Path_101279" data-name="Path 101279" d="M30.722,22A1.722,1.722,0,0,0,29,23.722v3.443a1.722,1.722,0,1,0,3.443,0V23.722A1.722,1.722,0,0,0,30.722,22Zm.574,5.165a.574.574,0,1,1-1.148,0V23.722a.574.574,0,1,1,1.148,0Z" transform="translate(-10.654 -8.824)" fill="#b89535" stroke="#b89535" stroke-width="0.3"/>
    <path id="Path_101280" data-name="Path 101280" d="M30.722,35a1.722,1.722,0,1,0,1.722,1.722A1.722,1.722,0,0,0,30.722,35Zm0,2.3a.574.574,0,1,1,.574-.574A.574.574,0,0,1,30.722,37.3Z" transform="translate(-10.654 -14.364)" fill="#b89535" stroke="#b89535" stroke-width="0.3"/>
  </g>
</svg>
