<svg xmlns="http://www.w3.org/2000/svg" width="26.438" height="35.243" viewBox="0 0 26.438 35.243">
  <g id="clipboard" transform="translate(-63.958)">
    <g id="Group_88211" data-name="Group 88211" transform="translate(75.02 8.087)">
      <g id="Group_88210" data-name="Group 88210">
        <g id="Group_88203" data-name="Group 88203">
          <g id="Group_88201" data-name="Group 88201" transform="translate(0 2.65)">
            <path id="Path_100719" data-name="Path 100719" d="M230.78,157.008h-5.606a.516.516,0,1,1,0-1.033h5.606a.516.516,0,0,1,0,1.033Z" transform="translate(-224.657 -155.975)" fill="#b89535"/>
          </g>
          <g id="Group_88202" data-name="Group 88202">
            <path id="Path_100720" data-name="Path 100720" d="M236.386,118.511H225.173a.516.516,0,1,1,0-1.033h11.213a.516.516,0,1,1,0,1.033Z" transform="translate(-224.657 -117.478)" fill="#b89535"/>
          </g>
        </g>
        <g id="Group_88206" data-name="Group 88206" transform="translate(0 8.652)">
          <g id="Group_88204" data-name="Group 88204" transform="translate(0 2.65)">
            <path id="Path_100721" data-name="Path 100721" d="M230.78,282.695h-5.606a.516.516,0,1,1,0-1.033h5.606a.516.516,0,0,1,0,1.033Z" transform="translate(-224.657 -281.662)" fill="#b89535"/>
          </g>
          <g id="Group_88205" data-name="Group 88205">
            <path id="Path_100722" data-name="Path 100722" d="M236.386,244.2H225.173a.516.516,0,1,1,0-1.033h11.213a.516.516,0,1,1,0,1.033Z" transform="translate(-224.657 -243.164)" fill="#b89535"/>
          </g>
        </g>
        <g id="Group_88209" data-name="Group 88209" transform="translate(0 17.303)">
          <g id="Group_88207" data-name="Group 88207" transform="translate(0 2.65)">
            <path id="Path_100723" data-name="Path 100723" d="M230.78,408.382h-5.606a.516.516,0,1,1,0-1.033h5.606a.516.516,0,1,1,0,1.033Z" transform="translate(-224.657 -407.349)" fill="#b89535"/>
          </g>
          <g id="Group_88208" data-name="Group 88208">
            <path id="Path_100724" data-name="Path 100724" d="M236.386,369.884H225.173a.516.516,0,1,1,0-1.033h11.213a.516.516,0,1,1,0,1.033Z" transform="translate(-224.657 -368.851)" fill="#b89535"/>
          </g>
        </g>
      </g>
    </g>
    <g id="Group_88212" data-name="Group 88212" transform="translate(71.174 0)">
      <path id="Path_100725" data-name="Path 100725" d="M179.257,4.863h-8.928a1.541,1.541,0,0,1-1.539-1.539V1.539A1.541,1.541,0,0,1,170.329,0h8.928A1.541,1.541,0,0,1,180.8,1.539V3.324A1.541,1.541,0,0,1,179.257,4.863Zm-8.928-3.831a.507.507,0,0,0-.506.506V3.324a.507.507,0,0,0,.506.506h8.928a.507.507,0,0,0,.506-.506V1.539a.507.507,0,0,0-.506-.506Z" transform="translate(-168.79 0)" fill="#b89535"/>
    </g>
    <g id="Group_88216" data-name="Group 88216" transform="translate(67.089 7.395)">
      <g id="Group_88213" data-name="Group 88213">
        <path id="Path_100726" data-name="Path 100726" d="M113.129,112.491h-2.294a1.388,1.388,0,0,1-1.386-1.386V108.81a1.388,1.388,0,0,1,1.386-1.386h2.294a1.388,1.388,0,0,1,1.386,1.386V111.1A1.388,1.388,0,0,1,113.129,112.491Zm-2.294-4.034a.354.354,0,0,0-.354.354V111.1a.354.354,0,0,0,.354.354h2.294a.354.354,0,0,0,.354-.354V108.81a.354.354,0,0,0-.354-.354Z" transform="translate(-109.448 -107.424)" fill="#b89535"/>
      </g>
      <g id="Group_88214" data-name="Group 88214" transform="translate(0 8.652)">
        <path id="Path_100727" data-name="Path 100727" d="M113.129,238.177h-2.294a1.388,1.388,0,0,1-1.386-1.386V234.5a1.388,1.388,0,0,1,1.386-1.386h2.294a1.388,1.388,0,0,1,1.386,1.386v2.294A1.388,1.388,0,0,1,113.129,238.177Zm-2.294-4.034a.354.354,0,0,0-.354.354v2.294a.354.354,0,0,0,.354.354h2.294a.354.354,0,0,0,.354-.354V234.5a.354.354,0,0,0-.354-.354Z" transform="translate(-109.448 -233.11)" fill="#b89535"/>
      </g>
      <g id="Group_88215" data-name="Group 88215" transform="translate(0 17.303)">
        <path id="Path_100728" data-name="Path 100728" d="M113.129,363.863h-2.294a1.388,1.388,0,0,1-1.386-1.386v-2.294a1.388,1.388,0,0,1,1.386-1.386h2.294a1.388,1.388,0,0,1,1.386,1.386v2.294A1.388,1.388,0,0,1,113.129,363.863Zm-2.294-4.034a.354.354,0,0,0-.354.354v2.294a.354.354,0,0,0,.354.354h2.294a.354.354,0,0,0,.354-.354v-2.294a.354.354,0,0,0-.354-.354Z" transform="translate(-109.448 -358.796)" fill="#b89535"/>
      </g>
    </g>
    <g id="Group_88217" data-name="Group 88217" transform="translate(63.958 1.915)">
      <path id="Path_100729" data-name="Path 100729" d="M88.16,61.154H66.195a2.239,2.239,0,0,1-2.237-2.237V30.062a2.239,2.239,0,0,1,2.237-2.236h3.094a.516.516,0,0,1,0,1.033H66.195a1.205,1.205,0,0,0-1.2,1.2V58.917a1.205,1.205,0,0,0,1.2,1.2H88.16a1.205,1.205,0,0,0,1.2-1.2V30.062a1.205,1.205,0,0,0-1.2-1.2H85.066a.516.516,0,1,1,0-1.033H88.16A2.239,2.239,0,0,1,90.4,30.062V58.917A2.239,2.239,0,0,1,88.16,61.154Z" transform="translate(-63.958 -27.826)" fill="#b89535"/>
    </g>
  </g>
</svg>
