<svg xmlns="http://www.w3.org/2000/svg" width="45px" height="45px">
  <g id="Group_88485" data-name="Group 88485">
    
    <g id="Group_88524" data-name="Group 88524">
      
      <g id="data-security">
        <path id="Path_104610" data-name="Path 104610" d="M34.6,17.1a.568.568,0,0,0-.352-.593l-4.1-1.653a14.126,14.126,0,0,1-4.23-2.635l-1.735-1.575a.569.569,0,0,0-.764,0l-1.735,1.575a14.126,14.126,0,0,1-4.23,2.635l-4.1,1.653A.568.568,0,0,0,13,17.1l.384,3.311A20.213,20.213,0,0,0,23.3,35.3l.2.124a.57.57,0,0,0,.59,0l.2-.124a20.212,20.212,0,0,0,9.913-14.892Zm-1.513,3.18a19.071,19.071,0,0,1-9.283,14,19.07,19.07,0,0,1-9.283-14l-.334-2.88,3.7-1.49a15.258,15.258,0,0,0,4.569-2.847L23.8,11.836l1.353,1.228a15.258,15.258,0,0,0,4.569,2.847l3.7,1.49Z" transform="translate(-5.179 -4.1)" fill="#b89535"/>
        <path id="Path_104611" data-name="Path 104611" d="M18.621,42.486a17.66,17.66,0,0,0,8.222-2.032l-.529-1.007A16.488,16.488,0,0,1,4.674,16.073l-.961-.607a17.625,17.625,0,0,0,14.909,27.02Z" transform="translate(0 -6.243)" fill="#b89535"/>
        <path id="Path_104612" data-name="Path 104612" d="M25.756,2.136A16.488,16.488,0,0,1,39.7,27.412l.961.607A17.626,17.626,0,0,0,17.532,3.032l.532,1.005a16.517,16.517,0,0,1,7.692-1.9Z" transform="translate(-7.135 0)" fill="#b89535"/>
        <path id="Path_104614" data-name="Path 104614" d="M25,25h1.137v1.137H25Z" transform="translate(-10.358 -10.358)" fill="#b89535"/>
        <path id="Path_104615" data-name="Path 104615" d="M31,25h4.547v1.137H31Z" transform="translate(-12.947 -10.358)" fill="#b89535"/>
        <path id="Path_104616" data-name="Path 104616" d="M25,31h1.137v1.137H25Z" transform="translate(-10.358 -12.948)" fill="#b89535"/>
        <path id="Path_104617" data-name="Path 104617" d="M31,31h4.547v1.137H31Z" transform="translate(-12.947 -12.948)" fill="#b89535"/>
        <path id="Path_104618" data-name="Path 104618" d="M25,37h1.137v1.137H25Z" transform="translate(-10.358 -15.537)" fill="#b89535"/>
        <path id="Path_104619" data-name="Path 104619" d="M31,37h4.547v1.137H31Z" transform="translate(-12.947 -15.537)" fill="#b89535"/>
        <path id="Path_104620" data-name="Path 104620" d="M48.568,54.547h3.411a.568.568,0,0,0,.568-.568V50.568A.568.568,0,0,0,51.979,50H48.568a.568.568,0,0,0-.568.568v3.411A.568.568,0,0,0,48.568,54.547Zm.568-3.411h2.274v2.274H49.137Z" transform="translate(-20.284 -21.147)" fill="#b89535"/>
        <path id="Path_104621" data-name="Path 104621" d="M8.568,10.547h3.411a.568.568,0,0,0,.568-.568V6.568A.568.568,0,0,0,11.979,6H8.568A.568.568,0,0,0,8,6.568V9.979a.568.568,0,0,0,.568.568Zm.568-3.411h2.274V9.411H9.137Z" transform="translate(-3.021 -2.158)" fill="#b89535"/>
      </g>
    </g>
  </g>
</svg>