<svg xmlns="http://www.w3.org/2000/svg" width="40.817" height="35.244" viewBox="0 0 40.817 35.244">
  <g id="hacking" transform="translate(0 -8.739)">
    <path id="Path_101252" data-name="Path 101252" d="M38.665,8.739H2.152A2.155,2.155,0,0,0,0,10.891V38.165A1.988,1.988,0,0,0,1.985,40.15H13.408v2a1.836,1.836,0,0,0,1.834,1.834H25.575a1.835,1.835,0,0,0,1.834-1.834v-2H38.831a1.988,1.988,0,0,0,1.986-1.985V10.891A2.155,2.155,0,0,0,38.665,8.739ZM26.292,42.149a.718.718,0,0,1-.717.717H15.243a.718.718,0,0,1-.717-.717v-8.4a.718.718,0,0,1,.717-.717H25.575a.718.718,0,0,1,.717.717ZM21.26,27.483h-1.7a1.836,1.836,0,0,0-1.834,1.834v.064H16.288v-.064a3.272,3.272,0,0,1,3.269-3.269h1.7a3.272,3.272,0,0,1,3.269,3.269v2.6H23.094v-2.6a1.835,1.835,0,0,0-1.834-1.834ZM39.7,38.165a.87.87,0,0,1-.869.869H27.409V33.748h0a1.834,1.834,0,0,0-1.764-1.83v-2.6a4.389,4.389,0,0,0-4.385-4.385h-1.7a4.389,4.389,0,0,0-4.385,4.385v.622a.558.558,0,0,0,.558.558h2.551a.558.558,0,0,0,.558-.558v-.622a.718.718,0,0,1,.717-.717h1.7a.718.718,0,0,1,.717.717v2.6H15.243a1.836,1.836,0,0,0-1.834,1.834h0v5.286H1.985a.87.87,0,0,1-.869-.869V15.875H39.7Zm0-23.406H1.116V10.891A1.038,1.038,0,0,1,2.152,9.855H38.665A1.038,1.038,0,0,1,39.7,10.891Z" fill="#b89535"/>
    <path id="Path_101253" data-name="Path 101253" d="M70.359,18.176H48.5a.558.558,0,0,0,0,1.116H70.359a.558.558,0,1,0,0-1.116Z" transform="translate(-32.651 -6.428)" fill="#b89535"/>
    <path id="Path_101254" data-name="Path 101254" d="M10.034,18.176H8.558a.558.558,0,0,0,0,1.116h1.475a.558.558,0,1,0,0-1.116Z" transform="translate(-5.449 -6.428)" fill="#b89535"/>
    <path id="Path_101255" data-name="Path 101255" d="M23.346,18.176H21.87a.558.558,0,0,0,0,1.116h1.476a.558.558,0,1,0,0-1.116Z" transform="translate(-14.516 -6.428)" fill="#b89535"/>
    <path id="Path_101256" data-name="Path 101256" d="M36.658,18.176H35.183a.558.558,0,1,0,0,1.116h1.475a.558.558,0,1,0,0-1.116Z" transform="translate(-23.584 -6.428)" fill="#b89535"/>
    <path id="Path_101257" data-name="Path 101257" d="M27.22,42.661h1.389a1.2,1.2,0,0,0,1.2-1.2V38.81a1.2,1.2,0,0,0-1.2-1.2H27.22a1.2,1.2,0,0,0-1.2,1.2v2.655A1.2,1.2,0,0,0,27.22,42.661Zm-.08-3.851a.08.08,0,0,1,.08-.08h1.389a.08.08,0,0,1,.08.08v2.655a.08.08,0,0,1-.08.08H27.22a.08.08,0,0,1-.08-.08Z" transform="translate(-17.725 -19.667)" fill="#b89535"/>
    <path id="Path_101258" data-name="Path 101258" d="M43.246,42.661h1.389a1.2,1.2,0,0,0,1.2-1.2V38.81a1.2,1.2,0,0,0-1.2-1.2H43.246a1.2,1.2,0,0,0-1.2,1.2v2.655A1.2,1.2,0,0,0,43.246,42.661Zm-.08-3.851a.08.08,0,0,1,.08-.08h1.389a.08.08,0,0,1,.08.08v2.655a.08.08,0,0,1-.08.08H43.246a.08.08,0,0,1-.08-.08Z" transform="translate(-28.641 -19.667)" fill="#b89535"/>
    <path id="Path_101259" data-name="Path 101259" d="M75.292,42.661H76.68a1.2,1.2,0,0,0,1.2-1.2V38.81a1.2,1.2,0,0,0-1.2-1.2H75.292a1.2,1.2,0,0,0-1.2,1.2v2.655A1.2,1.2,0,0,0,75.292,42.661Zm-.078-3.851a.08.08,0,0,1,.08-.08H76.68a.08.08,0,0,1,.08.08v2.655a.08.08,0,0,1-.08.08H75.292a.08.08,0,0,1-.08-.08Z" transform="translate(-50.468 -19.667)" fill="#b89535"/>
    <path id="Path_101260" data-name="Path 101260" d="M107.34,42.661h1.389a1.2,1.2,0,0,0,1.2-1.2V38.81a1.2,1.2,0,0,0-1.2-1.2H107.34a1.2,1.2,0,0,0-1.2,1.2v2.655A1.2,1.2,0,0,0,107.34,42.661Zm-.08-3.851a.08.08,0,0,1,.08-.08h1.389a.08.08,0,0,1,.08.08v2.655a.08.08,0,0,1-.08.08H107.34a.08.08,0,0,1-.08-.08Z" transform="translate(-72.296 -19.667)" fill="#b89535"/>
    <path id="Path_101261" data-name="Path 101261" d="M11.2,64.562h1.389a1.2,1.2,0,0,0,1.2-1.2V60.711a1.2,1.2,0,0,0-1.2-1.2H11.2a1.2,1.2,0,0,0-1.2,1.2v2.655a1.2,1.2,0,0,0,1.2,1.2Zm-.08-3.851a.08.08,0,0,1,.08-.08h1.389a.08.08,0,0,1,.08.08v2.655a.08.08,0,0,1-.08.08H11.2a.08.08,0,0,1-.08-.08Z" transform="translate(-6.811 -34.584)" fill="#b89535"/>
    <path id="Path_101262" data-name="Path 101262" d="M27.22,64.562h1.389a1.2,1.2,0,0,0,1.2-1.2V60.711a1.2,1.2,0,0,0-1.2-1.2H27.22a1.2,1.2,0,0,0-1.2,1.2v2.655A1.2,1.2,0,0,0,27.22,64.562Zm-.08-3.851a.08.08,0,0,1,.08-.08h1.389a.08.08,0,0,1,.08.08v2.655a.08.08,0,0,1-.08.08H27.22a.08.08,0,0,1-.08-.08Z" transform="translate(-17.725 -34.584)" fill="#b89535"/>
    <path id="Path_101263" data-name="Path 101263" d="M91.315,64.562H92.7a1.2,1.2,0,0,0,1.2-1.2V60.711a1.2,1.2,0,0,0-1.2-1.2h-1.39a1.2,1.2,0,0,0-1.2,1.2v2.655A1.2,1.2,0,0,0,91.315,64.562Zm-.08-3.851a.08.08,0,0,1,.08-.08H92.7a.08.08,0,0,1,.08.08v2.655a.08.08,0,0,1-.08.08h-1.39a.08.08,0,0,1-.08-.08Z" transform="translate(-61.381 -34.584)" fill="#b89535"/>
    <path id="Path_101264" data-name="Path 101264" d="M11.2,86.462h1.389a1.2,1.2,0,0,0,1.2-1.2V82.611a1.2,1.2,0,0,0-1.2-1.2H11.2a1.2,1.2,0,0,0-1.2,1.2v2.656a1.2,1.2,0,0,0,1.2,1.2Zm-.08-3.851a.08.08,0,0,1,.08-.08h1.389a.08.08,0,0,1,.08.08v2.656a.08.08,0,0,1-.08.08H11.2a.08.08,0,0,1-.08-.08Z" transform="translate(-6.811 -49.501)" fill="#b89535"/>
    <path id="Path_101265" data-name="Path 101265" d="M27.22,86.462h1.389a1.2,1.2,0,0,0,1.2-1.2V82.611a1.2,1.2,0,0,0-1.2-1.2H27.22a1.2,1.2,0,0,0-1.2,1.2v2.656a1.2,1.2,0,0,0,1.2,1.2Zm-.08-3.851a.08.08,0,0,1,.08-.08h1.389a.08.08,0,0,1,.08.08v2.656a.08.08,0,0,1-.08.08H27.22a.08.08,0,0,1-.08-.08Z" transform="translate(-17.725 -49.501)" fill="#b89535"/>
    <path id="Path_101266" data-name="Path 101266" d="M91.315,86.462H92.7a1.2,1.2,0,0,0,1.2-1.2V82.611a1.2,1.2,0,0,0-1.2-1.2h-1.39a1.2,1.2,0,0,0-1.2,1.2v2.656A1.2,1.2,0,0,0,91.315,86.462Zm-.08-3.851a.08.08,0,0,1,.08-.08H92.7a.08.08,0,0,1,.08.08v2.656a.08.08,0,0,1-.08.08h-1.39a.08.08,0,0,1-.08-.08Z" transform="translate(-61.381 -49.501)" fill="#b89535"/>
    <path id="Path_101267" data-name="Path 101267" d="M107.34,86.462h1.389a1.2,1.2,0,0,0,1.2-1.2V82.611a1.2,1.2,0,0,0-1.2-1.2H107.34a1.2,1.2,0,0,0-1.2,1.2v2.656a1.2,1.2,0,0,0,1.2,1.2Zm-.08-3.851a.08.08,0,0,1,.08-.08h1.389a.08.08,0,0,1,.08.08v2.656a.08.08,0,0,1-.08.08H107.34a.08.08,0,0,1-.08-.08Z" transform="translate(-72.296 -49.501)" fill="#b89535"/>
    <path id="Path_101268" data-name="Path 101268" d="M10.558,41.545a.558.558,0,1,0,0,1.116h2.665a.558.558,0,1,0,0-1.116h-.774V38.172a.558.558,0,0,0-.9-.438l-1.332,1.05a.558.558,0,1,0,.691.877l.429-.338v2.222Z" transform="translate(-6.811 -19.667)" fill="#b89535"/>
    <path id="Path_101269" data-name="Path 101269" d="M106.7,64.562h2.665a.558.558,0,1,0,0-1.116h-.775V60.073a.558.558,0,0,0-.9-.438l-1.332,1.05a.558.558,0,1,0,.691.877l.429-.338v2.222H106.7a.558.558,0,0,0,0,1.116Z" transform="translate(-72.296 -34.584)" fill="#b89535"/>
    <path id="Path_101270" data-name="Path 101270" d="M58.63,41.545a.558.558,0,0,0,0,1.116h2.665a.558.558,0,0,0,0-1.116H60.52V38.172a.558.558,0,0,0-.9-.438l-1.333,1.05a.558.558,0,0,0,.691.877l.429-.338v2.222Z" transform="translate(-39.553 -19.667)" fill="#b89535"/>
    <path id="Path_101271" data-name="Path 101271" d="M90.677,41.545a.558.558,0,0,0,0,1.116h2.665a.558.558,0,0,0,0-1.116h-.774V38.172a.558.558,0,0,0-.9-.438l-1.333,1.05a.558.558,0,1,0,.691.877l.429-.338v2.223Z" transform="translate(-61.381 -19.667)" fill="#b89535"/>
    <path id="Path_101272" data-name="Path 101272" d="M59.543,90.317a2.085,2.085,0,0,0-.558,4.094V96.15a.558.558,0,1,0,1.116,0V94.411a2.085,2.085,0,0,0-.558-4.094Zm0,3.056a.97.97,0,1,1,.97-.97A.97.97,0,0,1,59.543,93.373Z" transform="translate(-39.134 -55.564)" fill="#b89535"/>
  </g>
</svg>
