<svg xmlns="http://www.w3.org/2000/svg" width="35.78" height="35.951" viewBox="0 0 57.78 35.951">
  <g id="handshake" transform="translate(0.356 -97.545)">
    <path id="Path_104803" data-name="Path 104803" d="M1.081,115.685l4.548,1.794a1.7,1.7,0,0,0,1.725-.281l3.6,2.271.618.434a3.044,3.044,0,0,0,2.909,4.648,3.043,3.043,0,0,0,3.371,2.859,3.043,3.043,0,0,0,3.373,2.858,3.044,3.044,0,0,0,5.361,1.8l.723-.848,1.218.9a3.353,3.353,0,0,0,5.356-2.3,3.33,3.33,0,0,0,4.51-3.069,3.335,3.335,0,0,0,3.976-3.073,3.33,3.33,0,0,0,3.883-4.6l3.255-2.09a1.708,1.708,0,0,0,1.931.488l4.548-1.794a1.709,1.709,0,0,0,.961-2.214L54.87,108.2a.836.836,0,0,0-1.555.614l2.079,5.269a.035.035,0,0,1-.02.045l-4.548,1.794a.035.035,0,0,1-.045-.02l-5.716-14.489a.032.032,0,0,1,0-.027.033.033,0,0,1,.019-.019l4.548-1.794a.032.032,0,0,1,.027,0,.033.033,0,0,1,.018.019l2.2,5.586a.836.836,0,0,0,1.555-.614l-2.2-5.586a1.709,1.709,0,0,0-2.214-.961l-4.548,1.794a1.7,1.7,0,0,0-1.024,2.019l-2.438.9a4.746,4.746,0,0,1-2.382.235l-2.465-.391a.836.836,0,0,0-.262,1.651l2.465.391a6.423,6.423,0,0,0,3.223-.318l2.46-.908,4.758,12.06-3.587,2.3-.061-.045h0l-6.914-5.1a.839.839,0,0,0-.658-.148,9.723,9.723,0,0,1-8.848-3.026,1.889,1.889,0,0,0-2.638-.09c-2.214,1.989-5.309,3.928-7.474,1.87a.5.5,0,0,1,.11-.793,49.406,49.406,0,0,0,7.914-6.591,2.542,2.542,0,0,1,2.2-.72l3.173.5a.836.836,0,0,0,.262-1.651l-3.173-.5a4.219,4.219,0,0,0-3.654,1.2c-.266.269-.58.581-.935.924a11.933,11.933,0,0,0-3.321-.67,38.5,38.5,0,0,0-4.364-.173,3.9,3.9,0,0,1-1.742-.292l-1.473-.616A1.708,1.708,0,0,0,12.6,99.815L8.05,98.021a1.709,1.709,0,0,0-2.214.961L.12,113.47a1.706,1.706,0,0,0,.961,2.214ZM15.2,122.414a1.374,1.374,0,0,1-2.1-1.776l2.068-2.427a1.374,1.374,0,1,1,2.1,1.777h0Zm3.371,2.859a1.374,1.374,0,0,1-2.1-1.776l2.068-2.427a1.378,1.378,0,0,1,2.038-.064l.011.012a1.376,1.376,0,0,1,.047,1.829Zm3.371,2.858a1.374,1.374,0,0,1-2.1-1.776l2.068-2.427a1.374,1.374,0,0,1,2.1,1.777h0Zm5.449.418-.01.013-2.068,2.427a1.374,1.374,0,0,1-2.1-1.775l2.068-2.427a1.374,1.374,0,0,1,2.107,1.762ZM13.022,103.39l1.429.6a5.572,5.572,0,0,0,2.495.418,38.551,38.551,0,0,1,4.164.174,10.261,10.261,0,0,1,2.008.314,42.217,42.217,0,0,1-5.312,4.139,2.168,2.168,0,0,0-.333,3.395c1.4,1.327,4.52,2.852,9.743-1.839a.224.224,0,0,1,.314,0,11.515,11.515,0,0,0,9.989,3.572c.439.308-.411-.314,6.646,4.894h0a1.712,1.712,0,0,1,.375,2.41,1.663,1.663,0,0,1-2.31.316c-.991-.731-.259-.175-3.742-2.858a.836.836,0,1,0-1.021,1.324l2.889,2.226a1.681,1.681,0,0,1-.151,2.191,1.716,1.716,0,0,1-2.218.127c-.663-.489-.112-.07-3.151-2.41a.836.836,0,0,0-1.02,1.325l2.562,1.973a1.678,1.678,0,0,1-.068,2.125,1.715,1.715,0,0,1-2.293.2c-1.153-.851-.574-.412-2.795-2.13a.836.836,0,1,0-1.023,1.322l1.776,1.375a1.669,1.669,0,0,1-.206,2.041,1.709,1.709,0,0,1-2.248.156l-1.124-.829.258-.3a3.046,3.046,0,0,0-2.655-5,3.044,3.044,0,0,0-3.29-2.866l-.081.008c0-.027,0-.054,0-.08a3.023,3.023,0,0,0-.719-1.728l-.007-.009a3.046,3.046,0,0,0-2.639-1.04,3.046,3.046,0,0,0-5.363-1.8l-1.26,1.479-.736-.518-.035-.023-3.71-2.34,4.867-12.336ZM1.675,114.084,7.391,99.6a.035.035,0,0,1,.033-.022l.013,0,4.548,1.794a.035.035,0,0,1,.02.045L6.288,115.9a.035.035,0,0,1-.045.02l-4.548-1.794a.035.035,0,0,1-.02-.045Z" transform="translate(0 0)" fill="#b89535" stroke="#f9f7f2" stroke-width="0.7" style="fill: #fff;stroke: #fff;"/>
  </g>
</svg>