<svg xmlns="http://www.w3.org/2000/svg" width="16.299" height="16.299" viewBox="0 0 16.299 16.299">
  <path id="Icon_awesome-linkedin" data-name="Icon awesome-linkedin" d="M15.135,2.25H1.161A1.169,1.169,0,0,0,0,3.425V17.374a1.169,1.169,0,0,0,1.161,1.175H15.135A1.172,1.172,0,0,0,16.3,17.374V3.425A1.172,1.172,0,0,0,15.135,2.25ZM4.926,16.221H2.51V8.442H4.93v7.778ZM3.718,7.38a1.4,1.4,0,1,1,1.4-1.4,1.4,1.4,0,0,1-1.4,1.4Zm10.263,8.841H11.566V12.437c0-.9-.018-2.063-1.255-2.063-1.259,0-1.452.982-1.452,2v3.849H6.443V8.442H8.761V9.5h.033a2.544,2.544,0,0,1,2.288-1.255c2.445,0,2.9,1.612,2.9,3.707Z" transform="translate(0 -2.25)" fill="#b89535"/>
</svg>
