<svg xmlns="http://www.w3.org/2000/svg" width="16.449" height="16.449" viewBox="0 0 16.449 16.449">
  <path id="Icon_metro-facebook" data-name="Icon metro-facebook" d="M16.278,1.928H5.312A2.741,2.741,0,0,0,2.571,4.67V15.635a2.741,2.741,0,0,0,2.741,2.742H10.8v-7.2H8.739V9.124H10.8V7.582a2.57,2.57,0,0,1,2.57-2.57h2.57V7.068h-2.57a.514.514,0,0,0-.514.514V9.124h2.827l-.514,2.056H12.851v7.2h3.427a2.741,2.741,0,0,0,2.741-2.742V4.67a2.741,2.741,0,0,0-2.741-2.742Z" transform="translate(-2.571 -1.928)" fill="#b89535"/>
</svg>
