<svg xmlns="http://www.w3.org/2000/svg" width="24.146" height="16.299" viewBox="0 0 24.146 16.299">
  <path id="Icon_zocial-email" data-name="Icon zocial-email" d="M.072,18.923V5.512q0-.023.07-.442l7.893,6.752L.165,19.389a1.973,1.973,0,0,1-.093-.466ZM1.12,4.138a1,1,0,0,1,.4-.07H22.774a1.318,1.318,0,0,1,.419.07l-7.917,6.776-1.048.838-2.072,1.7-2.072-1.7-1.048-.838ZM1.143,20.3l7.94-7.614,3.074,2.491,3.074-2.491L23.17,20.3a1.118,1.118,0,0,1-.4.07H1.516a1.055,1.055,0,0,1-.373-.07Zm15.135-8.475,7.87-6.752a1.39,1.39,0,0,1,.07.442V18.923a1.785,1.785,0,0,1-.07.466Z" transform="translate(-0.072 -4.068)" fill="#b89535"/>
</svg>
