<svg xmlns="http://www.w3.org/2000/svg" width="16.295" height="16.299" viewBox="0 0 16.295 16.299">
  <path id="Icon_metro-link" data-name="Icon metro-link" d="M9.914,12.456a.845.845,0,0,1-.6-.248,3.981,3.981,0,0,1,0-5.624l3.129-3.129a3.977,3.977,0,1,1,5.624,5.624l-1.43,1.43a.848.848,0,0,1-1.2-1.2l1.43-1.43a2.282,2.282,0,0,0-3.227-3.227L10.513,7.782a2.284,2.284,0,0,0,0,3.227.848.848,0,0,1-.6,1.447Zm-3,6.132A3.977,3.977,0,0,1,4.1,11.8l1.43-1.43a.848.848,0,0,1,1.2,1.2L5.3,13a2.282,2.282,0,0,0,3.227,3.227L11.654,13.1a2.285,2.285,0,0,0,0-3.227.848.848,0,1,1,1.2-1.2,3.982,3.982,0,0,1,0,5.624L9.723,17.423a3.951,3.951,0,0,1-2.812,1.165Z" transform="translate(-2.936 -2.29)" fill="#b89535"/>
</svg>
