<svg xmlns="http://www.w3.org/2000/svg" width="16.449" height="16.449" viewBox="0 0 16.449 16.449">
  <path id="Icon_awesome-twitter-square" data-name="Icon awesome-twitter-square" d="M14.686,2.25H1.762A1.763,1.763,0,0,0,0,4.012V16.936A1.763,1.763,0,0,0,1.762,18.7H14.686a1.763,1.763,0,0,0,1.762-1.762V4.012A1.763,1.763,0,0,0,14.686,2.25Zm-1.8,5.83c.007.1.007.209.007.312a6.8,6.8,0,0,1-6.851,6.851,6.82,6.82,0,0,1-3.7-1.079,5.073,5.073,0,0,0,.58.029,4.828,4.828,0,0,0,2.989-1.028A2.411,2.411,0,0,1,3.668,11.5a2.6,2.6,0,0,0,1.087-.044A2.408,2.408,0,0,1,2.827,9.087V9.057a2.406,2.406,0,0,0,1.087.3,2.4,2.4,0,0,1-1.072-2,2.378,2.378,0,0,1,.327-1.215A6.837,6.837,0,0,0,8.133,8.661a2.413,2.413,0,0,1,4.109-2.2,4.719,4.719,0,0,0,1.527-.58,2.4,2.4,0,0,1-1.057,1.325A4.792,4.792,0,0,0,14.1,6.832,5.069,5.069,0,0,1,12.891,8.08Z" transform="translate(0 -2.25)" fill="#b89535"/>
</svg>
