<svg xmlns="http://www.w3.org/2000/svg" width="35.573" height="35.544" viewBox="0 0 35.573 35.544">
  <g id="improve" transform="translate(-1.84 -1.866)">
    <path id="Path_101245" data-name="Path 101245" d="M16.938,46a2.938,2.938,0,1,0,2.938,2.938A2.941,2.941,0,0,0,16.938,46Zm0,4.7A1.763,1.763,0,1,1,18.7,48.938,1.765,1.765,0,0,1,16.938,50.7Z" transform="translate(-4.949 -18.141)" fill="#b89535" stroke="#f9f7f2" stroke-width="0.3" style="fill: #fff;stroke: #fff;"/>
    <path id="Path_101246" data-name="Path 101246" d="M20.339,48.226a.588.588,0,0,0,.588-.588v-2.35a.588.588,0,0,0-.588-.588l-.9-.026a5.274,5.274,0,0,0-.2-.486l.633-.633a.587.587,0,0,0,0-.831L18.2,41.062a.587.587,0,0,0-.831,0l-.658.62a5.167,5.167,0,0,0-.488-.2v-.9A.588.588,0,0,0,15.638,40h-2.35a.588.588,0,0,0-.588.588l-.026.9a5.274,5.274,0,0,0-.486.2l-.633-.633a.587.587,0,0,0-.831,0L9.062,42.724a.587.587,0,0,0,0,.831l.62.658a5.169,5.169,0,0,0-.2.488h-.9A.588.588,0,0,0,8,45.289v2.35a.588.588,0,0,0,.588.588l.9.026a5.274,5.274,0,0,0,.2.486l-.633.633a.587.587,0,0,0,0,.831l1.662,1.662a.587.587,0,0,0,.831,0l.658-.62a5.168,5.168,0,0,0,.488.2v.9a.588.588,0,0,0,.588.588h2.35a.588.588,0,0,0,.588-.588l.026-.9a5.275,5.275,0,0,0,.486-.2l.633.633a.587.587,0,0,0,.831,0L19.864,50.2a.587.587,0,0,0,0-.831l-.62-.658a5.168,5.168,0,0,0,.2-.488h.9ZM18.4,49.569l.217.217-.831.831-.217-.217a1.183,1.183,0,0,0-1.356-.22c-.117.055-.237.105-.359.149a1.181,1.181,0,0,0-.8,1.114v.308H13.876v-.308a1.181,1.181,0,0,0-.8-1.114c-.123-.044-.243-.094-.36-.149a1.182,1.182,0,0,0-1.356.22l-.217.217-.831-.831.217-.217a1.182,1.182,0,0,0,.22-1.356c-.055-.117-.105-.237-.149-.359a1.181,1.181,0,0,0-1.114-.8H9.175V45.876h.308a1.181,1.181,0,0,0,1.114-.8c.044-.123.094-.243.149-.36a1.182,1.182,0,0,0-.22-1.356l-.217-.217.831-.831.217.217a1.182,1.182,0,0,0,1.356.22c.117-.055.237-.105.359-.149a1.181,1.181,0,0,0,.8-1.114v-.308h1.175v.308a1.181,1.181,0,0,0,.8,1.114c.123.044.243.094.36.149a1.181,1.181,0,0,0,1.356-.22l.217-.217.831.831-.217.217a1.182,1.182,0,0,0-.22,1.356c.055.117.105.237.149.359a1.181,1.181,0,0,0,1.114.8h.308v1.175h-.308a1.181,1.181,0,0,0-1.114.8c-.044.123-.094.243-.149.36A1.183,1.183,0,0,0,18.4,49.569Z" transform="translate(-2.475 -15.667)" fill="#b89535" stroke="#f9f7f2" stroke-width="0.3" style="fill: #fff;&#13;&#10;    stroke: #fff;"/>
    <path id="Path_101247" data-name="Path 101247" d="M43.7,39a4.7,4.7,0,1,0,4.7,4.7A4.706,4.706,0,0,0,43.7,39Zm0,8.226A3.525,3.525,0,1,1,47.226,43.7,3.529,3.529,0,0,1,43.7,47.226Z" transform="translate(-15.261 -15.254)" fill="#b89535" stroke="#f9f7f2" stroke-width="0.3" style="fill: #fff;&#13;&#10;    stroke: #fff;"/>
    <path id="Path_101248" data-name="Path 101248" d="M49.039,38.463l-.97-.016a7.51,7.51,0,0,0-.461-1.105l.684-.683a.587.587,0,0,0,0-.831L45.8,33.335a.6.6,0,0,0-.831,0l-.7.675a7.5,7.5,0,0,0-1.107-.455v-.967A.588.588,0,0,0,42.576,32H39.051a.588.588,0,0,0-.588.588l-.016.97a7.51,7.51,0,0,0-1.105.461l-.683-.684a.587.587,0,0,0-.831,0l-2.493,2.493a.587.587,0,0,0,0,.831l.675.7a7.5,7.5,0,0,0-.455,1.107h-.968A.588.588,0,0,0,32,39.05v3.525a.588.588,0,0,0,.588.588l.97.016a7.478,7.478,0,0,0,.461,1.1l-.684.684a.587.587,0,0,0,0,.831l2.493,2.493a.587.587,0,0,0,.831,0l.7-.675a7.5,7.5,0,0,0,1.107.455v.968a.588.588,0,0,0,.588.588h3.525a.588.588,0,0,0,.588-.588l.016-.97a7.477,7.477,0,0,0,1.1-.461l.684.684a.587.587,0,0,0,.831,0L48.291,45.8a.587.587,0,0,0,0-.831l-.675-.7a7.5,7.5,0,0,0,.455-1.107h.968a.588.588,0,0,0,.588-.588V39.051A.588.588,0,0,0,49.039,38.463Zm-.588,3.525h-.38a1.184,1.184,0,0,0-1.121.827,6.456,6.456,0,0,1-.381.922,1.183,1.183,0,0,0,.208,1.377l.269.269-1.662,1.662-.269-.269a1.182,1.182,0,0,0-1.377-.208,6.392,6.392,0,0,1-.922.382,1.182,1.182,0,0,0-.827,1.12v.38h-2.35v-.38a1.184,1.184,0,0,0-.827-1.121,6.456,6.456,0,0,1-.922-.381,1.181,1.181,0,0,0-1.377.208l-.269.269-1.662-1.662.269-.269a1.185,1.185,0,0,0,.208-1.377,6.392,6.392,0,0,1-.382-.922,1.182,1.182,0,0,0-1.12-.827h-.38v-2.35h.38a1.184,1.184,0,0,0,1.121-.827,6.456,6.456,0,0,1,.381-.922,1.183,1.183,0,0,0-.208-1.377l-.268-.268,1.662-1.662.268.268a1.183,1.183,0,0,0,1.377.208,6.391,6.391,0,0,1,.922-.382,1.183,1.183,0,0,0,.828-1.121v-.38h2.35v.38a1.184,1.184,0,0,0,.827,1.121,6.456,6.456,0,0,1,.922.381,1.185,1.185,0,0,0,1.377-.208l.268-.268,1.662,1.662-.268.268a1.184,1.184,0,0,0-.208,1.377,6.392,6.392,0,0,1,.382.922,1.183,1.183,0,0,0,1.121.828h.38Z" transform="translate(-12.374 -12.367)" fill="#b89535" stroke="#f9f7f2" stroke-width="0.3" style="fill: #fff;&#13;&#10;    stroke: #fff;"/>
    <path id="Path_101249" data-name="Path 101249" d="M9.051,22.882v6.463h1.175V23.47h1.763a.587.587,0,0,0,.439-.978L7.727,17.2a.607.607,0,0,0-.878,0l-4.7,5.288a.588.588,0,0,0,.439.978H4.35v8.813H5.525v-9.4a.588.588,0,0,0-.588-.588H3.9l3.392-3.816,3.392,3.816H9.638A.588.588,0,0,0,9.051,22.882Z" transform="translate(0 -6.187)" fill="#b89535" stroke="#f9f7f2" stroke-width="0.3" style="fill: #fff;&#13;&#10;    stroke: #fff;"/>
    <path id="Path_101250" data-name="Path 101250" d="M30.05,14.882v8.226h1.175V15.47h1.763a.587.587,0,0,0,.439-.978L28.727,9.2a.607.607,0,0,0-.878,0l-4.7,5.288a.587.587,0,0,0,.439.978H25.35V27.221h1.175V14.882a.588.588,0,0,0-.588-.588H24.9l3.392-3.816,3.392,3.816H30.638A.588.588,0,0,0,30.05,14.882Z" transform="translate(-8.661 -2.887)" fill="#b89535" stroke="#f9f7f2" stroke-width="0.3" style="fill: #fff;&#13;&#10;    stroke: #fff;"/>
    <path id="Path_101251" data-name="Path 101251" d="M51.05,7.882v9.4h1.175V8.47h1.763a.587.587,0,0,0,.439-.978L49.727,2.2a.607.607,0,0,0-.878,0l-4.7,5.288a.587.587,0,0,0,.439.978H46.35v9.988h1.175V7.882a.588.588,0,0,0-.588-.588H45.9l3.392-3.816L52.68,7.294H51.638A.588.588,0,0,0,51.05,7.882Z" transform="translate(-17.323)" fill="#b89535" stroke="#f9f7f2" stroke-width="0.3" style="fill: #fff;&#13;&#10;    stroke: #fff;"/>
  </g>
</svg>