<svg xmlns="http://www.w3.org/2000/svg" width="35.167" height="36.054" viewBox="0 0 50.167 36.054">
  <g id="iot" transform="translate(0.4 -0.09)">
    <path id="Path_101235" data-name="Path 101235" d="M145.643,54.379a.962.962,0,0,1-.682-.282,11.065,11.065,0,0,0-15.631,0,.964.964,0,0,1-1.364-1.363,13,13,0,0,1,18.359,0,.964.964,0,0,1-.682,1.646Zm0,0" transform="translate(-115.372 -43.766)" fill="#b89535" stroke="#f9f7f2" stroke-width="0.8" style="fill: #fff;stroke: #fff;"/>
    <path id="Path_101236" data-name="Path 101236" d="M338.96,52.931a.961.961,0,0,1-.685-.285l-.012-.012a.964.964,0,1,1,1.358-1.369l.023.023a.964.964,0,0,1-.684,1.643Zm0,0" transform="translate(-305.39 -45.618)" fill="#b89535" stroke="#f9f7f2" stroke-width="0.8" style="fill: #fff;stroke: #fff;"/>
    <path id="Path_101237" data-name="Path 101237" d="M94.433,7.314a.964.964,0,0,1-.682-1.646A17.46,17.46,0,0,1,104.249.61a17.732,17.732,0,0,1,11.183,2.474.964.964,0,0,1-1.007,1.645,15.666,15.666,0,0,0-19.31,2.3.96.96,0,0,1-.682.282Zm0,0" transform="translate(-84.457)" fill="#b89535" stroke="#f9f7f2" stroke-width="0.8" style="fill: #fff;stroke: #fff;"/>
    <path id="Path_101238" data-name="Path 101238" d="M137.146,266.579a12.939,12.939,0,0,1-9.179-3.8.964.964,0,0,1,1.364-1.363,11.065,11.065,0,0,0,15.631,0,.964.964,0,0,1,1.364,1.363,12.94,12.94,0,0,1-9.18,3.8Zm0,0" transform="translate(-115.373 -235.506)" fill="#b89535" stroke="#f9f7f2" stroke-width="0.8" style="stroke: #fff;fill: #fff;"/>
    <path id="Path_101239" data-name="Path 101239" d="M130.758,302.165a17.684,17.684,0,0,1-9.723-2.908.964.964,0,0,1,1.063-1.609,15.764,15.764,0,0,0,19.764-2.014A.964.964,0,1,1,143.225,297a17.675,17.675,0,0,1-10.788,5.088C131.878,302.139,131.317,302.165,130.758,302.165Zm0,0" transform="translate(-108.973 -266.421)" fill="#b89535" stroke="#f9f7f2" stroke-width="0.8" style="fill: #fff;stroke: #fff;"/>
    <path id="Path_101240" data-name="Path 101240" d="M94.467,297.315a.961.961,0,0,1-.678-.278l-.041-.04a.964.964,0,1,1,1.369-1.358l.026.026a.964.964,0,0,1-.677,1.65Zm0,0" transform="translate(-84.457 -266.423)" fill="#b89535" stroke="#f9f7f2" stroke-width="0.8" style="fill: #fff;stroke: #fff;"/>
    <path id="Path_101241" data-name="Path 101241" d="M192.275,153.428a3.564,3.564,0,1,1,3.563-3.564A3.568,3.568,0,0,1,192.275,153.428Zm0-5.2a1.635,1.635,0,1,0,1.635,1.635A1.637,1.637,0,0,0,192.275,148.229Zm0,0" transform="translate(-170.516 -131.743)" fill="#b89535" stroke="#f9f7f2" stroke-width="0.8" style="fill: #fff;stroke: #fff;"/>
    <path id="Path_101242" data-name="Path 101242" d="M3.564,104.254A3.567,3.567,0,0,1,0,100.691V88.943a3.564,3.564,0,1,1,7.127,0v11.748A3.567,3.567,0,0,1,3.564,104.254Zm0-16.947a1.637,1.637,0,0,0-1.635,1.635v11.748a1.635,1.635,0,0,0,3.27,0V88.943A1.637,1.637,0,0,0,3.564,87.307Zm0,0" transform="translate(0 -76.695)" fill="#b89535" stroke="#f9f7f2" stroke-width="0.8" style="fill: #fff;stroke: #fff;"/>
    <path id="Path_101243" data-name="Path 101243" d="M367.875,104.9a3.134,3.134,0,0,1-3.131-3.13V92.359H363.7a3.13,3.13,0,1,1,0-6.261h8.34a3.13,3.13,0,0,1,0,6.261H371v9.415A3.134,3.134,0,0,1,367.875,104.9ZM363.7,88.026a1.2,1.2,0,1,0,0,2.4h2a.964.964,0,0,1,.964.964v10.379a1.2,1.2,0,0,0,2.4,0V91.394a.964.964,0,0,1,.964-.964h2a1.2,1.2,0,1,0,0-2.4Zm0,0" transform="translate(-325.807 -77.344)" fill="#b89535" stroke="#f9f7f2" stroke-width="0.8" style="fill: #fff;stroke: #fff;"/>
    <path id="Path_101244" data-name="Path 101244" d="M148.43,114.258a8.242,8.242,0,1,1,8.242-8.242A8.252,8.252,0,0,1,148.43,114.258Zm0-14.556a6.314,6.314,0,1,0,6.314,6.314A6.321,6.321,0,0,0,148.43,99.7Zm0,0" transform="translate(-126.671 -87.894)" fill="#b89535" stroke="#f9f7f2" stroke-width="0.8" style="fill: #fff;stroke: #fff;"/>
  </g>
</svg>