<svg xmlns="http://www.w3.org/2000/svg" xmlns:xlink="http://www.w3.org/1999/xlink" width="62" height="79" viewBox="" style="">
  <defs>
    <clipPath id="clip-path">
      <rect id="Rectangle_127" data-name="Rectangle 127" width="61.226" height="78.856" fill="none"/>
    </clipPath>
    <clipPath id="clip-path-2">
      <path id="Path_762" data-name="Path 762" d="M493.786,527.317c.98,3.191,1.7,6.379,2.65,7.067,2.919,2.12,8.783.157,12.248,2.675,3.284,2.386,2.54,10.514,5.557,10.871,3.115.369,2.8-4.213,3.82-7.8a36.874,36.874,0,0,1,5.121-11.267,23.819,23.819,0,0,0-5.171-4.986,20.775,20.775,0,0,0-6.225-2.944,36.807,36.807,0,0,0-12.218-1.384c-.075.006-.15.012-.219.019l-.008-.009c-3.393.169-7.166,1.547-8.218-.591.475,1.45,1.663,5.1,2.662,8.352" transform="translate(-491.124 -518.965)" fill="none"/>
    </clipPath>
    <clipPath id="clip-path-4">
      <path id="Path_806" data-name="Path 806" d="M630.481,530.464a20.791,20.791,0,0,0-4.723,5.01,36.824,36.824,0,0,0-5.092,11.192c-.017.073-.034.147-.049.215l-.011,0c-.887,3.279-.743,7.293-3.1,7.633,1.526,0,5.362-.006,8.766.049,3.338.054,6.594.352,7.541-.337,2.918-2.12,2.863-8.3,6.329-10.822,1.589-1.154,4.166-1,6.546-.839,2.539.169,4.854.337,5.51-1.087,1.313-2.849-3.141-3.966-6.242-6.044a36.872,36.872,0,0,1-9.133-8.353,23.825,23.825,0,0,0-6.34,3.377" transform="translate(-617.503 -527.087)" fill="none"/>
    </clipPath>
    <clipPath id="clip-path-6">
      <path id="Path_809" data-name="Path 809" d="M503.137,356.341c-2.732,1.917-5.541,3.591-5.9,4.7-1.115,3.431,2.564,8.4,1.241,12.475-1.255,3.861-9.215,5.665-8.622,8.645.612,3.076,4.873,1.362,8.6,1.221a36.861,36.861,0,0,1,12.3,1.389,23.817,23.817,0,0,0,3.145-6.459,20.8,20.8,0,0,0,.876-6.83,36.815,36.815,0,0,0-2.459-12.047c-.029-.069-.059-.139-.086-.2l.006-.01c-1.21-3.174-3.686-6.337-1.977-8-1.232.9-4.335,3.157-7.121,5.113" transform="translate(-489.821 -351.228)" fill="none"/>
    </clipPath>
    <clipPath id="clip-path-8">
      <path id="Path_846" data-name="Path 846" d="M706.758,404.9A36.869,36.869,0,0,1,695.992,411a23.834,23.834,0,0,0,1.252,7.073,20.791,20.791,0,0,0,3.306,6.04,36.808,36.808,0,0,0,9.07,8.3l.189.114s0,.008,0,.012c2.844,1.857,6.707,2.96,6.3,5.309.468-1.453,1.651-5.1,2.756-8.322,1.083-3.157,2.372-6.162,2.01-7.276-1.115-3.431-7.013-5.289-8.336-9.364-1.255-3.861,4.125-10,1.895-12.061a2.057,2.057,0,0,0-1.421-.616c-1.892,0-3.916,2.846-6.256,4.684" transform="translate(-695.992 -400.212)" fill="none"/>
    </clipPath>
    <clipPath id="clip-path-10">
      <path id="Path_925" data-name="Path 925" d="M596.4,348.213c-2.737,1.533.211,5.055,1.5,8.559a36.858,36.858,0,0,1,2.479,12.125,23.81,23.81,0,0,0,7.114,1,20.787,20.787,0,0,0,6.766-1.278,36.81,36.81,0,0,0,10.7-6.062c.057-.049.114-.1.166-.145l.012,0c2.645-2.132,4.887-5.464,7-4.353-1.237-.894-4.342-3.147-7.063-5.192-2.668-2.005-5.128-4.16-6.3-4.16-3.607,0-7.2,5.035-11.482,5.035-3.671,0-7.437-5.735-10.084-5.735a1.613,1.613,0,0,0-.8.206" transform="translate(-595.274 -348.007)" fill="none"/>
    </clipPath>
    <clipPath id="clip-path-11">
      <rect id="Rectangle_192" data-name="Rectangle 192" width="61.226" height="78.856"/>
    </clipPath>
  </defs>
  <g id="Logo" transform="translate(-140 -12)">
    
    <g id="Group_26484" data-name="Group 26484" transform="translate(-346.842 -329.218)">
      <g id="Group_26354" data-name="Group 26354" transform="translate(486.841 341.218)">
        <g id="Group_26353" data-name="Group 26353" transform="translate(0 0)" clip-path="url(#clip-path)">
          <path id="Path_670" data-name="Path 670" d="M499.124,519.514l-.208.018-.007-.008c-3.214.161-6.79,1.466-7.787-.56.45,1.374,1.576,4.83,2.522,7.913.928,3.024,1.614,6.045,2.511,6.7,2.765,2.009,8.322.149,11.605,2.535,3.112,2.261,2.407,9.962,5.265,10.3,2.952.35,2.654-3.992,3.619-7.394A34.933,34.933,0,0,1,521.5,528.34a22.58,22.58,0,0,0-4.9-4.725,19.688,19.688,0,0,0-5.9-2.789,34.888,34.888,0,0,0-11.576-1.312" transform="translate(-490.358 -487.261)" fill="#bce3f9"/>
        </g>
      </g>
      <g id="Group_26356" data-name="Group 26356" transform="translate(487.647 371.982)">
        <g id="Group_26355" data-name="Group 26355" transform="translate(0 0)" clip-path="url(#clip-path-2)">
          <path id="Path_671" data-name="Path 671" d="M535.5,563.828v3.242l.785.785h.372v-4.812h-.372Z" transform="translate(-527.143 -554.745)" fill="#006292"/>
          <rect id="Rectangle_128" data-name="Rectangle 128" width="2.231" height="4.813" transform="translate(9.658 28.491)" fill="#006292"/>
          <path id="Path_672" data-name="Path 672" d="M535.5,590.646v3.242l.785.785h.372v-4.812h-.372Z" transform="translate(-527.143 -576.515)" fill="#006292"/>
          <path id="Path_673" data-name="Path 673" d="M528.274,643.5v4.813h.343l.785-.785v-3.242l-.785-.785Z" transform="translate(-521.281 -620.056)" fill="#006292"/>
          <path id="Path_674" data-name="Path 674" d="M535.5,510.19v3.242l.785.785h.372V509.4h-.372Z" transform="translate(-527.143 -511.204)" fill="#006292"/>
          <rect id="Rectangle_129" data-name="Rectangle 129" width="2.231" height="4.813" transform="translate(9.658 13.346)" fill="#006292"/>
          <rect id="Rectangle_130" data-name="Rectangle 130" width="2.231" height="4.813" transform="translate(9.658 23.443)" fill="#006292"/>
          <rect id="Rectangle_131" data-name="Rectangle 131" width="2.231" height="4.812" transform="translate(9.658 8.297)" fill="#006292"/>
          <rect id="Rectangle_132" data-name="Rectangle 132" width="2.231" height="4.813" transform="translate(9.658 18.394)" fill="#006292"/>
          <path id="Path_675" data-name="Path 675" d="M528.274,616.68v4.813h.343l.785-.785v-3.242l-.785-.785Z" transform="translate(-521.281 -598.285)" fill="#006292"/>
          <path id="Path_676" data-name="Path 676" d="M535.5,617.465v3.242l.785.785h.372V616.68h-.372Z" transform="translate(-527.143 -598.286)" fill="#006292"/>
          <path id="Path_677" data-name="Path 677" d="M528.274,563.042v4.812h.343l.785-.785v-3.242l-.785-.785Z" transform="translate(-521.281 -554.745)" fill="#006292"/>
          <rect id="Rectangle_133" data-name="Rectangle 133" width="2.231" height="4.813" transform="translate(9.658 3.249)" fill="#006292"/>
          <path id="Path_678" data-name="Path 678" d="M528.274,536.223v4.812h.343l.785-.785v-3.242l-.785-.785Z" transform="translate(-521.281 -532.974)" fill="#006292"/>
          <path id="Path_679" data-name="Path 679" d="M528.274,589.861v4.813h.343l.785-.785v-3.242l-.785-.785Z" transform="translate(-521.281 -576.515)" fill="#006292"/>
          <path id="Path_680" data-name="Path 680" d="M528.274,509.4v4.812h.343l.785-.785v-3.242l-.785-.785Z" transform="translate(-521.281 -511.204)" fill="#006292"/>
          <path id="Path_681" data-name="Path 681" d="M535.5,644.284v3.242l.785.785h.372V643.5h-.372Z" transform="translate(-527.143 -620.056)" fill="#006292"/>
          <path id="Path_682" data-name="Path 682" d="M535.5,671.1v3.242l.785.785h.372v-4.812h-.372Z" transform="translate(-527.143 -641.826)" fill="#006292"/>
          <path id="Path_683" data-name="Path 683" d="M535.5,537.009v3.242l.785.785h.372v-4.812h-.372Z" transform="translate(-527.143 -532.975)" fill="#006292"/>
          <path id="Path_684" data-name="Path 684" d="M562.291,537.009v3.242l.785.785h.372v-4.812h-.372Z" transform="translate(-548.894 -532.975)" fill="#006292"/>
          <path id="Path_685" data-name="Path 685" d="M562.291,510.19v3.242l.785.785h.372V509.4h-.372Z" transform="translate(-548.894 -511.204)" fill="#006292"/>
          <path id="Path_686" data-name="Path 686" d="M562.291,590.646v3.242l.785.785h.372v-4.812h-.372Z" transform="translate(-548.894 -576.515)" fill="#006292"/>
          <path id="Path_687" data-name="Path 687" d="M562.291,617.465v3.242l.785.785h.372V616.68h-.372Z" transform="translate(-548.894 -598.286)" fill="#006292"/>
          <rect id="Rectangle_134" data-name="Rectangle 134" width="2.231" height="4.813" transform="translate(14.702 23.443)" fill="#006292"/>
          <rect id="Rectangle_135" data-name="Rectangle 135" width="2.231" height="4.813" transform="translate(14.702 28.491)" fill="#006292"/>
          <rect id="Rectangle_136" data-name="Rectangle 136" width="2.231" height="4.813" transform="translate(14.702 18.394)" fill="#006292"/>
          <path id="Path_688" data-name="Path 688" d="M562.291,644.284v3.242l.785.785h.372V643.5h-.372Z" transform="translate(-548.894 -620.056)" fill="#006292"/>
          <path id="Path_689" data-name="Path 689" d="M555.07,509.4v4.812h.343l.785-.785v-3.242l-.785-.785Z" transform="translate(-543.032 -511.204)" fill="#006292"/>
          <path id="Path_690" data-name="Path 690" d="M555.07,616.68v4.813h.343l.785-.785v-3.242l-.785-.785Z" transform="translate(-543.032 -598.285)" fill="#006292"/>
          <path id="Path_691" data-name="Path 691" d="M555.07,643.5v4.813h.343l.785-.785v-3.242l-.785-.785Z" transform="translate(-543.032 -620.056)" fill="#006292"/>
          <path id="Path_692" data-name="Path 692" d="M555.07,670.318v4.813h.343l.785-.785V671.1l-.785-.785Z" transform="translate(-543.032 -641.826)" fill="#006292"/>
          <path id="Path_693" data-name="Path 693" d="M555.07,589.861v4.813h.343l.785-.785v-3.242l-.785-.785Z" transform="translate(-543.032 -576.515)" fill="#006292"/>
          <path id="Path_694" data-name="Path 694" d="M562.291,671.1v3.242l.785.785h.372v-4.812h-.372Z" transform="translate(-548.894 -641.826)" fill="#006292"/>
          <path id="Path_695" data-name="Path 695" d="M555.07,563.042v4.812h.343l.785-.785v-3.242l-.785-.785Z" transform="translate(-543.032 -554.745)" fill="#006292"/>
          <rect id="Rectangle_137" data-name="Rectangle 137" width="2.231" height="4.813" transform="translate(9.658 -1.8)" fill="#006292"/>
          <path id="Path_696" data-name="Path 696" d="M555.07,536.223v4.812h.343l.785-.785v-3.242l-.785-.785Z" transform="translate(-543.032 -532.974)" fill="#006292"/>
          <rect id="Rectangle_138" data-name="Rectangle 138" width="2.231" height="4.813" transform="translate(14.702 13.346)" fill="#006292"/>
          <rect id="Rectangle_139" data-name="Rectangle 139" width="2.231" height="4.812" transform="translate(-0.43 8.297)" fill="#006292"/>
          <rect id="Rectangle_140" data-name="Rectangle 140" width="2.231" height="4.813" transform="translate(-0.43 13.346)" fill="#006292"/>
          <path id="Path_697" data-name="Path 697" d="M528.274,670.318v4.813h.343l.785-.785V671.1l-.785-.785Z" transform="translate(-521.281 -641.826)" fill="#006292"/>
          <rect id="Rectangle_141" data-name="Rectangle 141" width="2.231" height="4.813" transform="translate(-0.43 18.394)" fill="#006292"/>
          <rect id="Rectangle_142" data-name="Rectangle 142" width="2.231" height="4.813" transform="translate(-0.43 -1.8)" fill="#006292"/>
          <path id="Path_698" data-name="Path 698" d="M501.482,643.5v4.813h.342l.785-.785v-3.242l-.785-.785Z" transform="translate(-499.533 -620.056)" fill="#006292"/>
          <path id="Path_699" data-name="Path 699" d="M501.482,616.68v4.813h.342l.785-.785v-3.242l-.785-.785Z" transform="translate(-499.533 -598.285)" fill="#006292"/>
          <path id="Path_700" data-name="Path 700" d="M501.482,670.318v4.813h.342l.785-.785V671.1l-.785-.785Z" transform="translate(-499.533 -641.826)" fill="#006292"/>
          <rect id="Rectangle_143" data-name="Rectangle 143" width="2.231" height="4.813" transform="translate(-0.43 23.443)" fill="#006292"/>
          <rect id="Rectangle_144" data-name="Rectangle 144" width="2.231" height="4.813" transform="translate(-0.43 28.491)" fill="#006292"/>
          <path id="Path_701" data-name="Path 701" d="M501.482,589.861v4.813h.342l.785-.785v-3.242l-.785-.785Z" transform="translate(-499.533 -576.515)" fill="#006292"/>
          <rect id="Rectangle_145" data-name="Rectangle 145" width="2.231" height="4.813" transform="translate(-0.43 3.249)" fill="#006292"/>
          <rect id="Rectangle_146" data-name="Rectangle 146" width="2.231" height="4.813" transform="translate(4.614 13.346)" fill="#006292"/>
          <rect id="Rectangle_147" data-name="Rectangle 147" width="2.231" height="4.813" transform="translate(4.614 18.394)" fill="#006292"/>
          <rect id="Rectangle_148" data-name="Rectangle 148" width="2.231" height="4.813" transform="translate(4.614 23.443)" fill="#006292"/>
          <rect id="Rectangle_149" data-name="Rectangle 149" width="2.231" height="4.813" transform="translate(4.614 28.491)" fill="#006292"/>
          <rect id="Rectangle_150" data-name="Rectangle 150" width="2.231" height="4.813" transform="translate(4.614 -1.8)" fill="#006292"/>
          <path id="Path_702" data-name="Path 702" d="M508.7,510.19v3.242l.785.785h.372V509.4h-.372Z" transform="translate(-505.391 -511.204)" fill="#006292"/>
          <path id="Path_703" data-name="Path 703" d="M501.482,563.042v4.812h.342l.785-.785v-3.242l-.785-.785Z" transform="translate(-499.533 -554.745)" fill="#006292"/>
          <rect id="Rectangle_151" data-name="Rectangle 151" width="2.231" height="4.812" transform="translate(4.614 8.297)" fill="#006292"/>
          <rect id="Rectangle_152" data-name="Rectangle 152" width="2.231" height="4.813" transform="translate(4.614 3.249)" fill="#006292"/>
          <path id="Path_704" data-name="Path 704" d="M501.482,509.4v4.812h.342l.785-.785v-3.242l-.785-.785Z" transform="translate(-499.533 -511.204)" fill="#006292"/>
          <path id="Path_705" data-name="Path 705" d="M508.7,644.284v3.242l.785.785h.372V643.5h-.372Z" transform="translate(-505.391 -620.056)" fill="#006292"/>
          <path id="Path_706" data-name="Path 706" d="M508.7,671.1v3.242l.785.785h.372v-4.812h-.372Z" transform="translate(-505.391 -641.826)" fill="#006292"/>
          <path id="Path_707" data-name="Path 707" d="M508.7,537.009v3.242l.785.785h.372v-4.812h-.372Z" transform="translate(-505.391 -532.975)" fill="#006292"/>
          <path id="Path_708" data-name="Path 708" d="M501.482,536.223v4.812h.342l.785-.785v-3.242l-.785-.785Z" transform="translate(-499.533 -532.974)" fill="#006292"/>
          <path id="Path_709" data-name="Path 709" d="M508.7,563.828v3.242l.785.785h.372v-4.812h-.372Z" transform="translate(-505.391 -554.745)" fill="#006292"/>
          <path id="Path_710" data-name="Path 710" d="M508.7,617.465v3.242l.785.785h.372V616.68h-.372Z" transform="translate(-505.391 -598.286)" fill="#006292"/>
          <path id="Path_711" data-name="Path 711" d="M508.7,590.646v3.242l.785.785h.372v-4.812h-.372Z" transform="translate(-505.391 -576.515)" fill="#006292"/>
          <path id="Path_712" data-name="Path 712" d="M562.291,563.828v3.242l.785.785h.372v-4.812h-.372Z" transform="translate(-548.894 -554.745)" fill="#006292"/>
          <path id="Path_713" data-name="Path 713" d="M635.456,589.861v4.813h.342l.785-.785v-3.242l-.785-.785Z" transform="translate(-608.286 -576.515)" fill="#006292"/>
          <path id="Path_714" data-name="Path 714" d="M635.456,563.042v4.812h.342l.785-.785v-3.242l-.785-.785Z" transform="translate(-608.286 -554.745)" fill="#006292"/>
          <path id="Path_715" data-name="Path 715" d="M635.456,643.5v4.813h.342l.785-.785v-3.242l-.785-.785Z" transform="translate(-608.286 -620.056)" fill="#006292"/>
          <path id="Path_716" data-name="Path 716" d="M635.456,536.223v4.812h.342l.785-.785v-3.242l-.785-.785Z" transform="translate(-608.286 -532.974)" fill="#006292"/>
          <path id="Path_717" data-name="Path 717" d="M642.678,590.646v3.242l.785.785h.372v-4.812h-.372Z" transform="translate(-614.149 -576.515)" fill="#006292"/>
          <path id="Path_718" data-name="Path 718" d="M642.678,617.465v3.242l.785.785h.372V616.68h-.372Z" transform="translate(-614.149 -598.286)" fill="#006292"/>
          <path id="Path_719" data-name="Path 719" d="M635.456,509.4v4.812h.342l.785-.785v-3.242l-.785-.785Z" transform="translate(-608.286 -511.204)" fill="#006292"/>
          <path id="Path_720" data-name="Path 720" d="M642.678,644.284v3.242l.785.785h.372V643.5h-.372Z" transform="translate(-614.149 -620.056)" fill="#006292"/>
          <path id="Path_721" data-name="Path 721" d="M642.678,671.1v3.242l.785.785h.372v-4.812h-.372Z" transform="translate(-614.149 -641.826)" fill="#006292"/>
          <path id="Path_722" data-name="Path 722" d="M635.456,616.68v4.813h.342l.785-.785v-3.242l-.785-.785Z" transform="translate(-608.286 -598.285)" fill="#006292"/>
          <rect id="Rectangle_153" data-name="Rectangle 153" width="2.231" height="4.813" transform="translate(24.791 13.346)" fill="#006292"/>
          <path id="Path_723" data-name="Path 723" d="M635.456,670.318v4.813h.342l.785-.785V671.1l-.785-.785Z" transform="translate(-608.286 -641.826)" fill="#006292"/>
          <rect id="Rectangle_154" data-name="Rectangle 154" width="2.231" height="4.813" transform="translate(24.791 23.443)" fill="#006292"/>
          <rect id="Rectangle_155" data-name="Rectangle 155" width="2.231" height="4.813" transform="translate(24.791 28.491)" fill="#006292"/>
          <rect id="Rectangle_156" data-name="Rectangle 156" width="2.231" height="4.813" transform="translate(24.791 18.394)" fill="#006292"/>
          <rect id="Rectangle_157" data-name="Rectangle 157" width="2.231" height="4.812" transform="translate(24.791 8.297)" fill="#006292"/>
          <path id="Path_724" data-name="Path 724" d="M615.883,510.19v3.242l.785.785h.372V509.4h-.372Z" transform="translate(-592.397 -511.204)" fill="#006292"/>
          <rect id="Rectangle_158" data-name="Rectangle 158" width="2.231" height="4.813" transform="translate(24.791 3.249)" fill="#006292"/>
          <rect id="Rectangle_159" data-name="Rectangle 159" width="2.231" height="4.813" transform="translate(24.791 -1.8)" fill="#006292"/>
          <path id="Path_725" data-name="Path 725" d="M662.252,616.68v4.813h.342l.785-.785v-3.242l-.785-.785Z" transform="translate(-630.038 -598.285)" fill="#006292"/>
          <path id="Path_726" data-name="Path 726" d="M662.252,643.5v4.813h.342l.785-.785v-3.242l-.785-.785Z" transform="translate(-630.038 -620.056)" fill="#006292"/>
          <path id="Path_727" data-name="Path 727" d="M662.252,589.861v4.813h.342l.785-.785v-3.242l-.785-.785Z" transform="translate(-630.038 -576.515)" fill="#006292"/>
          <rect id="Rectangle_160" data-name="Rectangle 160" width="2.231" height="4.813" transform="translate(29.835 -1.8)" fill="#006292"/>
          <path id="Path_728" data-name="Path 728" d="M662.252,670.318v4.813h.342l.785-.785V671.1l-.785-.785Z" transform="translate(-630.038 -641.826)" fill="#006292"/>
          <path id="Path_729" data-name="Path 729" d="M662.594,509.4h-.343v4.812h.343l.785-.785v-3.242Z" transform="translate(-630.037 -511.204)" fill="#006292"/>
          <path id="Path_730" data-name="Path 730" d="M662.252,563.042v4.812h.342l.785-.785v-3.242l-.785-.785Z" transform="translate(-630.038 -554.745)" fill="#006292"/>
          <path id="Path_731" data-name="Path 731" d="M662.252,536.223v4.812h.342l.785-.785v-3.242l-.785-.785Z" transform="translate(-630.038 -532.974)" fill="#006292"/>
          <rect id="Rectangle_161" data-name="Rectangle 161" width="2.231" height="4.813" transform="translate(29.835 23.443)" fill="#006292"/>
          <path id="Path_732" data-name="Path 732" d="M642.678,563.828v3.242l.785.785h.372v-4.812h-.372Z" transform="translate(-614.149 -554.745)" fill="#006292"/>
          <rect id="Rectangle_162" data-name="Rectangle 162" width="2.231" height="4.813" transform="translate(29.835 3.249)" fill="#006292"/>
          <path id="Path_733" data-name="Path 733" d="M642.678,510.19v3.242l.785.785h.372V509.4h-.372Z" transform="translate(-614.149 -511.204)" fill="#006292"/>
          <path id="Path_734" data-name="Path 734" d="M642.678,537.009v3.242l.785.785h.372v-4.812h-.372Z" transform="translate(-614.149 -532.975)" fill="#006292"/>
          <rect id="Rectangle_163" data-name="Rectangle 163" width="2.231" height="4.813" transform="translate(29.835 28.491)" fill="#006292"/>
          <rect id="Rectangle_164" data-name="Rectangle 164" width="2.231" height="4.813" transform="translate(29.835 18.394)" fill="#006292"/>
          <rect id="Rectangle_165" data-name="Rectangle 165" width="2.231" height="4.812" transform="translate(29.835 8.297)" fill="#006292"/>
          <rect id="Rectangle_166" data-name="Rectangle 166" width="2.231" height="4.813" transform="translate(29.835 13.346)" fill="#006292"/>
          <path id="Path_735" data-name="Path 735" d="M615.883,644.284v3.242l.785.785h.372V643.5h-.372Z" transform="translate(-592.397 -620.056)" fill="#006292"/>
          <path id="Path_736" data-name="Path 736" d="M589.087,644.284v3.242l.785.785h.372V643.5h-.372Z" transform="translate(-570.646 -620.056)" fill="#006292"/>
          <path id="Path_737" data-name="Path 737" d="M589.087,590.646v3.242l.785.785h.372v-4.812h-.372Z" transform="translate(-570.646 -576.515)" fill="#006292"/>
          <rect id="Rectangle_167" data-name="Rectangle 167" width="2.231" height="4.813" transform="translate(19.746 23.443)" fill="#006292"/>
          <path id="Path_738" data-name="Path 738" d="M589.087,671.1v3.242l.785.785h.372v-4.812h-.372Z" transform="translate(-570.646 -641.826)" fill="#006292"/>
          <path id="Path_739" data-name="Path 739" d="M589.087,537.009v3.242l.785.785h.372v-4.812h-.372Z" transform="translate(-570.646 -532.975)" fill="#006292"/>
          <path id="Path_740" data-name="Path 740" d="M589.087,510.19v3.242l.785.785h.372V509.4h-.372Z" transform="translate(-570.646 -511.204)" fill="#006292"/>
          <rect id="Rectangle_168" data-name="Rectangle 168" width="2.231" height="4.813" transform="translate(19.746 28.491)" fill="#006292"/>
          <path id="Path_741" data-name="Path 741" d="M589.087,563.828v3.242l.785.785h.372v-4.812h-.372Z" transform="translate(-570.646 -554.745)" fill="#006292"/>
          <path id="Path_742" data-name="Path 742" d="M581.866,509.4v4.812h.342l.785-.785v-3.242l-.785-.785Z" transform="translate(-564.784 -511.204)" fill="#006292"/>
          <path id="Path_743" data-name="Path 743" d="M589.087,617.465v3.242l.785.785h.372V616.68h-.372Z" transform="translate(-570.646 -598.286)" fill="#006292"/>
          <path id="Path_744" data-name="Path 744" d="M581.866,670.318v4.813h.342l.785-.785V671.1l-.785-.785Z" transform="translate(-564.784 -641.826)" fill="#006292"/>
          <rect id="Rectangle_169" data-name="Rectangle 169" width="2.231" height="4.813" transform="translate(14.702 -1.8)" fill="#006292"/>
          <path id="Path_745" data-name="Path 745" d="M581.866,536.223v4.812h.342l.785-.785v-3.242l-.785-.785Z" transform="translate(-564.784 -532.974)" fill="#006292"/>
          <path id="Path_746" data-name="Path 746" d="M581.866,643.5v4.813h.342l.785-.785v-3.242l-.785-.785Z" transform="translate(-564.784 -620.056)" fill="#006292"/>
          <rect id="Rectangle_170" data-name="Rectangle 170" width="2.231" height="4.813" transform="translate(14.702 3.249)" fill="#006292"/>
          <path id="Path_747" data-name="Path 747" d="M581.866,563.042v4.812h.342l.785-.785v-3.242l-.785-.785Z" transform="translate(-564.784 -554.745)" fill="#006292"/>
          <path id="Path_748" data-name="Path 748" d="M581.866,616.68v4.813h.342l.785-.785v-3.242l-.785-.785Z" transform="translate(-564.784 -598.285)" fill="#006292"/>
          <path id="Path_749" data-name="Path 749" d="M581.866,589.861v4.813h.342l.785-.785v-3.242l-.785-.785Z" transform="translate(-564.784 -576.515)" fill="#006292"/>
          <rect id="Rectangle_171" data-name="Rectangle 171" width="2.231" height="4.812" transform="translate(19.746 8.297)" fill="#006292"/>
          <path id="Path_750" data-name="Path 750" d="M615.883,671.1v3.242l.785.785h.372v-4.812h-.372Z" transform="translate(-592.397 -641.826)" fill="#006292"/>
          <rect id="Rectangle_172" data-name="Rectangle 172" width="2.231" height="4.813" transform="translate(19.746 18.394)" fill="#006292"/>
          <path id="Path_751" data-name="Path 751" d="M608.661,536.223v4.812H609l.785-.785v-3.242l-.785-.785Z" transform="translate(-586.535 -532.974)" fill="#006292"/>
          <rect id="Rectangle_173" data-name="Rectangle 173" width="2.231" height="4.812" transform="translate(14.702 8.297)" fill="#006292"/>
          <path id="Path_752" data-name="Path 752" d="M615.883,590.646v3.242l.785.785h.372v-4.812h-.372Z" transform="translate(-592.397 -576.515)" fill="#006292"/>
          <path id="Path_753" data-name="Path 753" d="M615.883,563.828v3.242l.785.785h.372v-4.812h-.372Z" transform="translate(-592.397 -554.745)" fill="#006292"/>
          <path id="Path_754" data-name="Path 754" d="M608.661,563.042v4.812H609l.785-.785v-3.242l-.785-.785Z" transform="translate(-586.535 -554.745)" fill="#006292"/>
          <path id="Path_755" data-name="Path 755" d="M615.883,617.465v3.242l.785.785h.372V616.68h-.372Z" transform="translate(-592.397 -598.286)" fill="#006292"/>
          <path id="Path_756" data-name="Path 756" d="M608.661,509.4v4.812H609l.785-.785v-3.242L609,509.4Z" transform="translate(-586.535 -511.204)" fill="#006292"/>
          <path id="Path_757" data-name="Path 757" d="M615.883,537.009v3.242l.785.785h.372v-4.812h-.372Z" transform="translate(-592.397 -532.975)" fill="#006292"/>
          <rect id="Rectangle_174" data-name="Rectangle 174" width="2.231" height="4.813" transform="translate(19.746 3.249)" fill="#006292"/>
          <rect id="Rectangle_175" data-name="Rectangle 175" width="2.231" height="4.813" transform="translate(19.746 -1.8)" fill="#006292"/>
          <rect id="Rectangle_176" data-name="Rectangle 176" width="2.231" height="4.813" transform="translate(19.746 13.346)" fill="#006292"/>
          <path id="Path_758" data-name="Path 758" d="M608.661,589.861v4.813H609l.785-.785v-3.242l-.785-.785Z" transform="translate(-586.535 -576.515)" fill="#006292"/>
          <path id="Path_759" data-name="Path 759" d="M608.661,616.68v4.813H609l.785-.785v-3.242L609,616.68Z" transform="translate(-586.535 -598.285)" fill="#006292"/>
          <path id="Path_760" data-name="Path 760" d="M608.661,670.318v4.813H609l.785-.785V671.1l-.785-.785Z" transform="translate(-586.535 -641.826)" fill="#006292"/>
          <path id="Path_761" data-name="Path 761" d="M608.661,643.5v4.813H609l.785-.785v-3.242L609,643.5Z" transform="translate(-586.535 -620.056)" fill="#006292"/>
        </g>
      </g>
      <g id="Group_26358" data-name="Group 26358" transform="translate(486.841 341.218)">
        <g id="Group_26357" data-name="Group 26357" transform="translate(0 0)" clip-path="url(#clip-path)">
          <path id="Path_763" data-name="Path 763" d="M620.5,545.637c-.016.069-.033.139-.047.2l-.01,0c-.841,3.107-.7,6.91-2.939,7.232,1.446,0,5.081-.006,8.306.047,3.162.051,6.247.333,7.145-.319,2.765-2.009,2.713-7.868,6-10.254,3.112-2.261,10.218.79,11.423-1.824,1.244-2.7-2.977-3.757-5.914-5.727a34.922,34.922,0,0,1-8.653-7.914,22.583,22.583,0,0,0-6.007,3.2,19.7,19.7,0,0,0-4.475,4.748,34.881,34.881,0,0,0-4.825,10.6" transform="translate(-594.198 -493.934)" fill="#fdead2"/>
        </g>
      </g>
      <g id="Group_26360" data-name="Group 26360" transform="translate(508.045 373.459)">
        <g id="Group_26359" data-name="Group 26359" transform="translate(0 0)" clip-path="url(#clip-path-4)">
          <path id="Path_764" data-name="Path 764" d="M671.319,618.655c.109-.511,1.069-5,1.062-5.619a4.588,4.588,0,0,0-1.044-2.065.221.221,0,0,0-.315.016.228.228,0,0,0,.015.319,4.428,4.428,0,0,1,.9,1.716c0,.007,0,.014,0,.02.005.425-.624,3.524-1.049,5.508a29.816,29.816,0,0,0-.929,4.264h.451a30.889,30.889,0,0,1,.908-4.142Z" transform="translate(-660.082 -595.132)" fill="#3d7caa"/>
          <path id="Path_765" data-name="Path 765" d="M641.37,615.028a22.733,22.733,0,0,0,.747-4.309c-.068-1.072-.2-2.249-.939-2.638a6.525,6.525,0,0,0-2.586-.26l-.2.006a7.309,7.309,0,0,0-2.974,1.286c-.106.1-.248.218-.413.359a10.023,10.023,0,0,0-2.434,2.632,5.893,5.893,0,0,1-.75,1.175c-.06.3-.115.587-.168.873a7.155,7.155,0,0,0,1.321-1.854,9.954,9.954,0,0,1,2.319-2.481c.167-.143.312-.267.423-.367a7.12,7.12,0,0,1,2.684-1.171l.207-.006a6.62,6.62,0,0,1,2.366.209c.575.3.659,1.629.7,2.266,0,.007,0,.015,0,.022a24.076,24.076,0,0,1-.737,4.154c-.086.376-.161.7-.215.953-.192.905-.452,2.9-.6,4.417h.449c.15-1.5.4-3.437.591-4.323.053-.248.127-.571.213-.945" transform="translate(-628.989 -592.612)" fill="#0f062f"/>
          <path id="Path_766" data-name="Path 766" d="M635.994,608.572c1.262-.766,2.738-1.717,2.753-1.727a.228.228,0,0,0,.068-.313.221.221,0,0,0-.308-.069c-.015.009-1.486.957-2.743,1.72a5.935,5.935,0,0,0-1.443,1.481c-.115.419-.218.831-.313,1.236a8.378,8.378,0,0,1,1.985-2.329" transform="translate(-630.902 -591.492)" fill="#e08700"/>
          <path id="Path_767" data-name="Path 767" d="M641.678,602.917a29.1,29.1,0,0,1,3.367-.242c.015,0,1.956.029,2.211,1.1a14.853,14.853,0,0,1,.356,4.2c-.154.732-1.251,4.557-1.262,4.6a.227.227,0,0,0,.152.281.223.223,0,0,0,.277-.154c.045-.158,1.113-3.879,1.27-4.627a15.209,15.209,0,0,0-.359-4.4c-.336-1.41-2.552-1.441-2.646-1.442a28.852,28.852,0,0,0-3.439.249,12.277,12.277,0,0,0-3.32,1.569c-.088.245-.174.489-.254.731l.075-.082a14.237,14.237,0,0,1,3.574-1.771" transform="translate(-634.165 -588.078)" fill="#006292"/>
          <path id="Path_768" data-name="Path 768" d="M650.993,602.967c-.006-.218-.01-.454-.014-.7-.026-1.6-.059-3.6-.809-4.382a4.3,4.3,0,0,0-3.494-1.2,25.863,25.863,0,0,0-4.019.732,13.3,13.3,0,0,0-1.75.833q-.14.331-.269.661a16.644,16.644,0,0,1,2.141-1.058,25.24,25.24,0,0,1,3.928-.716,3.819,3.819,0,0,1,3.143,1.063c.627.656.659,2.632.683,4.075,0,.25.008.489.014.708a16.556,16.556,0,0,1-1.493,5.658,13.654,13.654,0,0,0-.751,2.617h.455a13.219,13.219,0,0,1,.71-2.448,16.921,16.921,0,0,0,1.526-5.84" transform="translate(-636.282 -583.571)" fill="#4e8ecb"/>
          <path id="Path_769" data-name="Path 769" d="M653.567,603.473a23.182,23.182,0,0,1,.519-2.755c.423-1.375-.088-4.56-.255-5.5a2.977,2.977,0,0,0-2.141-2.34,15.2,15.2,0,0,0-4.212.076,25.934,25.934,0,0,0-3.782.956c-.089.187-.176.374-.261.561a29.458,29.458,0,0,1,4.091-1.067,15.222,15.222,0,0,1,4.013-.1,2.531,2.531,0,0,1,1.853,1.994,15.389,15.389,0,0,1,.268,5.289,23.336,23.336,0,0,0-.533,2.821,21.882,21.882,0,0,1-.389,2.156c-.137.482-.4,1.5-.667,2.509h.462c.253-.968.5-1.925.634-2.384a21.948,21.948,0,0,0,.4-2.213" transform="translate(-638.553 -580.383)" fill="#881002"/>
          <path id="Path_770" data-name="Path 770" d="M686.4,656.792a.227.227,0,0,0-.155-.279.222.222,0,0,0-.275.157c0,.006-.164.592-.356,1.083-.1.261-.35,1.255-.539,2.075h.459c.174-.756.392-1.645.5-1.908.2-.514.364-1.1.371-1.128" transform="translate(-672.355 -632.142)" fill="#ca6c00"/>
          <path id="Path_771" data-name="Path 771" d="M659.084,595.878l0-.03a37.073,37.073,0,0,0,.126-5.654c-.246-1.04-.73-3.083-1.565-3.659a10.094,10.094,0,0,0-3.625-1.306,20.738,20.738,0,0,0-2.656.347c-.415.063-.773.117-.891.123-.173.009-.819.083-1.55.173q-.133.244-.262.488c.85-.106,1.654-.2,1.834-.209.14-.007.474-.057.935-.128a21.3,21.3,0,0,1,2.57-.343,9.808,9.808,0,0,1,3.394,1.228c.692.478,1.167,2.479,1.382,3.39a33.8,33.8,0,0,1-.136,5.5c-.054.246-.758,3.493-.9,4.14-.074.338-.292,1.182-.53,2.036h.463c.232-.842.438-1.643.5-1.94.146-.672.9-4.155.9-4.155" transform="translate(-642.8 -574.283)" fill="#016f3d"/>
          <path id="Path_772" data-name="Path 772" d="M648.838,590.017c.5-.115,1.721-.243,2.377-.313l.255-.027a10.466,10.466,0,0,1,1.414.019.226.226,0,0,0,.034-.451,10.642,10.642,0,0,0-1.5-.017l-.253.027c-.666.07-1.905.2-2.43.321-.327.075-1.279.227-2.121.362-.085.166-.168.332-.25.5l.313-.05c.892-.143,1.815-.291,2.157-.369" transform="translate(-640.934 -577.512)" fill="#006292"/>
          <path id="Path_773" data-name="Path 773" d="M658.887,582.444a.224.224,0,0,0,.265-.174.227.227,0,0,0-.172-.269,23.336,23.336,0,0,0-3.376-.364,30.978,30.978,0,0,1-3.344.205c-.091.152-.183.3-.271.457,1.481-.024,3.172-.146,3.674-.214a17.349,17.349,0,0,1,3.224.359" transform="translate(-645.497 -571.36)" fill="#006292"/>
          <path id="Path_774" data-name="Path 774" d="M657.843,578.2a13.474,13.474,0,0,1,3.749.558,6.627,6.627,0,0,1,1.95,2.147,10.775,10.775,0,0,1,1.095,2.937c.043.259.026,2.05,0,3.191a.223.223,0,1,0,.447.009c.005-.295.054-2.891-.011-3.276a11.133,11.133,0,0,0-1.166-3.115,6.749,6.749,0,0,0-2.14-2.307,13.808,13.808,0,0,0-3.937-.6c-.347.007-1,.01-1.688.013l-.909,0q-.145.226-.286.454l1.2-.006c.691,0,1.344-.006,1.695-.013" transform="translate(-647.901 -568.208)" fill="#e20613"/>
          <path id="Path_775" data-name="Path 775" d="M672.553,583.236a39.531,39.531,0,0,0,1.068-6.125,10.144,10.144,0,0,0-2.2-5.709c-1.107-1.339-2.63-3-3.6-3.283a27.276,27.276,0,0,0-5.34-1.007c-.083.11-.167.219-.249.33-.031.042-.06.085-.09.127l.2,0a25.34,25.34,0,0,1,5.358.99c.662.2,1.894,1.34,3.381,3.139a9.789,9.789,0,0,1,2.095,5.409,39.1,39.1,0,0,1-1.055,6.023l-.013.052c-.123.5-.34,1.369-.528,2.34a12,12,0,0,0,.777-1.476c.071-.3.135-.556.184-.753Z" transform="translate(-653.741 -559.578)" fill="#e20613"/>
          <path id="Path_776" data-name="Path 776" d="M677.855,570.331a15.005,15.005,0,0,0-5.047-7.142c-1.141-.8-3.616-1.341-5.253-1.7l-.331-.072c-.051-.011-.1-.02-.152-.029-.111.133-.221.267-.33.4.128.019.257.041.387.07l.332.073c1.505.328,4.024.878,5.093,1.627a16.366,16.366,0,0,1,3.115,3.331,16.084,16.084,0,0,1,1.758,3.568,15.4,15.4,0,0,1,.212,4.475c0,.074-.011.163-.021.262.146-.386.315-.789.512-1.191a12.74,12.74,0,0,0-.275-3.675" transform="translate(-657.473 -554.932)" fill="#0f062f"/>
          <path id="Path_777" data-name="Path 777" d="M687.353,548.873a21.623,21.623,0,0,0-4.106-2.485c-.39-.141-.99-.336-1.608-.529-.131.117-.258.235-.384.353.7.217,1.4.444,1.843.6a21.314,21.314,0,0,1,4,2.429,15.667,15.667,0,0,1,3.484,4.441,23.72,23.72,0,0,1,.928,5.291c-.006.044-.007.1-.009.154a5.742,5.742,0,0,1,.456-.4,24.765,24.765,0,0,0-.964-5.225,16,16,0,0,0-3.638-4.633" transform="translate(-669.253 -542.324)" fill="#d08e00"/>
          <path id="Path_778" data-name="Path 778" d="M691.976,547.274a.221.221,0,0,0,.316,0,.229.229,0,0,0,0-.32,16.521,16.521,0,0,0-2.132-1.827,33.92,33.92,0,0,0-4.657-2.635c-.046.038-.094.074-.139.113-.088.074-.172.15-.258.224a29.8,29.8,0,0,1,4.8,2.671,16.458,16.458,0,0,1,2.066,1.771" transform="translate(-672.383 -539.594)" fill="#e20613"/>
          <path id="Path_779" data-name="Path 779" d="M696.71,543.122a17.25,17.25,0,0,0-4.778-3.914c-.375-.2-.874-.426-1.407-.65-.142.1-.283.207-.423.314.615.254,1.2.511,1.621.736a16.972,16.972,0,0,1,4.625,3.778,30.607,30.607,0,0,1,2.648,6.08c.115.425.4,1.625.627,3,.132-.082.271-.157.413-.228-.228-1.332-.5-2.476-.609-2.891a30.606,30.606,0,0,0-2.716-6.224" transform="translate(-676.436 -536.399)" fill="#2d6e9d"/>
          <path id="Path_780" data-name="Path 780" d="M709.613,548.061c-.292-.654-.569-1.272-.711-1.669l-.061-.171a6.953,6.953,0,0,0-2.291-3.606c-1.323-.874-3.069-2.068-3.087-2.08a.221.221,0,0,0-.31.061.228.228,0,0,0,.06.314c.017.012,1.767,1.209,3.092,2.084a6.593,6.593,0,0,1,2.115,3.38l.061.173c.148.415.428,1.04.724,1.7a24.728,24.728,0,0,1,1.015,2.476c.179.613.484,2.137.7,3.26.137-.06.278-.114.424-.163-.211-1.112-.512-2.608-.693-3.226a24.389,24.389,0,0,0-1.036-2.534" transform="translate(-687 -537.971)" fill="#ca6c00"/>
          <path id="Path_781" data-name="Path 781" d="M703.656,540.945a10.048,10.048,0,0,1-.783-.978,17.117,17.117,0,0,0-1.909-2.26,11.079,11.079,0,0,0-4.514-2.434,6.466,6.466,0,0,1-.871-.256c-.158.1-.315.2-.471.306a8.171,8.171,0,0,0,1.256.394,10.748,10.748,0,0,1,4.3,2.325,16.784,16.784,0,0,1,1.853,2.2,9.9,9.9,0,0,0,.834,1.035,15.82,15.82,0,0,1,2.6,5.4,19.721,19.721,0,0,1,.148,2.414q.218-.018.446-.022a20.231,20.231,0,0,0-.153-2.462,16.194,16.194,0,0,0-2.735-5.664" transform="translate(-680.499 -533.524)" fill="#0f062f"/>
          <path id="Path_782" data-name="Path 782" d="M713.556,535.17c-.1-.189-.2-.368-.3-.536a12.929,12.929,0,0,0-3.367-3.846,13.95,13.95,0,0,0-3.127-2.073q-.28.132-.557.272a11.547,11.547,0,0,1,3.4,2.153,12.521,12.521,0,0,1,3.257,3.712c.092.169.191.349.3.539a23.633,23.633,0,0,1,2.369,5.348,19.723,19.723,0,0,1,.443,3.206c.146,0,.3.007.448.013a20.258,20.258,0,0,0-.458-3.331,24,24,0,0,0-2.413-5.457" transform="translate(-689.51 -528.409)" fill="#d95f06"/>
          <path id="Path_783" data-name="Path 783" d="M703.955,534.547a35.773,35.773,0,0,1,2.573,2.949.222.222,0,0,0,.308.07.229.229,0,0,0,.069-.312,35.538,35.538,0,0,0-2.655-3.046,13.8,13.8,0,0,0-3.59-1.644,4.693,4.693,0,0,1-.629-.217q-.245.137-.487.282a6.426,6.426,0,0,0,1.011.375,13.767,13.767,0,0,1,3.4,1.543" transform="translate(-684.101 -531.356)" fill="#e20613"/>
          <path id="Path_784" data-name="Path 784" d="M717.272,532.146c-.118-.105-.236-.207-.353-.316a34.814,34.814,0,0,1-3.269-3.392,17.768,17.768,0,0,0-2.626-1.516l-.112-.055c-.177.078-.353.158-.526.241.153.08.3.156.448.224A13.708,13.708,0,0,1,716.584,532a18.191,18.191,0,0,1,3.1,7.571,26.792,26.792,0,0,1,.351,2.852l.45.022a27.345,27.345,0,0,0-.362-2.959,19,19,0,0,0-2.848-7.335" transform="translate(-692.903 -526.908)" fill="#0069b3"/>
          <path id="Path_785" data-name="Path 785" d="M716.929,526.165q-.346-.444-.676-.9-.329-.187-.628-.36c-.178.07-.356.139-.531.213.5.291,1.07.617,1.691.969l.144.082" transform="translate(-696.723 -525.313)" fill="#bf0d0d"/>
          <path id="Path_786" data-name="Path 786" d="M751.27,558.389c-.29-.22-.579-.451-.868-.69.043.079.137.315.181.395a23.846,23.846,0,0,1,2.011,5.4c.2.828.528,2.628.787,3.984l.46.028c-.264-1.386-.6-3.26-.814-4.121a27.525,27.525,0,0,0-1.758-5" transform="translate(-725.385 -551.936)" fill="#e20613"/>
          <path id="Path_787" data-name="Path 787" d="M760.442,565.253q-.318-.212-.639-.437a13.773,13.773,0,0,1,.716,2.584c.339,1.951.758,4.306,1.094,5.893l.463.028c-.341-1.589-.77-4-1.117-6a13.57,13.57,0,0,0-.517-2.069" transform="translate(-733.016 -557.714)" fill="#f29100"/>
          <path id="Path_788" data-name="Path 788" d="M766.266,569.239q-.275-.169-.553-.347c.354,1.169,1.053,5.271,1.294,6.88.029.192.084.617.123.864l.456.024c-.043-.269-.1-.723-.138-.955-.189-1.262-.788-4.838-1.183-6.466" transform="translate(-737.813 -561.022)" fill="#312782"/>
          <path id="Path_789" data-name="Path 789" d="M778.323,578.186c-.015-.2-.079-.735-.156-1.323q-.24-.13-.486-.267c.092.663.176,1.332.2,1.623s.221,1.711.451,3.35c.055.389.15,1.086.206,1.482q.228,0,.451,0c-.058-.416-.157-1.134-.215-1.544-.22-1.563-.428-3.039-.448-3.319" transform="translate(-747.528 -567.276)" fill="#d88b00"/>
          <path id="Path_790" data-name="Path 790" d="M784.428,583.238a11.546,11.546,0,0,0-.109-3.04l-.5-.266a11.306,11.306,0,0,1,.168,3.252,13.96,13.96,0,0,0,.069,2.542c.152,0,.3-.01.448-.018a13.646,13.646,0,0,1-.074-2.469" transform="translate(-752.51 -569.983)" fill="#18174b"/>
          <path id="Path_791" data-name="Path 791" d="M789.755,583.38l-.436-.235c0,.051,0,.1-.005.153a47.852,47.852,0,0,0-.089,5c.151-.013.3-.029.444-.049a44.95,44.95,0,0,1,.087-4.872" transform="translate(-756.873 -572.592)" fill="#387b23"/>
          <path id="Path_792" data-name="Path 792" d="M796.6,586.912l-.03-.021c-.071-.049-.146-.1-.225-.146-.057-.035-.122-.071-.182-.107.173,1.093.3,2.666.365,4.061a2.564,2.564,0,0,0,.436-.232c-.06-1.176-.167-2.531-.3-3.511l-.062-.045" transform="translate(-762.529 -575.429)" fill="#d6490c"/>
          <path id="Path_793" data-name="Path 793" d="M800.875,591.21c-.032-.4-.064-.8-.1-1.192a2.127,2.127,0,0,0-.321-.406h0q-.076-.073-.162-.146h0l-.025-.02c.068.572.118,1.191.167,1.8.029.367.059.742.093,1.1a1.642,1.642,0,0,0,.4-.574c-.016-.189-.031-.379-.046-.567" transform="translate(-765.859 -577.705)" fill="#0f062f"/>
          <path id="Path_794" data-name="Path 794" d="M637.766,618.251c-.584-.67-1.132-.375-1.615-.116l-.116.062a26.337,26.337,0,0,0-3.1,2.939l-.174.179a4.481,4.481,0,0,0-1.094,2.144c-.076.367-.269.963-.439,1.49a9.338,9.338,0,0,0-.306,1.039,15.76,15.76,0,0,1-1.082,2.439h.512a14.8,14.8,0,0,0,1.012-2.375c.019-.134.156-.555.288-.963.174-.538.371-1.147.452-1.539a4.066,4.066,0,0,1,.975-1.918l.174-.18a32.1,32.1,0,0,1,2.988-2.855l.119-.063c.512-.275.733-.372,1.071.015.307.353-.006,1.485-.428,2.387a14.642,14.642,0,0,1-1.561,2.511,13.033,13.033,0,0,0-1.78,3.178,3.864,3.864,0,0,0-.013,1.806h.454a3.607,3.607,0,0,1-.02-1.659,12.708,12.708,0,0,1,1.7-3.04,14.922,14.922,0,0,0,1.618-2.6c.3-.644.939-2.215.359-2.881" transform="translate(-627.518 -600.757)" fill="#e20613"/>
          <path id="Path_795" data-name="Path 795" d="M634.088,613.566a1.951,1.951,0,0,0-.542-1.48,1.277,1.277,0,0,0-1.734-.253c-.38.231-1.158.852-1.911,1.454-.547.437-1.064.85-1.3,1.008-.093.062-2.271,1.527-2.533,2.724-.2.927-.585,2.764-.6,2.923a10.507,10.507,0,0,1-1.6,3.413h.569a10.363,10.363,0,0,0,1.47-3.341l0-.016c0-.019.393-1.958.595-2.881.165-.752,1.524-1.9,2.342-2.444.253-.169.753-.568,1.332-1.03.707-.565,1.508-1.2,1.864-1.421.5-.305.769-.19,1.209.2a1.5,1.5,0,0,1,.391,1.163c.02.411-.254,2.351-.364,3.085-.08.273-1.219,4.144-1.728,5.7a5.572,5.572,0,0,0-.217.992h.452a5.018,5.018,0,0,1,.189-.85c.527-1.613,1.724-5.688,1.736-5.729l.007-.03c.016-.108.4-2.648.371-3.192" transform="translate(-622.669 -595.687)" fill="#f6a500"/>
          <path id="Path_796" data-name="Path 796" d="M644.97,632.591c.034-.138.067-.294.1-.46a6.985,6.985,0,0,1,.524-1.716,12.146,12.146,0,0,1,1.36-2.232c.122-.156.272-.346.482-.631l.124-.167a8.632,8.632,0,0,0,1.053-1.793c.2-.421.371-.881.1-1.1-.082-.067-.333-.275-1.153.369a17.365,17.365,0,0,0-1.427,1.429,4.362,4.362,0,0,0-.8,1.367l-.126.265a.231.231,0,0,0,.1.306.225.225,0,0,0,.3-.107l.126-.265a3.955,3.955,0,0,1,.738-1.264,17.113,17.113,0,0,1,1.365-1.369,2.071,2.071,0,0,1,.558-.341,2.046,2.046,0,0,1-.189.513,8.187,8.187,0,0,1-1.006,1.716l-.127.17c-.207.28-.353.468-.474.621a12.6,12.6,0,0,0-1.4,2.3,7.314,7.314,0,0,0-.569,1.839c-.035.162-.067.314-.1.449a5.373,5.373,0,0,0-.1,1.276h.453a5,5,0,0,1,.086-1.167" transform="translate(-639.36 -606.083)" fill="#9b1006"/>
          <path id="Path_797" data-name="Path 797" d="M638.2,652.393l.07-.183a10.444,10.444,0,0,0,.637-2.074l.039-.279c.08-.573.15-1.068.222-1.733a.226.226,0,1,0-.449-.05c-.072.657-.141,1.148-.221,1.718l-.039.279a10.09,10.09,0,0,1-.611,1.973l-.07.184c-.073.191-.139.39-.2.577h.475c.044-.137.093-.278.144-.412" transform="translate(-633.799 -625.133)" fill="#291f6c"/>
          <path id="Path_798" data-name="Path 798" d="M669.143,580.082a3.193,3.193,0,0,1-.084-.4,5.209,5.209,0,0,0-.626-1.727,13.235,13.235,0,0,0-1.6-1.709.188.188,0,0,0-.017-.01,11.609,11.609,0,0,0-.823-1.246,4.658,4.658,0,0,0-3.057-1.588c-.234-.006-1.083-.076-1.98-.151-.915-.076-1.914-.158-2.567-.2-.1.145-.2.291-.292.436.612.032,1.816.131,2.823.214.943.078,1.758.145,2,.152a4.205,4.205,0,0,1,2.721,1.418,15.2,15.2,0,0,1,2,3.726l.017.144a17.642,17.642,0,0,1,.261,4.123c-.076.275-.369,1.515-.709,2.951-.441,1.866-.99,4.188-1.115,4.6-.055.183-.16.656-.284,1.274h.16a1.714,1.714,0,0,0,.3-.03c.109-.544.2-.954.247-1.112.128-.424.656-2.656,1.122-4.626.324-1.372.631-2.668.7-2.935a18.89,18.89,0,0,0-.247-4.3l-.017-.142a6.033,6.033,0,0,0-.545-1.361,4.206,4.206,0,0,1,.5.6,4.738,4.738,0,0,1,.568,1.554,3.6,3.6,0,0,0,.094.456,4.762,4.762,0,0,1,.154,1.372,15.058,15.058,0,0,1-.585,4.2c-.461,1.588-.553,1.955-.557,1.97a.229.229,0,0,0,.164.278.22.22,0,0,0,.055.007.227.227,0,0,0,.219-.173s.1-.38.552-1.952a15.506,15.506,0,0,0,.6-4.333,5.152,5.152,0,0,0-.168-1.487" transform="translate(-650.452 -564.397)" fill="#0f062f"/>
          <path id="Path_799" data-name="Path 799" d="M706.972,658.864c.054-1.093.208-2.139.21-2.155a.228.228,0,0,0-.19-.261.224.224,0,0,0-.257.192,23.46,23.46,0,0,0-.231,2.669,3.707,3.707,0,0,0,.468-.446" transform="translate(-689.75 -632.094)" fill="#881002"/>
          <path id="Path_800" data-name="Path 800" d="M683.067,565.238a20.817,20.817,0,0,0-2.511-3.9l-.1-.093a11.106,11.106,0,0,0-3.314-2.337,19.673,19.673,0,0,0-4.014-1.048.225.225,0,0,0-.256.194.229.229,0,0,0,.191.26,19.59,19.59,0,0,1,3.906,1.018,10.7,10.7,0,0,1,3.175,2.245l.1.1a21.105,21.105,0,0,1,2.41,3.756,24.562,24.562,0,0,1,.862,4.671l.029.235q.179-.295.385-.577a22.186,22.186,0,0,0-.864-4.517" transform="translate(-662.449 -552.063)" fill="#006292"/>
          <path id="Path_801" data-name="Path 801" d="M738.028,577.265a16.775,16.775,0,0,0-.611-4.073,14.92,14.92,0,0,0-1.4-2.458,10.557,10.557,0,0,1-.607-1,.225.225,0,0,0-.3-.124.23.23,0,0,0-.122.3,9.643,9.643,0,0,0,.647,1.073,15.021,15.021,0,0,1,1.348,2.363,16.3,16.3,0,0,1,.585,4.007l.026-.008c.137-.033.28-.059.425-.082" transform="translate(-712.865 -561.593)" fill="#9b1006"/>
          <path id="Path_802" data-name="Path 802" d="M772.019,576.88c-.118-.83-.157-1.11-.314-1.821-.167-.758-.383-1.655-.52-2.215-.18-.1-.362-.212-.545-.322.09.363.4,1.625.624,2.637.153.694.192.97.308,1.786.073.516.219,1.514.406,2.727.154.006.308.011.459.015-.193-1.26-.343-2.282-.418-2.808" transform="translate(-741.813 -563.969)" fill="#d796c2"/>
          <path id="Path_803" data-name="Path 803" d="M685.56,559.278a12.012,12.012,0,0,0-3.207-5.962c-1.422-1.206-4.816-3.377-6.155-3.674-.179-.04-.4-.1-.645-.165-.124.121-.244.244-.364.367.352.1.668.186.914.241a8.426,8.426,0,0,1,1.83.814c-.236-.031-.479-.057-.7-.073a10.841,10.841,0,0,1-2.239-.781q-.169.177-.333.355a11.4,11.4,0,0,0,2.541.883c.689.047,1.61.214,1.833.255a26.462,26.462,0,0,1,3.033,2.125,11.472,11.472,0,0,1,3.054,5.693,19.3,19.3,0,0,1,.369,3.448c.137-.179.285-.353.44-.519a23.5,23.5,0,0,0-.37-3.007" transform="translate(-663.9 -545.261)" fill="#9a5400"/>
          <path id="Path_804" data-name="Path 804" d="M793.271,594.194l.037-.006c.141-.03.274-.066.4-.105-.007-.12-.011-.493-.012-.58-.006-.736-.1-2.64-.1-2.72a.223.223,0,1,0-.446.022c0,.02.1,1.975.1,2.7,0,.116.008.525.018.688" transform="translate(-760.086 -578.617)" fill="#3d6315"/>
          <path id="Path_805" data-name="Path 805" d="M657.007,645.355a10.327,10.327,0,0,1,.361-2.35,4.607,4.607,0,0,1,.686-1.162,6.17,6.17,0,0,0,.427-.64c.133-.248.8-2.008.87-2.207a.23.23,0,0,0-.131-.3.225.225,0,0,0-.292.132c-.29.774-.755,1.984-.845,2.151a5.955,5.955,0,0,1-.4.588,4.914,4.914,0,0,0-.753,1.293,10.943,10.943,0,0,0-.382,2.49h.451" transform="translate(-649.204 -617.677)" fill="#ca6c00"/>
        </g>
      </g>
      <g id="Group_26362" data-name="Group 26362" transform="translate(486.841 341.218)">
        <g id="Group_26361" data-name="Group 26361" transform="translate(0 0)" clip-path="url(#clip-path)">
          <path id="Path_807" data-name="Path 807" d="M511.135,359.009c-.028-.065-.055-.132-.082-.192l.006-.01c-1.146-3.007-3.492-6-1.874-7.578-1.168.853-4.107,2.991-6.747,4.844-2.589,1.817-5.25,3.4-5.592,4.457-1.056,3.251,2.43,7.96,1.175,11.821-1.188,3.658-8.731,5.367-8.169,8.19.58,2.916,4.617,1.291,8.15,1.157a34.927,34.927,0,0,1,11.653,1.317,22.584,22.584,0,0,0,2.98-6.119,19.7,19.7,0,0,0,.83-6.471,34.88,34.88,0,0,0-2.33-11.415" transform="translate(-489.291 -349.443)" fill="#facdb3"/>
        </g>
      </g>
      <g id="Group_26364" data-name="Group 26364" transform="translate(487.402 343.102)">
        <g id="Group_26363" data-name="Group 26363" transform="translate(0 0)" clip-path="url(#clip-path-6)">
          <path id="Path_808" data-name="Path 808" d="M489.467,354.375c-.023-.039-.046-.078-.071-.116a2.722,2.722,0,0,0,3.365-2.662,2.709,2.709,0,0,0-.084-.656c.041.026.083.049.125.074l.054.032.121.069c.066.037.132.072.2.106l.043.021.093.046c.01.1.015.2.016.3a3.294,3.294,0,0,1-3.271,3.308c-.1,0-.2,0-.3-.013l-.05-.1-.017-.033c-.036-.069-.073-.137-.111-.2-.02-.037-.042-.073-.063-.109l-.042-.069m-5.35,7.21h0l-.037,0a3.931,3.931,0,0,1-3.948-3.9c0-.012,0-.024,0-.037h0c-.183.066-.371.124-.563.172a4.5,4.5,0,0,0,4.382,4.333q.07-.287.166-.565m.864,1.828a5.135,5.135,0,0,1,4.84-4.895c-.018-.122-.032-.246-.042-.37-.006-.065-.012-.129-.016-.194a5.7,5.7,0,0,0-5.347,5.407c.073,0,.146.009.218.015.117.01.232.021.347.037m-.553-2.575.019-.04c.034-.068.07-.135.107-.2.022-.04.045-.079.067-.118l.034-.059c.024-.041.049-.082.074-.122h0a2.722,2.722,0,0,1-3.318-3.28v0c-.038.025-.076.048-.114.071l-.072.044-.107.063c-.068.038-.137.075-.207.113l-.03.015-.1.051c-.008.1-.014.2-.013.3a3.294,3.294,0,0,0,3.309,3.271q.154,0,.3-.016c.015-.032.031-.063.047-.1m5.631-5.3h-.037c.065.185.123.372.172.563a4.5,4.5,0,0,0,4.333-4.382q-.288-.07-.565-.165c0,.012,0,.024,0,.036a3.931,3.931,0,0,1-3.9,3.948m-14.136-3.846a2.087,2.087,0,1,1,2.1,2.075,2.09,2.09,0,0,1-2.1-2.075m.566,0A1.521,1.521,0,1,0,478,350.16a1.522,1.522,0,0,0-1.512,1.529M490.05,353.7a2.087,2.087,0,1,1,2.075-2.1,2.09,2.09,0,0,1-2.075,2.1m1.509-2.1a1.521,1.521,0,1,0-1.512,1.529,1.522,1.522,0,0,0,1.512-1.529m-7.236.564c-.01.123-.022.246-.038.368h0a5.136,5.136,0,0,1,4.895,4.84h0c.129-.019.259-.033.391-.045l.173-.014a5.7,5.7,0,0,0-5.407-5.345c0,.066-.008.131-.014.2m-.61-.847c0-.065.008-.129.013-.193.01-.125.022-.249.039-.372h0a5.135,5.135,0,0,1-4.895-4.84h0c-.114.017-.23.03-.346.041-.072.007-.145.014-.218.017a5.7,5.7,0,0,0,5.407,5.347m-5.686,3.083a2.753,2.753,0,0,1-.657-.077c.025.038.048.077.071.116l.042.069c.021.036.043.072.064.109.038.068.076.136.112.2l.016.033c.017.032.034.065.05.1.1.009.2.014.305.014a3.294,3.294,0,0,0,3.271-3.308c0-.1-.006-.2-.016-.305l-.093-.046-.043-.021c-.067-.034-.133-.069-.2-.106l-.12-.069-.055-.032c-.042-.024-.084-.048-.125-.074a2.691,2.691,0,0,1,.084.656,2.727,2.727,0,0,1-2.708,2.739m3.945,3.268a2.087,2.087,0,1,1,2.1,2.076,2.09,2.09,0,0,1-2.1-2.076m.566,0a1.521,1.521,0,1,0,1.512-1.529,1.523,1.523,0,0,0-1.512,1.529m-4.5-2.062H478c.066.185.123.372.172.563a4.5,4.5,0,0,0,4.333-4.382q-.288-.07-.565-.166c0,.012,0,.025,0,.037a3.931,3.931,0,0,1-3.9,3.949M484,353.735h.037a3.931,3.931,0,0,1,3.948,3.9c0,.013,0,.025,0,.037h0q.276-.1.563-.172a4.5,4.5,0,0,0-4.382-4.333c-.046.192-.1.38-.166.565m-.312.749-.018.035c-.035.069-.071.138-.108.205-.02.037-.041.073-.062.109s-.028.048-.042.072l-.07.116h0a2.678,2.678,0,0,1,.655-.084,2.721,2.721,0,0,1,2.662,3.365h0c.041-.026.082-.051.124-.077l.054-.033.119-.07c.065-.037.131-.073.2-.108l.042-.022.093-.047c.008-.1.014-.2.013-.305a3.294,3.294,0,0,0-3.309-3.272c-.1,0-.2.007-.305.016-.015.033-.032.065-.048.1m-.552-2.577a5.136,5.136,0,0,1-4.84,4.9c.018.121.031.244.042.367.006.065.012.13.016.2a5.7,5.7,0,0,0,5.346-5.407c-.058,0-.115-.008-.172-.012-.132-.009-.263-.021-.392-.039m6.561-5.979a5.7,5.7,0,0,0-5.346,5.407c.073,0,.145.009.217.015.117.01.233.021.347.037a5.136,5.136,0,0,1,4.84-4.9c-.018-.122-.031-.245-.042-.37-.006-.064-.012-.129-.016-.194m.323,2.4a3.293,3.293,0,0,0-3.271,3.308c0,.1.006.2.016.305l.1.049.033.016c.07.035.139.072.208.11l.106.06.075.044c.038.022.077.045.113.068a2.724,2.724,0,0,1,2.624-3.394,2.711,2.711,0,0,1,.657.076c-.025-.04-.05-.081-.074-.122l-.035-.058c-.023-.039-.046-.078-.068-.117-.038-.065-.074-.132-.109-.2l-.02-.04-.049-.094c-.1-.009-.2-.014-.3-.013m-4.471,3.183q.288.069.565.165c0-.012,0-.024,0-.037a3.931,3.931,0,0,1,3.9-3.949h.036c-.065-.184-.123-.372-.171-.563a4.5,4.5,0,0,0-4.333,4.383m4.706-6.8c.018.121.031.244.042.367.006.065.012.131.016.2a5.7,5.7,0,0,0,5.347-5.407c-.058,0-.115-.007-.172-.011-.132-.01-.263-.022-.392-.04a5.135,5.135,0,0,1-4.84,4.895m-1.143.643h0c.129-.02.259-.033.391-.045.058-.005.115-.01.173-.014a5.7,5.7,0,0,0-5.407-5.346c0,.066-.008.131-.014.2-.01.123-.022.246-.038.368h0a5.135,5.135,0,0,1,4.895,4.84m-1.092,18.3a2.087,2.087,0,1,1,2.1,2.075,2.09,2.09,0,0,1-2.1-2.075m.566,0a1.521,1.521,0,1,0,1.512-1.53,1.523,1.523,0,0,0-1.512,1.53m-9.43-4.484a5.428,5.428,0,0,1-.408-1.22c-.114.017-.039.03-.155.041-.072.007-.145.013-.218.018a5.7,5.7,0,0,0,5.407,5.346c0-.065.009-.129.013-.193q.014-.187.039-.371h0a5.139,5.139,0,0,1-4.678-3.62m-1.087,2.456a2.087,2.087,0,1,1-2.075,2.1,2.09,2.09,0,0,1,2.075-2.1m-1.509,2.1a1.521,1.521,0,1,0,1.512-1.53,1.522,1.522,0,0,0-1.512,1.53m13.08,5.643c.057,0,.115-.01.172-.014A5.7,5.7,0,0,0,484.4,364c0,.066-.008.131-.014.2-.01.124-.021.246-.038.368h0a5.136,5.136,0,0,1,4.9,4.84h0c.129-.02.26-.033.391-.045m6.435-13.854A2.087,2.087,0,1,1,494,357.6a2.09,2.09,0,0,1,2.076-2.1m0,.566a1.521,1.521,0,1,0,1.529,1.513,1.523,1.523,0,0,0-1.529-1.513m-2.638.878-.114.071-.072.044-.107.063c-.068.039-.137.076-.207.113l-.03.015-.1.051c-.008.1-.014.2-.013.305a3.294,3.294,0,0,0,3.309,3.271c.1,0,.2-.006.3-.016.015-.032.031-.063.047-.095l.019-.04c.035-.068.07-.135.106-.2.022-.04.045-.078.067-.118l.034-.058c.024-.041.049-.082.075-.122h0a2.722,2.722,0,0,1-3.395-2.624,2.7,2.7,0,0,1,.077-.656h0m-2.888-11.06c-.073.007-.145.014-.218.018a5.7,5.7,0,0,0,5.407,5.345c0-.064.009-.128.013-.193.01-.125.022-.249.039-.371h0a5.136,5.136,0,0,1-4.9-4.84h0c-.114.017-.23.03-.346.041m-6.034,26.936c.034-.068.07-.135.107-.2.022-.04.044-.079.067-.117l.034-.059c.024-.041.049-.082.074-.123h0A2.721,2.721,0,0,1,481.4,369.7a2.7,2.7,0,0,1,.077-.656v0c-.038.025-.076.048-.114.071l-.072.043-.106.063c-.069.038-.137.076-.207.113l-.03.015-.1.051c-.009.1-.014.2-.013.305a3.294,3.294,0,0,0,3.309,3.272c.1,0,.2-.007.3-.017.015-.032.031-.063.047-.1l.019-.04m-.368.788a3.931,3.931,0,0,1-3.949-3.9c0-.012,0-.024,0-.036h0c-.184.066-.371.123-.563.172a4.5,4.5,0,0,0,4.382,4.333c.046-.192.1-.38.166-.564h-.038m2.625-3.284.124-.077.054-.033c.04-.023.079-.047.12-.069.065-.037.131-.074.2-.108l.042-.022.092-.047c.009-.1.014-.2.013-.305a3.293,3.293,0,0,0-3.308-3.271c-.1,0-.2.006-.306.016l-.048.1c-.006.012-.011.024-.018.035-.035.069-.071.138-.108.205l-.062.109-.042.071-.07.116h0a2.724,2.724,0,0,1,3.318,3.281h0m1.279-.627c.184-.066.371-.123.563-.172a4.5,4.5,0,0,0-4.382-4.333c-.046.192-.1.38-.166.565h.037a3.93,3.93,0,0,1,3.948,3.9c0,.012,0,.024,0,.036Zm-15.974-3.873a3.931,3.931,0,0,1,3.948,3.9c0,.012,0,.024,0,.036h0c.184-.065.371-.123.563-.172a4.5,4.5,0,0,0-4.383-4.332q-.07.287-.166.564h.037m9.962,3.87a2.087,2.087,0,1,1,2.1,2.076,2.09,2.09,0,0,1-2.1-2.076m.566,0a1.521,1.521,0,1,0,1.512-1.529,1.523,1.523,0,0,0-1.512,1.529m11.46-.065a2.087,2.087,0,1,1,2.1,2.075,2.09,2.09,0,0,1-2.1-2.075m.566,0a1.521,1.521,0,1,0,1.512-1.529,1.523,1.523,0,0,0-1.512,1.529m-22.548-2.6a2.724,2.724,0,0,1,2.663,3.364v0c.041-.027.082-.052.124-.077l.054-.033c.04-.023.079-.047.12-.069.065-.037.131-.074.2-.108l.042-.022.092-.047c.009-.1.014-.2.013-.305a3.293,3.293,0,0,0-3.309-3.271c-.1,0-.2.006-.3.016-.016.033-.032.065-.048.1-.006.011-.011.024-.018.035-.035.069-.071.138-.108.206l-.062.109L471.5,367l-.07.116h0a2.732,2.732,0,0,1,.655-.084m5.136,2.439h0c.129-.019.26-.033.391-.045.058-.005.115-.011.172-.014a5.7,5.7,0,0,0-5.407-5.346c0,.066-.009.131-.014.2-.01.123-.022.246-.039.367h0a5.136,5.136,0,0,1,4.9,4.84m19.323,3.287c.035-.068.07-.135.107-.2.022-.04.044-.079.067-.118l.034-.058c.025-.041.049-.082.075-.123h0a2.721,2.721,0,0,1-3.317-3.281h0l-.115.071-.072.044-.107.063c-.069.038-.137.076-.207.113l-.03.015-.1.051c-.009.1-.014.2-.013.3a3.294,3.294,0,0,0,3.309,3.272c.1,0,.2-.007.3-.017.015-.032.031-.063.047-.1l.019-.04m-24.421.924a3.931,3.931,0,0,1-3.949-3.9c0-.012,0-.024,0-.036h0c-.184.066-.371.123-.563.172a4.5,4.5,0,0,0,4.382,4.332q.07-.287.166-.564h-.038m24.053-.136a3.931,3.931,0,0,1-3.948-3.9c0-.012,0-.024,0-.037h0c-.184.066-.371.124-.563.172a4.5,4.5,0,0,0,4.382,4.333q.07-.288.166-.565h-.038m-12.2-30.635a2.727,2.727,0,0,1,2.739,2.708,2.7,2.7,0,0,1-.077.656h0c.041-.026.082-.051.124-.077l.054-.033.12-.07q.1-.055.2-.107l.042-.021.093-.047c.009-.1.014-.2.013-.305a3.294,3.294,0,0,0-3.309-3.271c-.1,0-.2.007-.3.016-.015.033-.032.065-.048.1l-.018.035c-.035.07-.071.138-.108.206-.021.037-.041.073-.062.108s-.028.048-.042.072l-.069.116h0a2.681,2.681,0,0,1,.655-.085m-2.071,2.735a2.087,2.087,0,1,1,2.1,2.075,2.09,2.09,0,0,1-2.1-2.075m.566,0a1.521,1.521,0,1,0,1.512-1.53,1.523,1.523,0,0,0-1.512,1.53m-9.98,27.251c.035-.068.07-.135.107-.2.022-.04.045-.079.067-.117l.034-.059c.024-.041.049-.082.075-.123h0a2.721,2.721,0,0,1-3.317-3.28v0l-.114.071-.072.044-.107.063c-.068.038-.137.076-.207.113l-.03.015-.1.051c-.009.1-.014.2-.013.305a3.294,3.294,0,0,0,3.309,3.272c.1,0,.2-.007.3-.017.015-.032.031-.063.047-.095l.019-.04m23.236-21c-.057,0-.114-.008-.172-.012-.132-.009-.263-.021-.392-.039a5.136,5.136,0,0,1-4.84,4.9c.018.121.031.244.042.367.006.065.012.13.016.2a5.7,5.7,0,0,0,5.346-5.407m-5.635,9.026a2.7,2.7,0,0,1,.656.077c-.025-.04-.05-.081-.074-.122-.012-.019-.023-.038-.034-.058-.023-.038-.046-.077-.069-.116q-.056-.1-.109-.2l-.02-.039-.048-.094c-.1-.009-.2-.014-.3-.013a3.294,3.294,0,0,0-3.271,3.309c0,.1.006.2.016.3l.1.049.033.016c.069.035.139.072.207.109l.106.061.075.045c.038.022.076.044.113.067a2.721,2.721,0,0,1,2.624-3.394m-6.082-11.993c.1,0,.2-.006.306-.016.014-.032.031-.064.046-.095l.019-.04c.034-.068.07-.135.107-.2.022-.04.045-.078.067-.118l.034-.058.074-.124h0a2.724,2.724,0,0,1-3.318-3.281h0l-.114.071-.073.044-.107.063c-.068.039-.137.076-.206.112l-.03.016-.1.051c-.009.1-.014.2-.013.305a3.293,3.293,0,0,0,3.308,3.271m12.136,12.594h-.037a3.931,3.931,0,0,1-3.949-3.9c0-.012,0-.025,0-.037h0c-.184.066-.371.123-.563.172a4.5,4.5,0,0,0,4.383,4.333q.07-.289.166-.565m-4.054-15.93c0-.012,0-.024,0-.037h0c-.184.066-.371.123-.563.172a4.5,4.5,0,0,0,4.382,4.333q.07-.288.166-.565h-.037a3.931,3.931,0,0,1-3.949-3.9m-8.123-3.88a3.931,3.931,0,0,1,3.948,3.9c0,.012,0,.024,0,.036h0c.184-.066.371-.123.563-.172a4.5,4.5,0,0,0-4.383-4.333c-.046.192-.1.38-.166.564h.037m-.084,8.416c.046-.192.1-.38.166-.564h-.037a3.931,3.931,0,0,1-3.949-3.9c0-.012,0-.024,0-.036h0c-.184.066-.371.123-.563.172a4.5,4.5,0,0,0,4.382,4.332m-13.871,19.643a2.087,2.087,0,1,1,2.1,2.076,2.09,2.09,0,0,1-2.1-2.076m.566,0a1.521,1.521,0,1,0,1.512-1.529,1.522,1.522,0,0,0-1.512,1.529m19.5-10.05h.036c-.065-.184-.123-.372-.172-.563a4.5,4.5,0,0,0-4.332,4.382q.287.07.565.165c0-.012,0-.024,0-.036a3.931,3.931,0,0,1,3.9-3.949m-11.948,13.934a2.089,2.089,0,0,0-2.075,2.1l.566,0a1.521,1.521,0,0,1,3.042-.017l.566,0a2.089,2.089,0,0,0-2.1-2.075m0-.636a2.72,2.72,0,0,1,.656.076c-.026-.04-.049-.081-.075-.122-.012-.019-.023-.038-.034-.058-.023-.039-.046-.078-.069-.117q-.056-.1-.108-.2l-.021-.039-.048-.094c-.1-.009-.2-.014-.305-.014a3.294,3.294,0,0,0-3.271,3.309h0l.566,0h0a2.726,2.726,0,0,1,2.708-2.739m-.007-1.2h.037q-.1-.276-.171-.563a4.5,4.5,0,0,0-4.333,4.382q.231.056.456.129h.107a3.931,3.931,0,0,1,3.9-3.948m12.027-.068h.036c-.065-.184-.123-.372-.172-.563a4.5,4.5,0,0,0-4.332,4.382q.231.057.456.129h.108a3.931,3.931,0,0,1,3.9-3.949m.01,1.839a2.09,2.09,0,0,0-2.075,2.1l.566,0a1.521,1.521,0,0,1,3.042-.017l.566,0a2.09,2.09,0,0,0-2.1-2.075m0-.636a2.7,2.7,0,0,1,.656.076c-.026-.04-.049-.081-.075-.122l-.034-.058c-.023-.039-.047-.078-.069-.117-.037-.066-.073-.133-.108-.2l-.021-.039-.048-.094c-.1-.009-.2-.014-.305-.013a3.294,3.294,0,0,0-3.271,3.308h0l.566,0h0a2.727,2.727,0,0,1,2.709-2.739m12.03.568a2.09,2.09,0,0,0-2.075,2.1l.566,0a1.522,1.522,0,0,1,1.512-1.529Zm-.01-1.839v-.108q-.075-.224-.134-.455a4.5,4.5,0,0,0-4.333,4.382c.154.037.306.081.456.129h.108a3.931,3.931,0,0,1,3.9-3.948m.007,1.2,0-.566a3.294,3.294,0,0,0-3.271,3.308l.566,0a2.726,2.726,0,0,1,2.708-2.739m-12.06-5.945a3.294,3.294,0,0,0,3.271-3.309c0-.1-.006-.2-.016-.3l-.093-.046-.043-.021c-.067-.034-.134-.069-.2-.105l-.12-.068-.054-.032c-.042-.025-.083-.049-.124-.075a2.724,2.724,0,0,1-2.624,3.395,2.7,2.7,0,0,1-.657-.077c.025.038.047.077.071.116.014.022.028.045.041.069l.064.109q.058.1.111.2l.017.033c.017.033.034.065.05.1.1.009.2.013.305.013m4.471-3.184q-.287-.07-.565-.165c0,.012,0,.024,0,.036a3.931,3.931,0,0,1-3.9,3.948h-.036c.065.184.123.372.171.563a4.5,4.5,0,0,0,4.333-4.382m-15.591,6.225h0c-.114.017-.229.03-.346.041-.072.007-.145.014-.218.018a5.7,5.7,0,0,0,5.407,5.346c0-.065.008-.129.013-.193.01-.124.022-.248.039-.371h0a5.137,5.137,0,0,1-4.9-4.84m22.911.506c-.018-.122-.031-.245-.043-.37-.005-.064-.012-.128-.016-.194a5.7,5.7,0,0,0-5.347,5.407c.073,0,.146.009.218.015.117.01.232.021.347.036a5.136,5.136,0,0,1,4.84-4.895m-23.5-1.085a5.7,5.7,0,0,0,5.347-5.407c-.058,0-.115-.007-.172-.012-.132-.01-.263-.022-.393-.04a5.135,5.135,0,0,1-4.84,4.9c.017.121.031.244.042.367.006.065.012.13.016.2m12.027-.068a5.7,5.7,0,0,0,5.346-5.407c-.058,0-.115-.007-.172-.012-.132-.01-.263-.022-.392-.04a5.136,5.136,0,0,1-4.84,4.895c.017.121.031.244.042.367.006.065.012.13.016.2m.584.578h0c-.114.016-.229.03-.346.041-.072.007-.145.013-.218.017a5.7,5.7,0,0,0,5.407,5.346c0-.065.008-.129.014-.193.01-.124.022-.248.039-.371h0a5.136,5.136,0,0,1-4.9-4.84m-1.142.643c-.018-.123-.031-.245-.043-.37-.006-.065-.012-.128-.015-.193a5.7,5.7,0,0,0-5.347,5.407c.073,0,.145.009.218.015.116.01.232.021.347.037a5.136,5.136,0,0,1,4.84-4.895m-7.321-6.732q-.287-.07-.565-.165c0,.012,0,.025,0,.037a3.931,3.931,0,0,1-3.9,3.949h-.037c.065.184.123.372.171.563a4.5,4.5,0,0,0,4.333-4.382m-4.706,6.8c-.018-.122-.031-.246-.043-.37-.006-.065-.012-.128-.015-.194a5.7,5.7,0,0,0-5.347,5.407c.073,0,.145.009.218.015.116.01.232.021.347.037a5.136,5.136,0,0,1,4.84-4.9m-.313-4.074c.022.036.044.073.064.109q.058.1.111.205l.017.032.05.1c.1.008.2.013.305.013a3.294,3.294,0,0,0,3.271-3.308c0-.1-.006-.2-.016-.305l-.093-.046-.043-.021c-.067-.034-.133-.069-.2-.105l-.12-.068-.054-.032c-.042-.025-.084-.049-.125-.075a2.723,2.723,0,0,1-2.624,3.395,2.707,2.707,0,0,1-.657-.077c.024.038.047.077.071.116.014.023.028.046.041.069m-10.572,3.5h0c-.114.017-.229.03-.346.041-.072.007-.145.014-.218.017a5.7,5.7,0,0,0,5.407,5.347c0-.065.009-.129.013-.194.01-.124.022-.248.039-.371h0a5.137,5.137,0,0,1-4.9-4.84m23.013-26.526h-.037q.1.277.172.563a4.5,4.5,0,0,0,4.333-4.382c-.154-.038-.306-.081-.456-.13H493.9a3.931,3.931,0,0,1-3.9,3.948m-.55-1.095c.021.036.043.072.063.109.038.067.076.136.111.2l.017.033.05.1c.1.009.2.014.305.013a3.294,3.294,0,0,0,3.271-3.308l-.566,0a2.727,2.727,0,0,1-2.708,2.739,2.761,2.761,0,0,1-.657-.077c.024.038.048.077.071.116l.042.069m6.474,20.869c.009-.188.017-.376.022-.564l-.078-.006h0a5.137,5.137,0,0,1-4.9-4.841c-.114.017-.23.029-.346.041-.073.007-.144.014-.218.018a5.7,5.7,0,0,0,5.407,5.346Z" transform="translate(-470.821 -341.759)" fill="#e20613"/>
        </g>
      </g>
      <g id="Group_26366" data-name="Group 26366" transform="translate(486.841 341.218)">
        <g id="Group_26365" data-name="Group 26365" transform="translate(0 0)" clip-path="url(#clip-path)">
          <path id="Path_810" data-name="Path 810" d="M708.906,430.726l.179.107s0,.007,0,.011c2.7,1.76,6.355,2.8,5.971,5.03.444-1.376,1.565-4.834,2.611-7.885,1.026-2.992,2.247-5.838,1.9-6.893-1.056-3.251-6.645-5.012-7.9-8.872-1.189-3.658,3.909-9.474,1.8-11.428-2.183-2.018-4.493,1.67-7.274,3.855a34.924,34.924,0,0,1-10.2,5.784,22.582,22.582,0,0,0,1.186,6.7,19.693,19.693,0,0,0,3.132,5.723,34.872,34.872,0,0,0,8.594,7.866" transform="translate(-658.688 -389.69)" fill="#c0dec3"/>
        </g>
      </g>
      <g id="Group_26368" data-name="Group 26368" transform="translate(522.82 352.323)">
        <g id="Group_26367" data-name="Group 26367" transform="translate(0 0)" clip-path="url(#clip-path-8)">
          <path id="Path_811" data-name="Path 811" d="M724.608,512.645c.018.086,1.973,7.891,2.61,10.212a16.13,16.13,0,0,1-2.61-10.212" transform="translate(-719.157 -491.48)" fill="#00401e"/>
          <path id="Path_812" data-name="Path 812" d="M725.128,487.023a95.048,95.048,0,0,0,4.753,13.3c-1.886-1.837-5.365-7.775-4.753-13.3" transform="translate(-719.586 -470.681)" fill="#00401e"/>
          <path id="Path_813" data-name="Path 813" d="M727.674,471.153c.571,3.453,1.754,5.69,4.159,10.29l1.563,2.9c.025-.012-.051.01-.026.022l-.058-.1c.008.006.084.072.089.079s-.042.033-.025.024c-2.557-1.847-6.3-7.841-5.7-13.226" transform="translate(-721.659 -457.799)" fill="#00401e"/>
          <path id="Path_814" data-name="Path 814" d="M729.5,461.059c.663,3.226,4.907,9.05,6.86,12.2-3.448-2.958-7.29-7.7-6.86-12.2" transform="translate(-723.162 -449.605)" fill="#00401e"/>
          <path id="Path_815" data-name="Path 815" d="M731.786,450.673c.625,3.005,4.735,7.348,7.638,12.034-3.356-2.909-8.019-7.659-7.638-12.034" transform="translate(-725.03 -441.174)" fill="#00401e"/>
          <path id="Path_816" data-name="Path 816" d="M734.04,442.319c.618,2.838,4.979,5.739,8.717,11.528-3.965-3.447-9-7.733-8.717-11.528" transform="translate(-726.868 -434.393)" fill="#00401e"/>
          <path id="Path_817" data-name="Path 817" d="M736.431,435.747c.572,2.4,6.277,4.738,9.826,10.358-4.976-4.236-10.006-7.378-9.826-10.358" transform="translate(-728.815 -429.058)" fill="#00401e"/>
          <path id="Path_818" data-name="Path 818" d="M738.3,429.278c.315,1.181,1.78,1.479,4.686,3.221a20.583,20.583,0,0,1,6.243,5.971c-5.768-4.844-11.013-6.921-10.928-9.191" transform="translate(-730.334 -423.806)" fill="#00401e"/>
          <path id="Path_819" data-name="Path 819" d="M739.766,424.21a.533.533,0,0,0,.166.3c1.036.938,7.406.448,11.853,7.3-4.957-4.318-8.376-4.9-11.159-6.566-1.028-.6-.86-1.033-.86-1.033" transform="translate(-731.517 -419.692)" fill="#00401e"/>
          <path id="Path_820" data-name="Path 820" d="M741.792,420.566s-.042.2.533.206a12.655,12.655,0,0,1,12.656,5.852,18.878,18.878,0,0,0-7.447-4.391c-3.342-1.151-5.754-1.031-5.742-1.667" transform="translate(-733.17 -416.734)" fill="#00401e"/>
          <path id="Path_821" data-name="Path 821" d="M742.7,412.087s-.09.117.636-.142c5.843-2.078,10.5-.135,13.744,4.755-3.754-3.347-7.45-5.065-12.911-4.638a5.681,5.681,0,0,1-1.448.067.043.043,0,0,1-.021-.043" transform="translate(-733.906 -409.067)" fill="#00401e"/>
          <path id="Path_822" data-name="Path 822" d="M743.925,402.441c3.358-2.991,10.247-3.694,15.363,3.488-3.457-3.066-6.6-4.947-11.555-4.45a11.853,11.853,0,0,0-3.808.962" transform="translate(-734.902 -400.281)" fill="#00401e"/>
          <path id="Path_823" data-name="Path 823" d="M692.789,499.7a16.565,16.565,0,0,1-5.612,7.492c2.467-4.277,3.65-5.631,5.612-7.492" transform="translate(-688.836 -480.969)" fill="#00401e"/>
          <path id="Path_824" data-name="Path 824" d="M683.69,483.41a15.115,15.115,0,0,1-8.406,8.121c1.052-.651,1.194-.971,8.406-8.121" transform="translate(-679.182 -467.748)" fill="#00401e"/>
          <path id="Path_825" data-name="Path 825" d="M677.178,470.4a14.114,14.114,0,0,1-10.38,7.681c.011.04-.025-.052-.017-.044s.12-.017.138-.02c0,0-.119.061-.12.063s-.026-.084-.015-.045c7.171-4.24,8.9-6.021,10.394-7.636" transform="translate(-672.279 -457.189)" fill="#00401e"/>
          <path id="Path_826" data-name="Path 826" d="M674.4,460.572c-1.95,4.006-6.99,5.559-11.407,6.159,3.977-2,9.046-3.737,11.407-6.159" transform="translate(-669.209 -449.209)" fill="#00401e"/>
          <path id="Path_827" data-name="Path 827" d="M675.486,449.769c-1.9,3.835-7.473,5.067-11.838,5.674,2.994-1.5,9.7-3.5,11.838-5.674" transform="translate(-669.737 -440.44)" fill="#00401e"/>
          <path id="Path_828" data-name="Path 828" d="M674.815,441.411c-1.6,3.157-6.733,3.888-12.333,4.653,5.8-2.769,10.233-2.549,12.333-4.653" transform="translate(-668.79 -433.655)" fill="#00401e"/>
          <path id="Path_829" data-name="Path 829" d="M720.738,380.532a86.93,86.93,0,0,0-5.149,20.218c-.177,1.3-.418,2.659-.7,3.942a31.039,31.039,0,0,0-.367,11.073,70.731,70.731,0,0,0,.99-10.109,48.692,48.692,0,0,1,.98-8.542,89.664,89.664,0,0,1,5.025-16.283Z" transform="translate(-710.763 -384.237)" fill="#00401e"/>
          <path id="Path_830" data-name="Path 830" d="M803.938,512.816a90.529,90.529,0,0,1,13.035-3.327c-2.455-.511-9-.1-13.035,3.327" transform="translate(-783.618 -488.771)" fill="#00401e"/>
          <path id="Path_831" data-name="Path 831" d="M792.741,525.084c3.031-1.388,5.428-1.644,10.342-2.194l3.127-.312c0,.026-.019-.046,0-.032l-.106.005c.009,0,.1.028.11.028s0-.051.006-.033c-2.82-1.036-9.546-.8-13.482,2.538" transform="translate(-774.529 -499.076)" fill="#00401e"/>
          <path id="Path_832" data-name="Path 832" d="M785.669,536.44c2.9-1.194,9.761-.943,13.29-1.079-4.172-1.148-9.961-1.659-13.29,1.079" transform="translate(-768.788 -509.169)" fill="#00401e"/>
          <path id="Path_833" data-name="Path 833" d="M778.661,545.48c2.706-1.106,8.324-.173,13.572-.375-4.085-1.1-10.319-2.255-13.572.375" transform="translate(-763.099 -516.833)" fill="#00401e"/>
          <path id="Path_834" data-name="Path 834" d="M773.239,553.856c2.571-1.023,7.184.878,13.746.746-4.833-1.3-10.9-2.991-13.746-.746" transform="translate(-758.698 -524.044)" fill="#00401e"/>
          <path id="Path_835" data-name="Path 835" d="M769.3,561.3c2.2-.828,7.084,2.436,13.413,2.246-6-1.675-11.155-3.975-13.413-2.246" transform="translate(-755.504 -530.474)" fill="#00401e"/>
          <path id="Path_836" data-name="Path 836" d="M765.182,567.542c1.1-.38,2.115.619,5.038,1.986a19.6,19.6,0,0,0,8.04,1.751c-6.9-1.977-11.33-5.013-13.078-3.737" transform="translate(-752.157 -535.796)" fill="#00401e"/>
          <path id="Path_837" data-name="Path 837" d="M809.451,478.208a15.781,15.781,0,0,0,2.929-8.421c-2.064,4.226-2.5,5.881-2.929,8.421" transform="translate(-788.093 -456.69)" fill="#00401e"/>
          <path id="Path_838" data-name="Path 838" d="M798.16,478.249a14.4,14.4,0,0,0,1.938-10.964c.046,1.177-.131,1.46-1.938,10.964" transform="translate(-778.927 -454.659)" fill="#00401e"/>
          <path id="Path_839" data-name="Path 839" d="M788.991,481.086a13.444,13.444,0,0,0,.54-12.288c.038-.013-.055.008-.044.01s.05.1.058.119c0,0-.015-.126-.014-.128s-.081.024-.043.012c.469,7.921-.016,10.236-.5,12.275" transform="translate(-771.484 -455.884)" fill="#00401e"/>
          <path id="Path_840" data-name="Path 840" d="M776.855,487.579c2.126-3.673.668-8.48-1.209-12.288.541,4.2,1.865,9.134,1.209,12.288" transform="translate(-760.651 -461.158)" fill="#00401e"/>
          <path id="Path_841" data-name="Path 841" d="M767.642,496.119c2.017-3.543.116-8.41-1.729-12.18.408,3.164,2.31,9.338,1.729,12.18" transform="translate(-752.751 -468.178)" fill="#00401e"/>
          <path id="Path_842" data-name="Path 842" d="M756.81,501.564c1.642-2.944-.515-7.388-2.891-12.218.9,6.051,3.435,9.44,2.891,12.218" transform="translate(-743.014 -472.567)" fill="#00401e"/>
          <path id="Path_843" data-name="Path 843" d="M745.819,509.361c1.274-2.364-1.317-6.145-4.2-11.868.9,6.4,4.633,9.418,4.2,11.868" transform="translate(-733.034 -479.18)" fill="#00401e"/>
          <path id="Path_844" data-name="Path 844" d="M734.534,516.769c.935-1.842-2.47-4.711-5.778-11.232a16.248,16.248,0,0,0,3.71,7.985c1.426,1.7,2.217,2.262,2.067,3.247" transform="translate(-722.588 -485.71)" fill="#00401e"/>
          <path id="Path_845" data-name="Path 845" d="M732.369,501.164A82.8,82.8,0,0,1,745.6,486.332c.934-.833,1.878-1.746,2.74-2.653a29.575,29.575,0,0,1,8.55-6.186,67.342,67.342,0,0,1-7.457,6.165,46.375,46.375,0,0,0-6.225,5.322,85.441,85.441,0,0,0-10.185,12.638Z" transform="translate(-725.521 -462.945)" fill="#00401e"/>
        </g>
      </g>
      <g id="Group_26370" data-name="Group 26370" transform="translate(486.841 341.218)">
        <g id="Group_26369" data-name="Group 26369" transform="translate(0 0)" clip-path="url(#clip-path)">
          <path id="Path_847" data-name="Path 847" d="M623.4,361.789c.054-.046.109-.093.158-.137l.011,0c2.506-2.019,4.631-5.177,6.629-4.124-1.172-.847-4.114-2.982-6.692-4.92-2.528-1.9-4.858-3.941-5.968-3.941-3.418,0-6.82,4.771-10.879,4.771-3.846,0-7.8-6.645-10.314-5.239-2.593,1.453.2,4.79,1.418,8.109a34.92,34.92,0,0,1,2.349,11.489,22.582,22.582,0,0,0,6.741.942,19.693,19.693,0,0,0,6.411-1.21,34.876,34.876,0,0,0,10.137-5.743" transform="translate(-575.934 -346.796)" fill="#0f062f"/>
        </g>
      </g>
      <g id="Group_26372" data-name="Group 26372" transform="translate(503.86 342.496)">
        <g id="Group_26371" data-name="Group 26371" transform="translate(0 0)" clip-path="url(#clip-path-10)">
          <path id="Path_848" data-name="Path 848" d="M775.367,391.113a.071.071,0,0,0-.021.05v.211a.321.321,0,1,0,.141-.022v-.159l.176-.177-.115-.084Z" transform="translate(-741.281 -382.851)" fill="#61c2d8"/>
          <path id="Path_849" data-name="Path 849" d="M768.85,388.6v.337a.323.323,0,1,0,.141,0v-.308l.6-.6-.115-.084-.6.6a.07.07,0,0,0-.021.05" transform="translate(-735.97 -380.433)" fill="#61c2d8"/>
          <path id="Path_850" data-name="Path 850" d="M763.724,407.662a.323.323,0,1,0,0,.149h.579l.153-.149Z" transform="translate(-731.497 -396.23)" fill="#61c2d8"/>
          <path id="Path_851" data-name="Path 851" d="M623.085,427.649a.071.071,0,0,0,.05.021h2.613a.071.071,0,0,0,.05-.021l.776-.776a.071.071,0,0,0,.021-.05v-.982l3.166-3.166h4.308l.876.876a.07.07,0,0,0,.05.021h4.487a.071.071,0,0,0,.05-.021l2.744-2.744a.322.322,0,1,0-.1-.236.31.31,0,0,0,.023.118l-2.742,2.742h-4.428l-.876-.876a.069.069,0,0,0-.05-.02h-4.366a.07.07,0,0,0-.05.02l-3.207,3.207a.07.07,0,0,0-.021.05v.982l-.735.735h-2.554l-.569-.569a.069.069,0,0,0-.05-.021h-2.4c0,.047,0,.094,0,.14h2.367Z" transform="translate(-615.466 -406.648)" fill="#61c2d8"/>
          <path id="Path_852" data-name="Path 852" d="M623.546,419.317a.071.071,0,0,0,.05.021h1.758a.071.071,0,0,0,.05-.021l.476-.477a.068.068,0,0,0,.021-.049v-1.017l3.65-3.65H631.8a.069.069,0,0,0,.049-.021l.482-.482h3.113l.554.554a.069.069,0,0,0,.049.021h2.962a.07.07,0,0,0,.05-.021l.833-.833a.069.069,0,0,0,.02-.049v-1.04l.774-.773a.317.317,0,0,0,.18.057.323.323,0,1,0-.323-.323.319.319,0,0,0,.046.165l-.8.8a.071.071,0,0,0-.02.05v1.04l-.792.791h-2.9l-.553-.553a.071.071,0,0,0-.049-.021H632.3a.071.071,0,0,0-.05.021l-.482.482h-2.247a.069.069,0,0,0-.05.021l-3.691,3.691a.07.07,0,0,0-.021.05v1.017l-.435.435h-1.7l-.323-.323a.07.07,0,0,0-.05-.021h-3.177q0,.07,0,.141h3.143Z" transform="translate(-615.406 -399.053)" fill="#61c2d8"/>
          <path id="Path_853" data-name="Path 853" d="M621.314,424.411h3.978a.069.069,0,0,0,.049-.021l3.982-3.982h2.039a.07.07,0,0,0,.05-.021l.748-.748h.107a.323.323,0,1,0,0-.14h-.136a.069.069,0,0,0-.049.02l-.747.748H629.3a.071.071,0,0,0-.05.02l-3.982,3.982h-3.92l-1.32-1.342c.006.073.013.145.019.218l1.223,1.244a.069.069,0,0,0,.05.021" transform="translate(-615.364 -405.836)" fill="#61c2d8"/>
          <path id="Path_854" data-name="Path 854" d="M621.14,419.18h3.624a.069.069,0,0,0,.05-.021l5-5a.317.317,0,0,0,.186.06.324.324,0,1,0-.281-.164l-4.981,4.981h-3.566l-1.676-1.7c.009.075.018.15.026.225l1.571,1.593a.07.07,0,0,0,.05.021" transform="translate(-614.934 -401.233)" fill="#61c2d8"/>
          <path id="Path_855" data-name="Path 855" d="M627.707,423.12s0,0,.005,0h3.336l.308.308a.07.07,0,0,0,.049.02h.888a.071.071,0,0,0,.05-.02l.535-.535a.325.325,0,1,0-.092-.107l-.521.521h-.83l-.307-.307a.068.068,0,0,0-.05-.021h-3.334l-.141-.133.133.133Z" transform="translate(-621.517 -408.326)" fill="#61c2d8"/>
          <path id="Path_856" data-name="Path 856" d="M617.243,419.188a.07.07,0,0,0,.05.021h3.43a.324.324,0,1,0,0-.141h-3.4l-1.044-1.044a.07.07,0,0,0-.05-.02h-1.873c.007.03.016.059.023.088l.012.052h1.81Z" transform="translate(-610.763 -404.827)" fill="#61c2d8"/>
          <path id="Path_857" data-name="Path 857" d="M617.421,421.83a.07.07,0,0,0,.05.021v0a.07.07,0,0,1-.047-.021c-.462-.487-.956-1.021-1.029-1.08-.033,0-1.3.006-1.4.009l.007.03h1.378Z" transform="translate(-611.281 -407.054)" fill="#61c2d8"/>
          <path id="Path_858" data-name="Path 858" d="M616.369,420.282c.023,0,.029.008.048.022l.034.048c.119.108.349.349.81.786l-.911-.911a.071.071,0,0,0-.05-.02h-1.438c.006.025.011.051.017.077l1.489,0" transform="translate(-611.175 -406.616)" fill="#61c2d8"/>
          <path id="Path_859" data-name="Path 859" d="M616.491,420.63a.066.066,0,0,0-.048-.022l-1.489,0c0,.011,0,.022.007.034.105,0,1.37-.006,1.4-.009.073.059.567.593,1.029,1.08a.071.071,0,0,0,.047.021l.029-.138-.133-.133c-.461-.436-.692-.678-.811-.785Z" transform="translate(-611.249 -406.941)" fill="#61c2d8"/>
          <path id="Path_860" data-name="Path 860" d="M616.976,417.064a.07.07,0,0,0,.05.021h2.4a.07.07,0,0,0,.05-.021l.3-.3H622.4l.339.339a.317.317,0,0,0-.062.188.325.325,0,1,0,.167-.282l-.365-.365a.071.071,0,0,0-.05-.021h-2.687a.071.071,0,0,0-.05.021l-.3.3h-2.339l-1.028-1.028a.07.07,0,0,0-.05-.021h-2.163l.036.141h2.1Z" transform="translate(-610.325 -403.116)" fill="#61c2d8"/>
          <path id="Path_861" data-name="Path 861" d="M619.061,409.45a.07.07,0,0,0,.05.021h4.5a.07.07,0,0,0,.05-.021l1.388-1.388a.322.322,0,1,0-.126-.255.313.313,0,0,0,.036.146l-1.377,1.377H619.14l-.667-.667a.069.069,0,0,0-.049-.021h-5.216c.011.037.022.073.032.111l.008.03h5.147Z" transform="translate(-609.831 -396.288)" fill="#61c2d8"/>
          <path id="Path_862" data-name="Path 862" d="M608.33,384.9l1.156-1.156h2.551l.632.632a.07.07,0,0,0,.05.021h1.789l.538.538a.071.071,0,0,0,.05.021h.405a.07.07,0,0,0,.05-.021l.38-.38h1.111l.745.744a.32.32,0,0,0-.042.159.323.323,0,1,0,.323-.323.315.315,0,0,0-.186.061l-.761-.76a.069.069,0,0,0-.05-.021H615.9a.07.07,0,0,0-.05.021l-.38.38h-.347l-.538-.538a.069.069,0,0,0-.05-.021h-1.789l-.632-.632a.07.07,0,0,0-.05-.021h-2.609a.07.07,0,0,0-.049.021l-1.156,1.156h-3.888l.063.141h3.854a.071.071,0,0,0,.05-.021" transform="translate(-602.652 -376.902)" fill="#61c2d8"/>
          <path id="Path_863" data-name="Path 863" d="M618.129,406.456l.24-.24a.316.316,0,0,0,.173.051.325.325,0,1,0-.272-.15l-.219.219h-6.1c.014.044.029.088.043.132l0,.008h6.086a.07.07,0,0,0,.049-.021" transform="translate(-608.81 -394.775)" fill="#61c2d8"/>
          <path id="Path_864" data-name="Path 864" d="M616.964,404.875l.541-.541h1.432l.214.214a.32.32,0,0,0-.105.237.323.323,0,1,0,.323-.323.309.309,0,0,0-.091.014l-.262-.262a.07.07,0,0,0-.05-.021h-1.49a.07.07,0,0,0-.05.021l-.542.541h-5.659c.016.046.03.094.045.141h5.643a.07.07,0,0,0,.05-.021" transform="translate(-608.223 -393.616)" fill="#61c2d8"/>
          <path id="Path_865" data-name="Path 865" d="M615.2,402.363l.22-.22a.323.323,0,1,0-.152-.273.317.317,0,0,0,.052.174l-.2.2h-4.553c.016.047.033.093.049.141h4.533a.071.071,0,0,0,.05-.021" transform="translate(-607.687 -391.468)" fill="#61c2d8"/>
          <path id="Path_866" data-name="Path 866" d="M614.05,397.933l.644-.644h1.225a.071.071,0,0,0,.05-.021l.492-.492h1.178l.292.292a.322.322,0,1,0,.229-.1.329.329,0,0,0-.108.018l-.334-.334a.07.07,0,0,0-.05-.021h-1.236a.07.07,0,0,0-.05.021l-.492.492h-1.225a.069.069,0,0,0-.05.021l-.644.644h-4.237c.017.046.032.094.049.14H614a.071.071,0,0,0,.05-.021" transform="translate(-607.012 -387.482)" fill="#61c2d8"/>
          <path id="Path_867" data-name="Path 867" d="M613.064,395.547l.728-.728h1.188a.069.069,0,0,0,.05-.021l.432-.432h2.181l.8.8a.317.317,0,0,0-.051.173.323.323,0,1,0,.323-.323.318.318,0,0,0-.173.051l-.82-.82a.07.07,0,0,0-.049-.021h-2.239a.07.07,0,0,0-.05.021l-.432.432h-1.188a.069.069,0,0,0-.05.021l-.729.728H608.87l.053.141h4.091a.07.07,0,0,0,.05-.021" transform="translate(-606.311 -385.525)" fill="#61c2d8"/>
          <path id="Path_868" data-name="Path 868" d="M612.125,392.573l.962-.962h.341a.323.323,0,1,0,0-.141h-.37a.071.071,0,0,0-.05.021l-.962.962h-4.288c.019.047.038.093.057.141h4.259a.07.07,0,0,0,.05-.021" transform="translate(-605.409 -383.084)" fill="#61c2d8"/>
          <path id="Path_869" data-name="Path 869" d="M610.99,390.434l1.051-1.051h1.351l.535.535a.069.069,0,0,0,.05.021h1.945l.736.736a.07.07,0,0,0,.049.021h.973l.425.426a.319.319,0,0,0-.051.173.323.323,0,1,0,.323-.323.317.317,0,0,0-.173.051l-.446-.446a.069.069,0,0,0-.05-.021h-.973l-.736-.736a.071.071,0,0,0-.05-.021H614l-.534-.535a.071.071,0,0,0-.05-.021h-1.409a.07.07,0,0,0-.05.021l-1.051,1.051H606.59c.013.03.026.058.038.088l.022.053h4.29a.071.071,0,0,0,.05-.021" transform="translate(-604.46 -381.481)" fill="#61c2d8"/>
          <path id="Path_870" data-name="Path 870" d="M609.5,387.679l1.109-1.109H612.7l.575.575a.071.071,0,0,0,.05.021h1.889l.635.635a.069.069,0,0,0,.05.021h1.044a.323.323,0,1,0,0-.141h-1.015l-.635-.635a.069.069,0,0,0-.05-.021H613.35l-.576-.575a.069.069,0,0,0-.049-.021h-2.148a.07.07,0,0,0-.05.021l-1.109,1.109h-3.9l0,.008c.019.044.038.088.057.132h3.87a.071.071,0,0,0,.05-.021" transform="translate(-603.589 -379.196)" fill="#61c2d8"/>
          <path id="Path_871" data-name="Path 871" d="M676.381,372.225v4.8l-.381.344a.32.32,0,0,0-.237-.106.323.323,0,1,0,.323.323.309.309,0,0,0-.014-.092l.427-.386a.07.07,0,0,0,.023-.052V372.2a.071.071,0,0,0-.021-.05l-.275-.3-.128.071Z" transform="translate(-660.348 -367.36)" fill="#61c2d8"/>
          <path id="Path_872" data-name="Path 872" d="M605.793,375.408l1.637-1.637h3.446c-.068-.044-.137-.093-.205-.141H607.4a.069.069,0,0,0-.05.021l-1.637,1.637h-3.82l.046.093.023.047h3.781a.071.071,0,0,0,.05-.021" transform="translate(-600.648 -368.807)" fill="#61c2d8"/>
          <path id="Path_873" data-name="Path 873" d="M681.154,371.009v6.974a.068.068,0,0,0,.021.049l.436.436a.319.319,0,0,0-.051.173.323.323,0,1,0,.323-.323.318.318,0,0,0-.173.051l-.416-.415V370.98a.07.07,0,0,0-.021-.05l-.392-.394-.125.074Z" transform="translate(-664.666 -366.295)" fill="#61c2d8"/>
          <path id="Path_874" data-name="Path 874" d="M604.435,372.96l1.6-1.6H609.2l-.183-.141H606a.07.07,0,0,0-.05.021l-1.6,1.6H600.61l.064.129.006.012h3.706a.071.071,0,0,0,.05-.021" transform="translate(-599.606 -366.851)" fill="#61c2d8"/>
          <path id="Path_875" data-name="Path 875" d="M600.611,379.821h0l.064.129-.064-.129" transform="translate(-599.606 -373.832)" fill="#61c2d8"/>
          <path id="Path_876" data-name="Path 876" d="M686.243,372.958a.069.069,0,0,0,.021.05l.644.644a.069.069,0,0,0,.049.021H688.3l.5.5v.908l-1.276,1.277a.068.068,0,0,0-.021.049v.726a.069.069,0,0,0,.021.05l.246.247a.07.07,0,0,0,.05.02h1.021l.689.69a.071.071,0,0,0,.05.021h1.635a.07.07,0,0,0,.049-.021l.664-.664a.315.315,0,0,0,.186.061.323.323,0,1,0-.323-.323.319.319,0,0,0,.042.159l-.648.648h-1.577l-.69-.69a.071.071,0,0,0-.05-.021H687.85l-.205-.205v-.668l1.276-1.276a.069.069,0,0,0,.021-.05v-.966a.068.068,0,0,0-.021-.05l-.542-.542a.069.069,0,0,0-.05-.021h-1.342l-.6-.6v-5.323a.065.065,0,0,0-.018-.046l-.333-.493-.117.08.326.485Z" transform="translate(-668.854 -363.479)" fill="#61c2d8"/>
          <path id="Path_877" data-name="Path 877" d="M696.966,363.546a.319.319,0,0,0-.218-.086.323.323,0,1,0,.323.323.312.312,0,0,0-.024-.12l.108-.108a.069.069,0,0,0,.02-.049v-6.413h0l-.14.089v6.3Z" transform="translate(-677.384 -355.381)" fill="#61c2d8"/>
          <path id="Path_878" data-name="Path 878" d="M703.543,357.355l.893.893v1.385a.323.323,0,1,0,.141,0v-1.415a.069.069,0,0,0-.021-.05l-.893-.893v-2.412l-.141.081v2.361a.07.07,0,0,0,.021.05" transform="translate(-683.145 -353.573)" fill="#61c2d8"/>
          <path id="Path_879" data-name="Path 879" d="M710.464,359.566l-1.536,1.536h-.836a.07.07,0,0,0-.049.02l-.776.776a.071.071,0,0,0-.02.05v2.436l-.252.251a.322.322,0,1,0,.1.236.316.316,0,0,0-.024-.119l.29-.29a.072.072,0,0,0,.021-.05v-2.436l.734-.734h.836a.071.071,0,0,0,.05-.021l1.577-1.577a.07.07,0,0,0,.02-.05v-2.045a.069.069,0,0,0-.02-.049l-4.131-4.131-.134.064,4.145,4.145Z" transform="translate(-685.415 -352.36)" fill="#61c2d8"/>
          <path id="Path_880" data-name="Path 880" d="M730.112,369.914v3.733l-.441.441a.069.069,0,0,0-.021.05v3.075l-.311.311a.319.319,0,0,0-.216-.083.323.323,0,1,0,.323.323.311.311,0,0,0-.026-.123l.349-.349a.07.07,0,0,0,.02-.05v-3.075l.441-.441a.069.069,0,0,0,.021-.05v-3.733l1.894-1.895-.115-.084-1.9,1.9a.069.069,0,0,0-.021.05" transform="translate(-703.665 -364.208)" fill="#61c2d8"/>
          <path id="Path_881" data-name="Path 881" d="M741.1,370.5v4.516l-1.486,1.486a.069.069,0,0,0-.021.05v.563a.323.323,0,1,0,.141,0v-.534l1.486-1.486a.071.071,0,0,0,.021-.05v-4.516l.079-.079-.114-.084-.084.085a.07.07,0,0,0-.021.05" transform="translate(-712.224 -366.16)" fill="#61c2d8"/>
          <path id="Path_882" data-name="Path 882" d="M697.249,434.242a.325.325,0,0,0-.314.253h-1.5a.069.069,0,0,0-.05.021l-.912.912h-5.916a.068.068,0,0,0-.049.021l-.327.327a.319.319,0,0,0-.2-.071.323.323,0,1,0,.323.323.316.316,0,0,0-.034-.142l.317-.317H694.5a.07.07,0,0,0,.05-.021l.912-.912h1.473a.321.321,0,0,0,.139.2c.163-.111.326-.222.484-.335a.319.319,0,0,0-.309-.254" transform="translate(-670.264 -418.009)" fill="#61c2d8"/>
          <path id="Path_883" data-name="Path 883" d="M621.349,431.627a.323.323,0,1,0,0-.646.32.32,0,0,0-.314.252h-3.2c.007.047.013.094.02.141h3.181a.325.325,0,0,0,.314.254" transform="translate(-613.587 -415.362)" fill="#61c2d8"/>
          <path id="Path_884" data-name="Path 884" d="M635.112,416.66a.323.323,0,1,0,.323.323.324.324,0,0,0-.323-.323" transform="translate(-627.351 -403.736)" fill="#61c2d8"/>
          <path id="Path_885" data-name="Path 885" d="M614.993,423.25H616.3l1.008,1.008h3.3a.068.068,0,0,1,.049.021l.855.855h.223a.323.323,0,1,1,0,.14h-.252a.07.07,0,0,1-.05-.02l-.855-.855h-3.3a.07.07,0,0,1-.05-.021l-.995-1.008h-1.045Z" transform="translate(-611.281 -409.086)" fill="#61c2d8"/>
          <path id="Path_886" data-name="Path 886" d="M618.635,411.87a.316.316,0,0,0-.051.173.323.323,0,1,0,.323-.323.318.318,0,0,0-.173.051l-.308-.308a.071.071,0,0,0-.05-.021h-5.808c.014.047.027.094.041.141h5.738Z" transform="translate(-609.313 -399.501)" fill="#61c2d8"/>
          <path id="Path_887" data-name="Path 887" d="M600.351,351.487h-3.938a1.58,1.58,0,0,0-.135.141h4.361c-.1-.051-.192-.1-.287-.141" transform="translate(-596.089 -350.832)" fill="#61c2d8"/>
          <path id="Path_888" data-name="Path 888" d="M750.269,377.348a.323.323,0,1,0,.393-.314V372.2l-.141-.1v4.931a.324.324,0,0,0-.253.314" transform="translate(-721.092 -367.566)" fill="#61c2d8"/>
          <path id="Path_889" data-name="Path 889" d="M711.578,357.43l-1.835,1.835h-.7a.071.071,0,0,0-.05.021l-.711.712a.071.071,0,0,0-.021.049v2.791l-.681.681a.32.32,0,0,0-.226-.094.323.323,0,1,0,.3.215l.723-.723a.07.07,0,0,0,.02-.049v-2.791l.671-.67h.7a.07.07,0,0,0,.05-.021l1.876-1.876a.071.071,0,0,0,.021-.05v-3.684a.071.071,0,0,0-.021-.05l-3.248-3.247c-.053.012-.106.025-.16.038l3.288,3.287Z" transform="translate(-685.995 -350.014)" fill="#61c2d8"/>
          <path id="Path_890" data-name="Path 890" d="M750.814,380.431a.322.322,0,1,0,.1.233.314.314,0,0,0-.021-.113l.34-.34a.07.07,0,0,0,.021-.05v-5.651l-.141-.1v5.725Z" transform="translate(-721.091 -369.437)" fill="#61c2d8"/>
          <path id="Path_891" data-name="Path 891" d="M755.764,382.454a.323.323,0,1,0,.393-.314v-5.909l-.141-.1v6.012a.325.325,0,0,0-.253.314" transform="translate(-725.552 -370.834)" fill="#61c2d8"/>
          <path id="Path_892" data-name="Path 892" d="M746.652,386.581a.319.319,0,0,0-.172-.051.323.323,0,1,0,.323.323.317.317,0,0,0-.051-.173l2.289-2.288a.069.069,0,0,0,.021-.05v-6.667l-.141-.1v6.741Z" transform="translate(-717.753 -372.007)" fill="#61c2d8"/>
          <path id="Path_893" data-name="Path 893" d="M690.184,369.674l.678.678a.07.07,0,0,0,.05.021h1.243a6.365,6.365,0,0,1,.533.546v1.849l-.719.719a.319.319,0,0,0-.2-.07.323.323,0,1,0,.323.323.312.312,0,0,0-.035-.143l.75-.75a.071.071,0,0,0,.02-.05v-1.906a.07.07,0,0,0-.018-.047c-.552-.612-.608-.612-.642-.612H690.94l-.637-.637v-6.041l-.058.042-.082.059v5.969a.07.07,0,0,0,.021.05" transform="translate(-672.301 -360.627)" fill="#61c2d8"/>
          <path id="Path_894" data-name="Path 894" d="M599.6,363.8a.323.323,0,1,0-.305-.425h-5.4c.011.05.018.1.031.149h5.354a.323.323,0,0,0,.318.275" transform="translate(-594.156 -360.306)" fill="#61c2d8"/>
          <path id="Path_895" data-name="Path 895" d="M692.05,368.182l.484.484a.069.069,0,0,0,.049.021h1.44l.7.7v.795a.069.069,0,0,0,.021.05l.16.16a.315.315,0,0,0-.051.173.323.323,0,1,0,.323-.323.319.319,0,0,0-.172.051l-.14-.14v-.795a.07.07,0,0,0-.021-.05l-.742-.742a.069.069,0,0,0-.05-.021h-1.439l-.443-.443v-5.882l-.141.1v5.811a.07.07,0,0,0,.021.05" transform="translate(-673.815 -359.545)" fill="#61c2d8"/>
          <path id="Path_896" data-name="Path 896" d="M601.136,373.118a.323.323,0,1,0-.314-.393h-3.179l.044.091.025.05h3.11a.325.325,0,0,0,.314.253" transform="translate(-597.197 -367.866)" fill="#61c2d8"/>
          <path id="Path_897" data-name="Path 897" d="M597.879,374.3l.025.05-.025-.05" transform="translate(-597.389 -369.348)" fill="#61c2d8"/>
          <path id="Path_898" data-name="Path 898" d="M597.643,373.816h0l.045.091-.045-.091" transform="translate(-597.197 -368.958)" fill="#61c2d8"/>
          <path id="Path_899" data-name="Path 899" d="M675.762,419.248a.323.323,0,1,0,.323.323.324.324,0,0,0-.323-.323" transform="translate(-660.348 -405.837)" fill="#61c2d8"/>
          <path id="Path_900" data-name="Path 900" d="M667.46,441.16a.323.323,0,1,0-.141,0v1.267a.071.071,0,0,0,.021.05l.815.815a.07.07,0,0,0,.05.021h3.9a.323.323,0,1,0,0-.141h-3.87l-.774-.774Z" transform="translate(-653.552 -423.106)" fill="#61c2d8"/>
          <path id="Path_901" data-name="Path 901" d="M623.594,448.319a.323.323,0,1,0-.314-.393H619.9c0,.047.006.094.008.141h3.376a.325.325,0,0,0,.314.253" transform="translate(-615.26 -428.911)" fill="#61c2d8"/>
          <path id="Path_902" data-name="Path 902" d="M646.1,447.673a.323.323,0,1,0,.323.323.323.323,0,0,0-.323-.323" transform="translate(-636.268 -428.911)" fill="#61c2d8"/>
          <path id="Path_903" data-name="Path 903" d="M664.884,453.73a.323.323,0,1,0-.141,0V455a.07.07,0,0,0,.021.05l.164.164c.061-.006.123-.009.184-.015l-.228-.228Z" transform="translate(-651.461 -433.31)" fill="#61c2d8"/>
          <path id="Path_904" data-name="Path 904" d="M739.52,369.5V372.5l-1.579,1.579v3.586l.618.618a.329.329,0,1,0,.093-.118l-.561-.562v-3.462l1.579-1.579v-3.005l.231-.231-.122-.089-.236.236Z" transform="translate(-711.084 -365.242)" fill="#61c2d8"/>
          <path id="Path_905" data-name="Path 905" d="M636.334,379.8a.321.321,0,0,0-.169.049l-.762-.762h-4.5a.323.323,0,1,0,0,.149h4.436l.718.719a.319.319,0,0,0-.049.169.323.323,0,1,0,.323-.323" transform="translate(-623.681 -373.033)" fill="#61c2d8"/>
          <path id="Path_906" data-name="Path 906" d="M724.324,401.524a.324.324,0,0,0-.323.323.32.32,0,0,0,.05.171l-.616.615a.328.328,0,1,0,.1.107l.617-.618a.317.317,0,0,0,.167.048.323.323,0,0,0,0-.646" transform="translate(-698.908 -391.45)" fill="#61c2d8"/>
          <path id="Path_907" data-name="Path 907" d="M767.706,404.388a.323.323,0,1,0,0,.149h.609l.159-.149Z" transform="translate(-734.729 -393.572)" fill="#61c2d8"/>
          <path id="Path_908" data-name="Path 908" d="M786.665,399.187l.229-.229-.122-.089-.318.318a1.914,1.914,0,0,1,.211,0" transform="translate(-750.465 -389.294)" fill="#61c2d8"/>
          <path id="Path_909" data-name="Path 909" d="M707.186,447.991a.323.323,0,1,0-.323.323.319.319,0,0,0,.169-.049l.392.393.149-.063-.436-.436a.321.321,0,0,0,.049-.169" transform="translate(-685.595 -428.907)" fill="#61c2d8"/>
          <path id="Path_910" data-name="Path 910" d="M654.133,450.17v-1.7a.323.323,0,1,0-.149,0v1.549h-.654l-.989.989.2.009.848-.848Z" transform="translate(-641.598 -429.042)" fill="#61c2d8"/>
          <path id="Path_911" data-name="Path 911" d="M766.417,385.953a.319.319,0,0,0-.039.151.326.326,0,1,0,.138-.264l-.5-.5v-2.685l-.15-.109V385.4Z" transform="translate(-733.75 -376.042)" fill="#61c2d8"/>
          <path id="Path_912" data-name="Path 912" d="M742.245,417.88l1-1a.319.319,0,0,0,.169.049.323.323,0,1,0-.323-.323.319.319,0,0,0,.049.169l-1.043,1.043v1.314l.53.53.122-.09-.5-.5Z" transform="translate(-714.457 -403.43)" fill="#61c2d8"/>
          <path id="Path_913" data-name="Path 913" d="M717.531,396.463v-1.129l1.9-1.9a.319.319,0,0,0,.172.051.327.327,0,1,0-.276-.158L717.4,395.25l-.022.022v1.191a.323.323,0,1,0,.149,0" transform="translate(-694.194 -384.4)" fill="#61c2d8"/>
          <path id="Path_914" data-name="Path 914" d="M734.466,360.588a.323.323,0,1,0,.4-.313v-2.164l-.149-.11v2.274a.323.323,0,0,0-.248.313" transform="translate(-708.264 -356.12)" fill="#61c2d8"/>
          <path id="Path_915" data-name="Path 915" d="M708.873,366l-1.243-1.243a.319.319,0,0,0,.049-.169.323.323,0,1,0-.323.323.32.32,0,0,0,.169-.049l1.2,1.2v2.595l-1.206,1.206a.32.32,0,0,0-.163-.046.325.325,0,1,0,.271.148l1.247-1.247Z" transform="translate(-685.994 -361.202)" fill="#61c2d8"/>
          <path id="Path_916" data-name="Path 916" d="M664.462,371.192h-1.394l-1.264-1.253c-.065.007-.131.011-.2.015l1.4,1.388h1.6l0-.072c.028-.942.032-2.7.024-2.964l-.148.069c0,.384-.01,2.325-.023,2.818" transform="translate(-649.121 -364.484)" fill="#61c2d8"/>
          <path id="Path_917" data-name="Path 917" d="M599.59,358.139h-6.02c-.008.047-.012.1-.017.149h6.234l-.2-.149" transform="translate(-593.877 -356.232)" fill="#61c2d8"/>
          <path id="Path_918" data-name="Path 918" d="M684.022,369.1v5.374a.069.069,0,0,0,.021.049l1.3,1.3a.071.071,0,0,0,.05.021h.44a.323.323,0,1,0,0-.141h-.411l-1.263-1.263v-5.37a.064.064,0,0,0-.017-.045l-.236-.388-.119.077Z" transform="translate(-667.128 -364.756)" fill="#61c2d8"/>
          <path id="Path_919" data-name="Path 919" d="M599.324,354.618h-4.876c-.023.047-.045.1-.066.149h5.166c-.075-.051-.15-.1-.224-.149" transform="translate(-594.551 -353.373)" fill="#61c2d8"/>
          <path id="Path_920" data-name="Path 920" d="M595.561,369.5" transform="translate(-595.507 -365.456)" fill="#61c2d8"/>
          <path id="Path_921" data-name="Path 921" d="M595.365,368.039l.015.032h2.093a.324.324,0,1,0,.013-.149h-2.167c.016.04.028.076.046.117" transform="translate(-595.31 -363.993)" fill="#61c2d8"/>
          <path id="Path_922" data-name="Path 922" d="M595.561,369.5l.015.032-.015-.032" transform="translate(-595.507 -365.456)" fill="#61c2d8"/>
          <path id="Path_923" data-name="Path 923" d="M679.338,443.487l-1.027,1.027h-4.417a.323.323,0,1,0,0,.15h4.479l1.027-1.027h3.292v.578l.15-.077v-.65Z" transform="translate(-658.578 -425.513)" fill="#61c2d8"/>
          <path id="Path_924" data-name="Path 924" d="M775.549,395.883a.323.323,0,1,0,.323.323.32.32,0,0,0-.049-.169l.96-.96-.122-.09-.943.943a.321.321,0,0,0-.169-.049" transform="translate(-741.351 -386.144)" fill="#61c2d8"/>
        </g>
      </g>
      
    </g>
    
  </g>

</svg>