<svg xmlns="http://www.w3.org/2000/svg" width="38.039" height="35.244" viewBox="0 0 38.039 35.244">
  <g id="management" transform="translate(0 -18.814)">
    <path id="Path_100711" data-name="Path 100711" d="M34.771,39.913a.558.558,0,0,0-.649.908A6.676,6.676,0,0,1,35.405,50.5a8.286,8.286,0,0,0-2.729-3.043,3.162,3.162,0,1,0-4.869,0A8.287,8.287,0,0,0,25.079,50.5a6.682,6.682,0,0,1,7.236-10.588.558.558,0,0,0,.346-1.061,7.8,7.8,0,0,0-8.647,2.73l-4.428-2.858V34.388A7.8,7.8,0,1,0,14.594,20.2a.558.558,0,1,0,.635.918,6.679,6.679,0,0,1,8.961,9.732A8.286,8.286,0,0,0,21.461,27.8a3.162,3.162,0,1,0-4.869,0,8.287,8.287,0,0,0-2.729,3.043,6.675,6.675,0,0,1-.133-8.308.558.558,0,0,0-.884-.681,7.724,7.724,0,0,0-1.616,4.754,7.807,7.807,0,0,0,7.239,7.777v4.329l-4.446,2.87a7.8,7.8,0,1,0-7.916,12.3.558.558,0,1,0,.241-1.09,6.686,6.686,0,0,1-2.879-1.437A7.179,7.179,0,0,1,6.558,48.04a.562.562,0,0,0,.06-.943,2.045,2.045,0,1,1,2.389,0,.562.562,0,0,0,.06.943,7.18,7.18,0,0,1,3.082,3.3,6.65,6.65,0,0,1-3.737,1.585.558.558,0,0,0,.05,1.114l.051,0A7.795,7.795,0,0,0,14.63,42.524l4.4-2.838,4.38,2.827a7.8,7.8,0,1,0,11.364-2.6ZM12.975,50.5a8.286,8.286,0,0,0-2.729-3.042,3.162,3.162,0,1,0-4.869,0,8.286,8.286,0,0,0-2.741,3.065l-.028-.032a6.682,6.682,0,1,1,10.366.01Zm4.8-22.1a.562.562,0,0,0,.06-.943,2.045,2.045,0,1,1,2.389,0,.562.562,0,0,0,.06.943,7.18,7.18,0,0,1,3.08,3.3,6.667,6.667,0,0,1-8.668,0,7.179,7.179,0,0,1,3.08-3.3ZM30.242,52.941a6.652,6.652,0,0,1-4.334-1.6,7.179,7.179,0,0,1,3.08-3.3.562.562,0,0,0,.06-.943,2.046,2.046,0,1,1,2.389,0,.562.562,0,0,0,.06.943,7.179,7.179,0,0,1,3.08,3.3A6.651,6.651,0,0,1,30.242,52.941Z" fill="#fff"/>
  </g>
</svg>
