<svg xmlns="http://www.w3.org/2000/svg" xmlns:xlink="http://www.w3.org/1999/xlink" width="363.57" height="247.801" viewBox="0 0 363.57 247.801">
  <defs>
    <radialGradient id="radial-gradient" cx="-0.292" cy="1.986" r="2.595" gradientTransform="matrix(-6.072, 0, 0, 1, -6.081, 0)" gradientUnits="objectBoundingBox">
      <stop offset="0" stop-color="#fff"/>
      <stop offset="0.133" stop-color="#fff" stop-opacity="0.98"/>
      <stop offset="0.262" stop-color="#fff" stop-opacity="0.941"/>
      <stop offset="0.39" stop-color="#fff" stop-opacity="0.851"/>
      <stop offset="0.517" stop-color="#fff" stop-opacity="0.741"/>
      <stop offset="0.644" stop-color="#fff" stop-opacity="0.588"/>
      <stop offset="0.77" stop-color="#fff" stop-opacity="0.42"/>
      <stop offset="0.894" stop-color="#fff" stop-opacity="0.2"/>
      <stop offset="1" stop-color="#fff" stop-opacity="0"/>
    </radialGradient>
  </defs>
  <g id="Group_88298" data-name="Group 88298" transform="translate(0 0)">
    <path id="Path_101057" data-name="Path 101057" d="M10.144,44.608.617,34.043l-.05-.056L0,0,.335.007.9,33.841l9.527,10.565.05.056.355,21.3-.335-.007Z" transform="translate(169.683)" fill="url(#radial-gradient)"/>
    <path id="Path_101058" data-name="Path 101058" d="M106.656,53.178,126.787,72.89l-.256.251L106.51,53.535l-31.023-.563L56.625,34.5l-.055-.054-.319-16.9L43.457,5.015,3.3,4.286.02,1.074,0,0,.368.007.386.931l3.061,3L43.6,4.657l12.959,12.69.055.054.319,16.9,18.7,18.309Z" transform="translate(45.033)" fill="url(#radial-gradient)"/>
    <path id="Path_101059" data-name="Path 101059" d="M19.533,19.47,1.366,1.6A.846.846,0,0,1,.9,1.725.9.9,0,0,1,.016.854.824.824,0,0,1,.868.016a.9.9,0,0,1,.885.87.808.808,0,0,1-.131.459L19.678,19.111l20.1.366L57.894,37.3l-.255.252L39.63,19.836Z" transform="translate(98.367 43.401)" fill="url(#radial-gradient)"/>
    <path id="Path_101060" data-name="Path 101060" d="M43.89,59.027a.815.815,0,0,1,.46-.13.9.9,0,0,1,.874.883.825.825,0,0,1-.842.851.9.9,0,0,1-.873-.883.839.839,0,0,1,.129-.465L26.7,42.155l-16-.3L.633,31.684l-.054-.055L0,0,.363.007.939,31.484l9.9,10.008,16,.3Z" transform="translate(126.019)" fill="url(#radial-gradient)"/>
    <path id="Path_101061" data-name="Path 101061" d="M.921,31.5l22.69,23.45a.789.789,0,0,1,.453-.131.9.9,0,0,1,.859.888.821.821,0,0,1-.828.856.9.9,0,0,1-.859-.888.859.859,0,0,1,.127-.468L.619,31.7l-.053-.055-.2-11.1,8.994-9.3L9.164.175l.357.007.2,11.223L.727,20.7Z" transform="translate(149.807 0)" fill="url(#radial-gradient)"/>
    <path id="Path_101062" data-name="Path 101062" d="M45.66,47.912a.823.823,0,0,1,.83-.665.9.9,0,0,1,.878.879.825.825,0,0,1-.847.848.9.9,0,0,1-.855-.7l-18.7-.347L10.3,31.248l-.054-.055L9.882,11.457l-9.8-9.81L.029,1.592,0,0,.365.007.392,1.447l9.8,9.81.054.055.365,19.737,16.5,16.519Z" transform="translate(99.119)" fill="url(#radial-gradient)"/>
    <path id="Path_101063" data-name="Path 101063" d="M42.109.725l22.463,20.9,72.458,1.248,12.533,11.658-.257.24L136.884,23.211,64.426,21.962,41.963,1.067.007.345,0,0Z" transform="translate(0 50.208)" fill="url(#radial-gradient)"/>
    <path id="Path_101064" data-name="Path 101064" d="M35.388.644,35.442.6l47.075.791,23.554,21.37,28.612.481.007.336-28.765-.483L82.37,1.72,35.6.935l-7.737,7.02L27.812,8,.154,7.537.147,7.2l27.5.462Z" transform="translate(0 88.719)" fill="url(#radial-gradient)"/>
    <path id="Path_101065" data-name="Path 101065" d="M54.482,14.589l9.68,9.065,32.52.564.007.347L64.016,24l-9.68-9.065L14.961,14.25,1.376,1.53a.884.884,0,0,1-.469.123A.887.887,0,0,1,.016.819a.811.811,0,0,1,.858-.8.887.887,0,0,1,.891.834.749.749,0,0,1-.132.44L15.107,13.906Z" transform="translate(38 94.367)" fill="url(#radial-gradient)"/>
    <path id="Path_101066" data-name="Path 101066" d="M51.384,11.86l38.273.631a.82.82,0,0,1,.843-.6.871.871,0,0,1,.893.795.8.8,0,0,1-.86.766.9.9,0,0,1-.869-.63l-38.426-.634L38.641.968.007.33,0,0,38.788.64Z" transform="translate(0 102.002)" fill="url(#radial-gradient)"/>
    <path id="Path_101067" data-name="Path 101067" d="M1.745,1.045A.827.827,0,0,1,.9,1.69.9.9,0,0,1,.016.837.818.818,0,0,1,.873.016a.907.907,0,0,1,.865.675l19.85.353L42.394,21.005l35.7.634L100.44,43.081l16.519.294.007.354-16.672-.3L77.945,21.991l-35.7-.634L21.441,1.4Z" transform="translate(17.724 59.874)" fill="url(#radial-gradient)"/>
    <path id="Path_101068" data-name="Path 101068" d="M31.726,1.248l.054-.05,10.742.187a.824.824,0,0,1,.841-.631.888.888,0,0,1,.891.835.812.812,0,0,1-.859.805.9.9,0,0,1-.867-.661L31.94,1.548,21.817,11.038l-.054.049L.211,10.714.2,10.366l21.4.372Z" transform="translate(0 71.781)" fill="url(#radial-gradient)"/>
    <path id="Path_101069" data-name="Path 101069" d="M33.694,37.892,63.2,66.971l36.542.667a.823.823,0,0,1,.842-.727.9.9,0,0,1,.884.871.824.824,0,0,1-.852.839A.9.9,0,0,1,99.779,68l-36.725-.67L33.549,38.251l-20.028-.366-13-12.807L.47,25.024,0,0,.367.007.834,24.881,13.666,37.526Z" transform="translate(13.984)" fill="url(#radial-gradient)"/>
    <path id="Path_101070" data-name="Path 101070" d="M67.8,60.381a.84.84,0,0,1,.425-.109.9.9,0,0,1,.881.877.825.825,0,0,1-.849.845.9.9,0,0,1-.88-.877.824.824,0,0,1,.154-.5l-31.9-31.778L9.206,28.355.417,19.6l-.054-.054L0,0,.366.007.726,19.4l8.625,8.592,26.423.487Z" transform="translate(25.076)" fill="url(#radial-gradient)"/>
    <path id="Path_101071" data-name="Path 101071" d="M39.135,1.392,50.4,12.531l.054.054.364,19.476L68.6,49.637a.838.838,0,0,1,.465-.129.9.9,0,0,1,.883.873.824.824,0,0,1-.851.841.9.9,0,0,1-.883-.873.815.815,0,0,1,.13-.46L50.513,32.259l-.054-.054-.364-19.476L38.99,1.752,1.733,1.07A.826.826,0,0,1,.9,1.73.9.9,0,0,1,.016.857.824.824,0,0,1,.867.016a.906.906,0,0,1,.86.691Z" transform="translate(37.07 10.772)" fill="url(#radial-gradient)"/>
    <path id="Path_101072" data-name="Path 101072" d="M9.873,38.8a.905.905,0,0,1-.715-1.36L.544,28.3l-.052-.055L0,0,.349.007.838,28.1,9.4,37.187a.76.76,0,0,1,.442-.131.889.889,0,0,1,.839.89A.813.813,0,0,1,9.873,38.8Z" transform="translate(138.776)" fill="url(#radial-gradient)"/>
    <path id="Path_101073" data-name="Path 101073" d="M12.155,43.05a.89.89,0,0,1,.842.89.814.814,0,0,1-.811.858.89.89,0,0,1-.841-.89.876.876,0,0,1,.124-.469L.609,31.95l-.052-.055L0,0,.35.007.9,31.748,11.711,43.182A.761.761,0,0,1,12.155,43.05Z" transform="translate(117.897)" fill="url(#radial-gradient)"/>
    <path id="Path_101074" data-name="Path 101074" d="M.87.016A.906.906,0,0,1,1.734.7L8.087.813l9.763,9.5,7.373.133L29,14.12l-.256.249-3.67-3.57L17.7,10.666l-9.762-9.5-6.2-.112A.826.826,0,0,1,.9,1.71.9.9,0,0,1,.016.847.822.822,0,0,1,.87.016Z" transform="translate(107.323 77.59)" fill="url(#radial-gradient)"/>
    <path id="Path_101075" data-name="Path 101075" d="M.873.015A.907.907,0,0,1,1.738.69l27.329.485,18.9,18.115,6.052.107a.826.826,0,0,1,.84-.644.894.894,0,0,1,.889.852.818.818,0,0,1-.857.821.906.906,0,0,1-.865-.675l-6.2-.11L28.921,1.526,1.745,1.044a.827.827,0,0,1-.84.645A.894.894,0,0,1,.016.836.818.818,0,0,1,.873.015Z" transform="translate(69.584 76.03)" fill="url(#radial-gradient)"/>
    <path id="Path_101076" data-name="Path 101076" d="M40.05,1.54a.817.817,0,0,1-.857.818.905.905,0,0,1-.865-.672L27.1,1.488,15.537,12.517l-.054.05L1.964,12.329a.826.826,0,0,1-.84.642.893.893,0,0,1-.889-.849.817.817,0,0,1,.857-.818.905.905,0,0,1,.866.672l13.367.236L26.883,1.183l.054-.051,11.384.2a.825.825,0,0,1,.84-.642A.893.893,0,0,1,40.05,1.54Z" transform="translate(10.614 79.497)" fill="url(#radial-gradient)"/>
    <path id="Path_101077" data-name="Path 101077" d="M82.156,5.717,69.827,17.79l.319,16.9-18.177,17.8-.053.052-31.023-.563L1.6,70.875l-.266-.26L20.681,51.671l.053-.052,31.023.563L69.775,34.538l-.319-16.9L81.944,5.4,82,5.353l40.156.728,2.95-2.888-.017-.925.368.007.02,1.074-3.161,3.1Z" transform="translate(191.745)" fill="url(#radial-gradient)"/>
    <path id="Path_101078" data-name="Path 101078" d="M18.089,19.135l.053-.052,20.1.366L55.64,2.329a.859.859,0,0,1-.148-.464.824.824,0,0,1,.852-.838.9.9,0,0,1,.885.87.824.824,0,0,1-.853.839.9.9,0,0,1-.471-.146L38.452,19.762l-.053.052-20.1-.366L.947,36.523l-.265-.261Z" transform="translate(205.073 45.4)" fill="url(#radial-gradient)"/>
    <path id="Path_101079" data-name="Path 101079" d="M34.973,42.31l-16-.3L2.647,58.515a.89.89,0,0,1,.147.47.825.825,0,0,1-.842.851.9.9,0,0,1-.873-.883.824.824,0,0,1,.841-.85.865.865,0,0,1,.465.148l16.38-16.557.052-.053,16,.3L44.358,32.3,43.782.82l.363.007.579,31.629-9.7,9.8Z" transform="translate(188.966)" fill="url(#radial-gradient)"/>
    <path id="Path_101080" data-name="Path 101080" d="M37.393,31.7,21.337,47.773l-.053.052-18.7-.347a.824.824,0,0,1-.83.665.9.9,0,0,1-.878-.88.825.825,0,0,1,.846-.847.9.9,0,0,1,.855.7l18.552.344,15.9-15.918L36.661,11.8l9.5-9.506L46.129.855l.365.007.029,1.592-9.5,9.506Z" transform="translate(213.513)" fill="url(#radial-gradient)"/>
    <path id="Path_101081" data-name="Path 101081" d="M85.385,22.273l-.053.049L12.874,21.074.9,32.21l-.267-.249L12.66,20.776l.054-.049,72.458,1.248L106.765,1.89l.054-.049,42.11.725.007.345-41.956-.723Z" transform="translate(214.001 54.213)" fill="url(#radial-gradient)"/>
    <path id="Path_101082" data-name="Path 101082" d="M98.666,1.994,51.9,1.208,29.253,21.753,29.2,21.8.435,21.317l-.007-.336,28.612.481L51.685.918l.054-.048,47.075.791L106.9,8.995l27.5.462.007.336L106.75,9.329Z" transform="translate(228.881 92.992)" fill="url(#radial-gradient)"/>
    <path id="Path_101083" data-name="Path 101083" d="M40.448,11.962l-.054.047L1.968,11.375a.821.821,0,0,1-.844.6.871.871,0,0,1-.892-.8.8.8,0,0,1,.86-.766.9.9,0,0,1,.869.629l38.273.631L52.319.912l.054-.048L91.16,1.5l.007.33L52.533,1.2Z" transform="translate(272.161 107.055)" fill="url(#radial-gradient)"/>
    <path id="Path_101084" data-name="Path 101084" d="M74.709,21.934l-35.7-.634L17.529,41.911l-.054.051L.8,41.665.8,41.311l16.519.294L38.8,20.993l.054-.051,35.7.634,20-19.185.053-.051,19.85.353a.826.826,0,0,1,.84-.645.894.894,0,0,1,.889.853.818.818,0,0,1-.856.822.906.906,0,0,1-.865-.675L94.76,2.7l-20,19.185Z" transform="translate(228.881 63.828)" fill="url(#radial-gradient)"/>
    <path id="Path_101085" data-name="Path 101085" d="M12.337,1.207,1.748,1.023a.824.824,0,0,1-.841.632A.887.887,0,0,1,.016.82a.811.811,0,0,1,.858-.8.9.9,0,0,1,.867.661L12.484.863l10.559,9.9,21.4.372.007.347L22.9,11.107Z" transform="translate(319.121 77.679)" fill="url(#radial-gradient)"/>
    <path id="Path_101086" data-name="Path 101086" d="M88.122,39.247l-20.028-.366-28.38,27.97-.053.052-36.725-.67a.825.825,0,0,1-.815.59.9.9,0,0,1-.884-.871.824.824,0,0,1,.852-.84.9.9,0,0,1,.87.759l36.542.667L67.882,38.569l.053-.052,20.028.366L100.329,26.7,99.862,1.823l.367.007.47,25.024L88.176,39.2Z" transform="translate(248.103 0)" fill="url(#radial-gradient)"/>
    <path id="Path_101087" data-name="Path 101087" d="M59.835,29.289,33.412,28.8,2.668,59.423a.879.879,0,0,1,.173.5.825.825,0,0,1-.849.845.9.9,0,0,1-.88-.877.825.825,0,0,1,.848-.845.888.888,0,0,1,.43.125L33.2,28.486l.053-.052,26.423.487,8.311-8.279-.36-19.395.366.007L68.357,20.8l-8.469,8.436Z" transform="translate(269.371 0)" fill="url(#radial-gradient)"/>
    <path id="Path_101088" data-name="Path 101088" d="M3.9,10.059l7.373.133,9.354-9.1.054-.052,6.354.114A.825.825,0,0,1,27.874.5a.9.9,0,0,1,.887.863.822.822,0,0,1-.855.832.905.905,0,0,1-.863-.683l-6.2-.112-9.354,9.1-.054.051L4.061,10.42.524,13.861.259,13.6Z" transform="translate(225.843 79.805)" fill="url(#radial-gradient)"/>
    <path id="Path_101089" data-name="Path 101089" d="M2.676,55.277a.821.821,0,0,1-.828.856.9.9,0,0,1-.859-.888.82.82,0,0,1,.828-.855.838.838,0,0,1,.458.148l21.865-22.6-.193-10.8-9.281-9.592-.053-.055L14.412.276l.357.007.2,11.07,9.281,9.592L24.3,21l.2,11.1L2.531,54.8A.909.909,0,0,1,2.676,55.277Z" transform="translate(185.407)" fill="url(#radial-gradient)"/>
    <path id="Path_101090" data-name="Path 101090" d="M2.3,37.782a.813.813,0,0,1-.809.858.889.889,0,0,1-.839-.891.813.813,0,0,1,.808-.858.807.807,0,0,1,.447.149l8.252-8.76L9.675.19,10.024.2l.492,28.243L2.164,37.307A.935.935,0,0,1,2.3,37.782Z" transform="translate(210.362)" fill="url(#radial-gradient)"/>
    <path id="Path_101091" data-name="Path 101091" d="M2.416,43.733a.814.814,0,0,1-.811.858.89.89,0,0,1-.841-.89.814.814,0,0,1,.811-.858.808.808,0,0,1,.448.149L12.437,31.974,11.882.233l.35.007.558,31.9L2.275,43.259A.928.928,0,0,1,2.416,43.733Z" transform="translate(229.033 0)" fill="url(#radial-gradient)"/>
    <path id="Path_101092" data-name="Path 101092" d="M68.2,2.962a.905.905,0,0,1-.859-.691L30.079,1.589l-10.7,10.578.364,19.476L2.5,48.684a.867.867,0,0,1,.148.465.825.825,0,0,1-.851.841.9.9,0,0,1-.883-.873.824.824,0,0,1,.851-.841.888.888,0,0,1,.47.146L19.373,31.486l-.364-19.476L29.868,1.275l.053-.052,37.409.685a.825.825,0,0,1,.834-.66.9.9,0,0,1,.883.873A.824.824,0,0,1,68.2,2.962Z" transform="translate(256.535 10.772)" fill="url(#radial-gradient)"/>
    <path id="Path_101093" data-name="Path 101093" d="M53.684,1.966,26.507,1.484,8.346,18.889l-.054.051-6.2-.11a.827.827,0,0,1-.84.645.894.894,0,0,1-.889-.852.818.818,0,0,1,.856-.821.906.906,0,0,1,.866.674l6.051.107L26.294,1.178l.054-.051,27.329.485a.826.826,0,0,1,.84-.644.894.894,0,0,1,.889.852.818.818,0,0,1-.857.821A.906.906,0,0,1,53.684,1.966Z" transform="translate(236.897 79.167)" fill="url(#radial-gradient)"/>
    <path id="Path_101094" data-name="Path 101094" d="M95.362,1.654a.887.887,0,0,1,.891.834.811.811,0,0,1-.858.8.936.936,0,0,1-.475-.14L81.883,15.361l-.054.049-39.375-.683-9.275,8.686-.054.049L.452,22.9l-.007-.347,32.52.564,9.275-8.685.054-.05,39.375.683L94.653,2.9a.8.8,0,0,1-.149-.444A.811.811,0,0,1,95.362,1.654Z" transform="translate(228.881 97.956)" fill="url(#radial-gradient)"/>
    <path id="Path_101095" data-name="Path 101095" d="M1.739.687l11.383.2,12.05,11.5,13.367.236a.825.825,0,0,1,.84-.642.893.893,0,0,1,.89.848.817.817,0,0,1-.857.818.9.9,0,0,1-.865-.672l-13.52-.239-12.05-11.5L1.745,1.04a.826.826,0,0,1-.84.642A.893.893,0,0,1,.016.833.817.817,0,0,1,.873.015.905.905,0,0,1,1.739.687Z" transform="translate(312.672 85.087)" fill="url(#radial-gradient)"/>
    <path id="Path_101096" data-name="Path 101096" d="M44.636,67.429l12.33-12.074-.319-16.9,18.177-17.8.053-.052,31.023.563L125.193,2.271l.266.26L106.111,21.475l-.053.052-31.023-.563L57.017,38.607l.319,16.9L44.848,67.741l-.053.052L4.639,67.064l-2.95,2.888.017.925-.368-.007L1.318,69.8,4.48,66.7Z" transform="translate(45.033 174.656)" fill="url(#radial-gradient)"/>
    <path id="Path_101097" data-name="Path 101097" d="M10.266,18.336l16,.3,16.327-16.5a.89.89,0,0,1-.146-.47A.825.825,0,0,1,43.287.81a.9.9,0,0,1,.874.883.825.825,0,0,1-.842.85.865.865,0,0,1-.465-.148L26.474,18.953l-.052.052-16-.3L.882,28.35l.576,31.477-.363-.007L.516,28.191l9.7-9.8Z" transform="translate(129.365 187.155)" fill="url(#radial-gradient)"/>
    <path id="Path_101098" data-name="Path 101098" d="M9.99,17.292,26.047,1.217l.053-.052,18.7.347a.823.823,0,0,1,.83-.665.9.9,0,0,1,.878.88.825.825,0,0,1-.847.847.9.9,0,0,1-.855-.7L26.257,1.533l-15.9,15.918.365,19.737-9.5,9.506.027,1.44-.365-.007L.86,46.535l9.5-9.506Z" transform="translate(102.673 198.812)" fill="url(#radial-gradient)"/>
    <path id="Path_101099" data-name="Path 101099" d="M64.183,12.5l.053-.049L136.695,13.7,148.666,2.561l.267.249L136.909,13.994l-.053.049L64.4,12.8,42.8,32.881l-.054.049L.64,32.205.634,31.86l41.956.723Z" transform="translate(0 158.817)" fill="url(#radial-gradient)"/>
    <path id="Path_101100" data-name="Path 101100" d="M36.023,21.579l46.767.786L105.436,1.821l.054-.048,28.765.483.007.336L105.65,2.112,83,22.656l-.054.048-47.075-.791-8.084-7.334-27.5-.462L.281,13.78l27.658.465Z" transform="translate(0 131.236)" fill="url(#radial-gradient)"/>
    <path id="Path_101101" data-name="Path 101101" d="M50.961,1.5l.054-.047,38.426.634a.82.82,0,0,1,.843-.6.871.871,0,0,1,.893.8.8.8,0,0,1-.86.766.9.9,0,0,1-.869-.629L51.175,1.79,39.09,12.555l-.054.048L.248,11.962l-.007-.33,38.634.637Z" transform="translate(0 127.28)" fill="url(#radial-gradient)"/>
    <path id="Path_101102" data-name="Path 101102" d="M42.256,21.8l35.7.634L99.437,1.818l.054-.05,16.672.3.007.354L99.65,2.125,78.166,22.736l-.054.051-35.7-.634-20,19.185-.053.051-19.85-.353a.827.827,0,0,1-.84.645.9.9,0,0,1-.889-.853.818.818,0,0,1,.856-.822.907.907,0,0,1,.865.675l19.7.35,20-19.185Z" transform="translate(17.724 140.244)" fill="url(#radial-gradient)"/>
    <path id="Path_101103" data-name="Path 101103" d="M32.112,10.274l10.589.184a.824.824,0,0,1,.841-.632.888.888,0,0,1,.891.835.812.812,0,0,1-.859.8.9.9,0,0,1-.867-.661l-10.742-.187L21.406.719.007.347,0,0,21.552.374Z" transform="translate(0 158.641)" fill="url(#radial-gradient)"/>
    <path id="Path_101104" data-name="Path 101104" d="M13.361,29.389l20.028.366L61.77,1.785l.053-.052,36.725.67a.824.824,0,0,1,.814-.59.9.9,0,0,1,.884.871.824.824,0,0,1-.852.84.9.9,0,0,1-.87-.759L61.982,2.1,33.6,30.068l-.053.052L13.52,29.754,1.154,41.94l.467,24.874-.367-.007L.784,41.783,13.308,29.441Z" transform="translate(13.984 179.165)" fill="url(#radial-gradient)"/>
    <path id="Path_101105" data-name="Path 101105" d="M9.287,32.721l26.422.487L66.454,2.587a.879.879,0,0,1-.173-.5.825.825,0,0,1,.848-.845.9.9,0,0,1,.881.877.825.825,0,0,1-.849.845.887.887,0,0,1-.429-.124L35.921,33.524l-.053.052L9.445,33.088,1.134,41.368l.36,19.395-.366-.007L.765,41.21l8.469-8.436Z" transform="translate(25.076 185.791)" fill="url(#radial-gradient)"/>
    <path id="Path_101106" data-name="Path 101106" d="M25.106,4.315l-7.373-.133-9.354,9.1-.054.052L1.972,13.22a.826.826,0,0,1-.838.652.9.9,0,0,1-.887-.863.822.822,0,0,1,.854-.832.906.906,0,0,1,.863.683l6.2.112,9.354-9.1.054-.051,7.373.133L28.483.513l.266.259Z" transform="translate(108.719 153.622)" fill="url(#radial-gradient)"/>
    <path id="Path_101107" data-name="Path 101107" d="M22.262,1.3A.821.821,0,0,1,23.09.442a.9.9,0,0,1,.859.888.82.82,0,0,1-.828.855.839.839,0,0,1-.458-.148L.8,24.634l.193,10.8,9.281,9.592.053.055.2,11.223-.357-.007-.2-11.07L.69,35.63l-.053-.055-.2-11.1,21.968-22.7A.91.91,0,0,1,22.262,1.3Z" transform="translate(153.226 191.227)" fill="url(#radial-gradient)"/>
    <path id="Path_101108" data-name="Path 101108" d="M8.392,1.039A.813.813,0,0,1,9.2.181a.889.889,0,0,1,.839.891.795.795,0,0,1-1.255.709L.532,10.541l.489,28.09-.349-.007L.181,10.38,8.533,1.514A.935.935,0,0,1,8.392,1.039Z" transform="translate(142.512 208.98)" fill="url(#radial-gradient)"/>
    <path id="Path_101109" data-name="Path 101109" d="M10.6,1.082a.814.814,0,0,1,.811-.858.89.89,0,0,1,.842.891.8.8,0,0,1-1.259.709L.574,12.84l.555,31.742-.35-.007L.222,12.68,10.736,1.556A.927.927,0,0,1,10.6,1.082Z" transform="translate(121.525 202.987)" fill="url(#radial-gradient)"/>
    <path id="Path_101110" data-name="Path 101110" d="M1.555,36.535a.9.9,0,0,1-.884-.87.824.824,0,0,1,.852-.839.9.9,0,0,1,.471.145L19.447,17.8l.053-.052,20.1.366L56.952,1.038l.265.261L39.81,18.426l-.053.052-20.1-.366L2.259,35.233a.858.858,0,0,1,.148.464A.824.824,0,0,1,1.555,36.535Z" transform="translate(100.598 164.84)" fill="url(#radial-gradient)"/>
    <path id="Path_101111" data-name="Path 101111" d="M1.77,48.276a.906.906,0,0,1,.86.691l37.257.682,10.7-10.578L50.223,19.6,67.461,2.555a.866.866,0,0,1-.148-.465.824.824,0,0,1,.851-.841.9.9,0,0,1,.883.873.824.824,0,0,1-.851.841.888.888,0,0,1-.471-.146L50.592,19.753l.364,19.476L40.1,49.963l-.053.052L2.636,49.33a.826.826,0,0,1-.835.66.9.9,0,0,1-.883-.873A.824.824,0,0,1,1.77,48.276Z" transform="translate(37.07 185.791)" fill="url(#radial-gradient)"/>
    <path id="Path_101112" data-name="Path 101112" d="M2.081,18.476l27.176.482L47.419,1.553l.054-.051,6.2.11a.826.826,0,0,1,.84-.645.9.9,0,0,1,.889.852.818.818,0,0,1-.857.821.905.905,0,0,1-.865-.674l-6.052-.107L29.471,19.264l-.054.051L2.088,18.83a.827.827,0,0,1-.84.644.894.894,0,0,1-.889-.852.818.818,0,0,1,.856-.821A.906.906,0,0,1,2.081,18.476Z" transform="translate(70.907 148.193)" fill="url(#radial-gradient)"/>
    <path id="Path_101113" data-name="Path 101113" d="M1.327,22.911a.887.887,0,0,1-.891-.834.811.811,0,0,1,.858-.8.936.936,0,0,1,.475.139L14.806,9.2l.054-.049,39.375.683L63.51,1.152l.054-.049,32.673.567.007.347-32.52-.564-9.275,8.685-.054.05L15.02,9.5,2.036,21.663a.8.8,0,0,1,.149.444A.811.811,0,0,1,1.327,22.911Z" transform="translate(38 125.28)" fill="url(#radial-gradient)"/>
    <path id="Path_101114" data-name="Path 101114" d="M38.546,12.976l-11.384-.2-12.05-11.5L1.745,1.04a.826.826,0,0,1-.84.642A.893.893,0,0,1,.016.833.817.817,0,0,1,.873.015a.905.905,0,0,1,.866.672L15.258.927l12.05,11.5,11.231.2a.825.825,0,0,1,.84-.642.893.893,0,0,1,.89.849.817.817,0,0,1-.857.818A.905.905,0,0,1,38.546,12.976Z" transform="translate(10.614 149.051)" fill="url(#radial-gradient)"/>
    <path id="Path_101115" data-name="Path 101115" d="M20.136,19.968,0,.255.261,0,20.281,19.61l31.023.563,18.862,18.47.055.054.319,16.9L83.335,68.131l40.156.728,3.281,3.213.02,1.074-.368-.007-.017-.925-3.061-3L83.19,68.488,70.23,55.8l-.055-.054-.319-16.9-18.7-18.309Z" transform="translate(191.745 174.656)" fill="url(#radial-gradient)"/>
    <path id="Path_101116" data-name="Path 101116" d="M18.124,18.084,0,.257.26,0l18.009,17.72,20.1.366L56.533,35.965A.846.846,0,0,1,57,35.837a.9.9,0,0,1,.885.87.824.824,0,0,1-.853.838.9.9,0,0,1-.884-.87.809.809,0,0,1,.131-.458L38.221,18.45Z" transform="translate(207.304 166.839)" fill="url(#radial-gradient)"/>
    <path id="Path_101117" data-name="Path 101117" d="M1.349,1.619a.815.815,0,0,1-.46.13A.9.9,0,0,1,.016.867.825.825,0,0,1,.857.016.9.9,0,0,1,1.731.9a.839.839,0,0,1-.129.465L18.545,18.491l16,.3L44.606,28.963l.054.055.579,31.629-.363-.007L44.3,29.163,34.4,19.155l-16-.3Z" transform="translate(192.312 187.155)" fill="url(#radial-gradient)"/>
    <path id="Path_101118" data-name="Path 101118" d="M24.017,25.078,1.327,1.628a.789.789,0,0,1-.453.131A.9.9,0,0,1,.016.872.821.821,0,0,1,.843.016.9.9,0,0,1,1.7.9a.858.858,0,0,1-.127.468L24.318,24.877l.053.055.2,11.1-8.994,9.3.2,11.07-.357-.007-.2-11.223,8.994-9.3Z" transform="translate(188.825 191.227)" fill="url(#radial-gradient)"/>
    <path id="Path_101119" data-name="Path 101119" d="M1.724,1.078a.824.824,0,0,1-.83.665A.9.9,0,0,1,.016.864.825.825,0,0,1,.862.016a.9.9,0,0,1,.855.7l18.7.347L37.083,17.741l.054.055L37.5,37.532l9.8,9.81.054.055.029,1.592-.365-.007-.027-1.441-9.8-9.81-.054-.055L36.774,17.94,20.276,1.422Z" transform="translate(217.067 198.812)" fill="url(#radial-gradient)"/>
    <path id="Path_101120" data-name="Path 101120" d="M85,13.15,12.538,11.9,0,.244.262,0,12.684,11.56l72.458,1.248,22.463,20.9,41.956.723.007.345-42.11-.725Z" transform="translate(214.001 162.823)" fill="url(#radial-gradient)"/>
    <path id="Path_101121" data-name="Path 101121" d="M99.3,22.93l-.054.048-47.075-.791L28.619.817.007.336,0,0,28.765.483l23.554,21.37,46.767.786,7.737-7.019.054-.048,27.658.465.007.336-27.5-.462Z" transform="translate(228.881 135.509)" fill="url(#radial-gradient)"/>
    <path id="Path_101122" data-name="Path 101122" d="M42.207,9.976,32.527.911.007.347,0,0,32.673.567l9.68,9.065,39.375.683,13.584,12.72a.907.907,0,0,1,1.36.711.811.811,0,0,1-.858.8.887.887,0,0,1-.891-.834.748.748,0,0,1,.131-.44L81.582,10.659Z" transform="translate(228.881 128.869)" fill="url(#radial-gradient)"/>
    <path id="Path_101123" data-name="Path 101123" d="M40.025,1.606,1.752.975a.821.821,0,0,1-.844.6A.871.871,0,0,1,.016.781.8.8,0,0,1,.876.014a.9.9,0,0,1,.869.63l38.426.634,12.6,11.22,38.634.637.007.33-38.788-.64Z" transform="translate(272.161 132.333)" fill="url(#radial-gradient)"/>
    <path id="Path_101124" data-name="Path 101124" d="M115.221,42.684a.826.826,0,0,1,.84-.645.894.894,0,0,1,.889.853.818.818,0,0,1-.856.822.906.906,0,0,1-.865-.675l-19.85-.353L74.572,22.724l-35.7-.634L16.526.648.007.354,0,0,16.672.3,39.021,21.738l35.7.634L95.524,42.334Z" transform="translate(228.881 144.198)" fill="url(#radial-gradient)"/>
    <path id="Path_101125" data-name="Path 101125" d="M12.723,10.234l-.054.05L1.927,10.1a.824.824,0,0,1-.841.631A.887.887,0,0,1,.2,9.894a.811.811,0,0,1,.858-.805.9.9,0,0,1,.867.661l10.589.184L22.632.443l.054-.049L44.238.768l.007.347L22.845.744Z" transform="translate(319.121 164.539)" fill="url(#radial-gradient)"/>
    <path id="Path_101126" data-name="Path 101126" d="M67.79,30.745,38.284,1.666,1.742,1A.823.823,0,0,1,.9,1.727.9.9,0,0,1,.016.855.824.824,0,0,1,.868.016a.9.9,0,0,1,.837.621l36.725.67,29.5,29.079,20.028.366,13,12.808.054.054.47,25.024-.367-.007-.467-24.874L87.818,31.11Z" transform="translate(248.103 179.165)" fill="url(#radial-gradient)"/>
    <path id="Path_101127" data-name="Path 101127" d="M1.321,1.629A.84.84,0,0,1,.9,1.738.9.9,0,0,1,.016.861.825.825,0,0,1,.864.016a.9.9,0,0,1,.881.877.825.825,0,0,1-.154.5l31.9,31.777,26.422.487,8.789,8.755.054.054.363,19.546L68.756,62,68.4,42.608l-8.625-8.592-26.423-.487Z" transform="translate(269.371 185.791)" fill="url(#radial-gradient)"/>
    <path id="Path_101128" data-name="Path 101128" d="M30.83,49.846,19.562,38.707l-.055-.054-.364-19.476L1.364,1.6A.837.837,0,0,1,.9,1.73.9.9,0,0,1,.016.857.824.824,0,0,1,.867.016.9.9,0,0,1,1.75.889a.816.816,0,0,1-.131.46l17.834,17.63.054.054.364,19.476,11.1,10.977,37.257.682a.825.825,0,0,1,.834-.66.9.9,0,0,1,.883.873.824.824,0,0,1-.851.841.905.905,0,0,1-.859-.691Z" transform="translate(256.535 185.791)" fill="url(#radial-gradient)"/>
    <path id="Path_101129" data-name="Path 101129" d="M.823.016a.889.889,0,0,1,.839.891.883.883,0,0,1-.124.469l8.615,9.146.052.055L10.7,38.821l-.349-.007-.489-28.09L1.3,1.633a.759.759,0,0,1-.442.131A.889.889,0,0,1,.015.875.813.813,0,0,1,.823.016Z" transform="translate(214.097 208.98)" fill="url(#radial-gradient)"/>
    <path id="Path_101130" data-name="Path 101130" d="M.856,1.764A.89.89,0,0,1,.015.874.814.814,0,0,1,.826.016a.89.89,0,0,1,.842.891.877.877,0,0,1-.125.469L12.4,12.864l.052.055.558,31.9-.35-.007-.555-31.742L1.3,1.633A.759.759,0,0,1,.856,1.764Z" transform="translate(232.662 202.987)" fill="url(#radial-gradient)"/>
    <path id="Path_101131" data-name="Path 101131" d="M28.137,14.358a.905.905,0,0,1-.863-.683l-6.354-.114-9.762-9.5L3.785,3.931,0,.254.261,0l3.67,3.57,7.373.133,9.763,9.5,6.2.112a.825.825,0,0,1,.837-.653.9.9,0,0,1,.887.863A.822.822,0,0,1,28.137,14.358Z" transform="translate(227.239 155.837)" fill="url(#radial-gradient)"/>
    <path id="Path_101132" data-name="Path 101132" d="M54.892,20.426a.906.906,0,0,1-.865-.674L26.7,19.267,7.8,1.152,1.745,1.044a.826.826,0,0,1-.84.644A.894.894,0,0,1,.016.837.818.818,0,0,1,.873.016.906.906,0,0,1,1.738.69l6.2.11,18.9,18.115L54.02,19.4a.826.826,0,0,1,.84-.644.894.894,0,0,1,.889.852A.818.818,0,0,1,54.892,20.426Z" transform="translate(238.22 151.329)" fill="url(#radial-gradient)"/>
    <path id="Path_101133" data-name="Path 101133" d="M.235,12.122a.817.817,0,0,1,.857-.818.905.905,0,0,1,.866.672l11.231.2L24.747,1.145,24.8,1.1l13.52.239a.825.825,0,0,1,.84-.642.894.894,0,0,1,.89.849.817.817,0,0,1-.857.818.9.9,0,0,1-.865-.672L24.96,1.451,13.4,12.48l-.054.051-11.383-.2a.826.826,0,0,1-.84.642A.893.893,0,0,1,.235,12.122Z" transform="translate(312.672 154.642)" fill="url(#radial-gradient)"/>
    <path id="Path_101134" data-name="Path 101134" d="M1.793,47.074a.9.9,0,0,1,.655.867.809.809,0,0,1-.8.859.884.884,0,0,1-.828-.892.824.824,0,0,1,.626-.842L1.3,38.685l9.121-9.824-.108-6.318L3.785,15.508l-.051-.055L3.47.069l.344.007.262,15.23,6.533,7.036.051.055.114,6.625L1.652,38.846Z" transform="translate(183.478 0)" fill="url(#radial-gradient)"/>
    <path id="Path_101135" data-name="Path 101135" d="M12.508,31.784.366,18.592l-.051-.056L0,0,.341.007.654,18.39,12.8,31.582l.051.055L13.1,46.229,5.983,53.956l.2,11.66-.341-.007L5.64,53.8l7.112-7.727Z" transform="translate(183.013 182.04)" fill="url(#radial-gradient)"/>
    <path id="Path_101136" data-name="Path 101136" d="M9.529.191,9.871.2l.265,15.552L.783,25.888l.166,9.719L13.443,49.151l.051.056.282,16.555-.342-.007-.28-16.4L.661,35.81.61,35.754.439,25.728,9.792,15.59Z" transform="translate(170.042 182.04)" fill="url(#radial-gradient)"/>
    <path id="Path_101137" data-name="Path 101137" d="M26.84,8.151l107.294,1.6.007.3L26.693,8.447,16.855.549.007.3,0,0,17,.253Z" transform="translate(0 111.992)" fill="url(#radial-gradient)"/>
    <path id="Path_101138" data-name="Path 101138" d="M107.3,1.894.007.3,0,0,107.448,1.6l9.838,7.9,16.848.251.007.3-17-.253Z" transform="translate(229.429 125.903)" fill="url(#radial-gradient)"/>
  </g>
</svg>
