<svg xmlns="http://www.w3.org/2000/svg" width="35" height="35">
  <g id="Group_88485" data-name="Group 88485">
    
    
    
    <g id="Group_88525" data-name="Group 88525">
      
      <g id="target" transform=" ">
        <path id="Path_104601" data-name="Path 104601" d="M9.842,23.873a.5.5,0,0,1-.4-.806,12.155,12.155,0,0,1,1.025-1.177.5.5,0,0,1,.717.7,11.083,11.083,0,0,0-.939,1.078.5.5,0,0,1-.4.2Z" transform="translate(-2.751 -9.81)" fill="#b89535"/>
        <path id="Path_104602" data-name="Path 104602" d="M17.509,41.315A13.735,13.735,0,0,1,3.8,28.387a.5.5,0,1,1,1.007-.06,12.727,12.727,0,1,0,6.36-11.76.5.5,0,1,1-.464-.894,13.727,13.727,0,1,1,6.807,25.643Z" transform="translate(0 -5.89)" fill="#b89535"/>
        <path id="Path_104603" data-name="Path 104603" d="M5.224,32.632a.487.487,0,0,1-.128-.017A.5.5,0,0,1,4.737,32a12.207,12.207,0,0,1,.535-1.57.5.5,0,0,1,.931.385,11.161,11.161,0,0,0-.492,1.44A.5.5,0,0,1,5.224,32.632Z" transform="translate(-0.458 -13.962)" fill="#b89535"/>
        <path id="Path_104604" data-name="Path 104604" d="M22,41.251A9.155,9.155,0,1,1,31.155,32.1,9.155,9.155,0,0,1,22,41.251Zm0-17.3A8.148,8.148,0,1,0,30.148,32.1,8.148,8.148,0,0,0,22,23.949Z" transform="translate(-4.492 -10.398)" fill="#b89535"/>
        <path id="Path_104605" data-name="Path 104605" d="M26.513,41.186A4.582,4.582,0,1,1,31.094,36.6a4.582,4.582,0,0,1-4.582,4.582Zm0-8.154a3.575,3.575,0,1,0,3.575,3.575A3.575,3.575,0,0,0,26.513,33.032Z" transform="translate(-9.003 -14.907)" fill="#b89535"/>
        <path id="Path_104606" data-name="Path 104606" d="M31.754,26.988a.5.5,0,0,1-.352-.863L45.016,12.8a.5.5,0,1,1,.7.719L32.106,26.844a.5.5,0,0,1-.352.144Z" transform="translate(-13.63 -5.289)" fill="#b89535"/>
        <path id="Path_104607" data-name="Path 104607" d="M58.65,10.408h-.028l-3.865-.217a.5.5,0,0,1-.474-.465l-.309-4.1a.5.5,0,0,1,.148-.4l3.1-3.079a.5.5,0,0,1,.849.261l.655,3.376,3.033.629a.5.5,0,0,1,.252.85l-3,2.994a.5.5,0,0,1-.355.151Zm-3.4-1.2,3.2.18L60.64,7.211,58.194,6.7a.5.5,0,0,1-.392-.4l-.543-2.782L54.994,5.773Z" transform="translate(-24.913)" fill="#b89535"/>
        <path id="Path_104608" data-name="Path 104608" d="M44.3,65.9a.5.5,0,0,1-.411-.212L41.65,62.531a.5.5,0,1,1,.821-.583l1.968,2.773,2.122-1.3L44.641,60.5a.5.5,0,0,1,.842-.554l2.2,3.361a.5.5,0,0,1-.158.7l-2.966,1.816A.5.5,0,0,1,44.3,65.9Z" transform="translate(-18.745 -28.657)" fill="#b89535"/>
        <path id="Path_104609" data-name="Path 104609" d="M11.627,65.9a.5.5,0,0,1-.263-.074L8.4,64.012a.5.5,0,0,1-.158-.7l2.2-3.362a.5.5,0,1,1,.842.554l-1.92,2.925,2.122,1.3,1.968-2.773a.5.5,0,0,1,.821.583l-2.24,3.157a.5.5,0,0,1-.411.212Z" transform="translate(-2.164 -28.658)" fill="#b89535"/>
      </g>
    </g>
    
  </g>
</svg>