<svg xmlns="http://www.w3.org/2000/svg" width="70.332" height="80.379" viewBox="0 0 70.332 80.379">
  <g id="pdf" transform="translate(0)">
    <path id="Path_1040" data-name="Path 1040" d="M101.024,0A5.038,5.038,0,0,0,96,5.024V75.356a5.038,5.038,0,0,0,5.024,5.024h50.237a5.038,5.038,0,0,0,5.024-5.024V20.095L136.19,0Z" transform="translate(-85.953)" fill="#fff"/>
    <path id="Path_1041" data-name="Path 1041" d="M357.024,20.095h15.071L352,0V15.071A5.038,5.038,0,0,0,357.024,20.095Z" transform="translate(-301.763)" fill="#b0b7bd"/>
    <path id="Path_1042" data-name="Path 1042" d="M399.071,143.071,384,128h15.071Z" transform="translate(-328.739 -107.905)" fill="#e9ecef"/>
    <path id="Path_1043" data-name="Path 1043" d="M92.285,267.63a2.519,2.519,0,0,1-2.512,2.512H34.512A2.519,2.519,0,0,1,32,267.63V242.512A2.519,2.519,0,0,1,34.512,240H89.773a2.519,2.519,0,0,1,2.512,2.512Z" transform="translate(-32 -202.322)" fill="#b89535"/>
    <path id="Path_1047" data-name="Path 1047" d="M143.725,418.512H96v2.512h47.725a2.519,2.519,0,0,0,2.512-2.512V416A2.519,2.519,0,0,1,143.725,418.512Z" transform="translate(-85.953 -350.692)" fill="#cad1d8"/>
    <g id="Group_26501" data-name="Group 26501" transform="translate(8.123 45.884)">
      <path id="Path_930" data-name="Path 930" d="M85.131,309.37a1.259,1.259,0,0,1-1.387-1.246V296.718a1.364,1.364,0,0,1,1.387-1.246h4.6c9.178,0,8.975,13.9.178,13.9ZM86.4,297.921v9H89.73c5.423,0,5.662-9,0-9Z" transform="translate(-83.744 -294.97)" fill="#fff"/>
      <path id="Path_931" data-name="Path 931" d="M187.333,306.873a7.013,7.013,0,0,1-7.573-7.232c0-4.941,3.856-7.37,7.573-7.37,3.514.178,7.189,2.61,7.189,7.37A7,7,0,0,1,187.333,306.873Zm-.221-11.989a4.761,4.761,0,1,0,4.78,4.76A4.6,4.6,0,0,0,187.112,294.884Z" transform="translate(-164.686 -292.272)" fill="#fff"/>
      <path id="Path_932" data-name="Path 932" d="M288.848,300.377c0-3.876,2.432-7.209,7.051-7.209a6.563,6.563,0,0,1,4.6,1.788,1.3,1.3,0,1,1-1.788,1.886,3.466,3.466,0,0,0-2.811-1.1,4.34,4.34,0,0,0-4.576,4.639c0,2.492,1.464,4.78,4.576,4.78a4.691,4.691,0,0,0,3.135-1.286,1.348,1.348,0,0,1,1.846.241,1.385,1.385,0,0,1-.221,1.886,6.569,6.569,0,0,1-4.763,1.57C291.038,307.571,288.848,304.253,288.848,300.377Z" transform="translate(-256.648 -293.027)" fill="#fff"/>
    </g>
  </g>
</svg>
