<svg xmlns="http://www.w3.org/2000/svg" width="27.544" height="35.836" viewBox="0 0 27.544 35.836">
  <g id="prioritize" transform="translate(-6.85 0.15)">
    <path id="Path_104804" data-name="Path 104804" d="M9.369,10.661H31.875a2.369,2.369,0,0,0,2.369-2.369V2.369A2.369,2.369,0,0,0,31.875,0H9.369A2.369,2.369,0,0,0,7,2.369V8.292A2.369,2.369,0,0,0,9.369,10.661ZM8.185,2.369A1.185,1.185,0,0,1,9.369,1.185H31.875A1.185,1.185,0,0,1,33.06,2.369V8.292a1.185,1.185,0,0,1-1.185,1.185H9.369A1.185,1.185,0,0,1,8.185,8.292Z" fill="#b89535" stroke="#f9f7f2" stroke-width="0.3" style="fill: #fff;stroke: #fff;"/>
    <path id="Path_104805" data-name="Path 104805" d="M33.875,29.292V23.369A2.369,2.369,0,0,0,31.506,21H11.369A2.369,2.369,0,0,0,9,23.369v5.923a2.369,2.369,0,0,0,2.369,2.369H31.506A2.369,2.369,0,0,0,33.875,29.292Zm-1.185,0a1.185,1.185,0,0,1-1.185,1.185H11.369a1.185,1.185,0,0,1-1.185-1.185V23.369a1.185,1.185,0,0,1,1.185-1.185H31.506a1.185,1.185,0,0,1,1.185,1.185Z" transform="translate(-0.815 -8.562)" fill="#b89535" stroke="#f9f7f2" stroke-width="0.3" style="fill: #fff;&#13;&#10;    stroke: #fff;"/>
    <path id="Path_104806" data-name="Path 104806" d="M13.369,42A2.369,2.369,0,0,0,11,44.369v5.923a2.369,2.369,0,0,0,2.369,2.369H31.137a2.369,2.369,0,0,0,2.369-2.369V44.369A2.369,2.369,0,0,0,31.137,42Zm18.953,2.369v5.923a1.185,1.185,0,0,1-1.185,1.185H13.369a1.185,1.185,0,0,1-1.185-1.185V44.369a1.185,1.185,0,0,1,1.185-1.185H31.137A1.185,1.185,0,0,1,32.322,44.369Z" transform="translate(-1.631 -17.125)" fill="#b89535" stroke="#f9f7f2" stroke-width="0.3" style="fill: #fff;&#13;&#10;    stroke: #fff;"/>
    <path id="Path_104807" data-name="Path 104807" d="M27.592,8.738a.592.592,0,0,0,0,1.185h2.369a.592.592,0,1,0,0-1.185h-.592V4.592a.592.592,0,0,0-1.011-.419L27.174,5.358a.592.592,0,1,0,.838.838l.173-.174V8.738Z" transform="translate(-8.155 -1.631)" fill="#b89535" stroke="#f9f7f2" stroke-width="0.3" style="fill: #fff;&#13;&#10;    stroke: #fff;"/>
    <path id="Path_104808" data-name="Path 104808" d="M30.145,29.738h-1.61a3.18,3.18,0,0,0,1.61-2.665,2.073,2.073,0,0,0-4.146,0,.592.592,0,1,0,1.185,0,.888.888,0,0,1,1.777,0c0,.958-.651,1.425-2.132,2.392-.178.118-.37.242-.567.373a.592.592,0,0,0,.33,1.085h3.554a.592.592,0,0,0,0-1.185Z" transform="translate(-7.746 -10.193)" fill="#b89535" stroke="#f9f7f2" stroke-width="0.3" style="fill: #fff;&#13;&#10;    stroke: #fff;"/>
    <path id="Path_104809" data-name="Path 104809" d="M28.891,46a1.783,1.783,0,0,0-1.54.888.592.592,0,0,0,1.025.592.592.592,0,1,1,.515.888.592.592,0,1,0,0,1.185.592.592,0,1,1-.514.888.592.592,0,0,0-1.025.592,1.777,1.777,0,1,0,2.862-2.073A1.777,1.777,0,0,0,28.891,46Z" transform="translate(-8.269 -18.756)" fill="#b89535" stroke="#f9f7f2" stroke-width="0.3" style="fill: #fff;&#13;&#10;    stroke: #fff;"/>
  </g>
</svg>