<svg xmlns="http://www.w3.org/2000/svg">
  <g id="Group_88199" data-name="Group 88199" transform="translate(-1056 -1400.75)" style="/* transform: none; */transform: translate(-1174px, -1400.75px);">
    
    <g id="_x3C_Group_x3E_" transform="translate(1177.149 1401.5)">
      <path id="_x37_" d="M82.283,40.158a17.111,17.111,0,1,1-12.1,5.011,17.078,17.078,0,0,1,12.1-5.011ZM92.652,46.9a14.67,14.67,0,1,0,4.295,10.375A14.618,14.618,0,0,0,92.652,46.9Z" transform="translate(-23.061 -15.805)" fill="#b89535" stroke="#f9f7f2" stroke-width="0.5"/>
      <path id="_x36_" d="M43.856,18.6a1.222,1.222,0,1,1,0-2.444H55.841a4.592,4.592,0,0,1,3.247,1.352h.007v.006a4.584,4.584,0,0,1,1.352,3.247V26.5A1.222,1.222,0,1,1,58,26.5V20.762a2.149,2.149,0,0,0-.63-1.525l-.007-.006a2.154,2.154,0,0,0-1.524-.63H43.856ZM58,68.8a1.222,1.222,0,1,1,2.443,0V79.615a4.614,4.614,0,0,1-4.6,4.6H10.455a4.614,4.614,0,0,1-4.6-4.6V20.762a4.614,4.614,0,0,1,4.6-4.6H22.44a1.222,1.222,0,0,1,0,2.444H10.455A2.159,2.159,0,0,0,8.3,20.762V79.614a2.159,2.159,0,0,0,2.154,2.16H55.84a2.146,2.146,0,0,0,1.525-.636v.006A2.171,2.171,0,0,0,58,79.614Z" transform="translate(0 -6.475)" fill="#b89535" stroke="#f9f7f2" stroke-width="0.5"/>
      <path id="_x35_" d="M52.605,25.939a1.225,1.225,0,0,1,0-2.45h4.58a1.224,1.224,0,0,1,1.221,1.222v4.975a1.222,1.222,0,0,1-2.444,0V25.94H52.605Zm3.357,45.337a1.222,1.222,0,1,1,2.444,0v9.67a1.224,1.224,0,0,1-1.221,1.221H16.237a1.226,1.226,0,0,1-1.229-1.221V24.711a1.226,1.226,0,0,1,1.229-1.222h3.986a1.225,1.225,0,0,1,0,2.45H17.459V79.724h38.5Z" transform="translate(-3.56 -9.325)" fill="#b89535" stroke="#f9f7f2" stroke-width="0.5"/>
      <path id="_x34_" d="M34.656,6.277h3.487v-2A4.766,4.766,0,0,1,39.544.9l.006.006A4.77,4.77,0,0,1,47.7,4.277v2h3.487a3.667,3.667,0,0,1,2.586,1.073l.006.006A3.67,3.67,0,0,1,54.85,9.941v4.53a2.412,2.412,0,0,1-.722,1.722l.006.006a2.461,2.461,0,0,1-1.727.716H33.434a2.429,2.429,0,0,1-1.721-.716h-.006a2.462,2.462,0,0,1-.716-1.728V9.941a3.665,3.665,0,0,1,3.666-3.665Zm3.487,2.444H34.656a1.208,1.208,0,0,0-.858.358,1.23,1.23,0,0,0-.364.864v4.53H52.406V9.943a1.221,1.221,0,0,0-1.222-1.222H47.7A2.433,2.433,0,0,1,45.969,8V8a2.42,2.42,0,0,1-.716-1.721v-2A2.339,2.339,0,0,0,42.92,1.944a2.3,2.3,0,0,0-1.642.685,2.319,2.319,0,0,0-.685,1.647v2A2.44,2.44,0,0,1,39.871,8a2.411,2.411,0,0,1-1.729.716Z" transform="translate(-9.772)" fill="#b89535" stroke="#f9f7f2" stroke-width="0.5"/>
      <path id="_x33_" d="M86.126,56.588a1.222,1.222,0,1,1-2.444,0V55.459a4.806,4.806,0,0,1,1.778-3.673,6.352,6.352,0,0,1,8.035,0,4.8,4.8,0,0,1,1.778,3.673v1.153a5.769,5.769,0,0,1-.574,2.543,6.527,6.527,0,0,1-1.654,2.1l-1.092.938A4.05,4.05,0,0,0,90.909,63.5a3.3,3.3,0,0,0-.327,1.488v1.154a1.222,1.222,0,1,1-2.444,0V64.988a5.806,5.806,0,0,1,.573-2.549,6.526,6.526,0,0,1,1.654-2.1l1.092-.938A4.076,4.076,0,0,0,92.5,58.094a3.359,3.359,0,0,0,.327-1.481V55.459a2.411,2.411,0,0,0-.907-1.809,3.955,3.955,0,0,0-4.888,0,2.391,2.391,0,0,0-.907,1.809Z" transform="translate(-30.254 -19.768)" fill="#b89535" stroke="#f9f7f2" stroke-width="0.5"/>
      <circle id="_x32_" cx="1.222" cy="1.222" r="1.222" transform="translate(58.068 49.664)" fill="#b89535" stroke="#f9f7f2" stroke-width="0.5"/>
      <path id="_x31_" d="M29.466,41.057a1.222,1.222,0,0,1,0-2.444h1.969a1.222,1.222,0,0,1,0,2.444Zm8.628,0a1.222,1.222,0,0,1,0-2.444H52.264a1.222,1.222,0,0,1,0,2.444ZM29.466,78.308a1.222,1.222,0,1,1,0-2.444h1.969a1.222,1.222,0,1,1,0,2.444Zm8.628,0a1.222,1.222,0,1,1,0-2.444H57.88a1.222,1.222,0,0,1,0,2.444Zm-8.628-7.449a1.222,1.222,0,0,1,0-2.444h1.969a1.222,1.222,0,0,1,0,2.444Zm8.628,0a1.222,1.222,0,0,1,0-2.444h10.5a1.222,1.222,0,0,1,0,2.444Zm-8.628-7.448a1.222,1.222,0,1,1,0-2.444h1.969a1.222,1.222,0,1,1,0,2.444Zm8.628,0a1.222,1.222,0,1,1,0-2.444h6.95a1.222,1.222,0,0,1,0,2.444Zm-8.628-7.45a1.225,1.225,0,0,1,0-2.451h1.969a1.225,1.225,0,0,1,0,2.451Zm8.628,0a1.225,1.225,0,0,1,0-2.451h6.95a1.225,1.225,0,0,1,0,2.451Zm-8.628-7.455a1.222,1.222,0,0,1,0-2.444h1.969a1.222,1.222,0,0,1,0,2.444Zm8.628,0a1.222,1.222,0,0,1,0-2.444h8.319a1.222,1.222,0,1,1,0,2.444Z" transform="translate(-8.705 -15.204)" fill="#b89535" stroke="#f9f7f2" stroke-width="0.5"/>
    </g>
  </g>
</svg>