<svg xmlns="http://www.w3.org/2000/svg" width="29.614" height="35.536" viewBox="0 0 29.614 35.536">
  <g id="report" transform="translate(-5)">
    <path id="Path_101281" data-name="Path 101281" d="M20.115,14.7a1.362,1.362,0,0,0-2.38,0L13.2,22.527a1.441,1.441,0,0,0,0,1.436,1.362,1.362,0,0,0,1.189.7h9.08a1.362,1.362,0,0,0,1.19-.7,1.44,1.44,0,0,0,0-1.436Zm3.512,8.676a.185.185,0,0,1-.163.1h-9.08a.185.185,0,0,1-.163-.1.244.244,0,0,1,0-.251l4.542-7.836a.181.181,0,0,1,.162-.1.183.183,0,0,1,.164.1l4.54,7.832A.243.243,0,0,1,23.627,23.373Z" transform="translate(-3.263 -5.707)" fill="#b89535" style="fill: #fff;"/>
    <path id="Path_101282" data-name="Path 101282" d="M20.115,34.7a1.362,1.362,0,0,0-2.38,0L13.2,42.527a1.441,1.441,0,0,0,0,1.436,1.362,1.362,0,0,0,1.189.7h9.08a1.362,1.362,0,0,0,1.19-.7,1.44,1.44,0,0,0,0-1.436Zm3.512,8.676a.185.185,0,0,1-.163.1h-9.08a.185.185,0,0,1-.163-.1.244.244,0,0,1,0-.251l4.542-7.836a.181.181,0,0,1,.162-.1.183.183,0,0,1,.164.1l4.54,7.832A.243.243,0,0,1,23.627,43.373Z" transform="translate(-3.263 -13.862)" fill="#b89535" style="fill: #fff;"/>
    <path id="Path_101283" data-name="Path 101283" d="M32.837,1.777h-7.7A1.777,1.777,0,0,0,23.36,0H16.253a1.777,1.777,0,0,0-1.777,1.777h-7.7A1.777,1.777,0,0,0,5,3.554V33.759a1.777,1.777,0,0,0,1.777,1.777h26.06a1.777,1.777,0,0,0,1.777-1.777V3.554A1.777,1.777,0,0,0,32.837,1.777ZM31.06,27.837H28.1a1.185,1.185,0,0,0-1.185,1.185v2.961H8.554V5.33h6.032a1.777,1.777,0,0,0,1.668,1.185H23.36A1.777,1.777,0,0,0,25.028,5.33H31.06Zm-.837,1.185L28.1,31.145V29.021ZM15.661,1.777a.592.592,0,0,1,.592-.592H23.36a.592.592,0,0,1,.592.592V4.738a.592.592,0,0,1-.592.592H16.253a.592.592,0,0,1-.592-.592ZM33.429,33.759a.592.592,0,0,1-.592.592H6.777a.592.592,0,0,1-.592-.592V3.554a.592.592,0,0,1,.592-.592h7.7V4.146H8.554A1.185,1.185,0,0,0,7.369,5.33V31.983a1.185,1.185,0,0,0,1.185,1.185H27.261a1.193,1.193,0,0,0,.837-.347l3.8-3.8a1.193,1.193,0,0,0,.347-.837V5.33A1.185,1.185,0,0,0,31.06,4.146H25.137V2.961h7.7a.592.592,0,0,1,.592.592Z" fill="#b89535" style="fill: #fff;"/>
    <path id="Path_101284" data-name="Path 101284" d="M22.592,19a.592.592,0,0,0-.592.592v1.777a.592.592,0,1,0,1.185,0V19.592A.592.592,0,0,0,22.592,19Z" transform="translate(-6.931 -7.747)" fill="#b89535" style="fill: #fff;"/>
    <path id="Path_101285" data-name="Path 101285" d="M22.592,25.594a.592.592,0,0,0-.592.592v.24a.592.592,0,1,0,1.185,0v-.24A.592.592,0,0,0,22.592,25.594Z" transform="translate(-6.931 -10.435)" fill="#b89535" style="fill: #fff;"/>
    <path id="Path_101286" data-name="Path 101286" d="M22.592,39a.592.592,0,0,0-.592.592v1.777a.592.592,0,0,0,1.185,0V39.592A.592.592,0,0,0,22.592,39Z" transform="translate(-6.931 -15.901)" fill="#b89535" style="fill: #fff;"/>
    <path id="Path_101287" data-name="Path 101287" d="M22.592,45.594a.592.592,0,0,0-.592.592v.24a.592.592,0,0,0,1.185,0v-.24A.592.592,0,0,0,22.592,45.594Z" transform="translate(-6.931 -18.59)" fill="#b89535" style="fill: #fff;"/>
    <path id="Path_101288" data-name="Path 101288" d="M34.592,16a.592.592,0,0,0,0,1.185h5.923a.592.592,0,0,0,0-1.185Z" transform="translate(-11.824 -6.524)" fill="#b89535" style="fill: #fff;"/>
    <path id="Path_101289" data-name="Path 101289" d="M40.515,20H34.592a.592.592,0,0,0,0,1.185h5.923a.592.592,0,0,0,0-1.185Z" transform="translate(-11.824 -8.155)" fill="#b89535" style="fill: #fff;"/>
    <path id="Path_101290" data-name="Path 101290" d="M34.592,25.185h2.961a.592.592,0,0,0,0-1.185H34.592a.592.592,0,0,0,0,1.185Z" transform="translate(-11.824 -9.785)" fill="#b89535" style="fill: #fff;"/>
    <path id="Path_101291" data-name="Path 101291" d="M40.515,36H34.592a.592.592,0,0,0,0,1.185h5.923a.592.592,0,0,0,0-1.185Z" transform="translate(-11.824 -14.678)" fill="#b89535" style="fill: #fff;"/>
    <path id="Path_101292" data-name="Path 101292" d="M40.515,40H34.592a.592.592,0,0,0,0,1.185h5.923a.592.592,0,0,0,0-1.185Z" transform="translate(-11.824 -16.309)" fill="#b89535" style="fill: #fff;"/>
    <path id="Path_101293" data-name="Path 101293" d="M37.554,44H34.592a.592.592,0,0,0,0,1.185h2.961a.592.592,0,1,0,0-1.185Z" transform="translate(-11.824 -17.94)" fill="#b89535" style="fill: #fff;"/>
  </g>
</svg>