<svg xmlns="http://www.w3.org/2000/svg" width="29.371" height="35.244" viewBox="0 0 29.371 35.244">
  <g id="risk" transform="translate(-4.999 -0.002)">
    <path id="Path_100703" data-name="Path 100703" d="M7.37,35.225,32,35.246a2.35,2.35,0,0,0,2.068-1.2,2.291,2.291,0,0,0-.03-2.337L27.6,20.935c.092-.1.184-.184.275-.29l2.066.592a1.011,1.011,0,0,0,1.141-.428c.117-.176.512-.854.6-1.028a1.018,1.018,0,0,0-.2-1.225L29.945,17.08a10.873,10.873,0,0,0,.389-1.452l2.1-.516a1.03,1.03,0,0,0,.765-.937c.006-.105.007-.384.007-.668s0-.563-.006-.654a1.039,1.039,0,0,0-.787-.956l-2.077-.512a10.862,10.862,0,0,0-.389-1.451l1.54-1.475a1.014,1.014,0,0,0,.2-1.212c-.1-.189-.49-.864-.59-1.013a1.022,1.022,0,0,0-1.162-.456l-2.063.592A10.151,10.151,0,0,0,26.8,5.31L27.4,3.254A1.027,1.027,0,0,0,26.953,2.1c-.173-.1-.838-.492-1.013-.582a1.023,1.023,0,0,0-1.228.193l-1.49,1.533a10.441,10.441,0,0,0-1.46-.389L21.238.764a1.033,1.033,0,0,0-.953-.759c-.2,0-.986,0-1.188,0a1.038,1.038,0,0,0-.956.779l-.516,2.071a10.429,10.429,0,0,0-1.46.389L14.678,1.713a1.02,1.02,0,0,0-1.217-.2c-.189.1-.855.485-1.04.6a1.024,1.024,0,0,0-.432,1.15l.59,2.051A10.166,10.166,0,0,0,11.514,6.37L9.45,5.777A1.008,1.008,0,0,0,8.309,6.2c-.125.186-.519.868-.6,1.03A1.017,1.017,0,0,0,7.9,8.46L9.441,9.937a10.879,10.879,0,0,0-.389,1.448l-2.1.517a1.026,1.026,0,0,0-.768.937c-.006.105-.006.384-.006.668s0,.563.005.651a1.039,1.039,0,0,0,.788.958l2.077.509a10.917,10.917,0,0,0,.389,1.452L7.9,18.556a1.012,1.012,0,0,0-.2,1.211c.1.192.492.868.59,1.014a1.019,1.019,0,0,0,1.162.455l2.063-.591c.09.1.176.2.267.294L5.337,31.684A2.291,2.291,0,0,0,5.3,34.022a2.345,2.345,0,0,0,2.068,1.2ZM12.339,19.8a1.047,1.047,0,0,0-1.057-.31l-2.044.587c-.11-.18-.322-.543-.437-.75l1.537-1.476a1.041,1.041,0,0,0,.243-1.083,9.645,9.645,0,0,1-.388-1.437,1.047,1.047,0,0,0-.767-.822L7.36,14v-.989L9.441,12.5a1.037,1.037,0,0,0,.749-.808,9.653,9.653,0,0,1,.388-1.445,1.045,1.045,0,0,0-.253-1.09L8.8,7.687c.107-.193.314-.548.438-.75l2.05.587A1.057,1.057,0,0,0,12.352,7.2,9.158,9.158,0,0,1,13.429,6.13a1.04,1.04,0,0,0,.31-1.057l-.587-2.037c.2-.117.551-.321.755-.434L15.39,4.129a1.051,1.051,0,0,0,1.08.25,9.41,9.41,0,0,1,1.469-.39,1.057,1.057,0,0,0,.807-.758l.51-2.056h.876l.518,2.072A1.057,1.057,0,0,0,21.464,4a9.3,9.3,0,0,1,1.469.392,1.047,1.047,0,0,0,1.073-.262L25.482,2.6c.2.109.562.321.754.434l-.587,2.038a1.046,1.046,0,0,0,.328,1.069,9.132,9.132,0,0,1,1.071,1.067,1.051,1.051,0,0,0,1.061.311l2.044-.587c.112.181.322.544.437.75L29.052,9.164a1.043,1.043,0,0,0-.243,1.083,9.592,9.592,0,0,1,.385,1.435,1.049,1.049,0,0,0,.767.822l2.066.509V14l-2.082.513a1.039,1.039,0,0,0-.75.809,9.565,9.565,0,0,1-.388,1.445,1.049,1.049,0,0,0,.253,1.091l1.527,1.469c-.106.192-.313.547-.438.75L28.1,19.492a1.048,1.048,0,0,0-1.069.327c-.022.026-.042.047-.063.072l-1.123-1.88a7.636,7.636,0,1,0-12.317.014l-1.116,1.862c-.026-.032-.049-.056-.076-.088ZM14.2,16.914A6.462,6.462,0,1,1,25.182,16.9l-3.441-5.761a2.381,2.381,0,0,0-4.073,0ZM6.343,32.29l12.33-20.555a1.206,1.206,0,0,1,2.057.005l12.3,20.574a1.131,1.131,0,0,1,.015,1.154,1.185,1.185,0,0,1-1.046.6L7.371,34.05a1.186,1.186,0,0,1-1.046-.605,1.131,1.131,0,0,1,.018-1.155Z" fill="#b89535"/>
    <path id="Path_100704" data-name="Path 100704" d="M28.762,38.573a1.762,1.762,0,0,0,1.762-1.762V29.762a1.762,1.762,0,0,0-3.524,0v7.049A1.762,1.762,0,0,0,28.762,38.573Zm-.587-8.811a.587.587,0,1,1,1.175,0v7.049a.587.587,0,1,1-1.175,0Z" transform="translate(-9.077 -11.552)" fill="#b89535"/>
    <path id="Path_100705" data-name="Path 100705" d="M28.762,51.524A1.762,1.762,0,1,0,27,49.762,1.762,1.762,0,0,0,28.762,51.524Zm0-2.35a.587.587,0,1,1-.587.587A.587.587,0,0,1,28.762,49.175Z" transform="translate(-9.077 -19.803)" fill="#b89535"/>
  </g>
</svg>
