<svg id="settings" xmlns="http://www.w3.org/2000/svg" width="35.244" height="35.244" viewBox="0 0 35.244 35.244">
  <g id="Group_88186" data-name="Group 88186" transform="translate(0 11.748)">
    <g id="Group_88185" data-name="Group 88185">
      <path id="Path_100707" data-name="Path 100707" d="M21.734,168.811h-.646a.578.578,0,0,1-.544-.379c-.072-.188-.149-.372-.231-.554a.579.579,0,0,1,.117-.656l.461-.461a1.766,1.766,0,0,0,0-2.49l-1.66-1.66a1.766,1.766,0,0,0-2.491,0l-.461.46a.582.582,0,0,1-.656.117c-.182-.083-.366-.16-.555-.235a.577.577,0,0,1-.381-.545v-.646A1.762,1.762,0,0,0,12.923,160h-2.35a1.762,1.762,0,0,0-1.762,1.762v.646a.578.578,0,0,1-.379.544c-.188.072-.372.149-.554.231a.581.581,0,0,1-.656-.117l-.461-.461a1.766,1.766,0,0,0-2.49,0l-1.66,1.665a1.766,1.766,0,0,0,0,2.491l.46.461a.579.579,0,0,1,.117.656c-.083.182-.16.366-.232.555a.577.577,0,0,1-.548.379H1.762A1.762,1.762,0,0,0,0,170.573v2.35a1.762,1.762,0,0,0,1.762,1.762h.646a.578.578,0,0,1,.544.379c.072.188.149.372.231.554a.579.579,0,0,1-.117.656l-.461.461a1.766,1.766,0,0,0,0,2.49l1.66,1.66a1.766,1.766,0,0,0,2.491,0l.461-.46a.582.582,0,0,1,.656-.117c.182.083.366.16.555.235a.577.577,0,0,1,.384.545v.646a1.762,1.762,0,0,0,1.762,1.762h2.35a1.762,1.762,0,0,0,1.762-1.762v-.646a.578.578,0,0,1,.379-.544c.188-.072.372-.149.554-.231a.581.581,0,0,1,.656.117l.461.461a1.767,1.767,0,0,0,2.49,0l1.66-1.66a1.766,1.766,0,0,0,0-2.491l-.46-.461a.579.579,0,0,1-.117-.656c.083-.182.16-.366.235-.554a.577.577,0,0,1,.545-.381h.646a1.762,1.762,0,0,0,1.762-1.762v-2.35A1.762,1.762,0,0,0,21.734,168.811Zm.587,4.112a.587.587,0,0,1-.587.587h-.646a1.768,1.768,0,0,0-1.645,1.136q-.093.247-.2.486a1.767,1.767,0,0,0,.352,1.971l.459.46a.587.587,0,0,1,0,.831h0l-1.66,1.66a.587.587,0,0,1-.831,0l-.461-.46a1.766,1.766,0,0,0-1.971-.352c-.159.072-.321.14-.485.2a1.768,1.768,0,0,0-1.135,1.644v.646a.587.587,0,0,1-.587.587h-2.35a.587.587,0,0,1-.587-.587v-.646a1.768,1.768,0,0,0-1.136-1.645q-.247-.093-.486-.2a1.768,1.768,0,0,0-1.971.352l-.46.459a.587.587,0,0,1-.831,0h0l-1.66-1.658a.587.587,0,0,1,0-.831l.46-.461a1.767,1.767,0,0,0,.352-1.971c-.072-.159-.14-.321-.2-.485a1.767,1.767,0,0,0-1.644-1.137H1.762a.587.587,0,0,1-.587-.587v-2.35a.587.587,0,0,1,.587-.587h.646a1.768,1.768,0,0,0,1.645-1.136q.093-.247.2-.486a1.768,1.768,0,0,0-.352-1.971l-.462-.46a.587.587,0,0,1,0-.831h0l1.66-1.66a.587.587,0,0,1,.831,0l.461.46a1.766,1.766,0,0,0,1.971.352c.159-.072.321-.14.485-.2a1.767,1.767,0,0,0,1.138-1.644v-.646a.587.587,0,0,1,.587-.587h2.35a.587.587,0,0,1,.587.587v.646a1.768,1.768,0,0,0,1.136,1.645q.247.093.486.2A1.766,1.766,0,0,0,17.1,163.9l.46-.459a.591.591,0,0,1,.831,0l1.66,1.66a.587.587,0,0,1,0,.831l-.46.461a1.768,1.768,0,0,0-.352,1.971c.072.159.14.321.2.485a1.768,1.768,0,0,0,1.644,1.135h.646a.587.587,0,0,1,.587.587v2.35Z" transform="translate(0 -160)" fill="#fff"/>
    </g>
  </g>
  <g id="Group_88188" data-name="Group 88188" transform="translate(6.458 18.209)">
    <g id="Group_88187" data-name="Group 88187">
      <path id="Path_100708" data-name="Path 100708" d="M98.523,253.052c-.006-.141-.016-.281-.033-.421s-.041-.3-.072-.446c-.021-.1-.048-.19-.073-.285q-.049-.182-.111-.358c-.029-.082-.059-.163-.089-.243a5.235,5.235,0,0,0-.259-.55c-.008-.014-.012-.028-.02-.042a5.208,5.208,0,0,0-.529-.77c-.017-.021-.036-.041-.054-.062-.081-.1-.164-.189-.252-.277-.046-.048-.094-.092-.142-.138s-.117-.109-.176-.16-.144-.122-.218-.18l-.1-.072A5.249,5.249,0,0,0,93.248,248c-.059,0-.117.009-.176.011-.125,0-.251.011-.377.023-.066.007-.133.015-.2.024a5.385,5.385,0,0,0-.569.106,5.29,5.29,0,0,0,0,10.244.135.135,0,0,1,.029.005,5.6,5.6,0,0,0,.616.117c.137.017.274.021.411.027.092,0,.176.018.272.018.167,0,.341-.011.519-.029a.577.577,0,0,0,.059-.008c.143-.016.287-.037.435-.066.059-.011.113-.026.17-.039.1-.024.206-.049.312-.08.082-.025.162-.053.243-.082s.164-.059.247-.09.153-.068.229-.1c.1-.045.2-.09.294-.143h0a6.952,6.952,0,0,0,1.505-1.087,1.85,1.85,0,0,0,.315-.385,6.27,6.27,0,0,0,.885-2.414c.016-.113.031-.227.04-.342s.014-.212.016-.318c0-.033,0-.065,0-.1C98.535,253.208,98.526,253.131,98.523,253.052Zm-1.171.385c0,.049,0,.1-.007.146-.011.142-.029.284-.053.427a4.12,4.12,0,0,1-2.064,2.878c-.073.038-.145.074-.216.107l-.049.023a4.244,4.244,0,0,1-1.071.324l-.079.012c-.073.011-.146.019-.217.026-.095.008-.19.013-.287.015h-.123a4.117,4.117,0,0,1-.416-.026l-.07-.008a4.35,4.35,0,0,1-.48-.09,4.112,4.112,0,0,1,0-7.966h0a4.255,4.255,0,0,1,1.032-.129,4.065,4.065,0,0,1,.5.034c.045.005.089.013.133.02.127.02.253.045.377.077l.121.031a4.147,4.147,0,0,1,.9.377c.045.026.089.054.134.082.093.059.183.117.271.184.048.035.1.069.142.106a4.235,4.235,0,0,1,.331.294c.042.042.08.089.12.133.068.073.133.149.2.228.043.055.085.111.126.168.059.085.117.173.17.262l.089.146a4.033,4.033,0,0,1,.2.431c.023.059.043.117.065.176.038.108.071.217.1.328.015.059.031.111.043.168a4.141,4.141,0,0,1,.075.481c0,.043,0,.086.006.129C97.355,253.164,97.358,253.3,97.352,253.436Z" transform="translate(-87.959 -248)" fill="#fff"/>
    </g>
  </g>
  <g id="Group_88190" data-name="Group 88190" transform="translate(6.407)">
    <g id="Group_88189" data-name="Group 88189">
      <path id="Path_100709" data-name="Path 100709" d="M114.336,12.335h-1.847a.573.573,0,0,1-.547-.385,12.235,12.235,0,0,0-.66-1.592.575.575,0,0,1,.113-.663l1.31-1.312a1.762,1.762,0,0,0,0-2.491l-2.5-2.493a1.762,1.762,0,0,0-2.491,0l-1.309,1.309a.575.575,0,0,1-.663.113,12.2,12.2,0,0,0-1.593-.663.573.573,0,0,1-.388-.547V1.762A1.762,1.762,0,0,0,102,0H98.476a1.762,1.762,0,0,0-1.762,1.762V3.61a.573.573,0,0,1-.385.547,12.242,12.242,0,0,0-1.592.663.574.574,0,0,1-.663-.113L92.761,3.4a1.766,1.766,0,0,0-2.491,0L87.777,5.89a1.762,1.762,0,0,0,0,2.492l1.926,1.93a.587.587,0,0,0,.832-.829L88.608,7.553a.587.587,0,0,1,0-.831L91.1,4.229a.587.587,0,0,1,.831,0l1.312,1.31a1.746,1.746,0,0,0,2.018.331,11.113,11.113,0,0,1,1.44-.6A1.747,1.747,0,0,0,97.889,3.61V1.762a.587.587,0,0,1,.587-.587H102a.587.587,0,0,1,.587.587V3.61a1.747,1.747,0,0,0,1.187,1.662,11.078,11.078,0,0,1,1.44.6,1.751,1.751,0,0,0,2.018-.332l1.312-1.309a.587.587,0,0,1,.831,0l2.493,2.493a.587.587,0,0,1,0,.83l-1.31,1.312a1.748,1.748,0,0,0-.331,2.018,11.113,11.113,0,0,1,.6,1.44,1.747,1.747,0,0,0,1.662,1.187h1.847a.587.587,0,0,1,.587.587v3.524a.587.587,0,0,1-.587.587h-1.847a1.747,1.747,0,0,0-1.662,1.187,11.069,11.069,0,0,1-.6,1.44,1.749,1.749,0,0,0,.332,2.018l1.31,1.312a.587.587,0,0,1,0,.831l-2.494,2.493a.587.587,0,0,1-.83,0l-1.93-1.926a.587.587,0,0,0-.844.817l.014.014,1.93,1.926a1.762,1.762,0,0,0,2.491,0L112.7,25.83a1.762,1.762,0,0,0,0-2.492l-1.308-1.31a.576.576,0,0,1-.113-.663,12.2,12.2,0,0,0,.663-1.593.573.573,0,0,1,.547-.388h1.847a1.762,1.762,0,0,0,1.762-1.762V14.1A1.762,1.762,0,0,0,114.336,12.335Z" transform="translate(-87.261 0)" fill="#fff"/>
    </g>
  </g>
  <g id="Group_88192" data-name="Group 88192" transform="translate(13.82 8.227)">
    <g id="Group_88191" data-name="Group 88191">
      <path id="Path_100710" data-name="Path 100710" d="M199.182,114.282a7.644,7.644,0,0,0-10.8,0,.587.587,0,0,0,.831.831,6.461,6.461,0,0,1,9.2,9.076l-.061.061a.587.587,0,0,0,.816.845l.014-.014A7.644,7.644,0,0,0,199.182,114.282Z" transform="translate(-188.219 -112.049)" fill="#fff"/>
    </g>
  </g>
</svg>
